<?xml version="1.0" encoding="UTF-8"?>
<svg version="1.1" xmlns="http://www.w3.org/2000/svg" width="2224" height="1668">
<path d="M0 0 C5.58507847 2.90044261 10.13230286 7.08916448 14.83984375 11.2109375 C15.41822998 11.71230225 15.99661621 12.21366699 16.5925293 12.73022461 C17.74073718 13.72891038 18.88056901 14.73732419 20.01098633 15.75610352 C23.20057517 18.54230461 24.12578681 19.3125 28.52734375 19.3125 C30.23512382 17.79693503 30.23512382 17.79693503 31.65234375 15.8125 C33.16015625 13.84375 33.16015625 13.84375 34.52734375 12.3125 C35.18734375 12.3125 35.84734375 12.3125 36.52734375 12.3125 C36.89859375 11.384375 36.89859375 11.384375 37.27734375 10.4375 C38.76474744 7.90891373 39.96412384 7.59410996 42.52734375 6.3125 C42.82898437 5.68859375 43.130625 5.0646875 43.44140625 4.421875 C45.41009612 0.59780115 48.61685923 -1.11714795 52.52734375 -2.6875 C57.49281514 -3.57536575 62.23716406 -3.92189494 66.78125 -1.47265625 C70.41098319 1.50539207 73.13673448 4.61374507 73.828125 9.390625 C73.83199219 10.10734375 73.83585937 10.8240625 73.83984375 11.5625 C73.85660156 12.26890625 73.87335938 12.9753125 73.890625 13.703125 C72.59876749 22.98227356 67.92186463 27.22562651 60.88867188 32.93554688 C56.39680634 36.81027681 54.82317442 39.44121002 53.98071289 45.31860352 C53.52734375 47.3125 53.52734375 47.3125 51.33984375 49.4375 C50.74171875 50.05625 50.14359375 50.675 49.52734375 51.3125 C49.55896233 54.63325016 49.55896233 54.63325016 50.52734375 58.3125 C50.84119866 59.75780103 51.15499821 61.20311408 51.46875 62.6484375 C51.73002686 63.79070801 51.73002686 63.79070801 51.99658203 64.95605469 C52.89279055 68.93498968 53.67222403 72.93688326 54.46484375 76.9375 C54.63234131 77.77297363 54.79983887 78.60844727 54.97241211 79.46923828 C58.41734004 96.68246548 61.3177634 113.89550835 63.52734375 131.3125 C65.0896875 130.51585937 65.0896875 130.51585937 66.68359375 129.703125 C81.24232568 122.45629443 96.85940124 116.03167834 113.21484375 120.8125 C114.65758969 121.29715493 116.09736478 121.79137968 117.52734375 122.3125 C117.52734375 122.9725 117.52734375 123.6325 117.52734375 124.3125 C118.10097656 124.37050781 118.67460938 124.42851563 119.265625 124.48828125 C122.53859839 125.68102285 123.69977098 127.69855737 125.71484375 130.5 C126.40964844 131.44230469 127.10445312 132.38460937 127.8203125 133.35546875 C129.60300649 136.44356795 130.17770664 138.79003662 130.52734375 142.3125 C137.00857998 140.63144124 137.00857998 140.63144124 143.02734375 137.8125 C149.93893128 133.66554748 158.57398307 131.86327247 166.52734375 133.3125 C169.90614679 134.90890694 172.67585723 136.91249885 175.52734375 139.3125 C176.33171875 139.9725 177.13609375 140.6325 177.96484375 141.3125 C183.87216743 148.87387431 182.33625321 161.29342275 181.52734375 170.3125 C179.07293802 182.12354889 171.11837117 192.42595887 164.52734375 202.3125 C173.31998756 205.49701523 182.12267235 208.01109365 191.21484375 210.1875 C199.08873633 212.09438564 206.8094472 214.21674485 214.46484375 216.875 C215.25012451 217.1436084 216.03540527 217.4122168 216.84448242 217.68896484 C222.41481109 219.6863606 227.41682383 222.3478711 232.52734375 225.3125 C233.18734375 225.6425 233.84734375 225.9725 234.52734375 226.3125 C234.52734375 226.9725 234.52734375 227.6325 234.52734375 228.3125 C236.50734375 228.6425 238.48734375 228.9725 240.52734375 229.3125 C240.52734375 229.9725 240.52734375 230.6325 240.52734375 231.3125 C241.16671875 231.395 241.80609375 231.4775 242.46484375 231.5625 C246.73275892 232.60770372 250.55842042 234.45341826 254.52734375 236.3125 C254.52734375 236.9725 254.52734375 237.6325 254.52734375 238.3125 C255.29046875 238.456875 256.05359375 238.60125 256.83984375 238.75 C259.52734375 239.3125 259.52734375 239.3125 262.52734375 240.3125 C262.52734375 240.9725 262.52734375 241.6325 262.52734375 242.3125 C263.40132812 242.41304687 264.2753125 242.51359375 265.17578125 242.6171875 C268.76546608 243.36190067 271.04060422 244.5258804 274.15234375 246.4375 C275.19519531 247.06785156 276.23804688 247.69820312 277.3125 248.34765625 C278.90384766 249.32025391 278.90384766 249.32025391 280.52734375 250.3125 C282.54492062 251.50552438 284.56569949 252.69315244 286.58984375 253.875 C288.08451172 254.74898437 288.08451172 254.74898437 289.609375 255.640625 C292.30799799 257.18682398 295.03191648 258.66405515 297.77734375 260.125 C313.61329925 268.70662328 327.99953039 278.96380946 341.62207031 290.71069336 C343.06005311 291.91963815 344.51891563 293.103809 345.98730469 294.27563477 C353.03000767 299.90616173 359.44641988 305.96031042 365.77734375 312.375 C366.72745827 313.32657774 367.67797837 314.27775069 368.62890625 315.22851562 C373.79796784 320.43015534 378.78633139 325.71853076 383.52734375 331.3125 C384.01348145 331.87686768 384.49961914 332.44123535 385.00048828 333.02270508 C386.33094061 334.5699426 387.64826194 336.1284427 388.96484375 337.6875 C389.41021484 338.20699219 389.85558594 338.72648437 390.31445312 339.26171875 C393.52734375 343.08165323 393.52734375 343.08165323 393.52734375 345.3125 C394.18734375 345.3125 394.84734375 345.3125 395.52734375 345.3125 C397.16164126 347.4069968 398.66901609 349.49032091 400.15234375 351.6875 C400.57257812 352.29078125 400.9928125 352.8940625 401.42578125 353.515625 C404.52734375 358.04712865 404.52734375 358.04712865 404.52734375 360.3125 C405.18734375 360.3125 405.84734375 360.3125 406.52734375 360.3125 C407.07519531 361.29476563 407.62304688 362.27703125 408.1875 363.2890625 C410.61306356 367.53406551 413.27975677 371.60365296 415.96484375 375.6875 C419.71823704 381.44994287 423.38699789 387.18716108 426.52734375 393.3125 C427.00558594 394.2303125 427.48382812 395.148125 427.9765625 396.09375 C434.13823033 408.13771533 438.95283463 420.67759476 443.40234375 433.4375 C443.66302643 434.18474335 443.92370911 434.93198669 444.19229126 435.70187378 C448.18706454 447.27514011 451.31341101 458.87115915 453.71484375 470.875 C453.85718445 471.58456848 453.99952515 472.29413696 454.1461792 473.02520752 C461.54458401 510.46456174 453.87450999 542.84517415 441.52734375 578.3125 C440.86734375 578.3125 440.20734375 578.3125 439.52734375 578.3125 C439.38296875 579.075625 439.23859375 579.83875 439.08984375 580.625 C438.52734375 583.3125 438.52734375 583.3125 437.52734375 586.3125 C436.86734375 586.3125 436.20734375 586.3125 435.52734375 586.3125 C435.19734375 587.9625 434.86734375 589.6125 434.52734375 591.3125 C433.86734375 591.3125 433.20734375 591.3125 432.52734375 591.3125 C432.40359375 591.89 432.27984375 592.4675 432.15234375 593.0625 C431.52085551 595.33585767 430.63876184 597.2378529 429.52734375 599.3125 C428.86734375 599.3125 428.20734375 599.3125 427.52734375 599.3125 C427.44484375 599.86550781 427.36234375 600.41851563 427.27734375 600.98828125 C424.10208796 610.82826663 412.52441775 619.88669592 404.83203125 626.4921875 C400.04880861 630.65393059 395.65099064 635.16244158 391.21484375 639.6875 C384.60170795 646.36570186 377.9934705 652.5953044 370.52734375 658.3125 C368.77675331 659.7492809 367.02674812 661.18677519 365.27734375 662.625 C361.50526664 665.6390806 357.77211456 668.02685418 353.52734375 670.3125 C352.45484375 671.055 351.38234375 671.7975 350.27734375 672.5625 C347.52734375 674.3125 347.52734375 674.3125 344.52734375 674.3125 C344.52734375 674.9725 344.52734375 675.6325 344.52734375 676.3125 C334.37873274 682.21317289 324.11961687 687.58104261 313.43261719 692.43994141 C311.68821459 693.23882594 309.9548017 694.06159509 308.22265625 694.88671875 C303.66308466 697.04293892 299.6301719 698.89875718 294.52734375 699.3125 C294.52734375 699.9725 294.52734375 700.6325 294.52734375 701.3125 C286.15690098 705.27495196 277.46988988 708.21394894 268.71484375 711.1875 C267.93422577 711.45395325 267.15360779 711.72040649 266.34933472 711.99493408 C256.06855189 715.50211545 245.77493935 718.90858748 235.33398438 721.91210938 C232.20445865 722.81601927 229.08720468 723.75033886 225.97705078 724.71875 C214.20340412 728.37076612 202.39006147 731.35461977 190.33984375 733.9375 C189.45037048 734.13048676 188.56089722 734.32347351 187.64447021 734.52230835 C174.31495569 737.41042445 160.9844645 739.98108834 147.47607422 741.89306641 C144.31467821 742.34274999 141.157363 742.81581696 138 743.29296875 C123.08509215 745.5417789 108.1541024 747.68463307 93.21817017 749.78881836 C89.75366565 750.28038778 86.29129871 750.78516181 82.82885742 751.29101562 C43.60875041 756.90989251 4.43267478 758.07672145 -35.13513207 758.16944551 C-39.84092626 758.18089401 -44.546382 758.20831268 -49.2520752 758.24157715 C-55.70509933 758.28314061 -62.1569559 758.28343904 -68.61003113 758.25298691 C-71.00078162 758.24593166 -73.39159477 758.24964597 -75.78230286 758.26553726 C-91.58201831 758.35198848 -104.96398978 756.09982974 -119.94272614 751.09054947 C-124.85273615 749.58053516 -129.8737752 748.8407285 -134.93359375 747.9921875 C-139.57346648 747.10108611 -143.96245826 745.68871666 -148.44140625 744.203125 C-151.41011949 743.3308742 -154.22061571 742.8872771 -157.28515625 742.5 C-163.12153846 741.54433508 -166.7091783 738.79787269 -170.47265625 734.3125 C-171.97265625 731.375 -171.97265625 731.375 -172.47265625 729.3125 C-173.13265625 729.3125 -173.79265625 729.3125 -174.47265625 729.3125 C-174.47265625 728.6525 -174.47265625 727.9925 -174.47265625 727.3125 C-175.13265625 727.3125 -175.79265625 727.3125 -176.47265625 727.3125 C-176.47265625 726.6525 -176.47265625 725.9925 -176.47265625 725.3125 C-177.08109375 725.17714844 -177.68953125 725.04179688 -178.31640625 724.90234375 C-190.91403347 721.80851471 -202.44464104 715.92710488 -213.953125 710.07421875 C-218.34991657 707.87338301 -222.80019761 705.8024487 -227.26293945 703.73974609 C-230.61048524 702.18994816 -233.93290235 700.60647771 -237.22265625 698.9375 C-240.36953651 697.26830583 -240.36953651 697.26830583 -243.47265625 696.3125 C-243.47265625 695.6525 -243.47265625 694.9925 -243.47265625 694.3125 C-244.35953125 694.209375 -245.24640625 694.10625 -246.16015625 694 C-249.55533175 693.29534093 -251.69207723 692.3570434 -254.47265625 690.3125 C-254.47265625 689.6525 -254.47265625 688.9925 -254.47265625 688.3125 C-255.30603516 688.15974609 -255.30603516 688.15974609 -256.15625 688.00390625 C-268.48929616 684.32271035 -282.20171381 671.95581578 -291.47265625 663.3125 C-291.47265625 662.6525 -291.47265625 661.9925 -291.47265625 661.3125 C-292.13265625 661.3125 -292.79265625 661.3125 -293.47265625 661.3125 C-297.37666675 657.71191001 -300.83530127 653.71669443 -304.28515625 649.6875 C-304.80924072 649.07575928 -305.3333252 648.46401855 -305.87329102 647.83374023 C-310.37044602 642.53083634 -314.48850607 637.01026317 -318.47265625 631.3125 C-319.06373169 630.52093506 -319.06373169 630.52093506 -319.66674805 629.71337891 C-328.12733045 618.28120416 -333.04780446 604.46966844 -336.77587891 590.85546875 C-337.23810127 589.16853527 -337.71682545 587.48603157 -338.21240234 585.80859375 C-346.19734575 558.22711487 -344.5682216 525.34063948 -339.47265625 497.3125 C-339.31168457 496.40838379 -339.15071289 495.50426758 -338.98486328 494.57275391 C-334.18280107 468.6803666 -325.92411001 444.32386732 -308.47265625 424.3125 C-307.52044846 423.19023124 -306.57001018 422.06645934 -305.62109375 420.94140625 C-300.76853264 415.20627372 -295.83552901 409.5670884 -290.72265625 404.0625 C-286.56052041 399.58112654 -282.71989199 394.95541461 -279.03125 390.078125 C-278.51691406 389.49546875 -278.00257813 388.9128125 -277.47265625 388.3125 C-276.81265625 388.3125 -276.15265625 388.3125 -275.47265625 388.3125 C-275.20348389 387.72186768 -274.93431152 387.13123535 -274.65698242 386.52270508 C-273.47146806 384.31028259 -272.2401197 382.76914012 -270.5234375 380.94921875 C-269.92990479 380.31685303 -269.33637207 379.6844873 -268.72485352 379.03295898 C-268.08475342 378.36208252 -267.44465332 377.69120605 -266.78515625 377 C-265.79116821 375.95017944 -265.79116821 375.95017944 -264.77709961 374.87915039 C-246.48390518 355.64961366 -246.48390518 355.64961366 -237.1484375 347.7734375 C-235.38917644 346.23972273 -233.78148049 344.61577942 -232.16015625 342.9375 C-228.53825118 339.25849283 -224.58750633 336.07108489 -220.56640625 332.83984375 C-217.73507673 330.52687633 -214.96992462 328.15780259 -212.21362305 325.75708008 C-206.90368413 321.13577274 -201.58325517 316.7746314 -195.7265625 312.84765625 C-192.76234614 310.82870126 -189.9643301 308.61795112 -187.1640625 306.37890625 C-185.47265625 305.3125 -185.47265625 305.3125 -182.47265625 305.3125 C-182.47265625 304.6525 -182.47265625 303.9925 -182.47265625 303.3125 C-180.10669578 301.60424678 -177.74181137 300.00518875 -175.28515625 298.4375 C-173.93604519 297.56735564 -172.58835993 296.69499624 -171.2421875 295.8203125 C-170.59459473 295.40040039 -169.94700195 294.98048828 -169.27978516 294.54785156 C-167.25317989 293.20316238 -167.25317989 293.20316238 -164.671875 290.9921875 C-162.47265625 289.3125 -162.47265625 289.3125 -159.47265625 289.3125 C-159.47265625 288.6525 -159.47265625 287.9925 -159.47265625 287.3125 C-158.046875 286.0234375 -158.046875 286.0234375 -156.16015625 284.6875 C-155.54527344 284.24148438 -154.93039062 283.79546875 -154.296875 283.3359375 C-152.47265625 282.3125 -152.47265625 282.3125 -149.47265625 282.3125 C-149.47265625 281.6525 -149.47265625 280.9925 -149.47265625 280.3125 C-147.49728499 278.92130866 -145.5460969 277.66645797 -143.47265625 276.4375 C-142.88049316 276.08107422 -142.28833008 275.72464844 -141.67822266 275.35742188 C-129.86477734 268.3125 -129.86477734 268.3125 -125.47265625 268.3125 C-125.47265625 267.6525 -125.47265625 266.9925 -125.47265625 266.3125 C-124.35246094 265.75820313 -123.23226562 265.20390625 -122.078125 264.6328125 C-120.60541587 263.90114809 -119.13276253 263.16937139 -117.66015625 262.4375 C-116.92216797 262.07269531 -116.18417969 261.70789063 -115.42382812 261.33203125 C-114.71162109 260.97753906 -113.99941406 260.62304688 -113.265625 260.2578125 C-112.61102295 259.93312988 -111.9564209 259.60844727 -111.28198242 259.27392578 C-109.22612827 258.21994328 -109.22612827 258.21994328 -106.47265625 256.3125 C-105.48265625 256.3125 -104.49265625 256.3125 -103.47265625 256.3125 C-103.47265625 255.6525 -103.47265625 254.9925 -103.47265625 254.3125 C-100.54096179 252.63546194 -97.60141101 250.97270482 -94.66015625 249.3125 C-93.41008789 248.59707031 -93.41008789 248.59707031 -92.13476562 247.8671875 C-91.33232422 247.41601562 -90.52988281 246.96484375 -89.703125 246.5 C-88.96473389 246.08105469 -88.22634277 245.66210938 -87.46557617 245.23046875 C-85.47265625 244.3125 -85.47265625 244.3125 -82.47265625 244.3125 C-82.47265625 243.6525 -82.47265625 242.9925 -82.47265625 242.3125 C-81.80878906 241.98636719 -81.14492188 241.66023437 -80.4609375 241.32421875 C-74.90529434 238.58208181 -74.90529434 238.58208181 -69.53515625 235.5 C-67.47265625 234.3125 -67.47265625 234.3125 -64.47265625 234.3125 C-64.47265625 233.6525 -64.47265625 232.9925 -64.47265625 232.3125 C-61.56665364 231.05585022 -59.67661041 230.3125 -56.47265625 230.3125 C-56.47265625 229.6525 -56.47265625 228.9925 -56.47265625 228.3125 C-53.87068423 227.30644407 -51.26636263 226.30747475 -48.66015625 225.3125 C-47.92216797 225.02632812 -47.18417969 224.74015625 -46.42382812 224.4453125 C-45.71162109 224.17460938 -44.99941406 223.90390625 -44.265625 223.625 C-43.28372192 223.24794922 -43.28372192 223.24794922 -42.28198242 222.86328125 C-40.47265625 222.3125 -40.47265625 222.3125 -37.47265625 222.3125 C-37.93671875 220.6109375 -37.93671875 220.6109375 -38.41015625 218.875 C-40.85027946 209.92788158 -40.65526002 200.63262761 -40.66015625 191.4375 C-40.67240234 190.23480469 -40.68464844 189.03210938 -40.69726562 187.79296875 C-40.70933194 180.38424911 -40.00811317 173.54934086 -38.47265625 166.3125 C-38.25940457 164.91740961 -38.05019519 163.52168588 -37.84765625 162.125 C-35.58615447 152.1636231 -29.19177504 139.94335763 -22.47265625 132.3125 C-21.48265625 131.9825 -20.49265625 131.6525 -19.47265625 131.3125 C-18.79923578 129.98256501 -18.13350691 128.64872551 -17.47265625 127.3125 C-7.69948573 117.89058508 2.45068851 115.29609295 15.68359375 115.08203125 C19.14137027 115.36226314 22.22446006 116.27830498 25.52734375 117.3125 C24.43373262 106.00096995 22.94753596 94.74667531 21.36117554 83.49526978 C21.13962842 81.92224268 20.91974385 80.34898049 20.7015686 78.77548218 C20.38834354 76.52271802 20.06819955 74.27104085 19.74609375 72.01953125 C19.65337692 71.34709381 19.5606601 70.67465637 19.46513367 69.98184204 C18.58875352 62.14523126 18.58875352 62.14523126 14.80078125 55.60546875 C14.17429687 55.24066406 13.5478125 54.87585938 12.90234375 54.5 C10.98828125 53.35546875 10.98828125 53.35546875 9.52734375 52.3125 C9.52734375 51.6525 9.52734375 50.9925 9.52734375 50.3125 C8.86734375 50.3125 8.20734375 50.3125 7.52734375 50.3125 C6.15234375 48.87890625 6.15234375 48.87890625 4.52734375 46.875 C-1.30219018 40.04577327 -7.88831552 34.34944089 -15.22265625 29.1875 C-25.87971108 21.50837397 -25.87971108 21.50837397 -26.93359375 15.828125 C-27.12268618 10.91172177 -26.76676564 7.15562763 -23.47265625 3.3125 C-16.02312338 -3.83172415 -9.23951643 -4.00147479 0 0 Z " fill="#F9F8EE" transform="translate(1036.47265625,478.6875)"/>
<path d="M0 0 C5.58507847 2.90044261 10.13230286 7.08916448 14.83984375 11.2109375 C15.41822998 11.71230225 15.99661621 12.21366699 16.5925293 12.73022461 C17.74073718 13.72891038 18.88056901 14.73732419 20.01098633 15.75610352 C23.20057517 18.54230461 24.12578681 19.3125 28.52734375 19.3125 C30.23512382 17.79693503 30.23512382 17.79693503 31.65234375 15.8125 C33.16015625 13.84375 33.16015625 13.84375 34.52734375 12.3125 C35.18734375 12.3125 35.84734375 12.3125 36.52734375 12.3125 C36.89859375 11.384375 36.89859375 11.384375 37.27734375 10.4375 C38.76474744 7.90891373 39.96412384 7.59410996 42.52734375 6.3125 C42.82898437 5.68859375 43.130625 5.0646875 43.44140625 4.421875 C45.41009612 0.59780115 48.61685923 -1.11714795 52.52734375 -2.6875 C57.49281514 -3.57536575 62.23716406 -3.92189494 66.78125 -1.47265625 C70.41098319 1.50539207 73.13673448 4.61374507 73.828125 9.390625 C73.83199219 10.10734375 73.83585937 10.8240625 73.83984375 11.5625 C73.85660156 12.26890625 73.87335938 12.9753125 73.890625 13.703125 C72.59876749 22.98227356 67.92186463 27.22562651 60.88867188 32.93554688 C56.39680634 36.81027681 54.82317442 39.44121002 53.98071289 45.31860352 C53.52734375 47.3125 53.52734375 47.3125 51.33984375 49.4375 C50.74171875 50.05625 50.14359375 50.675 49.52734375 51.3125 C49.55896233 54.63325016 49.55896233 54.63325016 50.52734375 58.3125 C50.84119866 59.75780103 51.15499821 61.20311408 51.46875 62.6484375 C51.73002686 63.79070801 51.73002686 63.79070801 51.99658203 64.95605469 C52.89279055 68.93498968 53.67222403 72.93688326 54.46484375 76.9375 C54.63234131 77.77297363 54.79983887 78.60844727 54.97241211 79.46923828 C58.41734004 96.68246548 61.3177634 113.89550835 63.52734375 131.3125 C65.0896875 130.51585937 65.0896875 130.51585937 66.68359375 129.703125 C81.24232568 122.45629443 96.85940124 116.03167834 113.21484375 120.8125 C114.65758969 121.29715493 116.09736478 121.79137968 117.52734375 122.3125 C117.52734375 122.9725 117.52734375 123.6325 117.52734375 124.3125 C118.10097656 124.37050781 118.67460938 124.42851563 119.265625 124.48828125 C122.53859839 125.68102285 123.69977098 127.69855737 125.71484375 130.5 C126.40964844 131.44230469 127.10445312 132.38460937 127.8203125 133.35546875 C129.60300649 136.44356795 130.17770664 138.79003662 130.52734375 142.3125 C137.00857998 140.63144124 137.00857998 140.63144124 143.02734375 137.8125 C149.93893128 133.66554748 158.57398307 131.86327247 166.52734375 133.3125 C169.90614679 134.90890694 172.67585723 136.91249885 175.52734375 139.3125 C176.33171875 139.9725 177.13609375 140.6325 177.96484375 141.3125 C183.87216743 148.87387431 182.33625321 161.29342275 181.52734375 170.3125 C179.07293802 182.12354889 171.11837117 192.42595887 164.52734375 202.3125 C173.31998756 205.49701523 182.12267235 208.01109365 191.21484375 210.1875 C199.08873633 212.09438564 206.8094472 214.21674485 214.46484375 216.875 C215.25012451 217.1436084 216.03540527 217.4122168 216.84448242 217.68896484 C222.41481109 219.6863606 227.41682383 222.3478711 232.52734375 225.3125 C233.18734375 225.6425 233.84734375 225.9725 234.52734375 226.3125 C234.52734375 226.9725 234.52734375 227.6325 234.52734375 228.3125 C236.50734375 228.6425 238.48734375 228.9725 240.52734375 229.3125 C240.52734375 229.9725 240.52734375 230.6325 240.52734375 231.3125 C241.16671875 231.395 241.80609375 231.4775 242.46484375 231.5625 C246.73275892 232.60770372 250.55842042 234.45341826 254.52734375 236.3125 C254.52734375 236.9725 254.52734375 237.6325 254.52734375 238.3125 C255.29046875 238.456875 256.05359375 238.60125 256.83984375 238.75 C259.52734375 239.3125 259.52734375 239.3125 262.52734375 240.3125 C262.52734375 240.9725 262.52734375 241.6325 262.52734375 242.3125 C263.40132812 242.41304687 264.2753125 242.51359375 265.17578125 242.6171875 C268.76546608 243.36190067 271.04060422 244.5258804 274.15234375 246.4375 C275.19519531 247.06785156 276.23804688 247.69820312 277.3125 248.34765625 C278.90384766 249.32025391 278.90384766 249.32025391 280.52734375 250.3125 C282.54492062 251.50552438 284.56569949 252.69315244 286.58984375 253.875 C288.08451172 254.74898437 288.08451172 254.74898437 289.609375 255.640625 C292.30799799 257.18682398 295.03191648 258.66405515 297.77734375 260.125 C313.61329925 268.70662328 327.99953039 278.96380946 341.62207031 290.71069336 C343.06005311 291.91963815 344.51891563 293.103809 345.98730469 294.27563477 C353.03000767 299.90616173 359.44641988 305.96031042 365.77734375 312.375 C366.72745827 313.32657774 367.67797837 314.27775069 368.62890625 315.22851562 C373.79796784 320.43015534 378.78633139 325.71853076 383.52734375 331.3125 C384.01348145 331.87686768 384.49961914 332.44123535 385.00048828 333.02270508 C386.33094061 334.5699426 387.64826194 336.1284427 388.96484375 337.6875 C389.41021484 338.20699219 389.85558594 338.72648437 390.31445312 339.26171875 C393.52734375 343.08165323 393.52734375 343.08165323 393.52734375 345.3125 C394.18734375 345.3125 394.84734375 345.3125 395.52734375 345.3125 C397.16164126 347.4069968 398.66901609 349.49032091 400.15234375 351.6875 C400.57257812 352.29078125 400.9928125 352.8940625 401.42578125 353.515625 C404.52734375 358.04712865 404.52734375 358.04712865 404.52734375 360.3125 C405.18734375 360.3125 405.84734375 360.3125 406.52734375 360.3125 C407.07519531 361.29476563 407.62304688 362.27703125 408.1875 363.2890625 C410.61306356 367.53406551 413.27975677 371.60365296 415.96484375 375.6875 C419.71823704 381.44994287 423.38699789 387.18716108 426.52734375 393.3125 C427.00558594 394.2303125 427.48382812 395.148125 427.9765625 396.09375 C434.13823033 408.13771533 438.95283463 420.67759476 443.40234375 433.4375 C443.66302643 434.18474335 443.92370911 434.93198669 444.19229126 435.70187378 C448.18706454 447.27514011 451.31341101 458.87115915 453.71484375 470.875 C453.85718445 471.58456848 453.99952515 472.29413696 454.1461792 473.02520752 C461.54458401 510.46456174 453.87450999 542.84517415 441.52734375 578.3125 C440.86734375 578.3125 440.20734375 578.3125 439.52734375 578.3125 C439.38296875 579.075625 439.23859375 579.83875 439.08984375 580.625 C438.52734375 583.3125 438.52734375 583.3125 437.52734375 586.3125 C436.86734375 586.3125 436.20734375 586.3125 435.52734375 586.3125 C435.19734375 587.9625 434.86734375 589.6125 434.52734375 591.3125 C433.86734375 591.3125 433.20734375 591.3125 432.52734375 591.3125 C432.40359375 591.89 432.27984375 592.4675 432.15234375 593.0625 C431.52085551 595.33585767 430.63876184 597.2378529 429.52734375 599.3125 C428.86734375 599.3125 428.20734375 599.3125 427.52734375 599.3125 C427.44484375 599.86550781 427.36234375 600.41851563 427.27734375 600.98828125 C424.10208796 610.82826663 412.52441775 619.88669592 404.83203125 626.4921875 C400.04880861 630.65393059 395.65099064 635.16244158 391.21484375 639.6875 C384.60170795 646.36570186 377.9934705 652.5953044 370.52734375 658.3125 C368.77675331 659.7492809 367.02674812 661.18677519 365.27734375 662.625 C361.50526664 665.6390806 357.77211456 668.02685418 353.52734375 670.3125 C352.45484375 671.055 351.38234375 671.7975 350.27734375 672.5625 C347.52734375 674.3125 347.52734375 674.3125 344.52734375 674.3125 C344.52734375 674.9725 344.52734375 675.6325 344.52734375 676.3125 C334.37873274 682.21317289 324.11961687 687.58104261 313.43261719 692.43994141 C311.68821459 693.23882594 309.9548017 694.06159509 308.22265625 694.88671875 C303.66308466 697.04293892 299.6301719 698.89875718 294.52734375 699.3125 C294.52734375 699.9725 294.52734375 700.6325 294.52734375 701.3125 C286.15690098 705.27495196 277.46988988 708.21394894 268.71484375 711.1875 C267.93422577 711.45395325 267.15360779 711.72040649 266.34933472 711.99493408 C256.06855189 715.50211545 245.77493935 718.90858748 235.33398438 721.91210938 C232.20445865 722.81601927 229.08720468 723.75033886 225.97705078 724.71875 C214.20340412 728.37076612 202.39006147 731.35461977 190.33984375 733.9375 C189.45037048 734.13048676 188.56089722 734.32347351 187.64447021 734.52230835 C174.31495569 737.41042445 160.9844645 739.98108834 147.47607422 741.89306641 C144.31467821 742.34274999 141.157363 742.81581696 138 743.29296875 C123.08509215 745.5417789 108.1541024 747.68463307 93.21817017 749.78881836 C89.75366565 750.28038778 86.29129871 750.78516181 82.82885742 751.29101562 C43.60875041 756.90989251 4.43267478 758.07672145 -35.13513207 758.16944551 C-39.84092626 758.18089401 -44.546382 758.20831268 -49.2520752 758.24157715 C-55.70509933 758.28314061 -62.1569559 758.28343904 -68.61003113 758.25298691 C-71.00078162 758.24593166 -73.39159477 758.24964597 -75.78230286 758.26553726 C-91.58201831 758.35198848 -104.96398978 756.09982974 -119.94272614 751.09054947 C-124.85273615 749.58053516 -129.8737752 748.8407285 -134.93359375 747.9921875 C-139.57346648 747.10108611 -143.96245826 745.68871666 -148.44140625 744.203125 C-151.41011949 743.3308742 -154.22061571 742.8872771 -157.28515625 742.5 C-163.12153846 741.54433508 -166.7091783 738.79787269 -170.47265625 734.3125 C-171.97265625 731.375 -171.97265625 731.375 -172.47265625 729.3125 C-173.13265625 729.3125 -173.79265625 729.3125 -174.47265625 729.3125 C-174.47265625 728.6525 -174.47265625 727.9925 -174.47265625 727.3125 C-175.13265625 727.3125 -175.79265625 727.3125 -176.47265625 727.3125 C-176.47265625 726.6525 -176.47265625 725.9925 -176.47265625 725.3125 C-177.08109375 725.17714844 -177.68953125 725.04179688 -178.31640625 724.90234375 C-190.91403347 721.80851471 -202.44464104 715.92710488 -213.953125 710.07421875 C-218.34991657 707.87338301 -222.80019761 705.8024487 -227.26293945 703.73974609 C-230.61048524 702.18994816 -233.93290235 700.60647771 -237.22265625 698.9375 C-240.36953651 697.26830583 -240.36953651 697.26830583 -243.47265625 696.3125 C-243.47265625 695.6525 -243.47265625 694.9925 -243.47265625 694.3125 C-244.35953125 694.209375 -245.24640625 694.10625 -246.16015625 694 C-249.55533175 693.29534093 -251.69207723 692.3570434 -254.47265625 690.3125 C-254.47265625 689.6525 -254.47265625 688.9925 -254.47265625 688.3125 C-255.30603516 688.15974609 -255.30603516 688.15974609 -256.15625 688.00390625 C-268.48929616 684.32271035 -282.20171381 671.95581578 -291.47265625 663.3125 C-291.47265625 662.6525 -291.47265625 661.9925 -291.47265625 661.3125 C-292.13265625 661.3125 -292.79265625 661.3125 -293.47265625 661.3125 C-297.37666675 657.71191001 -300.83530127 653.71669443 -304.28515625 649.6875 C-304.80924072 649.07575928 -305.3333252 648.46401855 -305.87329102 647.83374023 C-310.37044602 642.53083634 -314.48850607 637.01026317 -318.47265625 631.3125 C-319.06373169 630.52093506 -319.06373169 630.52093506 -319.66674805 629.71337891 C-328.12733045 618.28120416 -333.04780446 604.46966844 -336.77587891 590.85546875 C-337.23810127 589.16853527 -337.71682545 587.48603157 -338.21240234 585.80859375 C-346.19734575 558.22711487 -344.5682216 525.34063948 -339.47265625 497.3125 C-339.31168457 496.40838379 -339.15071289 495.50426758 -338.98486328 494.57275391 C-334.18280107 468.6803666 -325.92411001 444.32386732 -308.47265625 424.3125 C-307.52044846 423.19023124 -306.57001018 422.06645934 -305.62109375 420.94140625 C-300.76853264 415.20627372 -295.83552901 409.5670884 -290.72265625 404.0625 C-286.56052041 399.58112654 -282.71989199 394.95541461 -279.03125 390.078125 C-278.51691406 389.49546875 -278.00257813 388.9128125 -277.47265625 388.3125 C-276.81265625 388.3125 -276.15265625 388.3125 -275.47265625 388.3125 C-275.20348389 387.72186768 -274.93431152 387.13123535 -274.65698242 386.52270508 C-273.47146806 384.31028259 -272.2401197 382.76914012 -270.5234375 380.94921875 C-269.92990479 380.31685303 -269.33637207 379.6844873 -268.72485352 379.03295898 C-268.08475342 378.36208252 -267.44465332 377.69120605 -266.78515625 377 C-265.79116821 375.95017944 -265.79116821 375.95017944 -264.77709961 374.87915039 C-246.48390518 355.64961366 -246.48390518 355.64961366 -237.1484375 347.7734375 C-235.38917644 346.23972273 -233.78148049 344.61577942 -232.16015625 342.9375 C-228.53825118 339.25849283 -224.58750633 336.07108489 -220.56640625 332.83984375 C-217.73507673 330.52687633 -214.96992462 328.15780259 -212.21362305 325.75708008 C-206.90368413 321.13577274 -201.58325517 316.7746314 -195.7265625 312.84765625 C-192.76234614 310.82870126 -189.9643301 308.61795112 -187.1640625 306.37890625 C-185.47265625 305.3125 -185.47265625 305.3125 -182.47265625 305.3125 C-182.47265625 304.6525 -182.47265625 303.9925 -182.47265625 303.3125 C-180.10669578 301.60424678 -177.74181137 300.00518875 -175.28515625 298.4375 C-173.93604519 297.56735564 -172.58835993 296.69499624 -171.2421875 295.8203125 C-170.59459473 295.40040039 -169.94700195 294.98048828 -169.27978516 294.54785156 C-167.25317989 293.20316238 -167.25317989 293.20316238 -164.671875 290.9921875 C-162.47265625 289.3125 -162.47265625 289.3125 -159.47265625 289.3125 C-159.47265625 288.6525 -159.47265625 287.9925 -159.47265625 287.3125 C-158.046875 286.0234375 -158.046875 286.0234375 -156.16015625 284.6875 C-155.54527344 284.24148438 -154.93039062 283.79546875 -154.296875 283.3359375 C-152.47265625 282.3125 -152.47265625 282.3125 -149.47265625 282.3125 C-149.47265625 281.6525 -149.47265625 280.9925 -149.47265625 280.3125 C-147.49728499 278.92130866 -145.5460969 277.66645797 -143.47265625 276.4375 C-142.88049316 276.08107422 -142.28833008 275.72464844 -141.67822266 275.35742188 C-129.86477734 268.3125 -129.86477734 268.3125 -125.47265625 268.3125 C-125.47265625 267.6525 -125.47265625 266.9925 -125.47265625 266.3125 C-124.35246094 265.75820313 -123.23226562 265.20390625 -122.078125 264.6328125 C-120.60541587 263.90114809 -119.13276253 263.16937139 -117.66015625 262.4375 C-116.92216797 262.07269531 -116.18417969 261.70789063 -115.42382812 261.33203125 C-114.71162109 260.97753906 -113.99941406 260.62304688 -113.265625 260.2578125 C-112.61102295 259.93312988 -111.9564209 259.60844727 -111.28198242 259.27392578 C-109.22612827 258.21994328 -109.22612827 258.21994328 -106.47265625 256.3125 C-105.48265625 256.3125 -104.49265625 256.3125 -103.47265625 256.3125 C-103.47265625 255.6525 -103.47265625 254.9925 -103.47265625 254.3125 C-100.54096179 252.63546194 -97.60141101 250.97270482 -94.66015625 249.3125 C-93.41008789 248.59707031 -93.41008789 248.59707031 -92.13476562 247.8671875 C-91.33232422 247.41601562 -90.52988281 246.96484375 -89.703125 246.5 C-88.96473389 246.08105469 -88.22634277 245.66210938 -87.46557617 245.23046875 C-85.47265625 244.3125 -85.47265625 244.3125 -82.47265625 244.3125 C-82.47265625 243.6525 -82.47265625 242.9925 -82.47265625 242.3125 C-81.80878906 241.98636719 -81.14492188 241.66023437 -80.4609375 241.32421875 C-74.90529434 238.58208181 -74.90529434 238.58208181 -69.53515625 235.5 C-67.47265625 234.3125 -67.47265625 234.3125 -64.47265625 234.3125 C-64.47265625 233.6525 -64.47265625 232.9925 -64.47265625 232.3125 C-61.56665364 231.05585022 -59.67661041 230.3125 -56.47265625 230.3125 C-56.47265625 229.6525 -56.47265625 228.9925 -56.47265625 228.3125 C-53.87068423 227.30644407 -51.26636263 226.30747475 -48.66015625 225.3125 C-47.92216797 225.02632812 -47.18417969 224.74015625 -46.42382812 224.4453125 C-45.71162109 224.17460938 -44.99941406 223.90390625 -44.265625 223.625 C-43.28372192 223.24794922 -43.28372192 223.24794922 -42.28198242 222.86328125 C-40.47265625 222.3125 -40.47265625 222.3125 -37.47265625 222.3125 C-37.93671875 220.6109375 -37.93671875 220.6109375 -38.41015625 218.875 C-40.85027946 209.92788158 -40.65526002 200.63262761 -40.66015625 191.4375 C-40.67240234 190.23480469 -40.68464844 189.03210938 -40.69726562 187.79296875 C-40.70933194 180.38424911 -40.00811317 173.54934086 -38.47265625 166.3125 C-38.25940457 164.91740961 -38.05019519 163.52168588 -37.84765625 162.125 C-35.58615447 152.1636231 -29.19177504 139.94335763 -22.47265625 132.3125 C-21.48265625 131.9825 -20.49265625 131.6525 -19.47265625 131.3125 C-18.79923578 129.98256501 -18.13350691 128.64872551 -17.47265625 127.3125 C-7.69948573 117.89058508 2.45068851 115.29609295 15.68359375 115.08203125 C19.14137027 115.36226314 22.22446006 116.27830498 25.52734375 117.3125 C24.43373262 106.00096995 22.94753596 94.74667531 21.36117554 83.49526978 C21.13962842 81.92224268 20.91974385 80.34898049 20.7015686 78.77548218 C20.38834354 76.52271802 20.06819955 74.27104085 19.74609375 72.01953125 C19.65337692 71.34709381 19.5606601 70.67465637 19.46513367 69.98184204 C18.58875352 62.14523126 18.58875352 62.14523126 14.80078125 55.60546875 C14.17429687 55.24066406 13.5478125 54.87585938 12.90234375 54.5 C10.98828125 53.35546875 10.98828125 53.35546875 9.52734375 52.3125 C9.52734375 51.6525 9.52734375 50.9925 9.52734375 50.3125 C8.86734375 50.3125 8.20734375 50.3125 7.52734375 50.3125 C6.15234375 48.87890625 6.15234375 48.87890625 4.52734375 46.875 C-1.30219018 40.04577327 -7.88831552 34.34944089 -15.22265625 29.1875 C-25.87971108 21.50837397 -25.87971108 21.50837397 -26.93359375 15.828125 C-27.12268618 10.91172177 -26.76676564 7.15562763 -23.47265625 3.3125 C-16.02312338 -3.83172415 -9.23951643 -4.00147479 0 0 Z M4.72265625 153.08203125 C-7.30570259 165.30301506 -9.62908634 181.68374733 -9.72265625 198 C-9.74328125 198.91072266 -9.76390625 199.82144531 -9.78515625 200.75976562 C-9.81648946 206.15299508 -9.23641955 209.54911467 -6.47265625 214.3125 C-5.58493824 218.66311799 -6.11798904 221.65383233 -8.22265625 225.5625 C-13.47265625 231.97916667 -13.47265625 231.97916667 -17.47265625 233.3125 C-17.60220703 234.30830078 -17.60220703 234.30830078 -17.734375 235.32421875 C-18.6714554 241.21321025 -19.63257811 244.44043749 -24.47265625 248.3125 C-25.13265625 248.9725 -25.79265625 249.6325 -26.47265625 250.3125 C-28.54011985 251.06589775 -30.62726944 251.76566073 -32.72265625 252.4375 C-44.97218837 256.60310176 -55.58604659 263.92398028 -66.36132812 270.93896484 C-81.32597652 280.67429231 -96.32867289 290.14546953 -112.25390625 298.24609375 C-122.00411567 303.23215852 -130.88737019 309.16818164 -139.83935547 315.46484375 C-142.60568781 317.40584163 -145.38343682 319.32954084 -148.1640625 321.25 C-153.94913429 325.24877522 -159.71687526 329.27168593 -165.47265625 333.3125 C-166.74133545 334.20316162 -166.74133545 334.20316162 -168.03564453 335.11181641 C-176.84803897 341.32227162 -185.38991447 347.68505646 -193.5234375 354.765625 C-196.32926712 357.18867257 -199.19674421 359.50486335 -202.09765625 361.8125 C-206.9514628 365.75489309 -211.33552477 370.04760176 -215.671875 374.5390625 C-217.83239465 376.67848921 -220.00291392 378.66979846 -222.30078125 380.65234375 C-226.56285748 384.34269641 -230.56152012 388.25323892 -234.53515625 392.25 C-235.20353516 392.91451172 -235.87191406 393.57902344 -236.56054688 394.26367188 C-241.06969177 398.7815809 -245.32364563 403.46336287 -249.47265625 408.3125 C-250.50771071 409.51441058 -251.54286439 410.71623573 -252.578125 411.91796875 C-253.08069824 412.50247803 -253.58327148 413.0869873 -254.10107422 413.68920898 C-258.92761028 419.29497441 -263.81319165 424.82986587 -268.84765625 430.25 C-269.34982666 430.79172852 -269.85199707 431.33345703 -270.36938477 431.89160156 C-272.38555855 434.06560969 -274.40327871 436.23812728 -276.42578125 438.40625 C-280.10143563 442.45977539 -283.37966955 446.76795 -286.59765625 451.1875 C-287.00580566 451.74042725 -287.41395508 452.29335449 -287.83447266 452.86303711 C-293.586129 460.91419405 -297.2039586 469.64778184 -300.09765625 479.0625 C-300.54757935 480.50810303 -300.54757935 480.50810303 -301.0065918 481.98291016 C-306.86514314 501.13506458 -308.93489226 520.23444577 -308.97265625 540.1875 C-308.97566742 541.08036713 -308.97867859 541.97323425 -308.98178101 542.89315796 C-308.9775034 563.06659251 -305.59399686 580.75206549 -297.47265625 599.3125 C-296.91010132 600.61731323 -296.91010132 600.61731323 -296.33618164 601.94848633 C-291.0961987 613.81706711 -281.27422895 623.98499853 -272.47265625 633.3125 C-271.35697266 634.52486328 -271.35697266 634.52486328 -270.21875 635.76171875 C-253.1031548 653.72322475 -230.57743166 664.43501024 -208.59765625 675.1875 C-207.75267578 675.60209473 -206.90769531 676.01668945 -206.03710938 676.44384766 C-197.17941933 680.77820607 -188.36908003 684.95435156 -179.09570312 688.33203125 C-176.61473076 689.25939397 -174.23930113 690.30199103 -171.84765625 691.4375 C-168.57872126 692.94900756 -165.41393204 693.86082039 -161.91015625 694.6875 C-156.51650213 696.1001237 -152.27633388 698.15455828 -148.47265625 702.3125 C-147.94822888 703.64978979 -147.46919777 705.00570236 -147.03515625 706.375 C-145.58382628 709.65925964 -144.54192313 710.28124744 -141.19140625 711.79296875 C-132.50713936 714.63746698 -123.40387098 716.25974393 -114.39672852 717.70605469 C-109.31677095 718.57008553 -104.89167056 719.94082195 -100.10131836 721.84960938 C-89.65575995 725.57031871 -78.90059089 724.994945 -67.953125 724.90625 C-65.68272465 724.90453341 -63.41232231 724.90461012 -61.141922 724.90637207 C-56.39723569 724.90472638 -51.65302605 724.88618174 -46.90844727 724.85449219 C-40.90605316 724.81506926 -34.9042885 724.81042329 -28.90178967 724.81795502 C-24.21263638 724.82106708 -19.52361752 724.80875225 -14.83449745 724.79182434 C-12.62591715 724.78491759 -10.41732163 724.78165434 -8.2087307 724.78251648 C6.00411711 724.77409153 19.85051862 723.82190966 33.94902039 722.00109863 C38.43835643 721.42292217 42.88200457 721.03546176 47.40234375 720.8125 C53.91156894 720.45210222 60.24276112 719.49016943 66.67163086 718.4621582 C72.59790911 717.53820132 78.48612249 716.94935323 84.46484375 716.5 C96.25188709 715.5669175 107.84651183 713.5798362 119.49731445 711.62573242 C121.10103924 711.35705027 122.70479883 711.08857575 124.30859375 710.8203125 C125.09650803 710.68851089 125.8844223 710.55670929 126.69621277 710.4209137 C133.83054436 709.23927278 140.98430513 708.26837465 148.15234375 707.3125 C161.80602272 705.44143301 175.13283067 702.51989361 188.52734375 699.3125 C190.5885115 698.83320361 192.64970878 698.35403416 194.7109375 697.875 C205.91972822 695.21940391 216.82253532 692.02740785 227.71484375 688.28051758 C234.33043676 686.0102158 240.97388132 683.98814742 247.71484375 682.125 C261.90953061 678.16253483 275.13645681 672.39325517 288.52734375 666.3125 C289.16397949 666.02648926 289.80061523 665.74047852 290.45654297 665.44580078 C308.26050578 657.44095537 325.45756908 648.42389495 341.52734375 637.3125 C342.58050781 636.58675781 343.63367187 635.86101562 344.71875 635.11328125 C357.06432366 626.21986534 367.71384683 615.23206284 378.37841797 604.43823242 C381.47343414 601.31647123 384.58221352 598.31445406 387.96484375 595.5 C400.91866085 584.41666942 408.92400552 568.10372593 414.52734375 552.3125 C414.89206787 551.2930127 414.89206787 551.2930127 415.26416016 550.25292969 C417.31065078 544.35830347 418.79067219 538.39799513 420.15234375 532.3125 C420.4771875 530.91257812 420.4771875 530.91257812 420.80859375 529.484375 C428.12002038 497.16967458 418.82310447 467.57167059 408.5859375 437.02734375 C408.21409836 435.90834435 408.21409836 435.90834435 407.83474731 434.76673889 C397.65999835 404.85675703 378.24448109 375.70648327 356.7578125 352.71875 C354.87512738 350.68769215 353.05957369 348.62286784 351.25 346.52734375 C347.57810378 342.31870659 343.7281225 338.32144676 339.77734375 334.375 C338.73126953 333.32904663 338.73126953 333.32904663 337.6640625 332.26196289 C332.94216878 327.5917013 328.11060855 323.27616486 322.8828125 319.17578125 C320.77311785 317.50691832 318.81188591 315.7640987 316.83984375 313.9375 C300.33397085 299.38140435 279.7899423 288.67244485 260.52734375 278.3125 C259.06638054 277.51957862 257.60544189 276.72661199 256.14453125 275.93359375 C248.15026011 271.62277538 240.05577032 267.63157997 231.80859375 263.82763672 C226.8552016 261.51172616 222.11847803 258.97130848 217.39428711 256.22045898 C201.82077078 247.1949873 184.87748993 241.90170565 167.55078125 237.28125 C164.13163568 236.18570982 161.05718157 234.71491985 157.83984375 233.125 C152.6842952 230.60381101 148.58746001 229.82276362 142.90625 229.56640625 C139.24177849 229.1752886 137.19659025 227.78155301 134.52734375 225.3125 C130.867576 220.472162 131.61220445 216.59985107 132.33203125 210.91015625 C132.57813223 207.63701323 131.6361726 205.37808564 130.52734375 202.3125 C129.61606655 195.60322164 130.43282493 191.32638939 134.53125 185.90625 C134.85996094 185.3803125 135.18867187 184.854375 135.52734375 184.3125 C135.19734375 183.6525 134.86734375 182.9925 134.52734375 182.3125 C127.82453873 187.15574939 121.63434486 191.90561338 116.21484375 198.1875 C111.96623561 203.03324692 108.15983972 206.996648 101.46484375 207.453125 C96.62280005 207.12298566 93.27602822 205.45093351 89.52734375 202.3125 C85.79710562 196.91008615 84.64847205 192.8299755 85.52734375 186.3125 C87.2740698 181.41296967 89.42084666 177.39265192 93.15234375 173.75 C97.44639884 169.34294346 98.69336382 163.80734036 98.71484375 157.75 C98.62203125 156.0484375 98.62203125 156.0484375 98.52734375 154.3125 C83.18360408 157.12191712 71.72957805 166.50881995 61.28125 177.515625 C59.3116709 179.51593512 57.44870868 181.23945339 55.28125 182.984375 C52.22958518 185.56422213 51.17511831 187.7173555 49.52734375 191.3125 C46.54957055 195.88550884 43.7671649 197.74055365 38.52734375 199.3125 C32.87392614 199.58587609 28.89423168 197.9684992 24.52734375 194.3125 C21.14639757 189.64912595 20.42371103 185.65328442 20.31640625 179.98828125 C20.28804687 178.95896484 20.2596875 177.92964844 20.23046875 176.86914062 C20.17885972 174.72607561 20.13445231 172.58282365 20.09765625 170.43945312 C19.89174607 163.5457519 19.64133716 156.15101516 15.11181641 150.56762695 C11.23383676 147.49571735 7.94757164 150.5770693 4.72265625 153.08203125 Z " fill="#3A6BA8" transform="translate(1036.47265625,478.6875)"/>
<path d="M0 0 C0.74894531 0.00644531 1.49789062 0.01289062 2.26953125 0.01953125 C4.1875 0.1875 4.1875 0.1875 6.1875 1.1875 C8.47865354 1.26660632 10.77050953 1.32578548 13.0625 1.375 C22.14144772 1.79096336 29.24736772 4.89065463 36.25 10.75 C36.889375 11.554375 37.52875 12.35875 38.1875 13.1875 C38.765 13.909375 39.3425 14.63125 39.9375 15.375 C42.20369697 20.47394317 43.04988723 25.40132588 41.375 30.8125 C33.0523347 48.77193565 10.53834357 60.25917147 -7.3125 66.91796875 C-9.045 67.54638672 -9.045 67.54638672 -10.8125 68.1875 C-12.2975 68.73857422 -12.2975 68.73857422 -13.8125 69.30078125 C-16.47348646 70.27975212 -19.14225101 71.23412535 -21.8125 72.1875 C-29.47568967 74.95349451 -37.11932042 77.77060363 -44.75 80.625 C-45.80759521 81.02041992 -46.86519043 81.41583984 -47.95483398 81.82324219 C-53.13711021 83.77084665 -58.28647259 85.75373143 -63.375 87.9375 C-78.65391033 94.43103689 -97.49511336 101.51216719 -113.85546875 95.0859375 C-120.64796556 91.96762559 -124.30567448 87.67569837 -127.8125 81.1875 C-130.1315026 74.64958905 -130.22145005 64.2040742 -127.375 57.8125 C-113.64885088 35.9540776 -81.93746331 24.3174413 -58.6875 16.5 C-56.79377436 15.85116607 -54.90022125 15.20182834 -53.00683594 14.55200195 C-40.13562588 10.16542819 -27.20260919 6.12995862 -14.0222168 2.76635742 C-11.98874242 2.23366847 -9.98344412 1.64294859 -7.97265625 1.03125 C-5.15012572 0.27764481 -2.90019595 -0.05587068 0 0 Z " fill="#3B6CA8" transform="translate(1009.8125,883.8125)"/>
<path d="M0 0 C4.01456783 2.23206816 6.76409772 4.84774429 8.5 9.1875 C8.5825 9.88875 8.665 10.59 8.75 11.3125 C8.9665625 12.92125 8.9665625 12.92125 9.1875 14.5625 C8.33639725 21.85766645 2.66157911 26.97706992 -2.80859375 31.5234375 C-18.78019837 43.22742936 -35.48070513 48.39347841 -55.25 46.3125 C-59.87766878 45.52560895 -64.36909856 44.37731566 -68.87890625 43.08984375 C-72.7136187 42.14602673 -72.7136187 42.14602673 -76.25 43.3125 C-78.42213109 45.08821409 -78.42213109 45.08821409 -80.625 47.3125 C-93.40605159 59.11761226 -111.09251622 69.65363233 -128.75 70.8125 C-151.03102943 69.86062058 -169.86930894 57.68305868 -184.82666016 41.89599609 C-189.04086069 37.20760765 -191.62940963 33.10406082 -191.5 26.6875 C-190.57287691 21.55681882 -187.4505976 18.23465485 -183.25 15.3125 C-177.6174283 13.3588088 -171.29808413 13.34642258 -165.9375 15.875 C-163.25 18.3125 -163.25 18.3125 -161.25 21.5 C-156.79426524 28.27154427 -146.79822187 33.92822039 -139.25 36.3125 C-127.71361374 38.1308968 -119.4965769 34.73337291 -110.25 28.3125 C-102.83556536 22.80463427 -98.15419635 17.06856059 -93.80859375 8.9609375 C-91.188379 4.50854251 -88.20269144 1.96339715 -83.25 0.3125 C-76.95079698 -0.22133076 -72.46149138 0.58838416 -67.25 4.3125 C-66.074375 5.859375 -66.074375 5.859375 -64.875 7.4375 C-60.45424205 12.27928251 -55.31634526 12.10807698 -49.02734375 12.52734375 C-38.01529427 12.8493335 -31.47298008 10.46038887 -22.66015625 4.03125 C-15.24572538 -1.25618855 -8.70533064 -3.94964075 0 0 Z " fill="#3C6DA9" transform="translate(1241.25,1058.6875)"/>
<path d="M0 0 C1.60913086 1.13110352 1.60913086 1.13110352 3.21484375 2.50390625 C7.2629314 5.51757203 10.45774738 5.58739385 15.375 5.5 C24.08896186 5.68416704 31.4901039 7.44584012 39.70605469 10.23779297 C42.15816549 11.0525535 44.62548561 11.79660388 47.1015625 12.53515625 C65.70031444 18.20874258 88.5539291 27.67534619 99.046875 45.08984375 C101.3351398 49.67575149 101.72370459 53.97472545 101 59 C98.21793853 65.57997941 93.95731632 69.67947838 87.45703125 72.58203125 C82.62365792 74.342866 78.10220933 74.45652602 73 74.375 C72.07936768 74.36557373 71.15873535 74.35614746 70.21020508 74.34643555 C52.72556143 73.96590615 36.06204809 69.12709556 20.3984375 61.52734375 C16.55996365 59.80223654 12.67363857 58.46015855 8.6875 57.125 C-4.94828998 52.47154053 -21.70694645 46.27611986 -29.125 33.125 C-31.95219175 26.57517143 -32.14907627 20.94763043 -29.5625 14.3125 C-23.35456704 5.07683833 -11.13781441 -1.64328409 0 0 Z " fill="#3C6CA8" transform="translate(1230,865)"/>
<path d="M0 0 C6.21802041 0.68439956 9.92487239 3.65183712 13.91015625 8.3203125 C14.72265625 10.1953125 14.72265625 10.1953125 14.91015625 12.3203125 C15.15765625 13.9290625 15.15765625 13.9290625 15.41015625 15.5703125 C14.69997197 20.89669456 11.86800324 23.82099657 7.91015625 27.3203125 C3.47054849 30.06821488 -1.02032575 30.18676685 -6.08984375 29.3203125 C-10.4829938 27.17911331 -13.35515018 24.39939367 -16.08984375 20.3828125 C-17.28728759 16.71564075 -17.56953247 14.15782226 -17.08984375 10.3203125 C-12.58435635 2.11388902 -9.21703209 -0.3359793 0 0 Z " fill="#4271AB" transform="translate(1133.08984375,983.6796875)"/>
<path d="M0 0 C0.66 0.33 1.32 0.66 2 1 C-4.93 7.93 -11.86 14.86 -19 22 C-19.33 21.34 -19.66 20.68 -20 20 C-16.68932483 15.75819744 -13.16316393 12.29842669 -9.0703125 8.8125 C-5.89141739 6.0294673 -2.94449752 3.02731151 0 0 Z " fill="#DEE4E4" transform="translate(1108,646)"/>
<path d="M0 0 C0.66 0.33 1.32 0.66 2 1 C-0.97 3.97 -3.94 6.94 -7 10 C-7 6.04435836 -5.59478606 4.89133304 -3 2 C-2.01 1.34 -1.02 0.68 0 0 Z " fill="#DDE4E4" transform="translate(1045,629)"/>
<path d="M0 0 C2.475 0.495 2.475 0.495 5 1 C5 2.32 5 3.64 5 5 C4.01 5 3.02 5 2 5 C2 4.34 2 3.68 2 3 C1.34 3 0.68 3 0 3 C0 2.01 0 1.02 0 0 Z " fill="#E5EAE9" transform="translate(860,1203)"/>
</svg>
