<?xml version="1.0" encoding="UTF-8"?>
<svg version="1.1" xmlns="http://www.w3.org/2000/svg" width="2224" height="1668">
<path d="M0 0 C1.04027344 -0.01417969 2.08054687 -0.02835937 3.15234375 -0.04296875 C6.01296613 0.18357718 7.63920151 0.71016381 10.0625 2.1875 C10.0625 2.8475 10.0625 3.5075 10.0625 4.1875 C10.7225 4.1875 11.3825 4.1875 12.0625 4.1875 C13.4296875 5.65625 13.4296875 5.65625 14.9375 7.6875 C15.42992187 8.3371875 15.92234375 8.986875 16.4296875 9.65625 C20.33604279 15.71203523 22.91532865 22.08306838 25.0625 28.9375 C25.29710937 29.64003906 25.53171875 30.34257813 25.7734375 31.06640625 C26.62557243 33.75567079 27.35685011 36.45571017 28.0625 39.1875 C28.2332605 39.84584839 28.404021 40.50419678 28.57995605 41.18249512 C32.2515816 55.8145848 32.54763888 69.91744921 32.3125 84.9375 C32.2923727 87.20701521 32.27413312 89.47654797 32.2578125 91.74609375 C32.21438416 97.22695508 32.1479822 102.70714129 32.0625 108.1875 C32.7225 107.8575 33.3825 107.5275 34.0625 107.1875 C41.65719625 106.67527665 48.34299053 106.38951639 55.0625 110.1875 C55.784375 110.496875 56.50625 110.80625 57.25 111.125 C59.60075928 112.5030313 61.27300894 114.14236736 63.0625 116.1875 C63.0625 116.8475 63.0625 117.5075 63.0625 118.1875 C63.59617187 117.84493164 64.12984375 117.50236328 64.6796875 117.14941406 C67.13802488 115.57467459 69.60021848 114.00606452 72.0625 112.4375 C72.90167969 111.89867187 73.74085938 111.35984375 74.60546875 110.8046875 C88.16177591 102.1875 88.16177591 102.1875 93.0625 102.1875 C93.0625 101.5275 93.0625 100.8675 93.0625 100.1875 C95.43566118 99.36927267 97.8107942 98.55781293 100.1875 97.75 C100.85265625 97.51990234 101.5178125 97.28980469 102.203125 97.05273438 C109.33229818 94.64139639 116.00630354 93.98437222 123.5 93.9375 C124.32048828 93.916875 125.14097656 93.89625 125.98632812 93.875 C132.7636283 93.83172913 137.53114975 94.9504928 142.75 99.5625 C143.513125 100.42875 144.27625 101.295 145.0625 102.1875 C145.743125 102.93 146.42375 103.6725 147.125 104.4375 C152.22398499 111.67476901 153.73359798 118.22359 153.5625 127 C153.55476563 127.96180176 153.54703125 128.92360352 153.5390625 129.91455078 C153.36017337 137.2775775 152.2354044 143.47340766 149.0625 150.1875 C148.4025 150.1875 147.7425 150.1875 147.0625 150.1875 C146.918125 150.950625 146.77375 151.71375 146.625 152.5 C146.0625 155.1875 146.0625 155.1875 145.0625 158.1875 C144.4025 158.1875 143.7425 158.1875 143.0625 158.1875 C142.93875 159.239375 142.93875 159.239375 142.8125 160.3125 C141.8932079 163.83645306 140.1236446 166.21120719 138.0625 169.1875 C138.97314209 169.39842285 139.88378418 169.6093457 140.82202148 169.82666016 C162.82174487 174.95348448 183.24425215 180.00668419 203.0625 191.1875 C204.39020987 191.86529696 205.72066372 192.5381175 207.0625 193.1875 C207.0625 193.8475 207.0625 194.5075 207.0625 195.1875 C207.63484375 195.29449219 208.2071875 195.40148437 208.796875 195.51171875 C211.39462011 196.28656341 213.10589105 197.43235515 215.3125 199 C219.41883155 201.82608224 223.55881571 204.05848561 228.0625 206.1875 C228.0625 206.8475 228.0625 207.5075 228.0625 208.1875 C228.59488281 208.27 229.12726562 208.3525 229.67578125 208.4375 C245.39540819 213.3772191 262.36205839 232.77116686 271.0625 246.1875 C271.77269684 247.83608808 272.45165945 249.49957345 273.0625 251.1875 C273.7225 251.1875 274.3825 251.1875 275.0625 251.1875 C275.0625 252.1775 275.0625 253.1675 275.0625 254.1875 C275.7225 254.1875 276.3825 254.1875 277.0625 254.1875 C278.97265625 256.453125 278.97265625 256.453125 281.125 259.4375 C281.83785156 260.41203125 282.55070312 261.3865625 283.28515625 262.390625 C284.81665249 264.80062787 285.63246146 266.40878943 286.0625 269.1875 C286.7225 269.1875 287.3825 269.1875 288.0625 269.1875 C289.44148043 270.88560754 290.74209478 272.64785459 292 274.4375 C292.68964844 275.41203125 293.37929687 276.3865625 294.08984375 277.390625 C295.06630859 278.77507812 295.06630859 278.77507812 296.0625 280.1875 C296.64128906 280.92484375 297.22007812 281.6621875 297.81640625 282.421875 C299.0625 284.1875 299.0625 284.1875 299.0625 286.1875 C299.7225 286.1875 300.3825 286.1875 301.0625 286.1875 C302.09685556 287.83306566 303.09013513 289.5045608 304.0625 291.1875 C304.784375 292.05375 305.50625 292.92 306.25 293.8125 C308.0625 296.1875 308.0625 296.1875 308.0625 299.1875 C308.7225 299.1875 309.3825 299.1875 310.0625 299.1875 C312.10419485 302.09298882 313.0625 303.58892046 313.0625 307.1875 C313.7225 307.1875 314.3825 307.1875 315.0625 307.1875 C315.3925 308.8375 315.7225 310.4875 316.0625 312.1875 C316.7225 312.1875 317.3825 312.1875 318.0625 312.1875 C330.78012132 336.68503783 333.7327063 364.11139847 335.82885742 391.23413086 C336.0736711 393.28089601 336.5220003 395.20011563 337.0625 397.1875 C337.75472656 396.91486328 338.44695313 396.64222656 339.16015625 396.36132812 C355.952525 389.88996072 373.89231826 383.68482543 391.82421875 389.3828125 C396.64680263 391.84239467 400.53750919 395.07501072 404.0625 399.1875 C404.97708984 400.16976562 404.97708984 400.16976562 405.91015625 401.171875 C411.0625 406.78516402 411.0625 406.78516402 411.0625 410.1875 C411.7225 410.1875 412.3825 410.1875 413.0625 410.1875 C416.13581863 417.82175426 416.60537001 424.62322815 416.5625 432.8125 C416.55750488 434.05418945 416.55250977 435.29587891 416.54736328 436.57519531 C416.29951656 449.63073489 413.97046062 460.20357784 405.0625 470.1875 C404.1653125 471.4559375 404.1653125 471.4559375 403.25 472.75 C397.30052983 479.37940962 390.06636495 483.49659855 382.0625 487.1875 C381.36769531 487.56261719 380.67289063 487.93773437 379.95703125 488.32421875 C378.0625 489.1875 378.0625 489.1875 375.0625 489.1875 C375.0625 489.8475 375.0625 490.5075 375.0625 491.1875 C340.94886024 504.62331901 312.27160904 506.00639528 276.16894531 502.57666016 C262.5729276 501.28543815 248.97071703 500.04357349 235.3125 499.6875 C234.44842529 499.64471924 233.58435059 499.60193848 232.6940918 499.55786133 C228.24142743 499.43750899 228.24142743 499.43750899 224.48632812 501.5234375 C223.27693403 503.02574577 222.16410385 504.60445446 221.0625 506.1875 C217.60878881 507.33873706 214.83090738 507.29676733 211.1875 507.375 C195.16089704 508.11704141 178.85072429 513.13497827 166.375 523.3984375 C164.0625 525.1875 164.0625 525.1875 162.0625 525.1875 C161.815 525.744375 161.5675 526.30125 161.3125 526.875 C159.83325182 529.61160913 158.12782561 531.86400869 156.0625 534.1875 C155.4025 534.1875 154.7425 534.1875 154.0625 534.1875 C153.4025 535.8375 152.7425 537.4875 152.0625 539.1875 C151.4025 539.1875 150.7425 539.1875 150.0625 539.1875 C149.66611328 540.28771484 149.66611328 540.28771484 149.26171875 541.41015625 C148.06388132 544.18430092 146.69385065 546.22345121 144.875 548.625 C135.89090047 561.26585079 129.95128457 576.52114628 125.0625 591.1875 C124.4025 591.1875 123.7425 591.1875 123.0625 591.1875 C122.94132812 591.86554687 122.82015625 592.54359375 122.6953125 593.2421875 C121.83680274 598.01021862 120.94722049 602.76152599 119.9375 607.5 C118.40642723 613.93277659 118.40642723 613.93277659 120.18359375 620.03515625 C121.07970986 621.27144109 122.00710525 622.48584647 122.96875 623.671875 C124.0625 625.1875 124.0625 625.1875 124.0625 627.1875 C124.75085937 627.39890625 125.43921875 627.6103125 126.1484375 627.828125 C129.95607569 629.60434228 132.60380568 632.12565824 135.6875 634.9375 C149.97749903 647.52296382 163.94795703 650.40544894 182.59179688 651.91601562 C191.67866892 652.75840804 201.52949169 653.73609857 208.5078125 660.140625 C210.8767815 661.99757722 211.75786466 662.214084 214.81542969 661.94726562 C218.25982975 661.10654824 221.57647809 660.06633676 224.9375 658.9375 C227.45151291 658.155253 229.96584261 657.37402346 232.48046875 656.59375 C233.75982426 656.18558913 235.03895964 655.77673761 236.31787109 655.3671875 C241.92780882 653.59986327 247.58297552 652.01023431 253.25 650.4375 C254.27504639 650.1502002 255.30009277 649.86290039 256.35620117 649.56689453 C273.69140516 644.74135696 290.09472304 641.84817529 308.0625 641.1875 C308.91263672 641.15205078 309.76277344 641.11660156 310.63867188 641.08007812 C325.22478231 640.52213947 338.9828684 642.02230644 350.76953125 651.5703125 C359.09075578 659.9547362 360.59141564 671.62992754 360.75 682.875 C360.68263736 691.59846161 359.75226526 698.24780919 354.0625 705.1875 C353.57136719 705.84363281 353.08023438 706.49976563 352.57421875 707.17578125 C338.27559014 725.17432454 315.05271207 730.66666536 293.87304688 736.40625 C291.02158124 737.19887422 288.19148281 738.04722204 285.359375 738.90625 C267.81865079 744.09509542 250.11921122 746.69202971 232.04110718 749.20283508 C225.46799796 750.11789316 218.92104974 751.15824978 212.375 752.25 C195.98499123 754.90941648 179.5452738 757.18698464 163.0625 759.1875 C162.35536865 759.27427002 161.6482373 759.36104004 160.91967773 759.45043945 C139.88695977 762.00279693 118.87918159 762.46957219 97.7111702 762.49712753 C95.70847486 762.49997023 93.70578401 762.50554014 91.70309448 762.51113892 C87.89825458 762.51670003 84.09385992 762.50582208 80.2890625 762.48828125 C78.60021187 762.48942932 78.60021187 762.48942932 76.87724304 762.49060059 C68.80144492 762.42076038 61.0279524 761.47895789 53.0625 760.1875 C50.95720317 759.86476192 48.85175912 759.54298099 46.74609375 759.22265625 C44.66401473 758.89874441 42.58198439 758.57451951 40.5 758.25 C16.94567029 754.60019079 16.94567029 754.60019079 -6.72436523 751.83349609 C-9.79239627 751.53310097 -12.79153136 751.21475801 -15.82421875 750.6484375 C-19.3493886 750.12651775 -22.76601145 750.06141866 -26.32495117 749.99829102 C-39.37154528 749.73281729 -52.18929157 748.37253866 -65.125 746.75 C-66.45600739 746.58594666 -66.45600739 746.58594666 -67.81390381 746.4185791 C-70.37054731 746.10101669 -72.92566653 745.77342842 -75.48046875 745.44140625 C-76.24518997 745.34551712 -77.00991119 745.24962799 -77.79780579 745.15083313 C-82.06002415 744.57853996 -85.86943801 743.64186221 -89.9375 742.1875 C-91.29223965 741.87089153 -92.65427649 741.58283539 -94.0234375 741.3359375 C-94.72597656 741.20703125 -95.42851563 741.078125 -96.15234375 740.9453125 C-96.86519531 740.81898438 -97.57804687 740.69265625 -98.3125 740.5625 C-99.04855469 740.4284375 -99.78460937 740.294375 -100.54296875 740.15625 C-102.34044172 739.82943673 -104.13887633 739.50791989 -105.9375 739.1875 C-106.2675 740.5075 -106.5975 741.8275 -106.9375 743.1875 C-108.5091356 742.7591917 -110.08074418 742.33078425 -111.65234375 741.90234375 C-112.66022949 741.6276123 -113.66811523 741.35288086 -114.70654297 741.06982422 C-116.80234762 740.4974925 -118.89775087 739.92368807 -120.99267578 739.34814453 C-124.1606846 738.47801153 -127.32996013 737.61270388 -130.5 736.75 C-132.21062622 736.28388306 -132.21062622 736.28388306 -133.95581055 735.80834961 C-140.35897948 734.08408992 -146.74999178 732.55297138 -153.25 731.25 C-162.64390526 729.30506317 -171.38524186 725.85677929 -180.25878906 722.26953125 C-182.96652657 721.17577509 -185.68128398 720.10137849 -188.3984375 719.03125 C-197.81557908 715.30815427 -207.10278262 711.39840379 -216.3125 707.1875 C-221.41919544 704.90982345 -226.66460487 703.04040521 -231.9375 701.1875 C-231.9375 700.5275 -231.9375 699.8675 -231.9375 699.1875 C-232.99517578 699.03474609 -232.99517578 699.03474609 -234.07421875 698.87890625 C-237.34809645 698.08835188 -239.82334467 696.78226266 -242.75 695.125 C-243.72582031 694.57714844 -244.70164062 694.02929688 -245.70703125 693.46484375 C-246.81111328 692.83255859 -246.81111328 692.83255859 -247.9375 692.1875 C-247.9375 691.5275 -247.9375 690.8675 -247.9375 690.1875 C-248.63875 690.084375 -249.34 689.98125 -250.0625 689.875 C-253.32887647 689.09390997 -255.9846852 687.76691257 -258.9375 686.1875 C-258.9375 685.5275 -258.9375 684.8675 -258.9375 684.1875 C-259.63488281 684.08695313 -260.33226562 683.98640625 -261.05078125 683.8828125 C-273.60279858 680.85945785 -285.20735364 671.03160087 -294.4921875 662.4453125 C-296.82947287 660.2872439 -299.21850963 658.20518659 -301.625 656.125 C-305.07475304 653.06726435 -308.08336105 649.83436163 -311.0625 646.32421875 C-315.9729971 640.7282981 -321.31923861 635.49690954 -327 630.6875 C-331.73926302 626.62665909 -336.06886856 622.08597546 -339.9375 617.1875 C-339.9375 616.5275 -339.9375 615.8675 -339.9375 615.1875 C-340.5975 615.1875 -341.2575 615.1875 -341.9375 615.1875 C-343.57970655 612.77754706 -345.08776599 610.38435209 -346.5625 607.875 C-346.98273437 607.18470703 -347.40296875 606.49441406 -347.8359375 605.78320312 C-350.9375 600.57197392 -350.9375 600.57197392 -350.9375 597.1875 C-351.5975 597.1875 -352.2575 597.1875 -352.9375 597.1875 C-355.79288841 591.01411836 -358.30517559 584.74406024 -360.7109375 578.3828125 C-361.77733345 575.60474917 -362.90756056 572.86687912 -364.0625 570.125 C-372.58454848 548.59741568 -372.50425642 524.96402371 -371.9375 502.1875 C-371.92203125 501.38086914 -371.9065625 500.57423828 -371.890625 499.74316406 C-371.44025578 479.76741277 -367.34491223 460.04775708 -360.9375 441.1875 C-360.64407715 440.31125977 -360.3506543 439.43501953 -360.04833984 438.53222656 C-355.70862006 425.62231565 -351.09483822 413.7020327 -343.9375 402.0625 C-342.89518019 400.35196032 -341.85350102 398.64103009 -340.8125 396.9296875 C-340.3179834 396.11862549 -339.8234668 395.30756348 -339.31396484 394.47192383 C-338.11123883 392.47584236 -336.93927434 390.46803616 -335.7890625 388.44140625 C-334.02228901 385.33650684 -332.20091423 382.28227748 -330.3125 379.25 C-329.72210937 378.29222656 -329.13171875 377.33445312 -328.5234375 376.34765625 C-328.00007812 375.63480469 -327.47671875 374.92195313 -326.9375 374.1875 C-326.2775 374.1875 -325.6175 374.1875 -324.9375 374.1875 C-324.83308594 373.62546875 -324.72867188 373.0634375 -324.62109375 372.484375 C-323.81136765 369.76369529 -322.57546662 367.79492193 -321 365.4375 C-320.47535156 364.63828125 -319.95070313 363.8390625 -319.41015625 363.015625 C-318.92417969 362.41234375 -318.43820312 361.8090625 -317.9375 361.1875 C-317.2775 361.1875 -316.6175 361.1875 -315.9375 361.1875 C-315.68484375 360.46046875 -315.4321875 359.7334375 -315.171875 358.984375 C-313.84270361 355.97270818 -312.31281214 353.94632711 -310.1875 351.4375 C-309.38183594 350.4784375 -308.57617188 349.519375 -307.74609375 348.53125 C-307.29862793 348.00144531 -306.85116211 347.47164062 -306.39013672 346.92578125 C-304.81379333 345.03946782 -303.26660684 343.13165769 -301.72265625 341.21875 C-294.32121229 332.07492018 -286.59639252 323.36795 -278.49462891 314.84179688 C-275.53479802 311.6972666 -272.67149267 308.46762014 -269.8046875 305.23828125 C-267.901359 303.14780539 -266.01979226 301.10130803 -263.9375 299.1875 C-263.2775 299.1875 -262.6175 299.1875 -261.9375 299.1875 C-261.6075 298.1975 -261.2775 297.2075 -260.9375 296.1875 C-259.3359375 294.57421875 -259.3359375 294.57421875 -257.3125 292.875 C-256.59578125 292.26914062 -255.8790625 291.66328125 -255.140625 291.0390625 C-254.05007813 290.12253906 -254.05007813 290.12253906 -252.9375 289.1875 C-252.27234375 288.59710937 -251.6071875 288.00671875 -250.921875 287.3984375 C-250.30828125 286.85445312 -249.6946875 286.31046875 -249.0625 285.75 C-248.50820313 285.25628906 -247.95390625 284.76257813 -247.3828125 284.25390625 C-245.9375 283.1875 -245.9375 283.1875 -243.9375 283.1875 C-243.9375 282.5275 -243.9375 281.8675 -243.9375 281.1875 C-241.76586196 279.40821673 -239.5924407 277.75579092 -237.3125 276.125 C-236.63316406 275.63330322 -235.95382812 275.14160645 -235.25390625 274.63500977 C-229.78981315 270.71624633 -224.19154652 267.04637687 -218.5078125 263.45703125 C-214.56985823 260.96798852 -210.68835651 258.39687654 -206.8125 255.8125 C-206.18472656 255.39540771 -205.55695313 254.97831543 -204.91015625 254.54858398 C-202.44035799 252.8996977 -200.01761303 251.25142294 -197.6953125 249.3984375 C-195.9375 248.1875 -195.9375 248.1875 -192.9375 248.1875 C-192.9375 247.5275 -192.9375 246.8675 -192.9375 246.1875 C-190.03201118 244.14580515 -188.53607954 243.1875 -184.9375 243.1875 C-184.9375 242.5275 -184.9375 241.8675 -184.9375 241.1875 C-182.953125 239.77734375 -182.953125 239.77734375 -180.1875 238.125 C-174.62294862 234.70399176 -169.51610035 230.91777518 -164.37109375 226.91015625 C-161.9375 225.1875 -161.9375 225.1875 -159.9375 225.1875 C-159.9375 224.5275 -159.9375 223.8675 -159.9375 223.1875 C-158.91398438 222.60484375 -157.89046875 222.0221875 -156.8359375 221.421875 C-154.47589451 220.074294 -152.12934399 218.71022672 -149.7890625 217.328125 C-142.59263934 213.11133467 -135.30367095 209.34736695 -127.71142578 205.88964844 C-124.73055691 204.52821769 -121.92495409 203.17977005 -119.12890625 201.45703125 C-116.9375 200.1875 -116.9375 200.1875 -113.9375 200.1875 C-113.9375 199.5275 -113.9375 198.8675 -113.9375 198.1875 C-107.01188344 194.6719586 -100.07567323 191.2518673 -92.9375 188.1875 C-93.081875 187.32511719 -93.22625 186.46273437 -93.375 185.57421875 C-96.64029253 164.10038522 -97.12100647 135.84075916 -83.9375 117.1875 C-83.2775 117.1875 -82.6175 117.1875 -81.9375 117.1875 C-81.83566406 116.59839844 -81.73382812 116.00929688 -81.62890625 115.40234375 C-79.78721431 109.50268651 -73.21824467 105.30142985 -68.0859375 102.3125 C-53.6927419 94.77569939 -37.65256699 93.27683817 -21.9375 97.1875 C-20.25894232 97.82363389 -18.58818128 98.48218197 -16.9375 99.1875 C-16.9375 99.8475 -16.9375 100.5075 -16.9375 101.1875 C-16.380625 101.27 -15.82375 101.3525 -15.25 101.4375 C-12.20072081 102.42645541 -10.28560037 104.03507466 -7.9375 106.1875 C-7.9375 106.8475 -7.9375 107.5075 -7.9375 108.1875 C-7.339375 108.435 -6.74125 108.6825 -6.125 108.9375 C-3.62123081 110.36822525 -2.45677612 111.7566582 -0.9375 114.1875 C-0.9375 114.8475 -0.9375 115.5075 -0.9375 116.1875 C-0.2775 116.1875 0.3825 116.1875 1.0625 116.1875 C0.90185059 115.68565186 0.74120117 115.18380371 0.57568359 114.66674805 C-0.12311346 111.29078035 -0.1133083 107.95233279 -0.1484375 104.51953125 C-0.17656777 102.9693916 -0.20523239 101.41926157 -0.234375 99.86914062 C-0.27509107 97.45647107 -0.3120106 95.04396899 -0.33886719 92.63110352 C-0.54388822 75.63379977 -3.1739202 60.3604135 -8.4375 44.1875 C-8.82808594 42.95644531 -9.21867187 41.72539063 -9.62109375 40.45703125 C-11.25357255 35.32873927 -12.92379495 30.22108467 -14.69921875 25.140625 C-16.58224073 19.51368165 -16.65875299 14.13808042 -15.25 8.375 C-11.32424383 1.83207305 -7.36027214 0.04548994 0 0 Z M-202.9375 295.1875 C-202.6075 295.8475 -202.2775 296.5075 -201.9375 297.1875 C-201.2775 296.5275 -200.6175 295.8675 -199.9375 295.1875 C-200.9275 295.1875 -201.9175 295.1875 -202.9375 295.1875 Z M-243.9375 329.1875 C-240.19158338 329.1875 -239.77464691 328.40305699 -237.125 325.875 C-233.17560396 322.24181378 -229.10105819 318.86313988 -224.875 315.5625 C-224.27373291 315.09166992 -223.67246582 314.62083984 -223.05297852 314.13574219 C-219.76370225 311.57276334 -216.43645063 309.07605827 -213.0625 306.625 C-212.03125 305.820625 -211 305.01625 -209.9375 304.1875 C-209.9375 303.5275 -209.9375 302.8675 -209.9375 302.1875 C-209.15375 301.919375 -208.37 301.65125 -207.5625 301.375 C-204.65635077 300.33935568 -204.65635077 300.33935568 -202.9375 297.1875 C-215.6478846 297.1875 -235.28631626 321.0291873 -243.9375 329.1875 Z M-244.9375 330.1875 C-245.2675 330.8475 -245.5975 331.5075 -245.9375 332.1875 C-245.2775 332.1875 -244.6175 332.1875 -243.9375 332.1875 C-244.2675 331.5275 -244.5975 330.8675 -244.9375 330.1875 Z " fill="#F9F8EE" transform="translate(1066.9375,508.8125)"/>
<path d="M0 0 C1.04027344 -0.01417969 2.08054687 -0.02835937 3.15234375 -0.04296875 C6.01296613 0.18357718 7.63920151 0.71016381 10.0625 2.1875 C10.0625 2.8475 10.0625 3.5075 10.0625 4.1875 C10.7225 4.1875 11.3825 4.1875 12.0625 4.1875 C13.4296875 5.65625 13.4296875 5.65625 14.9375 7.6875 C15.42992187 8.3371875 15.92234375 8.986875 16.4296875 9.65625 C20.33604279 15.71203523 22.91532865 22.08306838 25.0625 28.9375 C25.29710937 29.64003906 25.53171875 30.34257813 25.7734375 31.06640625 C26.62557243 33.75567079 27.35685011 36.45571017 28.0625 39.1875 C28.2332605 39.84584839 28.404021 40.50419678 28.57995605 41.18249512 C32.2515816 55.8145848 32.54763888 69.91744921 32.3125 84.9375 C32.2923727 87.20701521 32.27413312 89.47654797 32.2578125 91.74609375 C32.21438416 97.22695508 32.1479822 102.70714129 32.0625 108.1875 C32.7225 107.8575 33.3825 107.5275 34.0625 107.1875 C41.65719625 106.67527665 48.34299053 106.38951639 55.0625 110.1875 C55.784375 110.496875 56.50625 110.80625 57.25 111.125 C59.60075928 112.5030313 61.27300894 114.14236736 63.0625 116.1875 C63.0625 116.8475 63.0625 117.5075 63.0625 118.1875 C63.59617187 117.84493164 64.12984375 117.50236328 64.6796875 117.14941406 C67.13802488 115.57467459 69.60021848 114.00606452 72.0625 112.4375 C72.90167969 111.89867187 73.74085938 111.35984375 74.60546875 110.8046875 C88.16177591 102.1875 88.16177591 102.1875 93.0625 102.1875 C93.0625 101.5275 93.0625 100.8675 93.0625 100.1875 C95.43566118 99.36927267 97.8107942 98.55781293 100.1875 97.75 C100.85265625 97.51990234 101.5178125 97.28980469 102.203125 97.05273438 C109.33229818 94.64139639 116.00630354 93.98437222 123.5 93.9375 C124.32048828 93.916875 125.14097656 93.89625 125.98632812 93.875 C132.7636283 93.83172913 137.53114975 94.9504928 142.75 99.5625 C143.513125 100.42875 144.27625 101.295 145.0625 102.1875 C145.743125 102.93 146.42375 103.6725 147.125 104.4375 C152.22398499 111.67476901 153.73359798 118.22359 153.5625 127 C153.55476563 127.96180176 153.54703125 128.92360352 153.5390625 129.91455078 C153.36017337 137.2775775 152.2354044 143.47340766 149.0625 150.1875 C148.4025 150.1875 147.7425 150.1875 147.0625 150.1875 C146.918125 150.950625 146.77375 151.71375 146.625 152.5 C146.0625 155.1875 146.0625 155.1875 145.0625 158.1875 C144.4025 158.1875 143.7425 158.1875 143.0625 158.1875 C142.93875 159.239375 142.93875 159.239375 142.8125 160.3125 C141.8932079 163.83645306 140.1236446 166.21120719 138.0625 169.1875 C138.97314209 169.39842285 139.88378418 169.6093457 140.82202148 169.82666016 C162.82174487 174.95348448 183.24425215 180.00668419 203.0625 191.1875 C204.39020987 191.86529696 205.72066372 192.5381175 207.0625 193.1875 C207.0625 193.8475 207.0625 194.5075 207.0625 195.1875 C207.63484375 195.29449219 208.2071875 195.40148437 208.796875 195.51171875 C211.39462011 196.28656341 213.10589105 197.43235515 215.3125 199 C219.41883155 201.82608224 223.55881571 204.05848561 228.0625 206.1875 C228.0625 206.8475 228.0625 207.5075 228.0625 208.1875 C228.59488281 208.27 229.12726562 208.3525 229.67578125 208.4375 C245.39540819 213.3772191 262.36205839 232.77116686 271.0625 246.1875 C271.77269684 247.83608808 272.45165945 249.49957345 273.0625 251.1875 C273.7225 251.1875 274.3825 251.1875 275.0625 251.1875 C275.0625 252.1775 275.0625 253.1675 275.0625 254.1875 C275.7225 254.1875 276.3825 254.1875 277.0625 254.1875 C278.97265625 256.453125 278.97265625 256.453125 281.125 259.4375 C281.83785156 260.41203125 282.55070312 261.3865625 283.28515625 262.390625 C284.81665249 264.80062787 285.63246146 266.40878943 286.0625 269.1875 C286.7225 269.1875 287.3825 269.1875 288.0625 269.1875 C289.44148043 270.88560754 290.74209478 272.64785459 292 274.4375 C292.68964844 275.41203125 293.37929687 276.3865625 294.08984375 277.390625 C295.06630859 278.77507812 295.06630859 278.77507812 296.0625 280.1875 C296.64128906 280.92484375 297.22007812 281.6621875 297.81640625 282.421875 C299.0625 284.1875 299.0625 284.1875 299.0625 286.1875 C299.7225 286.1875 300.3825 286.1875 301.0625 286.1875 C302.09685556 287.83306566 303.09013513 289.5045608 304.0625 291.1875 C304.784375 292.05375 305.50625 292.92 306.25 293.8125 C308.0625 296.1875 308.0625 296.1875 308.0625 299.1875 C308.7225 299.1875 309.3825 299.1875 310.0625 299.1875 C312.10419485 302.09298882 313.0625 303.58892046 313.0625 307.1875 C313.7225 307.1875 314.3825 307.1875 315.0625 307.1875 C315.3925 308.8375 315.7225 310.4875 316.0625 312.1875 C316.7225 312.1875 317.3825 312.1875 318.0625 312.1875 C330.78012132 336.68503783 333.7327063 364.11139847 335.82885742 391.23413086 C336.0736711 393.28089601 336.5220003 395.20011563 337.0625 397.1875 C337.75472656 396.91486328 338.44695313 396.64222656 339.16015625 396.36132812 C355.952525 389.88996072 373.89231826 383.68482543 391.82421875 389.3828125 C396.64680263 391.84239467 400.53750919 395.07501072 404.0625 399.1875 C404.97708984 400.16976562 404.97708984 400.16976562 405.91015625 401.171875 C411.0625 406.78516402 411.0625 406.78516402 411.0625 410.1875 C411.7225 410.1875 412.3825 410.1875 413.0625 410.1875 C416.13581863 417.82175426 416.60537001 424.62322815 416.5625 432.8125 C416.55750488 434.05418945 416.55250977 435.29587891 416.54736328 436.57519531 C416.29951656 449.63073489 413.97046062 460.20357784 405.0625 470.1875 C404.1653125 471.4559375 404.1653125 471.4559375 403.25 472.75 C397.30052983 479.37940962 390.06636495 483.49659855 382.0625 487.1875 C381.36769531 487.56261719 380.67289063 487.93773437 379.95703125 488.32421875 C378.0625 489.1875 378.0625 489.1875 375.0625 489.1875 C375.0625 489.8475 375.0625 490.5075 375.0625 491.1875 C340.94886024 504.62331901 312.27160904 506.00639528 276.16894531 502.57666016 C262.5729276 501.28543815 248.97071703 500.04357349 235.3125 499.6875 C234.44842529 499.64471924 233.58435059 499.60193848 232.6940918 499.55786133 C228.24142743 499.43750899 228.24142743 499.43750899 224.48632812 501.5234375 C223.27693403 503.02574577 222.16410385 504.60445446 221.0625 506.1875 C217.60878881 507.33873706 214.83090738 507.29676733 211.1875 507.375 C195.16089704 508.11704141 178.85072429 513.13497827 166.375 523.3984375 C164.0625 525.1875 164.0625 525.1875 162.0625 525.1875 C161.815 525.744375 161.5675 526.30125 161.3125 526.875 C159.83325182 529.61160913 158.12782561 531.86400869 156.0625 534.1875 C155.4025 534.1875 154.7425 534.1875 154.0625 534.1875 C153.4025 535.8375 152.7425 537.4875 152.0625 539.1875 C151.4025 539.1875 150.7425 539.1875 150.0625 539.1875 C149.66611328 540.28771484 149.66611328 540.28771484 149.26171875 541.41015625 C148.06388132 544.18430092 146.69385065 546.22345121 144.875 548.625 C135.89090047 561.26585079 129.95128457 576.52114628 125.0625 591.1875 C124.4025 591.1875 123.7425 591.1875 123.0625 591.1875 C122.94132812 591.86554687 122.82015625 592.54359375 122.6953125 593.2421875 C121.83680274 598.01021862 120.94722049 602.76152599 119.9375 607.5 C118.40642723 613.93277659 118.40642723 613.93277659 120.18359375 620.03515625 C121.07970986 621.27144109 122.00710525 622.48584647 122.96875 623.671875 C124.0625 625.1875 124.0625 625.1875 124.0625 627.1875 C124.75085937 627.39890625 125.43921875 627.6103125 126.1484375 627.828125 C129.95607569 629.60434228 132.60380568 632.12565824 135.6875 634.9375 C149.97749903 647.52296382 163.94795703 650.40544894 182.59179688 651.91601562 C191.67866892 652.75840804 201.52949169 653.73609857 208.5078125 660.140625 C210.8767815 661.99757722 211.75786466 662.214084 214.81542969 661.94726562 C218.25982975 661.10654824 221.57647809 660.06633676 224.9375 658.9375 C227.45151291 658.155253 229.96584261 657.37402346 232.48046875 656.59375 C233.75982426 656.18558913 235.03895964 655.77673761 236.31787109 655.3671875 C241.92780882 653.59986327 247.58297552 652.01023431 253.25 650.4375 C254.27504639 650.1502002 255.30009277 649.86290039 256.35620117 649.56689453 C273.69140516 644.74135696 290.09472304 641.84817529 308.0625 641.1875 C308.91263672 641.15205078 309.76277344 641.11660156 310.63867188 641.08007812 C325.22478231 640.52213947 338.9828684 642.02230644 350.76953125 651.5703125 C359.09075578 659.9547362 360.59141564 671.62992754 360.75 682.875 C360.68263736 691.59846161 359.75226526 698.24780919 354.0625 705.1875 C353.57136719 705.84363281 353.08023438 706.49976563 352.57421875 707.17578125 C338.27559014 725.17432454 315.05271207 730.66666536 293.87304688 736.40625 C291.02158124 737.19887422 288.19148281 738.04722204 285.359375 738.90625 C267.81865079 744.09509542 250.11921122 746.69202971 232.04110718 749.20283508 C225.46799796 750.11789316 218.92104974 751.15824978 212.375 752.25 C195.98499123 754.90941648 179.5452738 757.18698464 163.0625 759.1875 C162.35536865 759.27427002 161.6482373 759.36104004 160.91967773 759.45043945 C139.88695977 762.00279693 118.87918159 762.46957219 97.7111702 762.49712753 C95.70847486 762.49997023 93.70578401 762.50554014 91.70309448 762.51113892 C87.89825458 762.51670003 84.09385992 762.50582208 80.2890625 762.48828125 C78.60021187 762.48942932 78.60021187 762.48942932 76.87724304 762.49060059 C68.80144492 762.42076038 61.0279524 761.47895789 53.0625 760.1875 C50.95720317 759.86476192 48.85175912 759.54298099 46.74609375 759.22265625 C44.66401473 758.89874441 42.58198439 758.57451951 40.5 758.25 C16.94567029 754.60019079 16.94567029 754.60019079 -6.72436523 751.83349609 C-9.79239627 751.53310097 -12.79153136 751.21475801 -15.82421875 750.6484375 C-19.3493886 750.12651775 -22.76601145 750.06141866 -26.32495117 749.99829102 C-39.37154528 749.73281729 -52.18929157 748.37253866 -65.125 746.75 C-66.45600739 746.58594666 -66.45600739 746.58594666 -67.81390381 746.4185791 C-70.37054731 746.10101669 -72.92566653 745.77342842 -75.48046875 745.44140625 C-76.24518997 745.34551712 -77.00991119 745.24962799 -77.79780579 745.15083313 C-82.06002415 744.57853996 -85.86943801 743.64186221 -89.9375 742.1875 C-91.29223965 741.87089153 -92.65427649 741.58283539 -94.0234375 741.3359375 C-94.72597656 741.20703125 -95.42851563 741.078125 -96.15234375 740.9453125 C-96.86519531 740.81898438 -97.57804687 740.69265625 -98.3125 740.5625 C-99.04855469 740.4284375 -99.78460937 740.294375 -100.54296875 740.15625 C-102.34044172 739.82943673 -104.13887633 739.50791989 -105.9375 739.1875 C-106.2675 740.5075 -106.5975 741.8275 -106.9375 743.1875 C-108.5091356 742.7591917 -110.08074418 742.33078425 -111.65234375 741.90234375 C-112.66022949 741.6276123 -113.66811523 741.35288086 -114.70654297 741.06982422 C-116.80234762 740.4974925 -118.89775087 739.92368807 -120.99267578 739.34814453 C-124.1606846 738.47801153 -127.32996013 737.61270388 -130.5 736.75 C-132.21062622 736.28388306 -132.21062622 736.28388306 -133.95581055 735.80834961 C-140.35897948 734.08408992 -146.74999178 732.55297138 -153.25 731.25 C-162.64390526 729.30506317 -171.38524186 725.85677929 -180.25878906 722.26953125 C-182.96652657 721.17577509 -185.68128398 720.10137849 -188.3984375 719.03125 C-197.81557908 715.30815427 -207.10278262 711.39840379 -216.3125 707.1875 C-221.41919544 704.90982345 -226.66460487 703.04040521 -231.9375 701.1875 C-231.9375 700.5275 -231.9375 699.8675 -231.9375 699.1875 C-232.99517578 699.03474609 -232.99517578 699.03474609 -234.07421875 698.87890625 C-237.34809645 698.08835188 -239.82334467 696.78226266 -242.75 695.125 C-243.72582031 694.57714844 -244.70164062 694.02929688 -245.70703125 693.46484375 C-246.81111328 692.83255859 -246.81111328 692.83255859 -247.9375 692.1875 C-247.9375 691.5275 -247.9375 690.8675 -247.9375 690.1875 C-248.63875 690.084375 -249.34 689.98125 -250.0625 689.875 C-253.32887647 689.09390997 -255.9846852 687.76691257 -258.9375 686.1875 C-258.9375 685.5275 -258.9375 684.8675 -258.9375 684.1875 C-259.63488281 684.08695313 -260.33226562 683.98640625 -261.05078125 683.8828125 C-273.60279858 680.85945785 -285.20735364 671.03160087 -294.4921875 662.4453125 C-296.82947287 660.2872439 -299.21850963 658.20518659 -301.625 656.125 C-305.07475304 653.06726435 -308.08336105 649.83436163 -311.0625 646.32421875 C-315.9729971 640.7282981 -321.31923861 635.49690954 -327 630.6875 C-331.73926302 626.62665909 -336.06886856 622.08597546 -339.9375 617.1875 C-339.9375 616.5275 -339.9375 615.8675 -339.9375 615.1875 C-340.5975 615.1875 -341.2575 615.1875 -341.9375 615.1875 C-343.57970655 612.77754706 -345.08776599 610.38435209 -346.5625 607.875 C-346.98273437 607.18470703 -347.40296875 606.49441406 -347.8359375 605.78320312 C-350.9375 600.57197392 -350.9375 600.57197392 -350.9375 597.1875 C-351.5975 597.1875 -352.2575 597.1875 -352.9375 597.1875 C-355.79288841 591.01411836 -358.30517559 584.74406024 -360.7109375 578.3828125 C-361.77733345 575.60474917 -362.90756056 572.86687912 -364.0625 570.125 C-372.58454848 548.59741568 -372.50425642 524.96402371 -371.9375 502.1875 C-371.92203125 501.38086914 -371.9065625 500.57423828 -371.890625 499.74316406 C-371.44025578 479.76741277 -367.34491223 460.04775708 -360.9375 441.1875 C-360.64407715 440.31125977 -360.3506543 439.43501953 -360.04833984 438.53222656 C-355.70862006 425.62231565 -351.09483822 413.7020327 -343.9375 402.0625 C-342.89518019 400.35196032 -341.85350102 398.64103009 -340.8125 396.9296875 C-340.3179834 396.11862549 -339.8234668 395.30756348 -339.31396484 394.47192383 C-338.11123883 392.47584236 -336.93927434 390.46803616 -335.7890625 388.44140625 C-334.02228901 385.33650684 -332.20091423 382.28227748 -330.3125 379.25 C-329.72210937 378.29222656 -329.13171875 377.33445312 -328.5234375 376.34765625 C-328.00007812 375.63480469 -327.47671875 374.92195313 -326.9375 374.1875 C-326.2775 374.1875 -325.6175 374.1875 -324.9375 374.1875 C-324.83308594 373.62546875 -324.72867188 373.0634375 -324.62109375 372.484375 C-323.81136765 369.76369529 -322.57546662 367.79492193 -321 365.4375 C-320.47535156 364.63828125 -319.95070313 363.8390625 -319.41015625 363.015625 C-318.92417969 362.41234375 -318.43820312 361.8090625 -317.9375 361.1875 C-317.2775 361.1875 -316.6175 361.1875 -315.9375 361.1875 C-315.68484375 360.46046875 -315.4321875 359.7334375 -315.171875 358.984375 C-313.84270361 355.97270818 -312.31281214 353.94632711 -310.1875 351.4375 C-309.38183594 350.4784375 -308.57617188 349.519375 -307.74609375 348.53125 C-307.29862793 348.00144531 -306.85116211 347.47164062 -306.39013672 346.92578125 C-304.81379333 345.03946782 -303.26660684 343.13165769 -301.72265625 341.21875 C-294.32121229 332.07492018 -286.59639252 323.36795 -278.49462891 314.84179688 C-275.53479802 311.6972666 -272.67149267 308.46762014 -269.8046875 305.23828125 C-267.901359 303.14780539 -266.01979226 301.10130803 -263.9375 299.1875 C-263.2775 299.1875 -262.6175 299.1875 -261.9375 299.1875 C-261.6075 298.1975 -261.2775 297.2075 -260.9375 296.1875 C-259.3359375 294.57421875 -259.3359375 294.57421875 -257.3125 292.875 C-256.59578125 292.26914062 -255.8790625 291.66328125 -255.140625 291.0390625 C-254.05007813 290.12253906 -254.05007813 290.12253906 -252.9375 289.1875 C-252.27234375 288.59710937 -251.6071875 288.00671875 -250.921875 287.3984375 C-250.30828125 286.85445312 -249.6946875 286.31046875 -249.0625 285.75 C-248.50820313 285.25628906 -247.95390625 284.76257813 -247.3828125 284.25390625 C-245.9375 283.1875 -245.9375 283.1875 -243.9375 283.1875 C-243.9375 282.5275 -243.9375 281.8675 -243.9375 281.1875 C-241.76586196 279.40821673 -239.5924407 277.75579092 -237.3125 276.125 C-236.63316406 275.63330322 -235.95382812 275.14160645 -235.25390625 274.63500977 C-229.78981315 270.71624633 -224.19154652 267.04637687 -218.5078125 263.45703125 C-214.56985823 260.96798852 -210.68835651 258.39687654 -206.8125 255.8125 C-206.18472656 255.39540771 -205.55695313 254.97831543 -204.91015625 254.54858398 C-202.44035799 252.8996977 -200.01761303 251.25142294 -197.6953125 249.3984375 C-195.9375 248.1875 -195.9375 248.1875 -192.9375 248.1875 C-192.9375 247.5275 -192.9375 246.8675 -192.9375 246.1875 C-190.03201118 244.14580515 -188.53607954 243.1875 -184.9375 243.1875 C-184.9375 242.5275 -184.9375 241.8675 -184.9375 241.1875 C-182.953125 239.77734375 -182.953125 239.77734375 -180.1875 238.125 C-174.62294862 234.70399176 -169.51610035 230.91777518 -164.37109375 226.91015625 C-161.9375 225.1875 -161.9375 225.1875 -159.9375 225.1875 C-159.9375 224.5275 -159.9375 223.8675 -159.9375 223.1875 C-158.91398438 222.60484375 -157.89046875 222.0221875 -156.8359375 221.421875 C-154.47589451 220.074294 -152.12934399 218.71022672 -149.7890625 217.328125 C-142.59263934 213.11133467 -135.30367095 209.34736695 -127.71142578 205.88964844 C-124.73055691 204.52821769 -121.92495409 203.17977005 -119.12890625 201.45703125 C-116.9375 200.1875 -116.9375 200.1875 -113.9375 200.1875 C-113.9375 199.5275 -113.9375 198.8675 -113.9375 198.1875 C-107.01188344 194.6719586 -100.07567323 191.2518673 -92.9375 188.1875 C-93.081875 187.32511719 -93.22625 186.46273437 -93.375 185.57421875 C-96.64029253 164.10038522 -97.12100647 135.84075916 -83.9375 117.1875 C-83.2775 117.1875 -82.6175 117.1875 -81.9375 117.1875 C-81.83566406 116.59839844 -81.73382812 116.00929688 -81.62890625 115.40234375 C-79.78721431 109.50268651 -73.21824467 105.30142985 -68.0859375 102.3125 C-53.6927419 94.77569939 -37.65256699 93.27683817 -21.9375 97.1875 C-20.25894232 97.82363389 -18.58818128 98.48218197 -16.9375 99.1875 C-16.9375 99.8475 -16.9375 100.5075 -16.9375 101.1875 C-16.380625 101.27 -15.82375 101.3525 -15.25 101.4375 C-12.20072081 102.42645541 -10.28560037 104.03507466 -7.9375 106.1875 C-7.9375 106.8475 -7.9375 107.5075 -7.9375 108.1875 C-7.339375 108.435 -6.74125 108.6825 -6.125 108.9375 C-3.62123081 110.36822525 -2.45677612 111.7566582 -0.9375 114.1875 C-0.9375 114.8475 -0.9375 115.5075 -0.9375 116.1875 C-0.2775 116.1875 0.3825 116.1875 1.0625 116.1875 C0.90185059 115.68565186 0.74120117 115.18380371 0.57568359 114.66674805 C-0.12311346 111.29078035 -0.1133083 107.95233279 -0.1484375 104.51953125 C-0.17656777 102.9693916 -0.20523239 101.41926157 -0.234375 99.86914062 C-0.27509107 97.45647107 -0.3120106 95.04396899 -0.33886719 92.63110352 C-0.54388822 75.63379977 -3.1739202 60.3604135 -8.4375 44.1875 C-8.82808594 42.95644531 -9.21867187 41.72539063 -9.62109375 40.45703125 C-11.25357255 35.32873927 -12.92379495 30.22108467 -14.69921875 25.140625 C-16.58224073 19.51368165 -16.65875299 14.13808042 -15.25 8.375 C-11.32424383 1.83207305 -7.36027214 0.04548994 0 0 Z M74.47265625 152.51171875 C70.16343976 157.118693 67.22784333 162.1402323 64.484375 167.8046875 C62.30720141 171.45324764 60.04919071 172.8586031 56.0625 174.1875 C50.39570603 174.74878245 45.88292231 174.51588683 41.0625 171.1875 C34.86010907 162.84635357 36.78898072 151.89808448 38.0625 142.1875 C32.71503593 142.68796779 28.54887516 144.0406177 23.8125 146.625 C23.16498779 146.97771973 22.51747559 147.33043945 21.8503418 147.69384766 C12.89360535 152.77378773 4.91145542 158.72413789 1.84375 168.9609375 C0.50988274 172.76245918 -1.30896576 174.78752367 -4.6875 176.9375 C-9.81493404 178.90959002 -13.42611825 178.67421616 -18.625 177 C-22.89725836 174.6623492 -24.80983054 172.16092155 -27.1875 168 C-28.56814247 162.82259074 -28.6337452 157.27623561 -26.9375 152.1875 C-26.33831402 145.1226793 -26.96168201 137.26816281 -30.9375 131.1875 C-35.2375856 128.32077627 -38.8914439 128.60329669 -43.9375 129.1875 C-49.13278693 130.62745354 -53.61542216 132.84255777 -56.8828125 137.29296875 C-62.214173 146.86967188 -64.28537004 157.42720485 -64.1875 168.25 C-64.19523437 169.10916016 -64.20296875 169.96832031 -64.2109375 170.85351562 C-64.19520153 176.00311316 -63.76462922 180.35282818 -61.9375 185.1875 C-60.30814759 186.56618281 -58.64000393 187.90024093 -56.9375 189.1875 C-54.16387952 193.30010967 -53.27931169 196.98761446 -53.4609375 201.875 C-54.35617131 206.21908539 -56.76593553 209.18508564 -59.9375 212.1875 C-64.19530639 214.85906479 -66.9816687 215.22504393 -71.8125 214.75 C-79.90672376 214.56379999 -85.81924411 219.38842792 -92.38867188 223.58691406 C-97.14581885 226.57425655 -102.0177983 229.36696688 -106.875 232.1875 C-107.90286621 232.78965332 -108.93073242 233.39180664 -109.98974609 234.01220703 C-115.29794524 237.11433578 -120.63657845 240.12375566 -126.06176758 243.015625 C-135.97811651 248.3261767 -144.81335428 254.73495559 -153.75244141 261.54052734 C-156.91516412 263.9244075 -160.13937141 266.21658754 -163.375 268.5 C-168.84847608 272.37198634 -174.20002469 276.38286745 -179.51171875 280.47265625 C-181.9375 282.1875 -181.9375 282.1875 -184.9375 283.1875 C-184.9375 283.8475 -184.9375 284.5075 -184.9375 285.1875 C-186.01644531 285.57228516 -186.01644531 285.57228516 -187.1171875 285.96484375 C-190.10163148 287.25865395 -192.44193437 288.83065606 -195.0625 290.75 C-197.77250053 292.73101862 -199.7413487 294.12211623 -202.9375 295.1875 C-202.9375 295.8475 -202.9375 296.5075 -202.9375 297.1875 C-203.66710937 297.45433594 -204.39671875 297.72117187 -205.1484375 297.99609375 C-217.55083517 303.29403673 -228.14149429 314.32569937 -237.875 323.4375 C-238.60920166 324.12320068 -239.34340332 324.80890137 -240.09985352 325.51538086 C-243.68173818 328.90293495 -246.90779303 332.28748844 -249.9375 336.1875 C-253.36089809 339.75633657 -256.98796177 343.03380871 -260.6875 346.3125 C-266.40499844 351.48764088 -271.19338216 357.10386654 -275.9375 363.1875 C-276.84476625 364.29794042 -277.75507403 365.40590085 -278.66796875 366.51171875 C-291.44363237 382.0595815 -302.56323297 398.60033913 -312.64599609 416.00244141 C-313.76961899 417.90346692 -314.9354929 419.75821854 -316.14453125 421.60546875 C-323.41052105 433.14219811 -326.98617954 446.2327248 -330.9375 459.1875 C-331.30149902 460.36723389 -331.30149902 460.36723389 -331.67285156 461.57080078 C-336.80523717 478.45236391 -338.50791927 495.49419614 -338.375 513.0625 C-338.37162628 513.93391632 -338.36825256 514.80533264 -338.36477661 515.70315552 C-338.25250519 535.76208634 -335.58304847 552.97744206 -326.9375 571.1875 C-326.49784912 572.13278564 -326.49784912 572.13278564 -326.04931641 573.09716797 C-319.13972151 587.8703376 -310.8300633 600.64457432 -298.36328125 611.265625 C-294.75357362 614.38048429 -291.3798918 617.69579662 -288.0390625 621.09375 C-287.5145903 621.62611267 -286.9901181 622.15847534 -286.44975281 622.70697021 C-284.27246248 624.92051337 -282.09805331 627.13669562 -279.93359375 629.36279297 C-269.42648521 640.15156798 -258.71223332 647.56067132 -245.3125 654.5625 C-242.81868971 655.87714692 -240.32721466 657.19618538 -237.8359375 658.515625 C-237.23191101 658.83479889 -236.62788452 659.15397278 -236.0055542 659.4828186 C-230.12672826 662.59759227 -224.36112384 665.8891926 -218.625 669.2578125 C-214.66131922 671.43996185 -210.49484923 673.10056908 -206.31005859 674.80859375 C-202.72005929 676.27640294 -199.1500093 677.78835879 -195.58203125 679.30859375 C-177.61663143 686.93526735 -159.82515031 694.11289161 -140.9375 699.1875 C-139.70902344 699.54972656 -138.48054687 699.91195312 -137.21484375 700.28515625 C-128.7288919 702.70221087 -120.75187678 703.55762592 -111.93896484 703.83154297 C-106.85371779 704.01347503 -102.54790224 704.55413489 -97.73828125 706.296875 C-81.92218033 711.32626274 -64.63710291 713.05324192 -48.18188477 714.49072266 C-47.31748779 714.56726074 -46.45309082 714.64379883 -45.5625 714.72265625 C-44.79164063 714.788479 -44.02078125 714.85430176 -43.2265625 714.92211914 C-40.9375 715.1875 -40.9375 715.1875 -38.49658203 715.70117188 C-35.74973887 716.22318214 -33.16143351 716.36329974 -30.3671875 716.43359375 C-29.305 716.46646484 -28.2428125 716.49933594 -27.1484375 716.53320312 C-24.94800393 716.5937537 -22.74748 716.65111592 -20.546875 716.70507812 C-14.45696205 716.8995151 -8.73478332 717.50213288 -2.76416016 718.69506836 C2.55280728 719.6213357 7.93258161 719.89278833 13.3125 720.25 C32.44323394 721.56823394 32.44323394 721.56823394 34.0625 723.1875 C90.25885311 737.26209661 154.29726401 727.48370982 210.60644531 718.06323242 C217.35136616 716.93511756 224.09786464 715.87793153 230.87109375 714.9375 C251.70128981 712.11659615 251.70128981 712.11659615 272.08447266 707.09667969 C275.20825291 706.14300223 278.34042263 705.22141206 281.47442627 704.30203247 C284.71100351 703.34987593 287.94408595 702.38624671 291.17633057 701.41949463 C292.78767472 700.93780639 294.39959999 700.45805711 296.012146 699.98040771 C312.88388642 695.61747466 312.88388642 695.61747466 326.0625 685.1875 C326.73375711 680.58545962 326.73375711 680.58545962 324.87475586 676.50366211 C322.37701123 674.68965951 320.63834964 674.78421242 317.56640625 674.75390625 C315.90629517 674.73710815 315.90629517 674.73710815 314.21264648 674.7199707 C313.02872314 674.72988037 311.8447998 674.73979004 310.625 674.75 C309.41465088 674.75539795 308.20430176 674.7607959 306.95727539 674.76635742 C292.6674836 675.00494498 279.64290275 678.00048424 266.0625 682.1875 C255.44556135 685.43793482 244.85287156 688.5786111 234.05859375 691.1875 C230.44953668 692.07157074 226.87968706 693.07128357 223.30712891 694.09179688 C209.2817971 698.09309789 195.18953762 700.52958308 180.78198242 702.70068359 C173.01373779 703.87267307 165.27853364 705.16127934 157.55078125 706.57421875 C151.55650193 707.62808421 145.85258467 708.30969061 139.75708008 708.26928711 C139.06332275 708.26622055 138.36956543 708.26315399 137.65478516 708.25999451 C136.15980155 708.25288513 134.66482727 708.24351968 133.16987038 708.23209953 C130.7926585 708.21455314 128.41551533 708.20435978 126.03825378 708.19618225 C119.28284208 708.17187455 112.52752275 708.13640675 105.7722168 708.09155273 C101.62739864 708.06454543 97.48263385 708.04764922 93.33774376 708.03668404 C91.7706779 708.03053594 90.20362156 708.02061021 88.63660622 708.00660515 C79.58861682 707.92648682 70.95785697 708.31936623 62.0625 710.1875 C61.15769394 710.36781265 60.25288788 710.54812531 59.32066345 710.73390198 C57.70378223 711.05649401 56.08746524 711.38192501 54.47167969 711.70996094 C26.72107158 717.21058816 -2.098694 717.01970931 -29.83886719 711.74755859 C-33.09577667 711.15889248 -36.35600853 710.67169513 -39.6328125 710.20703125 C-60.96569139 707.16126036 -82.08578705 700.98265093 -95.9375 683.3125 C-111.53344246 660.97645063 -113.68187901 634.27678584 -109.6796875 607.93359375 C-103.44227237 576.45106157 -83.87325644 548.19755692 -57.44140625 530.01953125 C-48.62757554 524.29043791 -39.16240555 519.56769934 -29.8449707 514.72338867 C-27.24731093 513.35115946 -24.6940379 511.92384783 -22.14453125 510.46484375 C-18.21353223 508.26690411 -14.25587438 506.58533391 -10 505.125 C-9.27546631 504.87459961 -8.55093262 504.62419922 -7.80444336 504.36621094 C4.9489983 500.09817053 17.78370482 497.96382571 31.125 496.6015625 C40.80737946 495.58337577 48.6154982 493.63725711 55.0546875 485.74609375 C55.69664062 484.88113281 56.33859375 484.01617188 57 483.125 C61.96242539 476.53489908 68.0334558 473.5825493 76.0625 472.1875 C77.77062553 472.06192567 79.48194765 471.97559936 81.19384766 471.92211914 C82.19324371 471.88860855 83.19263977 471.85509796 84.22232056 471.8205719 C85.83317032 471.77210365 85.83317032 471.77210365 87.4765625 471.72265625 C89.78906699 471.64401225 92.10156684 471.56523157 94.4140625 471.48632812 C98.02922611 471.3677862 101.64443737 471.25135086 105.25976562 471.13793945 C117.43626686 470.75049004 129.52734793 470.30312494 141.63247681 468.88772583 C148.77424302 468.06091903 155.87325774 467.78839187 163.0625 467.625 C165.47926942 467.56521676 167.89594825 467.50160928 170.3125 467.43359375 C171.34890625 467.40966553 172.3853125 467.3857373 173.453125 467.36108398 C176.17489365 467.29034662 176.17489365 467.29034662 179.0625 466.1875 C181.38704749 466.09244055 183.71428159 466.05955365 186.04077148 466.05810547 C187.09980682 466.05547699 187.09980682 466.05547699 188.18023682 466.05279541 C190.51471412 466.04839334 192.84911567 466.05130942 195.18359375 466.0546875 C196.80640172 466.05401391 198.42920959 466.05304343 200.05201721 466.05178833 C203.45404012 466.05031352 206.85603678 466.05245868 210.25805664 466.05712891 C214.61717797 466.06282152 218.97623766 466.05954878 223.33535671 466.05355644 C226.68708255 466.04994111 230.03879381 466.05109397 233.3905201 466.05368423 C234.9976712 466.05435105 236.60482363 466.05353366 238.21197319 466.05120468 C240.45962906 466.04866275 242.70718551 466.05254072 244.95483398 466.05810547 C246.87319313 466.05929886 246.87319313 466.05929886 248.83030701 466.06051636 C251.48273466 466.16472267 253.54439375 466.4545205 256.0625 467.1875 C258.27703344 467.37966076 260.49540426 467.5291672 262.71484375 467.65234375 C264.05257392 467.72994077 265.39030169 467.80757913 266.72802734 467.88525391 C267.42579285 467.92434875 268.12355835 467.9634436 268.84246826 468.00372314 C280.03335901 468.63277347 291.19556557 469.34670239 302.33959961 470.57788086 C312.2269753 471.63031564 321.31873558 471.15423446 331.0625 469.1875 C332.020354 469.0021167 332.020354 469.0021167 332.99755859 468.81298828 C348.41164192 465.77727123 368.0582345 460.02242283 379.1875 448.3125 C382.87667502 442.16387497 383.7581706 435.26015107 383.0625 428.1875 C381.56501293 425.53066811 380.21597249 423.34097249 378.0625 421.1875 C372.25886006 420.89892122 367.23701738 421.58424107 361.625 423 C360.87347656 423.18014648 360.12195312 423.36029297 359.34765625 423.54589844 C355.63133076 424.45723694 352.10938581 425.48681676 348.5625 426.9375 C340.45285305 429.78299016 329.31110047 429.75654401 321.4375 426.1875 C315.64480719 422.72770054 311.75674475 417.72886712 308.0625 412.1875 C305.47869823 411.93719023 305.47869823 411.93719023 303.0625 412.1875 C303.08207764 411.60661621 303.10165527 411.02573242 303.12182617 410.42724609 C303.28695921 401.1535846 302.35065177 392.02158861 301.375 382.8125 C301.28569214 381.96845612 301.19638428 381.12441223 301.10437012 380.25479126 C298.14383032 352.76746333 291.49150508 331.56219131 275.0625 309.1875 C274.51255371 308.43178711 273.96260742 307.67607422 273.39599609 306.89746094 C269.32159971 301.29991496 265.20183225 295.73714091 261.0625 290.1875 C260.52415527 289.4646582 259.98581055 288.74181641 259.43115234 287.99707031 C256.44954729 283.99634211 253.45633046 280.00466152 250.44873047 276.0234375 C249.53729062 274.81631745 248.62741269 273.60801621 247.71923828 272.3984375 C242.17127011 265.01494238 236.48949553 257.83843265 230.0625 251.1875 C229.36382813 250.46304688 228.66515625 249.73859375 227.9453125 248.9921875 C220.73676794 242.03307355 212.30591264 237.02868447 203.78955078 231.85253906 C200.92920747 230.10611638 198.0870451 228.33246074 195.24609375 226.5546875 C178.96686912 216.41773129 163.81447042 209.03584565 145.35107422 203.84863281 C142.20649762 202.94021448 139.10747884 201.90220466 136 200.875 C131.96807675 199.60886194 128.27773109 198.91609166 124.0625 198.625 C117.08308614 198.11924537 117.08308614 198.11924537 114.0625 195.1875 C112.75907987 192.65330939 111.57409348 190.07688237 110.3828125 187.48828125 C108.56361097 184.3181342 106.38710671 183.53148995 103.0625 182.1875 C99.25052043 178.68459986 98.30074158 175.46619789 97.96875 170.453125 C98.182139 165.29622419 100.48389629 161.70343925 103.85546875 158.015625 C107.221268 154.14988378 109.7721492 150.00027331 112.3125 145.5625 C112.745625 144.82515625 113.17875 144.0878125 113.625 143.328125 C117.8142616 136.22031211 117.8142616 136.22031211 119.0625 128.1875 C104.43054232 128.1875 85.09108114 142.98236308 74.47265625 152.51171875 Z " fill="#3A6BA8" transform="translate(1066.9375,508.8125)"/>
<path d="M0 0 C0.71220703 -0.02900391 1.42441406 -0.05800781 2.15820312 -0.08789062 C5.99564293 -0.1340393 7.9781662 0.17212961 11.19921875 2.33203125 C11.85535156 2.98558594 12.51148438 3.63914062 13.1875 4.3125 C11.49713837 8.27277581 8.81868451 11.38155188 6.125 14.6875 C-16.34329968 42.90857057 -37.61138886 85.59588079 -33.8125 122.3125 C-33.00409372 125.78672222 -31.74322399 128.33596718 -29.8125 131.3125 C-29.338125 132.16585938 -28.86375 133.01921875 -28.375 133.8984375 C-20.90300691 146.7229641 -9.4656354 155.51735985 2.1875 164.3125 C1.4375 168.109375 1.4375 168.109375 -0.8125 169.9375 C-8.12438133 173.28877894 -14.801714 173.41670648 -22.69213867 173.1328125 C-37.86335762 172.612208 -52.06098448 174.20713798 -67 176.8125 C-93.11574694 181.31852014 -119.72051373 183.13781365 -145.8125 177.3125 C-147.65908203 177.00505859 -147.65908203 177.00505859 -149.54296875 176.69140625 C-156.8920426 175.35445609 -162.00044338 173.18548249 -166.8125 167.3125 C-167.13347656 166.58804687 -167.45445312 165.86359375 -167.78515625 165.1171875 C-168.12417969 164.52164062 -168.46320312 163.92609375 -168.8125 163.3125 C-170.77579438 163.08344899 -172.74062192 162.86075025 -174.7109375 162.703125 C-178.5122843 161.99655496 -180.19097678 160.12127488 -182.8125 157.3125 C-184.1875 154 -184.1875 154 -184.8125 151.3125 C-186.4521875 151.3434375 -186.4521875 151.3434375 -188.125 151.375 C-191.8125 151.3125 -191.8125 151.3125 -194.8125 150.3125 C-197.93872189 144.54001222 -198.26571442 138.23124219 -198.125 131.8125 C-198.11299561 130.94810303 -198.10099121 130.08370605 -198.08862305 129.19311523 C-197.65106798 108.8626311 -193.75001803 89.97235192 -179.359375 74.7109375 C-176.9131267 72.47238953 -174.41005123 70.37290329 -171.8125 68.3125 C-170.9978125 67.64992188 -170.183125 66.98734375 -169.34375 66.3046875 C-167.70489355 64.98219258 -166.05907298 63.66827914 -164.40625 62.36328125 C-161.54272586 60.09919966 -158.70542999 57.80531074 -155.875 55.5 C-154.97910156 54.77167969 -154.08320312 54.04335937 -153.16015625 53.29296875 C-150.89640992 51.45467398 -150.89640992 51.45467398 -149.34765625 49.78125 C-138.81718311 39.70629351 -121.96636502 33.20191399 -108.1875 29.3125 C-107.45378174 29.10471924 -106.72006348 28.89693848 -105.96411133 28.68286133 C-100.7995517 27.32906774 -95.76062291 26.51571002 -90.5 27.9375 C-89.943125 28.06125 -89.38625 28.185 -88.8125 28.3125 C-88.1525 27.6525 -87.4925 26.9925 -86.8125 26.3125 C-83.95322987 25.77986217 -81.12791024 25.33425486 -78.25 24.9375 C-71.52985282 23.90200977 -65.77631756 22.70003608 -59.8125 19.3125 C-58.884375 18.84199219 -57.95625 18.37148437 -57 17.88671875 C-51.0019005 14.6811018 -47.35858701 11.80196213 -43.25 6.375 C-39.07452114 1.82049702 -36.36471791 0.98288052 -30.1875 0.64453125 C-24.22492628 0.57770487 -18.29034557 0.82555055 -12.34350586 1.25146484 C-8.31056968 1.34871902 -4.2587072 0.05688389 0 0 Z " fill="#1A334E" transform="translate(1185.8125,1011.6875)"/>
<path d="M0 0 C4.15851093 3.70402887 7.80385571 7.49916029 8.25 13.1875 C7.9708463 17.44459386 6.95847938 20.22811378 5 24 C4.48953125 24.44214844 3.9790625 24.88429688 3.453125 25.33984375 C1.39153302 27.69515716 1.40724975 29.73299381 1.0625 32.8125 C0.28186896 37.88050311 -0.31224628 41.22230107 -4 45 C-6.52563899 46.54797229 -9.10881503 47.90052173 -11.75 49.2421875 C-15.44198732 51.23905564 -18.85246136 53.50657164 -22.3125 55.875 C-27.17549015 59.19436059 -32.08619436 62.23565108 -37.25 65.0625 C-45.67205631 69.79813435 -52.63467146 75.74617646 -59.62963867 82.34936523 C-75.4195319 97.21617897 -97.64654502 114.64108527 -120.25 115.5625 C-128.78651598 115.13055911 -135.67345712 112.35272671 -141.46484375 106 C-148.74888396 96.51035983 -150.41099478 86.73584661 -149 75 C-147.82206266 71.26358274 -146.1973341 68.22873582 -144 65 C-143.443125 64.113125 -142.88625 63.22625 -142.3125 62.3125 C-133.67277855 53.67277855 -121.79671905 48.14821586 -110.83642578 42.97973633 C-108.59945302 41.78630749 -108.01526361 40.67411493 -106.75 38.5 C-101.85352885 31.74457083 -94.08173848 28.10131004 -87 24 C-85.23543621 22.95743883 -83.47112174 21.91445559 -81.70703125 20.87109375 C-67.78574006 12.70370306 -54.34117756 6.90160043 -38.8515625 2.42578125 C-34.84100431 1.26466625 -30.8935096 -0.03902062 -26.9375 -1.375 C-18.07357109 -4.08405244 -8.42354154 -4.36193577 0 0 Z " fill="#3B6CA8" transform="translate(1059,887)"/>
<path d="M0 0 C5.66612352 3.35342004 8.40071911 6.46032455 10.0625 12.8125 C12.23782087 29.54702574 8.47722929 41.63529422 -1.625 54.875 C-2.47191406 55.88046875 -2.47191406 55.88046875 -3.3359375 56.90625 C-4.94568367 58.82224057 -6.34563271 60.80540609 -7.75 62.875 C-8.471875 63.844375 -9.19375 64.81375 -9.9375 65.8125 C-10.5975 65.8125 -11.2575 65.8125 -11.9375 65.8125 C-12.164375 66.410625 -12.39125 67.00875 -12.625 67.625 C-14.33438802 70.47398003 -15.97278177 71.3373096 -18.9375 72.8125 C-21.70825195 73.15307617 -21.70825195 73.15307617 -24.67578125 73.10546875 C-25.74248047 73.09580078 -26.80917969 73.08613281 -27.90820312 73.07617188 C-29.01099609 73.05103516 -30.11378906 73.02589844 -31.25 73 C-32.37212891 72.98646484 -33.49425781 72.97292969 -34.65039062 72.95898438 C-37.41325229 72.9237138 -40.17512829 72.87442235 -42.9375 72.8125 C-43.05351563 73.58207031 -43.16953125 74.35164063 -43.2890625 75.14453125 C-44.43109752 79.84338619 -48.05516843 82.22427895 -51.9375 84.8125 C-55.22265625 84.97265625 -55.22265625 84.97265625 -59 84.875 C-63.63311036 84.56338802 -63.63311036 84.56338802 -67.9375 85.8125 C-79.61354344 86.36850207 -90.19591166 83.39367066 -101.1875 79.6875 C-102.31929687 79.33429688 -103.45109375 78.98109375 -104.6171875 78.6171875 C-112.58269284 75.93092809 -118.09306233 72.50137534 -121.9375 64.8125 C-122.06112239 62.54417291 -122.11310648 60.27166213 -122.125 58 C-122.13917969 56.77667969 -122.15335938 55.55335938 -122.16796875 54.29296875 C-121.85140543 49.51232614 -120.75825286 46.82085351 -117.75 43.125 C-111.15363848 37.70132497 -103.20420165 38.50730202 -95.0625 38.5625 C-93.92941406 38.55476563 -92.79632812 38.54703125 -91.62890625 38.5390625 C-76.87885995 38.57324569 -65.22104502 42.10974148 -53.9375 51.8125 C-53.60878906 50.92691406 -53.28007813 50.04132813 -52.94140625 49.12890625 C-46.39825808 31.9234595 -38.27912786 14.91221822 -23.9375 2.8125 C-23.2775 2.8125 -22.6175 2.8125 -21.9375 2.8125 C-21.9375 2.1525 -21.9375 1.4925 -21.9375 0.8125 C-15.36304116 -2.10948171 -6.78626302 -2.61925941 0 0 Z " fill="#396AA8" transform="translate(1100.9375,431.1875)"/>
<path d="M0 0 C2.56729362 0.63224395 5.01554207 0.746023 7.65625 0.890625 C15.73923884 1.46927297 23.65485776 2.77706985 31.63867188 4.1171875 C34.05258324 4.508944 36.46916445 4.8614587 38.890625 5.203125 C54.15313759 7.41418361 68.25779707 12.02032116 78.59375 24.265625 C83.57624896 31.60977087 85.36007047 41.78390365 84.09375 50.515625 C82.74331728 55.63826644 80.44661509 58.6862483 75.96875 61.515625 C67.95594838 66.11164706 57.26942451 63.09233127 48.78125 61.390625 C47.07110718 61.05285034 47.07110718 61.05285034 45.32641602 60.70825195 C35.68716523 58.74595908 26.27551139 56.28948081 16.88476562 53.37207031 C13.77063988 52.41647609 10.64382967 51.50995546 7.515625 50.6015625 C5.27030197 49.92885435 3.02550114 49.25440054 0.78125 48.578125 C-0.26297119 48.27865967 -1.30719238 47.97919434 -2.38305664 47.6706543 C-11.13671729 44.96046135 -17.77808166 40.56527562 -22.40625 32.453125 C-25.66920463 25.94514406 -26.19448441 19.65244363 -24.90625 12.515625 C-22.37190556 6.93834318 -18.17208198 3.44108721 -12.90625 0.515625 C-8.74336818 -0.87200227 -4.27430663 -1.08609431 0 0 Z " fill="#3C6CA8" transform="translate(1256.90625,860.484375)"/>
<path d="M0 0 C5.21150519 1.92044763 9.00048359 4.23786049 12.859375 8.2421875 C14.37642029 9.51026558 14.37642029 9.51026558 16.34375 9.234375 C19.06394711 8.03728451 20.78794409 6.37013281 22.9296875 4.31640625 C26.92818268 0.48223279 29.2413879 -0.3832389 34.6171875 -1.12109375 C41.07709284 -0.37979314 45.63024593 3.33702052 49.9296875 8.06640625 C53.36898713 13.2253557 53.16449358 18.25065414 52.4296875 24.31640625 C49.38860417 32.78965369 43.29070803 39.64033755 37.4296875 46.31640625 C36.97335937 46.84508301 36.51703125 47.37375977 36.046875 47.91845703 C34.62414873 49.56226952 33.1863052 51.19137221 31.7421875 52.81640625 C30.87207031 53.79609375 30.00195312 54.77578125 29.10546875 55.78515625 C25.04036899 59.63068128 21.20276136 61.74696107 15.5546875 61.69140625 C7.01670644 61.35908962 2.42880256 58.69706884 -3.47021484 52.64794922 C-6.93817453 48.79779634 -9.88523562 44.64191061 -12.8203125 40.37890625 C-13.4184375 39.53650391 -14.0165625 38.69410156 -14.6328125 37.82617188 C-19.95479697 30.17876278 -24.7859398 22.88947125 -23.5703125 13.31640625 C-21.61061956 7.3932894 -18.58626109 3.91480415 -13.5703125 0.31640625 C-9.36812363 -1.78468819 -4.43124425 -1.17852241 0 0 Z " fill="#396AA6" transform="translate(1076.5703125,1088.68359375)"/>
<path d="M0 0 C3.16112878 -0.11019185 5.97587634 0.0277775 9 1 C10.6041632 2.90788477 11.61122704 4.84835958 12.75390625 7.05859375 C14.85987304 10.3396768 17.34288251 10.86961823 21 12 C21.65742187 12.10699219 22.31484375 12.21398438 22.9921875 12.32421875 C25.69896702 13.23525544 26.76584983 14.68043402 28.5625 16.875 C30.62391463 19.36338916 32.67537129 21.75309443 35 24 C23.84032509 22.99849071 12.58928929 19.37711994 4.75 11 C2.03106937 7.49346982 0.81380115 4.34027278 0 0 Z " fill="#325E86" transform="translate(992,1162)"/>
<path d="M0 0 C1.48555383 0.92734572 2.96327506 1.86724813 4.4375 2.8125 C5.67306641 3.59560547 5.67306641 3.59560547 6.93359375 4.39453125 C9 6 9 6 10 9 C1.75 9 -6.5 9 -15 9 C-15 8.67 -15 8.34 -15 8 C-14.24074219 7.80664062 -13.48148438 7.61328125 -12.69921875 7.4140625 C-11.70535156 7.15367188 -10.71148438 6.89328125 -9.6875 6.625 C-8.20830078 6.24214844 -8.20830078 6.24214844 -6.69921875 5.8515625 C-3.8194184 5.08086826 -3.8194184 5.08086826 -1 3 C-0.67 2.01 -0.34 1.02 0 0 Z " fill="#315C84" transform="translate(1188,1176)"/>
<path d="M0 0 C0.99 0.33 1.98 0.66 3 1 C-20.4305835 21.21529175 -20.4305835 21.21529175 -24 23 C-22.57191496 14.37436638 -12.16585138 8.63659925 -5.63671875 3.6875 C-3 2 -3 2 0 2 C0 1.34 0 0.68 0 0 Z " fill="#315C86" transform="translate(1033,1062)"/>
<path d="M0 0 C8.25 0 16.5 0 25 0 C24.67 0.99 24.34 1.98 24 3 C23.34 3 22.68 3 22 3 C21.67 3.99 21.34 4.98 21 6 C20.17242188 5.35546875 19.34484375 4.7109375 18.4921875 4.046875 C14.88555259 1.64245172 11.37876261 1.34068099 7.125 1.25 C6.09246094 1.20552734 6.09246094 1.20552734 5.0390625 1.16015625 C3.35998374 1.09019464 1.67999188 1.04274789 0 1 C0 0.67 0 0.34 0 0 Z " fill="#315D89" transform="translate(1179,1011)"/>
<path d="M0 0 C4.37975643 0.72204228 6.01847563 2.8218468 8.73828125 6.14453125 C10.26318449 8.38703601 10.83617701 10.29692069 11 13 C7.5819695 11.8606565 6.99651822 11.02589085 4.9375 8.1875 C4.17759766 7.15689453 4.17759766 7.15689453 3.40234375 6.10546875 C2.08380717 4.12582747 1.01001829 2.15051741 0 0 Z " fill="#ECEEEA" transform="translate(1412,1158)"/>
<path d="M0 0 C0.33 0 0.66 0 1 0 C1.66 5.28 2.32 10.56 3 16 C-0.08625383 12.91374617 -0.39899847 12.56526744 -0.75 8.5625 C-0.82734375 7.80066406 -0.9046875 7.03882813 -0.984375 6.25390625 C-1.00011551 3.98333821 -0.65133656 2.1661875 0 0 Z " fill="#5F86B5" transform="translate(1165,673)"/>
</svg>
