<?xml version="1.0" encoding="UTF-8"?>
<svg version="1.1" xmlns="http://www.w3.org/2000/svg" width="2224" height="1668">
<path d="M0 0 C4.49884672 2.28820652 6.81055959 4.37784802 9 9 C9.83992903 15.80342514 9.48018436 21.0140829 6 27 C5.87625 28.11375 5.7525 29.2275 5.625 30.375 C4.08105986 39.32985282 -1.89394804 43.97872894 -9 49 C-9.74636719 49.495 -10.49273438 49.99 -11.26171875 50.5 C-13.37351843 51.96664138 -13.37351843 51.96664138 -13.25 55.1875 C-13.1675 56.115625 -13.085 57.04375 -13 58 C-12.34 58 -11.68 58 -11 58 C-2.65471957 85.10190587 -4.90536257 113.04016528 -6 141 C-5.18917969 140.71632568 -4.37835937 140.43265137 -3.54296875 140.14038086 C3.82256294 137.69717226 10.25335767 136.38461414 18 136.5625 C18.90105469 136.55541016 19.80210937 136.54832031 20.73046875 136.54101562 C27.60702041 136.60703865 31.51128097 138.27380037 36.5 143.0625 C41.77525269 148.49900495 45.39844268 155.38027396 46 163 C49.50261473 160.95950384 49.50261473 160.95950384 52.75048828 158.54736328 C55.61568982 156.57648773 58.44159764 155.64837145 61.7421875 154.5546875 C62.38817902 154.33934357 63.03417053 154.12399963 63.69973755 153.90213013 C65.06182249 153.44988266 66.42512599 153.00129069 67.78955078 152.55615234 C69.86412814 151.87855098 71.9341635 151.18830389 74.00390625 150.49609375 C84.66217526 146.97139408 97.43734633 142.94848594 108.54296875 146.90625 C110.5660715 148.12715533 112.25143562 149.41341664 114 151 C114.57363281 151.49242187 115.14726563 151.98484375 115.73828125 152.4921875 C120.27995292 156.67616188 122.01311487 160.2657489 122.37109375 166.3359375 C122.78861436 183.31736273 117.93789854 196.1536134 110 211 C118.59805452 214.87115261 127.19528364 217.57969239 136.3125 219.9375 C150.52007417 223.71907499 163.42433036 228.47699734 176.5234375 235.21875 C178.8659324 236.41894963 181.22612903 237.5851375 183.6015625 238.71875 C191.39088732 242.45219545 198.21580603 246.66144858 205 252 C205.79535156 252.61488281 206.59070312 253.22976563 207.41015625 253.86328125 C213.00121525 258.25430807 218.36296927 262.89234874 223.72631836 267.55517578 C228.31965325 271.51070521 233.07753497 275.055838 238.0859375 278.4765625 C238.71757813 278.97929688 239.34921875 279.48203125 240 280 C240 280.66 240 281.32 240 282 C241.65 282.66 243.3 283.32 245 284 C245 284.66 245 285.32 245 286 C245.59079346 286.27005859 246.18158691 286.54011719 246.7902832 286.81835938 C248.98628802 287.99266755 250.53920419 289.2147223 252.35546875 290.90625 C252.97349365 291.48020508 253.59151855 292.05416016 254.22827148 292.64550781 C254.87481689 293.25749023 255.5213623 293.86947266 256.1875 294.5 C256.856604 295.1300293 257.52570801 295.76005859 258.21508789 296.40917969 C263.43224411 301.36708658 268.36456213 306.48978105 273 312 C273.76570313 312.90105469 274.53140625 313.80210937 275.3203125 314.73046875 C281 321.58765244 281 321.58765244 281 325 C281.66 325 282.32 325 283 325 C284.2890625 326.6796875 284.2890625 326.6796875 285.625 328.875 C286.29402344 329.95394531 286.29402344 329.95394531 286.9765625 331.0546875 C288 333 288 333 288 335 C288.66 335 289.32 335 290 335 C291.03435556 336.64556566 292.02763513 338.3170608 293 340 C293.66 340.804375 294.32 341.60875 295 342.4375 C297.42578882 345.54554192 300 348.93376704 300 353 C300.66 353 301.32 353 302 353 C302.804375 354.4540625 302.804375 354.4540625 303.625 355.9375 C305.81684213 359.80081886 308.29347697 363.43690624 310.828125 367.08203125 C312 369 312 369 312 371 C312.66 371 313.32 371 314 371 C314.55171875 371.97453125 315.1034375 372.9490625 315.671875 373.953125 C317.27245894 376.75626408 318.91154674 379.53249109 320.578125 382.296875 C321.01640625 383.02777344 321.4546875 383.75867188 321.90625 384.51171875 C322.81312236 386.02229392 323.72469915 387.53005338 324.640625 389.03515625 C325.07375 389.76089844 325.506875 390.48664063 325.953125 391.234375 C326.34661133 391.88631836 326.74009766 392.53826172 327.14550781 393.20996094 C328 395 328 395 328 398 C328.66 398 329.32 398 330 398 C330.24121582 398.51796143 330.48243164 399.03592285 330.73095703 399.56958008 C336.96434881 412.9760386 336.96434881 412.9760386 344.00390625 425.96875 C345 428 345 428 345 431 C345.66 431 346.32 431 347 431 C355.67482256 449.330744 361.07227652 469.320822 366 488.9375 C366.18936127 489.68214508 366.37872253 490.42679016 366.57382202 491.19400024 C374.29153197 521.74011941 376.74880013 555.65172373 367 586 C366.67547852 587.0214209 366.35095703 588.0428418 366.01660156 589.09521484 C364.87933798 592.65155591 363.72496325 596.20181848 362.5625 599.75 C362.19116943 600.88703369 361.81983887 602.02406738 361.43725586 603.19555664 C359.3276014 609.50338212 356.96794157 615.5625596 354.13647461 621.58154297 C353.18390063 623.60865315 352.29384079 625.64214807 351.4375 627.7109375 C349.80021616 631.45711411 347.94317532 635.03085618 346 638.625 C345.48566406 639.58792969 345.48566406 639.58792969 344.9609375 640.5703125 C343.98564169 642.38689401 342.99612845 644.19477551 342 646 C341.46375 646.97710938 340.9275 647.95421875 340.375 648.9609375 C339.92125 649.63382813 339.4675 650.30671875 339 651 C338.34 651 337.68 651 337 651 C336.8306897 651.88244385 336.8306897 651.88244385 336.65795898 652.78271484 C335.49104701 656.71514325 332.65575711 659.51458022 330.0625 662.625 C329.44858398 663.36484131 328.83466797 664.10468262 328.20214844 664.86694336 C306.69357656 690.32481417 306.69357656 690.32481417 294 698 C293.01 698 292.02 698 291 698 C291 698.66 291 699.32 291 700 C286.18768214 703.83974968 281.24951823 706.54568725 275.625 709 C274.8520459 709.3417627 274.0790918 709.68352539 273.28271484 710.03564453 C266.50009831 712.95034022 259.59699345 715.07908072 252.4765625 716.9921875 C249.14827753 717.83652762 249.14827753 717.83652762 246.84375 719.109375 C243.7934716 720.58281456 240.58167697 720.35193339 237.2421875 720.4609375 C236.50226562 720.63882813 235.76234375 720.81671875 235 721 C234.69964844 721.62003906 234.39929687 722.24007812 234.08984375 722.87890625 C232.42797926 726.11328767 230.04870448 726.4091082 226.6875 727.5625 C223.32366898 728.73236141 220.31968877 729.80654027 217.26953125 731.65234375 C215 733 215 733 212 733 C212 733.66 212 734.32 212 735 C210.02 735.33 208.04 735.66 206 736 C206 736.66 206 737.32 206 738 C203.09399739 739.25664978 201.20395416 740 198 740 C198 740.66 198 741.32 198 742 C189.80683563 744.67623435 181.57461385 746.89989714 173.203125 748.93017578 C167.38745715 750.35720819 161.64358325 751.95873527 155.89794922 753.64453125 C142.71104362 757.48994501 129.60533988 760.14617156 116 762 C115.21061035 762.11182617 114.4212207 762.22365234 113.60791016 762.33886719 C101.43468995 764.01774942 89.20558082 764.37055461 76.93530273 764.65893555 C68.96065419 764.84709135 68.96065419 764.84709135 61.015625 765.50390625 C54.99615344 766.17892357 48.9683357 766.2120526 42.91693115 766.33102417 C29.72011134 766.60679518 16.71322534 767.4495315 3.58129883 768.83886719 C-7.24786274 769.97475924 -18.07204452 770.72360959 -28.93994141 771.35327148 C-30.15601074 771.42489502 -31.37208008 771.49651855 -32.625 771.5703125 C-33.68976563 771.62977051 -34.75453125 771.68922852 -35.8515625 771.75048828 C-39.04370352 771.96532434 -39.04370352 771.96532434 -42.35620117 772.51196289 C-46.4884302 773.06541856 -50.51230721 773.19763031 -54.67578125 773.23828125 C-55.50587204 773.24793915 -56.33596283 773.25759705 -57.19120789 773.26754761 C-59.89835111 773.29244788 -62.60525426 773.30497591 -65.3125 773.3125 C-66.24328369 773.31545074 -67.17406738 773.31840149 -68.13305664 773.32144165 C-85.04209556 773.33355881 -101.43901776 771.8895534 -118.16113281 769.52587891 C-124.21978955 768.69591537 -130.29650442 768.04082824 -136.375 767.375 C-143.40370623 766.6046924 -150.35255693 765.65681982 -157.3137207 764.4074707 C-162.34836304 763.64378643 -167.12971539 763.71030288 -172.15234375 764.48828125 C-187.4588263 766.52396573 -201.41331333 764.79184824 -216 760 C-217.57007813 759.49919922 -217.57007813 759.49919922 -219.171875 758.98828125 C-225.26726351 756.90069877 -231.05012856 754.18211817 -236.875 751.44140625 C-240.35177975 749.83774159 -243.86817682 748.40381729 -247.43359375 747.01171875 C-252.32055848 745.08519841 -257.15570695 743.03094073 -262 741 C-262 740.34 -262 739.68 -262 739 C-263.258125 738.773125 -264.51625 738.54625 -265.8125 738.3125 C-269.45833403 737.50482492 -272.60359845 736.36133507 -275.96875 734.75 C-282.4273802 731.75067144 -289.03104399 729.21030057 -295.6875 726.6875 C-296.87794922 726.23310547 -298.06839844 725.77871094 -299.29492188 725.31054688 C-302.19544666 724.20392095 -305.09713465 723.10046821 -308 722 C-308 721.34 -308 720.68 -308 720 C-308.886875 719.896875 -309.77375 719.79375 -310.6875 719.6875 C-314.0826755 718.98284093 -316.21942098 718.0445434 -319 716 C-319 715.34 -319 714.68 -319 714 C-319.53753906 713.93683594 -320.07507813 713.87367188 -320.62890625 713.80859375 C-324.01215273 712.65483424 -326.31177216 710.40104503 -328.9375 708.0625 C-336.13295325 701.80684 -343.54964314 695.80716855 -351.37109375 690.34375 C-351.90863281 689.9003125 -352.44617188 689.456875 -353 689 C-353 688.34 -353 687.68 -353 687 C-353.556875 686.7525 -354.11375 686.505 -354.6875 686.25 C-359.23774662 683.79040723 -362.55662959 680.57488556 -365.6875 676.5 C-367.98435561 673.54439039 -370.29923496 670.62404619 -372.73828125 667.78515625 C-373.1969458 667.24890625 -373.65561035 666.71265625 -374.12817383 666.16015625 C-375.44597781 664.62541532 -376.7697404 663.09579686 -378.09375 661.56640625 C-380 659 -380 659 -380 656 C-380.66 656 -381.32 656 -382 656 C-389.54462184 647.16201442 -393.69920089 635.56665034 -397.1875 624.625 C-397.41300537 623.92020508 -397.63851074 623.21541016 -397.87084961 622.48925781 C-398.62985319 620.00464456 -399.31535467 617.50626141 -400 615 C-400.32994965 613.82370026 -400.65989929 612.64740051 -400.99984741 611.43545532 C-403.91763662 600.4874293 -404.57805117 590.21098483 -404.49609375 578.921875 C-404.49624942 577.13559917 -404.49774964 575.34932303 -404.50050354 573.56304932 C-404.50187586 569.84510089 -404.48953294 566.12754366 -404.46655273 562.40966797 C-404.43825146 557.70871528 -404.44118386 553.00840803 -404.45323277 548.30740738 C-404.5458166 503.43088 -404.5458166 503.43088 -397.6875 481.75 C-397.38481201 480.75403809 -397.08212402 479.75807617 -396.77026367 478.73193359 C-393.04705317 466.63125626 -388.88096844 454.68561267 -384 443 C-383.34 443 -382.68 443 -382 443 C-381.9278125 442.30003906 -381.855625 441.60007812 -381.78125 440.87890625 C-380.79253195 437.23548022 -378.8423016 434.80742944 -376.5 431.9375 C-375.59275095 430.79766948 -374.68652511 429.65702389 -373.78125 428.515625 C-373.31976562 427.93748047 -372.85828125 427.35933594 -372.3828125 426.76367188 C-371.02166782 425.02763565 -369.70703581 423.26597274 -368.40625 421.484375 C-368.00083984 420.93015869 -367.59542969 420.37594238 -367.17773438 419.80493164 C-366.05355397 418.2610479 -364.93293669 416.71457154 -363.8125 415.16796875 C-363.214375 414.45253906 -362.61625 413.73710938 -362 413 C-361.34 413 -360.68 413 -360 413 C-359.91621094 412.45859375 -359.83242188 411.9171875 -359.74609375 411.359375 C-358.74149281 408.18252177 -357.02577067 405.93396497 -355.0625 403.25 C-354.35222656 402.26515625 -353.64195312 401.2803125 -352.91015625 400.265625 C-352.27980469 399.51796875 -351.64945313 398.7703125 -351 398 C-350.34 398 -349.68 398 -349 398 C-348.79246094 397.33097656 -348.58492187 396.66195313 -348.37109375 395.97265625 C-346.51192496 391.94180881 -343.8885675 388.83665487 -341.0625 385.4375 C-340.47766846 384.72859619 -339.89283691 384.01969238 -339.2902832 383.28930664 C-329.31892692 371.28712423 -318.50756009 360.51970769 -307 350 C-306.48453613 349.52868652 -305.96907227 349.05737305 -305.43798828 348.57177734 C-301.32255238 344.82018437 -297.15727931 341.13346947 -292.9375 337.5 C-290.04967627 334.993369 -287.35790635 332.36169303 -284.6875 329.625 C-280.28124245 325.17378064 -275.57684327 321.25018228 -270.67919922 317.35400391 C-268.71700179 315.77180749 -266.78242915 314.15857666 -264.84765625 312.54296875 C-264.12908447 311.94709961 -263.4105127 311.35123047 -262.67016602 310.73730469 C-261.24058721 309.55169832 -259.8151707 308.36105238 -258.39428711 307.16503906 C-257.73823486 306.62459961 -257.08218262 306.08416016 -256.40625 305.52734375 C-255.82166016 305.03999756 -255.23707031 304.55265137 -254.63476562 304.05053711 C-253 303 -253 303 -250 303 C-250 302.34 -250 301.68 -250 301 C-247.81852561 299.52735202 -245.65048911 298.18843283 -243.375 296.875 C-242.69783936 296.47539063 -242.02067871 296.07578125 -241.32299805 295.6640625 C-238.00779717 293.71571243 -234.67244456 291.80834026 -231.30859375 289.9453125 C-223.35985993 285.53412328 -216.14505611 280.6185705 -209 275 C-207.21403378 273.59962314 -205.42644984 272.20147477 -203.63500977 270.80810547 C-202.48170275 269.90996903 -201.3322836 269.00681258 -200.18725586 268.09814453 C-196.2230363 265 -196.2230363 265 -194 265 C-194 264.34 -194 263.68 -194 263 C-192.37501495 261.93360356 -190.69403834 260.95289657 -189 260 C-187.85336164 259.25123134 -186.70761471 258.50109675 -185.5625 257.75 C-158.84346677 241 -158.84346677 241 -147 241 C-147 240.34 -147 239.68 -147 239 C-146.16597656 238.68546875 -145.33195312 238.3709375 -144.47265625 238.046875 C-138.57765222 235.8050178 -132.73292248 233.52585309 -127 230.89453125 C-124.69189248 229.8621941 -122.34942022 228.93392352 -120 228 C-120.0199855 227.13914291 -120.0199855 227.13914291 -120.04037476 226.26089478 C-120.17493809 220.19206577 -120.26434951 214.12367163 -120.32958984 208.05371094 C-120.35943879 205.79995465 -120.40013358 203.54631111 -120.45263672 201.29296875 C-120.87213293 182.80223375 -119.20462303 166.42931696 -108 151 C-107.59007812 150.4328125 -107.18015625 149.865625 -106.7578125 149.28125 C-103.7203336 145.39010056 -100.02817596 141.86132398 -96 139 C-95.34 139 -94.68 139 -94 139 C-94 138.34 -94 137.68 -94 137 C-91.75243216 135.84917315 -89.50218252 134.70423142 -87.25 133.5625 C-86.61578125 133.23701172 -85.9815625 132.91152344 -85.328125 132.57617188 C-76.67214036 128.2030963 -67.13592403 127.47863693 -57.67578125 129.82421875 C-53.76975424 131.22705088 -50.45964106 132.69357263 -47 135 C-47 135.66 -47 136.32 -47 137 C-46.2575 137.2475 -45.515 137.495 -44.75 137.75 C-41.78613811 139.09720995 -40.22231701 140.66371802 -38 143 C-38.00394933 113.42274854 -38.00394933 113.42274854 -41.58544922 84.14160156 C-41.89528541 82.5409637 -42.16055442 80.93158331 -42.40283203 79.31933594 C-42.54962402 78.41731445 -42.69641602 77.51529297 -42.84765625 76.5859375 C-42.97277588 75.75884277 -43.09789551 74.93174805 -43.22680664 74.07958984 C-43.81627425 71.8198149 -43.81627425 71.8198149 -46.02539062 70.82373047 C-46.67701172 70.55189941 -47.32863281 70.28006836 -48 70 C-49.32533603 66.8636027 -49.10255759 63.61483761 -49.0625 60.25 C-49.05347656 59.26515625 -49.04445313 58.2803125 -49.03515625 57.265625 C-49.01775391 56.14414062 -49.01775391 56.14414062 -49 55 C-49.928125 55.103125 -50.85625 55.20625 -51.8125 55.3125 C-56.46442924 55.32187889 -60.03929774 53.36736318 -64.15625 51.37109375 C-69.36309217 48.86065199 -74.72505615 46.69998272 -80.25 45 C-84.53549387 43.44163859 -87.80518676 41.31429457 -90.875 37.9375 C-92.98698841 32.4228636 -92.98089129 26.40318366 -90.75 20.9375 C-88.94401245 18.93801378 -87.50696229 17.95091673 -85 17 C-85 16.34 -85 15.68 -85 15 C-72.19992742 10.73330914 -56.50373112 17.33943389 -45 23 C-42.8740238 24.56558708 -40.9647297 26.22753742 -39 28 C-37.88625 26.576875 -37.88625 26.576875 -36.75 25.125 C-34.6930767 22.63565533 -32.99617852 21.28407651 -30 20 C-29.67 19.34 -29.34 18.68 -29 18 C-28.34 18 -27.68 18 -27 18 C-26.88785156 17.41992188 -26.77570313 16.83984375 -26.66015625 16.2421875 C-24.85275705 10.10344703 -19.47349654 4.69103705 -14.34765625 1.06640625 C-9.78096224 -1.00798221 -4.87184556 -0.86685252 0 0 Z M-84 179 C-84.485864 180.51870698 -84.96331201 182.04010699 -85.4375 183.5625 C-85.70433594 184.40941406 -85.97117187 185.25632812 -86.24609375 186.12890625 C-88.12015803 193.26588681 -88.27351139 200.41514163 -88.375 207.75 C-88.41238281 208.79027344 -88.44976563 209.83054687 -88.48828125 210.90234375 C-88.49988281 211.89878906 -88.51148438 212.89523437 -88.5234375 213.921875 C-88.54325684 214.82518555 -88.56307617 215.72849609 -88.58349609 216.65917969 C-88.39094238 217.43165039 -88.19838867 218.20412109 -88 219 C-86.35 219.99 -84.7 220.98 -83 222 C-83 207.81 -83 193.62 -83 179 C-83.33 179 -83.66 179 -84 179 Z M-221 325 C-223.48262318 326.27915149 -223.48262318 326.27915149 -226.1875 328.125 C-227.1671875 328.77082031 -228.146875 329.41664063 -229.15625 330.08203125 C-230.0946875 330.71496094 -231.033125 331.34789062 -232 332 C-232.7528125 332.49886719 -233.505625 332.99773437 -234.28125 333.51171875 C-235.89696041 334.61424245 -237.45599828 335.79910978 -239 337 C-239 337.66 -239 338.32 -239 339 C-240.08861328 339.36544922 -240.08861328 339.36544922 -241.19921875 339.73828125 C-244.34439883 341.15514759 -246.30204281 342.83115811 -248.8125 345.1875 C-249.67230469 345.98414063 -250.53210938 346.78078125 -251.41796875 347.6015625 C-252.69607422 348.78878906 -252.69607422 348.78878906 -254 350 C-255.53610145 351.36047632 -257.07717836 352.71537282 -258.625 354.0625 C-259.27726563 354.63097656 -259.92953125 355.19945312 -260.6015625 355.78515625 C-261.06304688 356.18605469 -261.52453125 356.58695313 -262 357 C-257.76017322 357 -255.5072247 354.63786039 -252.3125 352.125 C-251.70599609 351.66480469 -251.09949219 351.20460938 -250.47460938 350.73046875 C-248.94056493 349.53981558 -247.46491299 348.27474597 -246 347 C-246 346.34 -246 345.68 -246 345 C-245.28199219 344.75378906 -244.56398438 344.50757813 -243.82421875 344.25390625 C-240.68205308 342.85883684 -238.44904058 341.13528193 -235.8125 338.9375 C-231.1594533 335.07972665 -231.1594533 335.07972665 -229 334 C-229 333.34 -229 332.68 -229 332 C-228.46375 331.7525 -227.9275 331.505 -227.375 331.25 C-224.43575748 329.70303025 -221.74245592 327.86985631 -219 326 C-219.66 325.67 -220.32 325.34 -221 325 Z M313 444 C314 446 314 446 314 446 Z M314 447 C315 449 315 449 315 449 Z M316 452 C318.18613142 459.60817846 318.18613142 459.60817846 321 467 C322.32830615 463.01508155 321.23204404 461.59951452 319.5625 457.8125 C319.08941406 456.72582031 318.61632813 455.63914062 318.12890625 454.51953125 C317.75636719 453.68808594 317.38382813 452.85664062 317 452 C316.67 452 316.34 452 316 452 Z M322 467 C323 470 323 470 323 470 Z M323 470 C324 473 324 473 324 473 Z M98.8125 721.75 C90.58032497 725.24321624 81.6787754 726.95347654 73 729 C73 729.33 73 729.66 73 730 C83.78377666 730.62919929 94.26340932 729.52147814 104.9375 728.125 C105.94950974 727.99430115 105.94950974 727.99430115 106.98196411 727.86096191 C114.41305415 726.89228215 121.71714952 725.77474512 129 724 C129 723.67 129 723.34 129 723 C128.33613281 722.96261719 127.67226562 722.92523437 126.98828125 722.88671875 C121.79382119 722.49997793 118.39098121 721.97036964 114 719 C108.49124509 719 103.86718378 719.53913302 98.8125 721.75 Z " fill="#F9F8EE" transform="translate(1103,466)"/>
<path d="M0 0 C4.49884672 2.28820652 6.81055959 4.37784802 9 9 C9.83992903 15.80342514 9.48018436 21.0140829 6 27 C5.87625 28.11375 5.7525 29.2275 5.625 30.375 C4.08105986 39.32985282 -1.89394804 43.97872894 -9 49 C-9.74636719 49.495 -10.49273438 49.99 -11.26171875 50.5 C-13.37351843 51.96664138 -13.37351843 51.96664138 -13.25 55.1875 C-13.1675 56.115625 -13.085 57.04375 -13 58 C-12.34 58 -11.68 58 -11 58 C-2.65471957 85.10190587 -4.90536257 113.04016528 -6 141 C-5.18917969 140.71632568 -4.37835937 140.43265137 -3.54296875 140.14038086 C3.82256294 137.69717226 10.25335767 136.38461414 18 136.5625 C18.90105469 136.55541016 19.80210937 136.54832031 20.73046875 136.54101562 C27.60702041 136.60703865 31.51128097 138.27380037 36.5 143.0625 C41.77525269 148.49900495 45.39844268 155.38027396 46 163 C49.50261473 160.95950384 49.50261473 160.95950384 52.75048828 158.54736328 C55.61568982 156.57648773 58.44159764 155.64837145 61.7421875 154.5546875 C62.38817902 154.33934357 63.03417053 154.12399963 63.69973755 153.90213013 C65.06182249 153.44988266 66.42512599 153.00129069 67.78955078 152.55615234 C69.86412814 151.87855098 71.9341635 151.18830389 74.00390625 150.49609375 C84.66217526 146.97139408 97.43734633 142.94848594 108.54296875 146.90625 C110.5660715 148.12715533 112.25143562 149.41341664 114 151 C114.57363281 151.49242187 115.14726563 151.98484375 115.73828125 152.4921875 C120.27995292 156.67616188 122.01311487 160.2657489 122.37109375 166.3359375 C122.78861436 183.31736273 117.93789854 196.1536134 110 211 C118.59805452 214.87115261 127.19528364 217.57969239 136.3125 219.9375 C150.52007417 223.71907499 163.42433036 228.47699734 176.5234375 235.21875 C178.8659324 236.41894963 181.22612903 237.5851375 183.6015625 238.71875 C191.39088732 242.45219545 198.21580603 246.66144858 205 252 C205.79535156 252.61488281 206.59070312 253.22976563 207.41015625 253.86328125 C213.00121525 258.25430807 218.36296927 262.89234874 223.72631836 267.55517578 C228.31965325 271.51070521 233.07753497 275.055838 238.0859375 278.4765625 C238.71757813 278.97929688 239.34921875 279.48203125 240 280 C240 280.66 240 281.32 240 282 C241.65 282.66 243.3 283.32 245 284 C245 284.66 245 285.32 245 286 C245.59079346 286.27005859 246.18158691 286.54011719 246.7902832 286.81835938 C248.98628802 287.99266755 250.53920419 289.2147223 252.35546875 290.90625 C252.97349365 291.48020508 253.59151855 292.05416016 254.22827148 292.64550781 C254.87481689 293.25749023 255.5213623 293.86947266 256.1875 294.5 C256.856604 295.1300293 257.52570801 295.76005859 258.21508789 296.40917969 C263.43224411 301.36708658 268.36456213 306.48978105 273 312 C273.76570313 312.90105469 274.53140625 313.80210937 275.3203125 314.73046875 C281 321.58765244 281 321.58765244 281 325 C281.66 325 282.32 325 283 325 C284.2890625 326.6796875 284.2890625 326.6796875 285.625 328.875 C286.29402344 329.95394531 286.29402344 329.95394531 286.9765625 331.0546875 C288 333 288 333 288 335 C288.66 335 289.32 335 290 335 C291.03435556 336.64556566 292.02763513 338.3170608 293 340 C293.66 340.804375 294.32 341.60875 295 342.4375 C297.42578882 345.54554192 300 348.93376704 300 353 C300.66 353 301.32 353 302 353 C302.804375 354.4540625 302.804375 354.4540625 303.625 355.9375 C305.81684213 359.80081886 308.29347697 363.43690624 310.828125 367.08203125 C312 369 312 369 312 371 C312.66 371 313.32 371 314 371 C314.55171875 371.97453125 315.1034375 372.9490625 315.671875 373.953125 C317.27245894 376.75626408 318.91154674 379.53249109 320.578125 382.296875 C321.01640625 383.02777344 321.4546875 383.75867188 321.90625 384.51171875 C322.81312236 386.02229392 323.72469915 387.53005338 324.640625 389.03515625 C325.07375 389.76089844 325.506875 390.48664063 325.953125 391.234375 C326.34661133 391.88631836 326.74009766 392.53826172 327.14550781 393.20996094 C328 395 328 395 328 398 C328.66 398 329.32 398 330 398 C330.24121582 398.51796143 330.48243164 399.03592285 330.73095703 399.56958008 C336.96434881 412.9760386 336.96434881 412.9760386 344.00390625 425.96875 C345 428 345 428 345 431 C345.66 431 346.32 431 347 431 C355.67482256 449.330744 361.07227652 469.320822 366 488.9375 C366.18936127 489.68214508 366.37872253 490.42679016 366.57382202 491.19400024 C374.29153197 521.74011941 376.74880013 555.65172373 367 586 C366.67547852 587.0214209 366.35095703 588.0428418 366.01660156 589.09521484 C364.87933798 592.65155591 363.72496325 596.20181848 362.5625 599.75 C362.19116943 600.88703369 361.81983887 602.02406738 361.43725586 603.19555664 C359.3276014 609.50338212 356.96794157 615.5625596 354.13647461 621.58154297 C353.18390063 623.60865315 352.29384079 625.64214807 351.4375 627.7109375 C349.80021616 631.45711411 347.94317532 635.03085618 346 638.625 C345.48566406 639.58792969 345.48566406 639.58792969 344.9609375 640.5703125 C343.98564169 642.38689401 342.99612845 644.19477551 342 646 C341.46375 646.97710938 340.9275 647.95421875 340.375 648.9609375 C339.92125 649.63382813 339.4675 650.30671875 339 651 C338.34 651 337.68 651 337 651 C336.8306897 651.88244385 336.8306897 651.88244385 336.65795898 652.78271484 C335.49104701 656.71514325 332.65575711 659.51458022 330.0625 662.625 C329.44858398 663.36484131 328.83466797 664.10468262 328.20214844 664.86694336 C306.69357656 690.32481417 306.69357656 690.32481417 294 698 C293.01 698 292.02 698 291 698 C291 698.66 291 699.32 291 700 C286.18768214 703.83974968 281.24951823 706.54568725 275.625 709 C274.8520459 709.3417627 274.0790918 709.68352539 273.28271484 710.03564453 C266.50009831 712.95034022 259.59699345 715.07908072 252.4765625 716.9921875 C249.14827753 717.83652762 249.14827753 717.83652762 246.84375 719.109375 C243.7934716 720.58281456 240.58167697 720.35193339 237.2421875 720.4609375 C236.50226562 720.63882813 235.76234375 720.81671875 235 721 C234.69964844 721.62003906 234.39929687 722.24007812 234.08984375 722.87890625 C232.42797926 726.11328767 230.04870448 726.4091082 226.6875 727.5625 C223.32366898 728.73236141 220.31968877 729.80654027 217.26953125 731.65234375 C215 733 215 733 212 733 C212 733.66 212 734.32 212 735 C210.02 735.33 208.04 735.66 206 736 C206 736.66 206 737.32 206 738 C203.09399739 739.25664978 201.20395416 740 198 740 C198 740.66 198 741.32 198 742 C189.80683563 744.67623435 181.57461385 746.89989714 173.203125 748.93017578 C167.38745715 750.35720819 161.64358325 751.95873527 155.89794922 753.64453125 C142.71104362 757.48994501 129.60533988 760.14617156 116 762 C115.21061035 762.11182617 114.4212207 762.22365234 113.60791016 762.33886719 C101.43468995 764.01774942 89.20558082 764.37055461 76.93530273 764.65893555 C68.96065419 764.84709135 68.96065419 764.84709135 61.015625 765.50390625 C54.99615344 766.17892357 48.9683357 766.2120526 42.91693115 766.33102417 C29.72011134 766.60679518 16.71322534 767.4495315 3.58129883 768.83886719 C-7.24786274 769.97475924 -18.07204452 770.72360959 -28.93994141 771.35327148 C-30.15601074 771.42489502 -31.37208008 771.49651855 -32.625 771.5703125 C-33.68976563 771.62977051 -34.75453125 771.68922852 -35.8515625 771.75048828 C-39.04370352 771.96532434 -39.04370352 771.96532434 -42.35620117 772.51196289 C-46.4884302 773.06541856 -50.51230721 773.19763031 -54.67578125 773.23828125 C-55.50587204 773.24793915 -56.33596283 773.25759705 -57.19120789 773.26754761 C-59.89835111 773.29244788 -62.60525426 773.30497591 -65.3125 773.3125 C-66.24328369 773.31545074 -67.17406738 773.31840149 -68.13305664 773.32144165 C-85.04209556 773.33355881 -101.43901776 771.8895534 -118.16113281 769.52587891 C-124.21978955 768.69591537 -130.29650442 768.04082824 -136.375 767.375 C-143.40370623 766.6046924 -150.35255693 765.65681982 -157.3137207 764.4074707 C-162.34836304 763.64378643 -167.12971539 763.71030288 -172.15234375 764.48828125 C-187.4588263 766.52396573 -201.41331333 764.79184824 -216 760 C-217.57007813 759.49919922 -217.57007813 759.49919922 -219.171875 758.98828125 C-225.26726351 756.90069877 -231.05012856 754.18211817 -236.875 751.44140625 C-240.35177975 749.83774159 -243.86817682 748.40381729 -247.43359375 747.01171875 C-252.32055848 745.08519841 -257.15570695 743.03094073 -262 741 C-262 740.34 -262 739.68 -262 739 C-263.258125 738.773125 -264.51625 738.54625 -265.8125 738.3125 C-269.45833403 737.50482492 -272.60359845 736.36133507 -275.96875 734.75 C-282.4273802 731.75067144 -289.03104399 729.21030057 -295.6875 726.6875 C-296.87794922 726.23310547 -298.06839844 725.77871094 -299.29492188 725.31054688 C-302.19544666 724.20392095 -305.09713465 723.10046821 -308 722 C-308 721.34 -308 720.68 -308 720 C-308.886875 719.896875 -309.77375 719.79375 -310.6875 719.6875 C-314.0826755 718.98284093 -316.21942098 718.0445434 -319 716 C-319 715.34 -319 714.68 -319 714 C-319.53753906 713.93683594 -320.07507813 713.87367188 -320.62890625 713.80859375 C-324.01215273 712.65483424 -326.31177216 710.40104503 -328.9375 708.0625 C-336.13295325 701.80684 -343.54964314 695.80716855 -351.37109375 690.34375 C-351.90863281 689.9003125 -352.44617188 689.456875 -353 689 C-353 688.34 -353 687.68 -353 687 C-353.556875 686.7525 -354.11375 686.505 -354.6875 686.25 C-359.23774662 683.79040723 -362.55662959 680.57488556 -365.6875 676.5 C-367.98435561 673.54439039 -370.29923496 670.62404619 -372.73828125 667.78515625 C-373.1969458 667.24890625 -373.65561035 666.71265625 -374.12817383 666.16015625 C-375.44597781 664.62541532 -376.7697404 663.09579686 -378.09375 661.56640625 C-380 659 -380 659 -380 656 C-380.66 656 -381.32 656 -382 656 C-389.54462184 647.16201442 -393.69920089 635.56665034 -397.1875 624.625 C-397.41300537 623.92020508 -397.63851074 623.21541016 -397.87084961 622.48925781 C-398.62985319 620.00464456 -399.31535467 617.50626141 -400 615 C-400.32994965 613.82370026 -400.65989929 612.64740051 -400.99984741 611.43545532 C-403.91763662 600.4874293 -404.57805117 590.21098483 -404.49609375 578.921875 C-404.49624942 577.13559917 -404.49774964 575.34932303 -404.50050354 573.56304932 C-404.50187586 569.84510089 -404.48953294 566.12754366 -404.46655273 562.40966797 C-404.43825146 557.70871528 -404.44118386 553.00840803 -404.45323277 548.30740738 C-404.5458166 503.43088 -404.5458166 503.43088 -397.6875 481.75 C-397.38481201 480.75403809 -397.08212402 479.75807617 -396.77026367 478.73193359 C-393.04705317 466.63125626 -388.88096844 454.68561267 -384 443 C-383.34 443 -382.68 443 -382 443 C-381.9278125 442.30003906 -381.855625 441.60007812 -381.78125 440.87890625 C-380.79253195 437.23548022 -378.8423016 434.80742944 -376.5 431.9375 C-375.59275095 430.79766948 -374.68652511 429.65702389 -373.78125 428.515625 C-373.31976562 427.93748047 -372.85828125 427.35933594 -372.3828125 426.76367188 C-371.02166782 425.02763565 -369.70703581 423.26597274 -368.40625 421.484375 C-368.00083984 420.93015869 -367.59542969 420.37594238 -367.17773438 419.80493164 C-366.05355397 418.2610479 -364.93293669 416.71457154 -363.8125 415.16796875 C-363.214375 414.45253906 -362.61625 413.73710938 -362 413 C-361.34 413 -360.68 413 -360 413 C-359.91621094 412.45859375 -359.83242188 411.9171875 -359.74609375 411.359375 C-358.74149281 408.18252177 -357.02577067 405.93396497 -355.0625 403.25 C-354.35222656 402.26515625 -353.64195312 401.2803125 -352.91015625 400.265625 C-352.27980469 399.51796875 -351.64945313 398.7703125 -351 398 C-350.34 398 -349.68 398 -349 398 C-348.79246094 397.33097656 -348.58492187 396.66195313 -348.37109375 395.97265625 C-346.51192496 391.94180881 -343.8885675 388.83665487 -341.0625 385.4375 C-340.47766846 384.72859619 -339.89283691 384.01969238 -339.2902832 383.28930664 C-329.31892692 371.28712423 -318.50756009 360.51970769 -307 350 C-306.48453613 349.52868652 -305.96907227 349.05737305 -305.43798828 348.57177734 C-301.32255238 344.82018437 -297.15727931 341.13346947 -292.9375 337.5 C-290.04967627 334.993369 -287.35790635 332.36169303 -284.6875 329.625 C-280.28124245 325.17378064 -275.57684327 321.25018228 -270.67919922 317.35400391 C-268.71700179 315.77180749 -266.78242915 314.15857666 -264.84765625 312.54296875 C-264.12908447 311.94709961 -263.4105127 311.35123047 -262.67016602 310.73730469 C-261.24058721 309.55169832 -259.8151707 308.36105238 -258.39428711 307.16503906 C-257.73823486 306.62459961 -257.08218262 306.08416016 -256.40625 305.52734375 C-255.82166016 305.03999756 -255.23707031 304.55265137 -254.63476562 304.05053711 C-253 303 -253 303 -250 303 C-250 302.34 -250 301.68 -250 301 C-247.81852561 299.52735202 -245.65048911 298.18843283 -243.375 296.875 C-242.69783936 296.47539063 -242.02067871 296.07578125 -241.32299805 295.6640625 C-238.00779717 293.71571243 -234.67244456 291.80834026 -231.30859375 289.9453125 C-223.35985993 285.53412328 -216.14505611 280.6185705 -209 275 C-207.21403378 273.59962314 -205.42644984 272.20147477 -203.63500977 270.80810547 C-202.48170275 269.90996903 -201.3322836 269.00681258 -200.18725586 268.09814453 C-196.2230363 265 -196.2230363 265 -194 265 C-194 264.34 -194 263.68 -194 263 C-192.37501495 261.93360356 -190.69403834 260.95289657 -189 260 C-187.85336164 259.25123134 -186.70761471 258.50109675 -185.5625 257.75 C-158.84346677 241 -158.84346677 241 -147 241 C-147 240.34 -147 239.68 -147 239 C-146.16597656 238.68546875 -145.33195312 238.3709375 -144.47265625 238.046875 C-138.57765222 235.8050178 -132.73292248 233.52585309 -127 230.89453125 C-124.69189248 229.8621941 -122.34942022 228.93392352 -120 228 C-120.0199855 227.13914291 -120.0199855 227.13914291 -120.04037476 226.26089478 C-120.17493809 220.19206577 -120.26434951 214.12367163 -120.32958984 208.05371094 C-120.35943879 205.79995465 -120.40013358 203.54631111 -120.45263672 201.29296875 C-120.87213293 182.80223375 -119.20462303 166.42931696 -108 151 C-107.59007812 150.4328125 -107.18015625 149.865625 -106.7578125 149.28125 C-103.7203336 145.39010056 -100.02817596 141.86132398 -96 139 C-95.34 139 -94.68 139 -94 139 C-94 138.34 -94 137.68 -94 137 C-91.75243216 135.84917315 -89.50218252 134.70423142 -87.25 133.5625 C-86.61578125 133.23701172 -85.9815625 132.91152344 -85.328125 132.57617188 C-76.67214036 128.2030963 -67.13592403 127.47863693 -57.67578125 129.82421875 C-53.76975424 131.22705088 -50.45964106 132.69357263 -47 135 C-47 135.66 -47 136.32 -47 137 C-46.2575 137.2475 -45.515 137.495 -44.75 137.75 C-41.78613811 139.09720995 -40.22231701 140.66371802 -38 143 C-38.00394933 113.42274854 -38.00394933 113.42274854 -41.58544922 84.14160156 C-41.89528541 82.5409637 -42.16055442 80.93158331 -42.40283203 79.31933594 C-42.54962402 78.41731445 -42.69641602 77.51529297 -42.84765625 76.5859375 C-42.97277588 75.75884277 -43.09789551 74.93174805 -43.22680664 74.07958984 C-43.81627425 71.8198149 -43.81627425 71.8198149 -46.02539062 70.82373047 C-46.67701172 70.55189941 -47.32863281 70.28006836 -48 70 C-49.32533603 66.8636027 -49.10255759 63.61483761 -49.0625 60.25 C-49.05347656 59.26515625 -49.04445313 58.2803125 -49.03515625 57.265625 C-49.01775391 56.14414062 -49.01775391 56.14414062 -49 55 C-49.928125 55.103125 -50.85625 55.20625 -51.8125 55.3125 C-56.46442924 55.32187889 -60.03929774 53.36736318 -64.15625 51.37109375 C-69.36309217 48.86065199 -74.72505615 46.69998272 -80.25 45 C-84.53549387 43.44163859 -87.80518676 41.31429457 -90.875 37.9375 C-92.98698841 32.4228636 -92.98089129 26.40318366 -90.75 20.9375 C-88.94401245 18.93801378 -87.50696229 17.95091673 -85 17 C-85 16.34 -85 15.68 -85 15 C-72.19992742 10.73330914 -56.50373112 17.33943389 -45 23 C-42.8740238 24.56558708 -40.9647297 26.22753742 -39 28 C-37.88625 26.576875 -37.88625 26.576875 -36.75 25.125 C-34.6930767 22.63565533 -32.99617852 21.28407651 -30 20 C-29.67 19.34 -29.34 18.68 -29 18 C-28.34 18 -27.68 18 -27 18 C-26.88785156 17.41992188 -26.77570313 16.83984375 -26.66015625 16.2421875 C-24.85275705 10.10344703 -19.47349654 4.69103705 -14.34765625 1.06640625 C-9.78096224 -1.00798221 -4.87184556 -0.86685252 0 0 Z M-78.5625 169.5 C-87.01844403 180.3290638 -88.3593549 194.64243011 -88.4375 207.875 C-88.47037109 208.88046875 -88.50324219 209.8859375 -88.53710938 210.921875 C-88.62671374 216.94283923 -88.62671374 216.94283923 -85.60546875 222.0078125 C-84.74566406 222.66523437 -83.88585937 223.32265625 -83 224 C-81.61061923 225.96147874 -80.2739589 227.96166576 -79 230 C-78.13375 231.2065625 -78.13375 231.2065625 -77.25 232.4375 C-75.57503354 235.87118125 -75.60163202 238.21550422 -76 242 C-77.73493151 246.65692143 -79.6204248 249.58676469 -84 252 C-85.70397582 252.16037419 -87.41445181 252.25524316 -89.125 252.3125 C-94.64977157 252.62677949 -99.22845377 253.86073662 -104.359375 255.78125 C-105.17405243 256.08480911 -105.98872986 256.38836823 -106.82809448 256.7011261 C-117.13960017 260.66952265 -126.99949383 265.58923979 -136.86181641 270.55004883 C-140.11938476 272.1846823 -143.38897481 273.79320663 -146.66015625 275.40039062 C-159.23534201 281.64827139 -170.87844642 288.41664071 -182 297 C-182.64321198 297.49540787 -183.28642395 297.99081573 -183.9491272 298.50123596 C-187.42368157 301.18800492 -190.86943484 303.90849003 -194.30175781 306.64892578 C-197.22593112 308.97531668 -200.17199505 311.27287548 -203.125 313.5625 C-204.15882813 314.36816406 -205.19265625 315.17382812 -206.2578125 316.00390625 C-208.47663222 317.61903001 -210.50235776 318.89458418 -213 320 C-213 320.66 -213 321.32 -213 322 C-213.71800781 322.10054687 -214.43601562 322.20109375 -215.17578125 322.3046875 C-220.39987964 323.59084174 -224.58462687 327.02314604 -229 330 C-229.969375 330.64324219 -230.93875 331.28648437 -231.9375 331.94921875 C-235.54929019 334.36656195 -235.54929019 334.36656195 -239 337 C-239 337.66 -239 338.32 -239 339 C-239.72574219 339.24363281 -240.45148438 339.48726562 -241.19921875 339.73828125 C-244.34439883 341.15514759 -246.30204281 342.83115811 -248.8125 345.1875 C-249.68261719 345.99445313 -250.55273438 346.80140625 -251.44921875 347.6328125 C-252.29097656 348.41398438 -253.13273437 349.19515625 -254 350 C-255.37021874 351.19301377 -256.74481028 352.38103582 -258.125 353.5625 C-260.81262682 355.8960682 -263.33141483 358.32345805 -265.8125 360.875 C-268.7071533 363.81435837 -271.70802903 366.4339853 -274.9375 369 C-282.26339021 374.89916297 -289.03273167 381.37423781 -295.80810547 387.89160156 C-297.24091053 389.26982662 -298.67729443 390.64434328 -300.11767578 392.01464844 C-309.6058648 401.06272132 -317.8960478 410.49686098 -325.61279297 421.09570312 C-327.54740301 423.7514508 -329.52403127 426.3749381 -331.5 429 C-332.19867187 429.9384375 -332.89734375 430.876875 -333.6171875 431.84375 C-335.45575637 434.27910024 -337.31487267 436.69102711 -339.1953125 439.09375 C-340.04512695 440.18623047 -340.04512695 440.18623047 -340.91210938 441.30078125 C-342.00899838 442.70910168 -343.11137392 444.11317643 -344.22070312 445.51171875 C-352.04722231 455.58970236 -357.18725813 466.02761539 -361.00805664 478.11328125 C-361.67603674 480.21395025 -362.37615009 482.30177095 -363.08007812 484.390625 C-370.32099964 506.44048463 -371.6646094 528.4887077 -371.52148438 551.50219727 C-371.49854702 555.21579587 -371.51233552 558.92825699 -371.53525829 562.64181805 C-371.61307186 577.5090258 -371.57792873 591.69094789 -367 606 C-366.57790086 607.64998283 -366.16349008 609.30198115 -365.76171875 610.95703125 C-362.15901603 624.25362115 -355.91468229 634.50857119 -347 645 C-346.04633922 646.1505978 -345.09324997 647.30166946 -344.140625 648.453125 C-336.23702014 657.93035558 -327.99266974 665.73860283 -317.91015625 672.9140625 C-313.78787292 675.86882666 -309.76153627 678.94707817 -305.7265625 682.01953125 C-300.83160832 685.81415067 -300.83160832 685.81415067 -295 687 C-295 687.66 -295 688.32 -295 689 C-294.01902344 689.35191406 -293.03804687 689.70382812 -292.02734375 690.06640625 C-284.40271271 692.84081887 -276.97014787 695.820118 -269.65039062 699.32250977 C-265.12211201 701.48885248 -260.54939955 703.51848878 -255.9375 705.5 C-251.07449318 707.59664304 -246.33042007 709.813161 -241.625 712.25 C-230.69937403 717.78816213 -219.36853847 722.45565512 -208 727 C-207.27748047 727.29132812 -206.55496094 727.58265625 -205.81054688 727.8828125 C-195.48043624 731.90437429 -184.92256475 731.35686958 -174.02441406 730.94995117 C-172 731 -172 731 -170 732 C-166.4634282 732.28491563 -162.92644975 732.44724098 -159.3828125 732.62109375 C-156.11438684 732.83934367 -152.98995774 733.35925481 -149.7734375 733.97265625 C-140.76024803 735.53767241 -131.62386914 735.65164889 -122.5 736 C-111.52438241 736.41905123 -100.79951291 736.82940593 -90 739 C-83.50839306 740.14643677 -77.13663452 740.18368005 -70.5625 740.1875 C-69.48806641 740.19974609 -68.41363281 740.21199219 -67.30664062 740.22460938 C-60.53165753 740.23662886 -54.00566385 739.69533059 -47.29493713 738.77445984 C-38.28199063 737.57489959 -29.21260107 737.29673552 -20.13623047 736.89550781 C-10.49346064 736.46037558 -0.99074808 735.75911881 8.57666016 734.45727539 C19.56737608 732.98918161 30.64157895 732.74291801 41.71240234 732.39233398 C46.81021065 732.21946897 51.7726266 731.93499937 56.82836914 731.22314453 C60.80491578 730.81453704 64.79936629 730.83233833 68.79370117 730.76098633 C95.36037268 730.24297323 121.23000163 726.51144829 147 720 C148.41889939 719.64825219 149.83784676 719.29669792 151.25683594 718.9453125 C169.54321175 714.38389026 186.60943574 709.13775122 203.50390625 700.6640625 C210.37857327 697.2316107 217.35466601 694.25961899 225 693.1875 C229.01788832 692.4740432 231.5408572 691.14951598 234.875 688.8125 C239.92927046 685.33813587 244.90733893 683.53823957 250.6875 681.6875 C267.48742867 676.14328901 279.70396484 666.50841456 292 654 C292.91523437 653.071875 293.83046875 652.14375 294.7734375 651.1875 C309.54431303 635.53130385 319.49378168 618.03165492 327 598 C327.51820313 596.68902344 327.51820313 596.68902344 328.046875 595.3515625 C341.84584858 559.49685246 341.89327451 525.23987307 330 489 C329.78585449 488.34080566 329.57170898 487.68161133 329.35107422 487.00244141 C328.16505547 483.36014816 326.9420374 479.73122979 325.70800781 476.10498047 C324.88189697 473.64886748 324.07718866 471.1861755 323.2734375 468.72265625 C322.96978271 467.79702881 322.66612793 466.87140137 322.35327148 465.91772461 C321.76084093 464.11105622 321.17159457 462.30333925 320.58618164 460.49438477 C318.71857727 454.82752708 316.52732041 449.40481665 314 444 C313.34 444 312.68 444 312 444 C311.88390381 443.29004883 311.76780762 442.58009766 311.64819336 441.84863281 C310.43603222 436.52151561 307.85391225 431.68748548 305.5625 426.75 C305.02117432 425.58283447 304.47984863 424.41566895 303.92211914 423.21313477 C299.48073559 413.77332161 294.59612881 404.79700217 289 396 C288.5580127 395.30116699 288.11602539 394.60233398 287.66064453 393.88232422 C284.49113685 388.88784619 281.25966404 383.93599457 278 379 C277.58782227 378.37416016 277.17564453 377.74832031 276.75097656 377.10351562 C273.85942385 372.71842118 270.93618434 368.35530537 268 364 C267.49178711 363.24396484 266.98357422 362.48792969 266.45996094 361.70898438 C250.89473714 338.59046196 234.50030257 318.44721684 212.10327148 301.65625 C207.25316272 298.0083426 202.7049194 294.16400813 198.2421875 290.046875 C181.6387081 274.88969171 161.48619685 265.67152402 141 257 C140.15566406 256.63261719 139.31132813 256.26523437 138.44140625 255.88671875 C132.92731831 253.56449454 127.27431289 251.82129523 121.5625 250.0625 C113.50389061 247.57770356 106.01517469 244.527026 98.48046875 240.73046875 C97.68253906 240.34503906 96.88460938 239.95960938 96.0625 239.5625 C95.37285156 239.21316406 94.68320313 238.86382813 93.97265625 238.50390625 C91.95640704 237.78679352 91.95640704 237.78679352 89.9140625 238.796875 C89.28242187 239.19390625 88.65078125 239.5909375 88 240 C83.42533075 242.87246674 80.33604823 243.3864334 75.1171875 242.578125 C71.28709633 241.53226985 68.90279853 239.51848799 66.89453125 236.140625 C63.86359098 228.88754522 66.3153251 219.90862406 69.10400391 212.93212891 C71.65694074 207.42696757 75.06452681 202.35348911 78.34375 197.26171875 C82.9712595 190.55074257 82.9712595 190.55074257 85 183 C67.32613251 187.87554965 49.28937212 200.37073308 40.05078125 216.33984375 C37.96838247 219.62987899 35.60131585 220.79956138 32 222 C27.3958591 222.53495732 23.91932346 222.43364314 19.6875 220.4375 C15.46448348 216.60732222 13.24339813 213.64652617 12.72265625 207.984375 C12.67650478 203.73843961 12.65084706 200.04745882 14 196 C14.08239169 194.15389468 14.10743359 192.30494836 14.09765625 190.45703125 C14.09282227 188.84731445 14.09282227 188.84731445 14.08789062 187.20507812 C14.07951172 186.08552734 14.07113281 184.96597656 14.0625 183.8125 C14.05573242 182.11577148 14.05573242 182.11577148 14.04882812 180.38476562 C14.03703498 177.58979073 14.0205765 174.7949218 14 172 C2.09072541 173.19841757 -8.07975348 180.27099591 -16 189 C-20.06833961 194.27319403 -22.95412489 199.47716404 -25 205.8125 C-26.75115576 211.13449078 -29.3273896 213.98467014 -34 217 C-38.20874211 219.10437105 -42.36678002 218.2039183 -46.6875 216.8125 C-51.16284615 214.36372569 -53.24985298 211.95536842 -55.07250977 207.2043457 C-55.9856713 204.0495036 -56.35005169 201.31457359 -56.52734375 198.04296875 C-56.59759766 196.92986328 -56.66785156 195.81675781 -56.74023438 194.66992188 C-56.87107073 192.36020686 -56.99870862 190.05030831 -57.12304688 187.74023438 C-57.63622326 179.7282103 -58.24656982 172.38883714 -63.4375 166 C-69.86930947 160.98005115 -73.11506031 164.18542469 -78.5625 169.5 Z " fill="#3A6BA8" transform="translate(1103,466)"/>
<path d="M0 0 C2.8146441 2.33213368 3.78213156 4.44280975 5.1875 7.8125 C5.41796875 11.00390625 5.41796875 11.00390625 5.375 14.375 C6.02929438 26.55000719 14.38890474 36.81643001 23.1875 44.8125 C25.6494477 46.48187667 28.15102685 47.94534088 30.75390625 49.3828125 C35.49510971 52.1681744 39.83916538 55.56527563 42.6875 60.3125 C43.8876894 66.31344702 43.53456681 70.61877564 40.1875 75.8125 C36.13509571 79.65161986 32.53730705 81.53605211 27 82.1875 C17.09031058 81.21277645 9.84915841 75.81364689 2.1875 69.8125 C1.4756958 70.37300049 1.4756958 70.37300049 0.74951172 70.94482422 C-6.91975578 76.85674557 -15.25620885 81.32581548 -23.8125 85.8125 C-24.699375 86.28300781 -25.58625 86.75351563 -26.5 87.23828125 C-31.94345038 89.75587705 -37.48909815 90.39885529 -43.375 91.1875 C-57.6429658 93.13807413 -68.81146077 96.59707848 -79.93603516 105.8996582 C-89.489536 113.83250041 -99.60547735 115.02038958 -111.71630859 114.09179688 C-116.86053542 113.40637928 -121.21220619 111.06982502 -125.8125 108.8125 C-136.52418752 104.56377554 -136.52418752 104.56377554 -147.8125 102.8125 C-148.76253906 102.6578125 -149.71257812 102.503125 -150.69140625 102.34375 C-156.10949479 101.76999333 -160.01709651 101.91864449 -164.41015625 105.27734375 C-167.44912261 107.85514882 -170.31653147 110.61113406 -173.20068359 113.359375 C-180.4909928 119.93191671 -189.02764836 123.41633657 -198.796875 123.26953125 C-205.31648765 122.28145524 -210.90705081 118.63058048 -216.421875 115.1796875 C-219.85340847 113.21720921 -222.85042162 112.27870955 -226.8125 112.8125 C-228.91079369 114.14322701 -230.53338016 115.59392154 -232.26953125 117.3671875 C-235.2613167 120.16961944 -238.80570283 120.15504344 -242.75390625 120.08984375 C-247.4191669 119.46131717 -250.1283602 116.69320235 -252.90625 113.1171875 C-256.1686354 107.46149477 -256.26906042 101.20122873 -256.8125 94.8125 C-256.89757813 93.83796875 -256.98265625 92.8634375 -257.0703125 91.859375 C-257.34313582 85.93001482 -256.37483206 82.5935246 -252.8125 77.8125 C-249.13792957 74.2035469 -246.2972614 71.91148409 -241.0625 71.5625 C-236.162399 71.62475174 -232.7035898 73.23659183 -228.9375 76.375 C-227.8125 77.8125 -227.8125 77.8125 -227.8125 79.8125 C-226.95869751 79.7810791 -226.95869751 79.7810791 -226.08764648 79.74902344 C-223.47528184 79.66519006 -220.86320116 79.61363182 -218.25 79.5625 C-217.35474609 79.52898437 -216.45949219 79.49546875 -215.53710938 79.4609375 C-209.36788663 79.37054596 -205.85332698 80.20253276 -200.8125 83.8125 C-196.8125 88.12019231 -196.8125 88.12019231 -196.8125 90.8125 C-195.8225 90.8125 -194.8325 90.8125 -193.8125 90.8125 C-193.8125 90.1525 -193.8125 89.4925 -193.8125 88.8125 C-192.37890625 87.3671875 -192.37890625 87.3671875 -190.375 85.6875 C-188.0689015 83.7495681 -185.82003126 81.81985325 -183.6640625 79.71484375 C-182.59285156 78.68037109 -182.59285156 78.68037109 -181.5 77.625 C-180.86449219 76.99207031 -180.22898437 76.35914063 -179.57421875 75.70703125 C-171.4335565 70.12255997 -162.83740124 69.14780874 -153.1875 69.3125 C-151.48279541 69.32953979 -151.48279541 69.32953979 -149.74365234 69.34692383 C-134.99569658 69.68433633 -122.0412525 73.19812375 -108.8125 79.8125 C-104.51329963 80.50344292 -102.15227109 80.71841904 -98.484375 78.23828125 C-96.81183189 76.82201491 -95.1455332 75.39835282 -93.484375 73.96875 C-81.97830043 64.68314596 -65.63378091 60.24236651 -51.1875 58.4375 C-40.84870313 57.11932194 -32.74730468 52.91495131 -23.87695312 47.66748047 C-19.00425198 44.8125 -19.00425198 44.8125 -16.8125 44.8125 C-17.13863281 44.13445312 -17.46476562 43.45640625 -17.80078125 42.7578125 C-23.17006501 31.32234679 -27.33422599 20.51649919 -23.5625 7.875 C-22.21707132 4.38685157 -20.95440071 1.99437549 -17.8125 -0.1875 C-11.49704958 -2.73797036 -6.28804208 -2.6549511 0 0 Z " fill="#3C6CA8" transform="translate(1282.8125,1011.1875)"/>
<path d="M0 0 C1.85571789 1.17112591 3.59065933 1.73225622 5.68359375 2.375 C11.04351141 4.30287552 15.80155723 8.12258674 18.87890625 12.9296875 C20.85163095 18.15836558 20.6661133 24.25465743 18.83203125 29.49609375 C7.4966179 49.00274064 -24.90461595 60.21107418 -44.31640625 69.0625 C-45.36473633 69.54138672 -46.41306641 70.02027344 -47.49316406 70.51367188 C-59.06412799 75.77034508 -70.6316664 80.82306416 -82.6953125 84.84375 C-85.23431677 85.6983016 -87.67542649 86.60166862 -90.15625 87.59375 C-99.39624833 91.0391731 -108.52751089 91.42704178 -118.31640625 91.4375 C-119.52296875 91.46199219 -120.72953125 91.48648438 -121.97265625 91.51171875 C-130.55707233 91.53971141 -137.9072221 90.61669812 -144.75390625 85.09765625 C-145.26953125 84.44667969 -145.78515625 83.79570313 -146.31640625 83.125 C-146.85265625 82.47660156 -147.38890625 81.82820312 -147.94140625 81.16015625 C-151.91221056 75.10242354 -152.24224501 69.12095879 -151.31640625 62.0625 C-146.48494068 46.77929259 -133.38923825 36.27750768 -120.31640625 28.0625 C-119.44910889 27.51174805 -118.58181152 26.96099609 -117.68823242 26.39355469 C-110.24838398 21.84455194 -102.74641985 18.73094061 -94.50390625 15.9375 C-93.27140137 15.50937012 -92.03889648 15.08124023 -90.76904297 14.64013672 C-87.28896215 13.43508695 -83.80362582 12.24669832 -80.31640625 11.0625 C-78.76280359 10.52667114 -77.20937936 9.9903242 -75.65625 9.453125 C-16.61967575 -10.660282 -16.61967575 -10.660282 0 0 Z " fill="#3B6BA8" transform="translate(1034.31640625,890.9375)"/>
<path d="M0 0 C2.91460274 0.02656225 5.82526777 0.00027813 8.73974609 -0.03173828 C22.07676482 -0.05660987 34.15704046 1.93197542 46.94677734 5.65185547 C48.02266113 5.96123047 49.09854492 6.27060547 50.20703125 6.58935547 C52.58557207 7.3210769 54.92198314 8.11107849 57.25927734 8.96435547 C58.47200317 9.40038086 58.47200317 9.40038086 59.70922852 9.84521484 C84.98191272 19.19132085 84.98191272 19.19132085 91.09521484 29.60888672 C93.93736101 36.42743004 91.77166807 46.76178026 89.94677734 53.65185547 C86.60151247 60.48730643 79.81937577 63.23094016 72.94677734 65.65185547 C58.38837614 69.30301006 44.08296259 64.92665031 30.94677734 58.65185547 C29.82142578 57.97251953 28.69607422 57.29318359 27.53662109 56.59326172 C24.05869799 54.57569768 20.78938803 53.78061867 16.82177734 53.02685547 C4.60261783 50.47210665 -7.05592287 45.92398996 -18.79663086 41.76342773 C-22.50638261 40.49717841 -26.24249108 39.38887453 -30.02441406 38.36035156 C-34.56287524 36.77544009 -37.23831543 33.84705273 -39.92822266 29.90185547 C-41.88056656 24.26175086 -41.63431598 19.58883322 -39.92822266 13.90185547 C-35.71766338 6.60355272 -29.13330292 3.49311564 -21.21160889 1.13665771 C-14.30674703 -0.41426607 -7.03559469 -0.07595311 0 0 Z " fill="#3B6CA8" transform="translate(1238.05322265625,871.34814453125)"/>
<path d="M0 0 C3.87347359 4.29222749 5.3732418 6.96875221 5.27734375 12.83984375 C4.62960239 17.88492783 2.03791105 21.08277628 -1.6875 24.375 C-7.02425911 26.99303277 -11.6261028 27.80622924 -17.3125 25.875 C-21.20684715 23.15801362 -23.49528999 20.51413003 -25 16 C-25.7550216 9.58231641 -23.86207545 5.90229062 -20 1 C-14.10343965 -4.53919306 -6.64743398 -4.1907736 0 0 Z " fill="#406FAA" transform="translate(1147,987)"/>
<path d="M0 0 C2 2 2 2 2.3125 5.25 C1.85432289 10.74812534 0.0908981 14.23545314 -3.9375 17.9375 C-7 20 -7 20 -9.375 19.8125 C-9.91125 19.544375 -10.4475 19.27625 -11 19 C-5.26086957 15.08695652 -5.26086957 15.08695652 -2.84375 14.28125 C-0.64934879 13.07210345 -0.64934879 13.07210345 -0.390625 9.9609375 C-0.32101562 8.18589844 -0.32101562 8.18589844 -0.25 6.375 C-0.19328125 5.18648437 -0.1365625 3.99796875 -0.078125 2.7734375 C-0.05234375 1.85820313 -0.0265625 0.94296875 0 0 Z " fill="#7093BB" transform="translate(1026,699)"/>
<path d="M0 0 C-1 3 -1 3 -2.890625 4.09765625 C-3.66921875 4.41605469 -4.4478125 4.73445312 -5.25 5.0625 C-6.05824219 5.39894531 -6.86648438 5.73539063 -7.69921875 6.08203125 C-8.45847656 6.38496094 -9.21773437 6.68789063 -10 7 C-11.5159375 7.61875 -11.5159375 7.61875 -13.0625 8.25 C-13.701875 8.4975 -14.34125 8.745 -15 9 C-13.18625613 4.61678564 -10.72447711 2.81912663 -6.5 0.8125 C-4 0 -4 0 0 0 Z " fill="#C1D4E1" transform="translate(1167,621)"/>
<path d="M0 0 C-2.49291673 1.66194449 -4.06094134 2.4278766 -6.8125 3.3125 C-11.02596592 4.82342863 -13.72896274 6.97429054 -17 10 C-15.64908476 5.57882285 -13.8349855 3.556657 -10 1 C-6.71755786 -0.27062276 -3.49034396 -0.079326 0 0 Z " fill="#6188B6" transform="translate(1141,984)"/>
<path d="M0 0 C0.66 0 1.32 0 2 0 C0.6190998 3.33717549 -0.8201238 5.22301036 -4 7 C-6.25 6.6875 -6.25 6.6875 -8 6 C-7.05125 5.38125 -6.1025 4.7625 -5.125 4.125 C-2.05554891 2.18029031 -2.05554891 2.18029031 0 0 Z " fill="#5680B2" transform="translate(1023,712)"/>
</svg>
