<svg xmlns="http://www.w3.org/2000/svg" width="128" height="128" viewBox="0 0 909 909" shape-rendering="geometricPrecision">
<path d="M 154,588 141,633 140,694 163,751 210,794 242,812 284,829 346,842 356,838 410,839 523,850 594,844 660,830 705,809 727,789 753,744 769,694 770,650 764,620 745,563 724,526 687,485 648,453 573,408 551,406 541,396 522,391 517,382 519,368 552,346 524,349 492,374 479,370 470,351 481,329 452,340 423,378 409,380 398,373 393,361 398,317 384,319 375,328 366,354 366,373 372,383 367,411 360,417 338,418 310,431 234,482 189,531 Z M 561,654 563,663 561,678 557,690 551,700 539,715 532,720 517,726 507,726 492,722 480,715 475,710 471,710 463,715 456,717 445,717 435,714 428,710 422,704 415,691 413,678 416,662 422,652 434,644 449,644 457,651 459,655 458,668 450,676 450,678 453,678 468,663 480,662 484,663 491,668 498,679 504,685 513,686 518,680 523,670 525,655 534,643 539,641 551,642 557,647 Z M 430,525 438,535 438,548 434,556 415,574 398,586 369,603 359,611 350,613 340,610 334,604 331,594 335,582 349,570 374,555 373,552 358,551 342,547 334,541 331,535 331,526 337,517 346,513 354,513 376,517 413,519 425,522 Z M 597,502 604,502 610,505 615,510 617,514 617,524 614,530 608,535 583,546 583,548 612,561 618,566 622,572 623,581 620,589 614,595 607,598 597,597 552,574 541,565 536,558 534,552 534,542 536,537 547,525 566,514 Z" fill="#faf9ee" fill-rule="evenodd"/>
<path d="M 559,658 556,651 551,646 536,646 532,649 529,654 526,671 522,679 515,688 510,690 502,687 495,680 490,671 481,665 472,665 466,668 454,681 449,682 446,677 454,668 456,664 456,657 452,650 447,647 440,646 429,650 420,660 417,672 417,685 420,696 425,703 433,710 447,714 454,714 462,712 474,706 482,713 498,721 511,723 520,722 528,719 538,712 549,698 558,678 Z" fill="#256dad" fill-rule="evenodd"/><path d="M 429,528 421,524 412,522 374,520 358,518 353,516 348,516 340,519 335,525 334,532 336,538 341,543 352,547 381,550 383,552 347,575 338,583 335,589 335,598 337,602 346,609 355,609 391,587 419,567 431,555 435,547 435,537 Z" fill="#256dad" fill-rule="evenodd"/><path d="M 549,527 538,540 537,551 540,559 550,569 570,581 579,584 598,594 608,594 616,589 619,583 619,575 615,567 606,561 577,548 580,544 606,533 612,527 614,522 614,516 610,509 605,506 595,506 569,516 Z" fill="#256dad" fill-rule="evenodd"/><path d="M 776,25 754,25 701,77 685,29 673,21 658,24 650,37 658,89 622,81 607,95 617,117 644,125 549,192 507,237 474,291 436,303 428,283 407,272 363,287 335,325 331,382 218,445 161,503 108,600 100,688 127,768 189,827 286,870 352,869 365,878 539,889 685,863 728,841 760,810 791,755 810,680 806,627 777,539 745,490 693,438 584,374 597,343 581,316 553,306 523,309 515,297 531,267 577,219 671,154 656,180 664,199 685,198 699,179 720,201 740,192 730,150 769,153 783,131 771,117 725,108 780,51 Z M 145,603 173,548 226,485 300,433 329,418 355,415 364,409 369,389 363,374 368,335 382,317 397,313 401,321 397,364 412,377 427,370 434,354 450,338 473,327 488,327 474,347 476,362 486,370 497,369 521,347 553,343 551,352 523,368 523,387 542,393 553,403 571,404 638,443 677,472 717,513 743,552 771,636 774,681 760,735 729,791 706,811 657,833 595,847 494,853 413,842 358,841 346,846 280,831 227,808 160,752 137,695 138,637 Z M 702,103 707,108 711,109 706,113 702,121 702,133 707,141 702,145 696,155 689,151 678,152 677,151 679,149 681,149 694,138 698,131 698,122 691,111 Z" fill="#256dad" fill-rule="evenodd"/>
</svg>