<svg xmlns="http://www.w3.org/2000/svg" width="128" height="128" viewBox="0 0 1100 1100" shape-rendering="geometricPrecision">
<path d="M 906,651 888,605 867,574 832,539 788,507 736,483 660,464 612,467 600,462 591,450 591,439 604,415 601,385 567,390 560,396 553,418 532,423 498,387 481,384 502,429 493,448 484,452 464,450 440,434 415,435 396,444 410,456 443,463 471,478 477,490 471,522 459,529 446,529 376,564 301,620 276,649 254,687 246,735 255,764 276,792 377,840 625,842 725,836 789,819 859,782 883,762 909,708 911,680 Z M 585,742 589,734 596,727 603,724 612,724 619,727 626,736 630,736 638,732 647,732 652,734 660,742 662,754 656,766 643,775 629,778 612,777 596,771 587,762 584,753 Z M 537,646 539,652 539,659 535,669 526,678 514,684 467,696 444,700 436,699 430,696 423,687 422,676 424,671 428,666 438,660 464,655 467,653 495,646 516,636 524,636 530,639 Z M 789,617 789,626 787,632 779,640 772,643 764,643 749,647 712,652 686,657 682,659 678,659 668,655 663,650 660,643 661,632 668,623 679,618 704,612 725,609 755,602 772,601 782,606 Z" fill="#faf9ee" fill-rule="evenodd"/>
<path d="M 588,744 588,755 591,762 599,769 609,773 639,773 649,768 654,763 658,755 658,747 652,738 648,736 636,736 629,740 624,740 620,733 614,728 602,728 593,734 Z" fill="#256dad" fill-rule="evenodd"/><path d="M 535,651 531,644 527,641 514,640 497,649 472,655 462,659 437,664 433,666 426,675 426,685 429,690 434,694 439,696 447,696 464,692 470,692 516,680 527,673 533,666 535,661 Z" fill="#256dad" fill-rule="evenodd"/><path d="M 785,617 782,611 776,606 765,604 683,620 681,622 677,622 671,625 666,630 664,634 664,644 671,653 677,655 685,655 689,653 714,648 753,643 757,641 765,641 773,639 781,634 785,627 Z" fill="#256dad" fill-rule="evenodd"/><path d="M 135,478 126,485 126,488 123,492 120,503 121,522 126,535 135,545 145,550 156,550 162,547 168,541 171,528 168,519 161,512 163,493 157,482 151,478 Z" fill="#256dad" fill-rule="evenodd"/><path d="M 60,468 51,471 43,476 33,485 24,500 22,511 20,513 20,519 22,520 22,525 25,532 38,540 45,540 52,537 56,533 58,536 55,544 55,555 58,564 64,570 73,574 78,574 87,571 94,563 97,554 99,536 105,514 104,509 99,500 94,496 91,496 89,494 86,495 82,492 83,484 80,481 79,476 73,470 Z" fill="#256dad" fill-rule="evenodd"/><path d="M 166,449 162,455 159,467 161,469 162,476 165,482 169,486 182,492 194,492 202,489 208,483 211,477 211,468 207,460 196,453 190,447 187,447 182,444 176,444 Z" fill="#256dad" fill-rule="evenodd"/><path d="M 905,343 886,345 877,349 864,351 860,353 848,353 838,357 833,362 829,370 829,379 831,380 831,384 837,391 849,395 862,395 861,399 858,401 853,409 852,414 850,415 844,435 845,452 847,453 852,463 863,470 868,470 869,472 886,475 919,472 921,470 927,470 929,468 938,466 940,463 944,462 951,454 953,441 950,433 940,425 931,423 915,426 912,428 894,428 895,424 902,416 909,403 912,401 912,399 921,386 924,379 924,375 926,373 926,362 922,353 916,347 Z" fill="#256dad" fill-rule="evenodd"/><path d="M 28,421 26,437 35,449 90,451 99,467 114,471 131,461 191,382 264,343 324,332 405,345 435,360 436,392 373,406 349,440 360,474 407,502 347,531 277,582 231,636 204,699 206,760 237,816 270,841 350,878 514,890 765,874 825,851 901,807 926,779 947,736 956,693 948,637 926,582 899,543 844,492 784,455 709,428 649,421 655,385 645,357 625,342 584,341 535,361 513,344 475,337 404,300 329,287 289,289 173,339 142,368 101,425 83,411 40,412 Z M 243,719 246,699 260,668 303,614 389,553 447,525 460,525 471,516 473,490 467,479 445,467 405,457 396,451 395,443 409,433 435,430 448,433 462,446 490,446 498,428 476,379 499,384 528,417 536,420 552,414 556,397 564,388 589,380 602,383 608,414 594,445 603,460 663,461 707,470 764,491 810,518 866,568 887,597 908,645 914,679 913,706 903,735 887,762 862,784 807,814 758,833 628,845 372,842 274,794 249,759 Z" fill="#256dad" fill-rule="evenodd"/><path d="M 1022,209 1013,209 1010,211 1000,213 987,219 984,219 982,221 979,221 976,224 961,229 944,238 935,248 934,252 934,263 936,268 948,277 957,277 974,269 975,271 973,273 972,280 973,293 976,299 984,308 996,314 1026,314 1052,304 1067,295 1075,286 1079,277 1079,268 1077,261 1071,254 1062,251 1052,252 1035,263 1026,267 1025,266 1028,259 1038,245 1040,240 1041,229 1040,224 1033,214 Z" fill="#256dad" fill-rule="evenodd"/>
</svg>