<svg xmlns="http://www.w3.org/2000/svg" width="128" height="128" viewBox="0 0 1278 1278" shape-rendering="geometricPrecision">
<path d="M 612,292 588,303 557,328 542,328 525,358 480,488 423,713 378,999 381,1082 392,1120 413,1153 446,1182 486,1201 581,1225 637,1224 670,1214 712,1190 741,1162 787,1068 804,977 802,907 777,795 683,501 665,424 637,356 621,358 613,350 617,338 664,314 674,302 647,309 602,333 594,319 Z M 606,893 613,896 619,905 619,917 628,976 628,1013 621,1036 605,1063 587,1080 577,1084 570,1084 565,1082 560,1077 558,1073 558,1066 560,1062 582,1040 591,1024 595,1013 596,982 592,934 590,925 590,905 596,896 Z M 626,760 631,755 636,753 642,753 648,756 653,762 698,800 702,808 702,813 699,820 690,826 683,826 674,821 630,780 625,772 Z M 560,752 561,762 552,773 487,814 466,824 458,824 454,822 448,815 448,805 455,797 471,789 527,750 537,745 548,743 556,747 Z M 611,717 616,710 622,707 632,707 653,714 701,739 709,749 709,758 707,762 699,768 687,768 636,739 618,734 612,728 Z M 533,711 535,715 535,723 532,729 520,739 482,757 478,763 471,767 462,766 455,759 452,752 453,745 462,735 517,704 526,705 Z" fill="#faf9ee" fill-rule="evenodd"/>
<path d="M 609,896 598,897 593,903 592,907 592,922 595,940 598,981 598,1008 593,1025 585,1039 579,1047 563,1061 561,1065 562,1076 566,1080 571,1082 577,1082 585,1079 600,1066 611,1051 621,1031 626,1011 626,980 623,951 617,918 617,907 614,900 Z" fill="#256dad" fill-rule="evenodd"/><path d="M 632,757 627,764 627,771 630,777 658,804 681,823 691,823 698,817 699,806 697,802 687,792 652,764 646,757 640,755 Z" fill="#256dad" fill-rule="evenodd"/><path d="M 557,752 551,746 540,746 521,756 473,790 456,799 450,806 451,816 457,821 465,822 483,814 500,804 523,788 553,770 558,763 Z" fill="#256dad" fill-rule="evenodd"/><path d="M 613,718 614,727 620,733 628,734 639,738 688,766 698,766 702,764 706,759 707,751 703,743 677,728 650,715 636,710 622,709 618,711 Z" fill="#256dad" fill-rule="evenodd"/><path d="M 531,712 524,707 515,707 470,732 457,743 455,747 456,757 460,762 464,764 472,764 485,753 521,736 527,732 531,727 533,721 Z" fill="#256dad" fill-rule="evenodd"/><path d="M 921,24 914,23 909,25 886,42 872,54 858,71 853,85 854,96 858,101 865,102 871,99 876,82 884,73 923,43 926,37 926,30 Z" fill="#256dad" fill-rule="evenodd"/><path d="M 856,21 835,42 827,75 833,94 806,98 809,110 829,118 682,193 625,244 620,262 581,281 578,255 560,248 527,272 499,318 429,514 350,887 339,1049 349,1101 383,1169 430,1216 496,1251 623,1255 712,1218 768,1164 813,1063 827,983 814,849 688,420 657,346 696,316 706,290 691,276 643,286 637,263 699,209 837,138 838,119 854,116 858,131 879,140 848,140 828,168 832,183 858,163 861,184 875,187 883,142 928,153 928,137 885,118 935,104 934,85 881,98 877,114 857,115 854,101 841,96 863,34 Z M 615,288 596,320 604,331 646,307 679,301 661,318 619,339 616,350 623,356 639,354 665,417 681,487 790,838 805,911 806,976 790,1066 764,1127 739,1167 710,1194 666,1218 633,1227 579,1227 494,1207 445,1184 411,1153 391,1123 381,1092 376,1002 428,677 478,487 523,357 542,324 554,327 578,307 Z" fill="#256dad" fill-rule="evenodd"/>
</svg>