<?xml version="1.0" encoding="UTF-8"?>
<svg version="1.1" xmlns="http://www.w3.org/2000/svg" width="2224" height="1668">
<path d="M0 0 C4.33751415 4.01220058 5.83452441 7.62375503 6.52734375 13.44140625 C6.75236572 15.22514648 6.75236572 15.22514648 6.98193359 17.04492188 C7.13227051 18.30884766 7.28260742 19.57277344 7.4375 20.875 C8.85205199 31.87195727 10.57310552 42.70032576 12.90527344 53.54003906 C18.30111534 78.69405408 23.26140879 103.78434213 26.5 129.3125 C28.06234375 128.51585937 28.06234375 128.51585937 29.65625 127.703125 C44.21498193 120.45629443 59.83205749 114.03167834 76.1875 118.8125 C77.63024594 119.29715493 79.07002103 119.79137968 80.5 120.3125 C80.5 120.9725 80.5 121.6325 80.5 122.3125 C81.07363281 122.37050781 81.64726563 122.42851563 82.23828125 122.48828125 C85.51125464 123.68102285 86.67242723 125.69855737 88.6875 128.5 C89.38230469 129.44230469 90.07710937 130.38460937 90.79296875 131.35546875 C92.57566274 134.44356795 93.15036289 136.79003662 93.5 140.3125 C99.98123623 138.63144124 99.98123623 138.63144124 106 135.8125 C112.91158753 131.66554748 121.54663932 129.86327247 129.5 131.3125 C132.87880304 132.90890694 135.64851348 134.91249885 138.5 137.3125 C139.304375 137.9725 140.10875 138.6325 140.9375 139.3125 C146.84482368 146.87387431 145.30890946 159.29342275 144.5 168.3125 C142.04559427 180.12354889 134.09102742 190.42595887 127.5 200.3125 C136.29264381 203.49701523 145.0953286 206.01109365 154.1875 208.1875 C162.06139258 210.09438564 169.78210345 212.21674485 177.4375 214.875 C178.22278076 215.1436084 179.00806152 215.4122168 179.81713867 215.68896484 C185.38746734 217.6863606 190.38948008 220.3478711 195.5 223.3125 C196.16 223.6425 196.82 223.9725 197.5 224.3125 C197.5 224.9725 197.5 225.6325 197.5 226.3125 C199.48 226.6425 201.46 226.9725 203.5 227.3125 C203.5 227.9725 203.5 228.6325 203.5 229.3125 C204.139375 229.395 204.77875 229.4775 205.4375 229.5625 C209.70541517 230.60770372 213.53107667 232.45341826 217.5 234.3125 C217.5 234.9725 217.5 235.6325 217.5 236.3125 C218.263125 236.456875 219.02625 236.60125 219.8125 236.75 C222.5 237.3125 222.5 237.3125 225.5 238.3125 C225.5 238.9725 225.5 239.6325 225.5 240.3125 C226.37398437 240.41304687 227.24796875 240.51359375 228.1484375 240.6171875 C231.73812233 241.36190067 234.01326047 242.5258804 237.125 244.4375 C238.16785156 245.06785156 239.21070313 245.69820312 240.28515625 246.34765625 C241.87650391 247.32025391 241.87650391 247.32025391 243.5 248.3125 C245.51757687 249.50552438 247.53835574 250.69315244 249.5625 251.875 C250.55894531 252.45765625 251.55539062 253.0403125 252.58203125 253.640625 C255.28065424 255.18682398 258.00457273 256.66405515 260.75 258.125 C276.5859555 266.70662328 290.97218664 276.96380946 304.59472656 288.71069336 C306.03270936 289.91963815 307.49157188 291.103809 308.95996094 292.27563477 C316.00266392 297.90616173 322.41907613 303.96031042 328.75 310.375 C329.70011452 311.32657774 330.65063462 312.27775069 331.6015625 313.22851562 C336.77062409 318.43015534 341.75898764 323.71853076 346.5 329.3125 C346.9861377 329.87686768 347.47227539 330.44123535 347.97314453 331.02270508 C349.30359686 332.5699426 350.62091819 334.1284427 351.9375 335.6875 C352.38287109 336.20699219 352.82824219 336.72648437 353.28710938 337.26171875 C356.5 341.08165323 356.5 341.08165323 356.5 343.3125 C357.16 343.3125 357.82 343.3125 358.5 343.3125 C360.13429751 345.4069968 361.64167234 347.49032091 363.125 349.6875 C363.54523437 350.29078125 363.96546875 350.8940625 364.3984375 351.515625 C367.5 356.04712865 367.5 356.04712865 367.5 358.3125 C368.16 358.3125 368.82 358.3125 369.5 358.3125 C370.04785156 359.29476563 370.59570312 360.27703125 371.16015625 361.2890625 C373.58571981 365.53406551 376.25241302 369.60365296 378.9375 373.6875 C382.69089329 379.44994287 386.35965414 385.18716108 389.5 391.3125 C389.97824219 392.2303125 390.45648437 393.148125 390.94921875 394.09375 C397.11088658 406.13771533 401.92549088 418.67759476 406.375 431.4375 C406.63568268 432.18474335 406.89636536 432.93198669 407.16494751 433.70187378 C411.15972079 445.27514011 414.28606726 456.87115915 416.6875 468.875 C416.8298407 469.58456848 416.9721814 470.29413696 417.11883545 471.02520752 C424.51724026 508.46456174 416.84716624 540.84517415 404.5 576.3125 C403.84 576.3125 403.18 576.3125 402.5 576.3125 C402.355625 577.075625 402.21125 577.83875 402.0625 578.625 C401.5 581.3125 401.5 581.3125 400.5 584.3125 C399.84 584.3125 399.18 584.3125 398.5 584.3125 C398.17 585.9625 397.84 587.6125 397.5 589.3125 C396.84 589.3125 396.18 589.3125 395.5 589.3125 C395.37625 589.89 395.2525 590.4675 395.125 591.0625 C394.49351176 593.33585767 393.61141809 595.2378529 392.5 597.3125 C391.84 597.3125 391.18 597.3125 390.5 597.3125 C390.4175 597.86550781 390.335 598.41851563 390.25 598.98828125 C387.07474421 608.82826663 375.497074 617.88669592 367.8046875 624.4921875 C363.02146486 628.65393059 358.62364689 633.16244158 354.1875 637.6875 C347.5743642 644.36570186 340.96612675 650.5953044 333.5 656.3125 C331.74940956 657.7492809 329.99940437 659.18677519 328.25 660.625 C324.47792289 663.6390806 320.74477081 666.02685418 316.5 668.3125 C315.4275 669.055 314.355 669.7975 313.25 670.5625 C310.5 672.3125 310.5 672.3125 307.5 672.3125 C307.5 672.9725 307.5 673.6325 307.5 674.3125 C297.35138899 680.21317289 287.09227312 685.58104261 276.40527344 690.43994141 C274.66087084 691.23882594 272.92745795 692.06159509 271.1953125 692.88671875 C266.63574091 695.04293892 262.60282815 696.89875718 257.5 697.3125 C257.5 697.9725 257.5 698.6325 257.5 699.3125 C249.12955723 703.27495196 240.44254613 706.21394894 231.6875 709.1875 C230.90688202 709.45395325 230.12626404 709.72040649 229.32199097 709.99493408 C219.04120814 713.50211545 208.7475956 716.90858748 198.30664062 719.91210938 C195.1771149 720.81601927 192.05986093 721.75033886 188.94970703 722.71875 C177.17606037 726.37076612 165.36271772 729.35461977 153.3125 731.9375 C152.42302673 732.13048676 151.53355347 732.32347351 150.61712646 732.52230835 C137.28761194 735.41042445 123.95712075 737.98108834 110.44873047 739.89306641 C107.28733446 740.34274999 104.13001925 740.81581696 100.97265625 741.29296875 C86.0577484 743.5417789 71.12675865 745.68463307 56.19082642 747.78881836 C52.7263219 748.28038778 49.26395496 748.78516181 45.80151367 749.29101562 C6.58140666 754.90989251 -32.59466897 756.07672145 -72.16247582 756.16944551 C-76.86827001 756.18089401 -81.57372575 756.20831268 -86.27941895 756.24157715 C-92.73244308 756.28314061 -99.18429965 756.28343904 -105.63737488 756.25298691 C-108.02812537 756.24593166 -110.41893852 756.24964597 -112.80964661 756.26553726 C-128.60936206 756.35198848 -141.99133353 754.09982974 -156.97006989 749.09054947 C-161.8800799 747.58053516 -166.90111895 746.8407285 -171.9609375 745.9921875 C-176.60081023 745.10108611 -180.98980201 743.68871666 -185.46875 742.203125 C-188.43746324 741.3308742 -191.24795946 740.8872771 -194.3125 740.5 C-200.14888221 739.54433508 -203.73652205 736.79787269 -207.5 732.3125 C-209 729.375 -209 729.375 -209.5 727.3125 C-210.16 727.3125 -210.82 727.3125 -211.5 727.3125 C-211.5 726.6525 -211.5 725.9925 -211.5 725.3125 C-212.16 725.3125 -212.82 725.3125 -213.5 725.3125 C-213.5 724.6525 -213.5 723.9925 -213.5 723.3125 C-214.1084375 723.17714844 -214.716875 723.04179688 -215.34375 722.90234375 C-227.94137722 719.80851471 -239.47198479 713.92710488 -250.98046875 708.07421875 C-255.37726032 705.87338301 -259.82754136 703.8024487 -264.2902832 701.73974609 C-267.63782899 700.18994816 -270.9602461 698.60647771 -274.25 696.9375 C-277.39688026 695.26830583 -277.39688026 695.26830583 -280.5 694.3125 C-280.5 693.6525 -280.5 692.9925 -280.5 692.3125 C-281.386875 692.209375 -282.27375 692.10625 -283.1875 692 C-286.5826755 691.29534093 -288.71942098 690.3570434 -291.5 688.3125 C-291.5 687.6525 -291.5 686.9925 -291.5 686.3125 C-292.33337891 686.15974609 -292.33337891 686.15974609 -293.18359375 686.00390625 C-305.51663991 682.32271035 -319.22905756 669.95581578 -328.5 661.3125 C-328.5 660.6525 -328.5 659.9925 -328.5 659.3125 C-329.16 659.3125 -329.82 659.3125 -330.5 659.3125 C-334.4040105 655.71191001 -337.86264502 651.71669443 -341.3125 647.6875 C-341.83658447 647.07575928 -342.36066895 646.46401855 -342.90063477 645.83374023 C-347.39778977 640.53083634 -351.51584982 635.01026317 -355.5 629.3125 C-356.09107544 628.52093506 -356.09107544 628.52093506 -356.6940918 627.71337891 C-365.1546742 616.28120416 -370.07514821 602.46966844 -373.80322266 588.85546875 C-374.26544502 587.16853527 -374.7441692 585.48603157 -375.23974609 583.80859375 C-383.2246895 556.22711487 -381.59556535 523.34063948 -376.5 495.3125 C-376.33902832 494.40838379 -376.17805664 493.50426758 -376.01220703 492.57275391 C-371.21014482 466.6803666 -362.95145376 442.32386732 -345.5 422.3125 C-344.54779221 421.19023124 -343.59735393 420.06645934 -342.6484375 418.94140625 C-337.79587639 413.20627372 -332.86287276 407.5670884 -327.75 402.0625 C-323.58786416 397.58112654 -319.74723574 392.95541461 -316.05859375 388.078125 C-315.54425781 387.49546875 -315.02992188 386.9128125 -314.5 386.3125 C-313.84 386.3125 -313.18 386.3125 -312.5 386.3125 C-312.23082764 385.72186768 -311.96165527 385.13123535 -311.68432617 384.52270508 C-310.49881181 382.31028259 -309.26746345 380.76914012 -307.55078125 378.94921875 C-306.95724854 378.31685303 -306.36371582 377.6844873 -305.75219727 377.03295898 C-305.11209717 376.36208252 -304.47199707 375.69120605 -303.8125 375 C-302.81851196 373.95017944 -302.81851196 373.95017944 -301.80444336 372.87915039 C-283.51124893 353.64961366 -283.51124893 353.64961366 -274.17578125 345.7734375 C-272.41652019 344.23972273 -270.80882424 342.61577942 -269.1875 340.9375 C-265.56559493 337.25849283 -261.61485008 334.07108489 -257.59375 330.83984375 C-254.76242048 328.52687633 -251.99726837 326.15780259 -249.2409668 323.75708008 C-243.93102788 319.13577274 -238.61059892 314.7746314 -232.75390625 310.84765625 C-229.78968989 308.82870126 -226.99167385 306.61795112 -224.19140625 304.37890625 C-222.5 303.3125 -222.5 303.3125 -219.5 303.3125 C-219.5 302.6525 -219.5 301.9925 -219.5 301.3125 C-217.13403953 299.60424678 -214.76915512 298.00518875 -212.3125 296.4375 C-210.96338894 295.56735564 -209.61570368 294.69499624 -208.26953125 293.8203125 C-207.62193848 293.40040039 -206.9743457 292.98048828 -206.30712891 292.54785156 C-204.28052364 291.20316238 -204.28052364 291.20316238 -201.69921875 288.9921875 C-199.5 287.3125 -199.5 287.3125 -196.5 287.3125 C-196.5 286.6525 -196.5 285.9925 -196.5 285.3125 C-195.07421875 284.0234375 -195.07421875 284.0234375 -193.1875 282.6875 C-192.57261719 282.24148438 -191.95773437 281.79546875 -191.32421875 281.3359375 C-189.5 280.3125 -189.5 280.3125 -186.5 280.3125 C-186.5 279.6525 -186.5 278.9925 -186.5 278.3125 C-184.52462874 276.92130866 -182.57344065 275.66645797 -180.5 274.4375 C-179.90783691 274.08107422 -179.31567383 273.72464844 -178.70556641 273.35742188 C-166.89212109 266.3125 -166.89212109 266.3125 -162.5 266.3125 C-162.5 265.6525 -162.5 264.9925 -162.5 264.3125 C-161.37980469 263.75820313 -160.25960937 263.20390625 -159.10546875 262.6328125 C-157.63275962 261.90114809 -156.16010628 261.16937139 -154.6875 260.4375 C-153.94951172 260.07269531 -153.21152344 259.70789063 -152.45117188 259.33203125 C-151.73896484 258.97753906 -151.02675781 258.62304688 -150.29296875 258.2578125 C-149.6383667 257.93312988 -148.98376465 257.60844727 -148.30932617 257.27392578 C-146.25347202 256.21994328 -146.25347202 256.21994328 -143.5 254.3125 C-142.51 254.3125 -141.52 254.3125 -140.5 254.3125 C-140.5 253.6525 -140.5 252.9925 -140.5 252.3125 C-137.56830554 250.63546194 -134.62875476 248.97270482 -131.6875 247.3125 C-130.43743164 246.59707031 -130.43743164 246.59707031 -129.16210938 245.8671875 C-128.35966797 245.41601562 -127.55722656 244.96484375 -126.73046875 244.5 C-125.99207764 244.08105469 -125.25368652 243.66210938 -124.49291992 243.23046875 C-122.5 242.3125 -122.5 242.3125 -119.5 242.3125 C-119.5 241.6525 -119.5 240.9925 -119.5 240.3125 C-118.83613281 239.98636719 -118.17226563 239.66023437 -117.48828125 239.32421875 C-111.93263809 236.58208181 -111.93263809 236.58208181 -106.5625 233.5 C-104.5 232.3125 -104.5 232.3125 -101.5 232.3125 C-101.5 231.6525 -101.5 230.9925 -101.5 230.3125 C-98.59399739 229.05585022 -96.70395416 228.3125 -93.5 228.3125 C-93.5 227.6525 -93.5 226.9925 -93.5 226.3125 C-90.89802798 225.30644407 -88.29370638 224.30747475 -85.6875 223.3125 C-84.94951172 223.02632812 -84.21152344 222.74015625 -83.45117188 222.4453125 C-82.73896484 222.17460938 -82.02675781 221.90390625 -81.29296875 221.625 C-80.31106567 221.24794922 -80.31106567 221.24794922 -79.30932617 220.86328125 C-77.5 220.3125 -77.5 220.3125 -74.5 220.3125 C-74.9640625 218.6109375 -74.9640625 218.6109375 -75.4375 216.875 C-77.87762321 207.92788158 -77.68260377 198.63262761 -77.6875 189.4375 C-77.69974609 188.23480469 -77.71199219 187.03210938 -77.72460938 185.79296875 C-77.73667569 178.38424911 -77.03545692 171.54934086 -75.5 164.3125 C-75.28674832 162.91740961 -75.07753894 161.52168588 -74.875 160.125 C-72.61349822 150.1636231 -66.21911879 137.94335763 -59.5 130.3125 C-58.51 129.9825 -57.52 129.6525 -56.5 129.3125 C-55.82657953 127.98256501 -55.16085066 126.64872551 -54.5 125.3125 C-44.72682948 115.89058508 -34.57665524 113.29609295 -21.34375 113.08203125 C-17.88597348 113.36226314 -14.80288369 114.27830498 -11.5 115.3125 C-12.05908863 110.12011305 -12.63425391 104.9299142 -13.2265625 99.74121094 C-13.47329143 97.54972933 -13.70630319 95.3572211 -13.9375 93.1640625 C-14.72797668 86.31796981 -15.98988215 80.40029461 -18.546875 74.0078125 C-20.90660263 67.33481223 -21.62481144 60.3539453 -21.5 53.3125 C-22.49 52.9825 -23.48 52.6525 -24.5 52.3125 C-23.84 51.9825 -23.18 51.6525 -22.5 51.3125 C-22.644375 50.47074219 -22.78875 49.62898437 -22.9375 48.76171875 C-24.31610871 39.54227301 -24.7476471 30.44698025 -24.8125 21.125 C-24.82990234 19.94317139 -24.84730469 18.76134277 -24.86523438 17.54370117 C-24.86458984 16.4219751 -24.86394531 15.30024902 -24.86328125 14.14453125 C-24.86775269 12.63983276 -24.86775269 12.63983276 -24.87231445 11.10473633 C-24.19530844 6.02741321 -21.27305948 2.61392705 -17.5 -0.6875 C-11.65323045 -2.63642318 -5.56047738 -2.68094445 0 0 Z " fill="#F9F8EE" transform="translate(1073.5,480.6875)"/>
<path d="M0 0 C4.33751415 4.01220058 5.83452441 7.62375503 6.52734375 13.44140625 C6.75236572 15.22514648 6.75236572 15.22514648 6.98193359 17.04492188 C7.13227051 18.30884766 7.28260742 19.57277344 7.4375 20.875 C8.85205199 31.87195727 10.57310552 42.70032576 12.90527344 53.54003906 C18.30111534 78.69405408 23.26140879 103.78434213 26.5 129.3125 C28.06234375 128.51585937 28.06234375 128.51585937 29.65625 127.703125 C44.21498193 120.45629443 59.83205749 114.03167834 76.1875 118.8125 C77.63024594 119.29715493 79.07002103 119.79137968 80.5 120.3125 C80.5 120.9725 80.5 121.6325 80.5 122.3125 C81.07363281 122.37050781 81.64726563 122.42851563 82.23828125 122.48828125 C85.51125464 123.68102285 86.67242723 125.69855737 88.6875 128.5 C89.38230469 129.44230469 90.07710937 130.38460937 90.79296875 131.35546875 C92.57566274 134.44356795 93.15036289 136.79003662 93.5 140.3125 C99.98123623 138.63144124 99.98123623 138.63144124 106 135.8125 C112.91158753 131.66554748 121.54663932 129.86327247 129.5 131.3125 C132.87880304 132.90890694 135.64851348 134.91249885 138.5 137.3125 C139.304375 137.9725 140.10875 138.6325 140.9375 139.3125 C146.84482368 146.87387431 145.30890946 159.29342275 144.5 168.3125 C142.04559427 180.12354889 134.09102742 190.42595887 127.5 200.3125 C136.29264381 203.49701523 145.0953286 206.01109365 154.1875 208.1875 C162.06139258 210.09438564 169.78210345 212.21674485 177.4375 214.875 C178.22278076 215.1436084 179.00806152 215.4122168 179.81713867 215.68896484 C185.38746734 217.6863606 190.38948008 220.3478711 195.5 223.3125 C196.16 223.6425 196.82 223.9725 197.5 224.3125 C197.5 224.9725 197.5 225.6325 197.5 226.3125 C199.48 226.6425 201.46 226.9725 203.5 227.3125 C203.5 227.9725 203.5 228.6325 203.5 229.3125 C204.139375 229.395 204.77875 229.4775 205.4375 229.5625 C209.70541517 230.60770372 213.53107667 232.45341826 217.5 234.3125 C217.5 234.9725 217.5 235.6325 217.5 236.3125 C218.263125 236.456875 219.02625 236.60125 219.8125 236.75 C222.5 237.3125 222.5 237.3125 225.5 238.3125 C225.5 238.9725 225.5 239.6325 225.5 240.3125 C226.37398437 240.41304687 227.24796875 240.51359375 228.1484375 240.6171875 C231.73812233 241.36190067 234.01326047 242.5258804 237.125 244.4375 C238.16785156 245.06785156 239.21070313 245.69820312 240.28515625 246.34765625 C241.87650391 247.32025391 241.87650391 247.32025391 243.5 248.3125 C245.51757687 249.50552438 247.53835574 250.69315244 249.5625 251.875 C250.55894531 252.45765625 251.55539062 253.0403125 252.58203125 253.640625 C255.28065424 255.18682398 258.00457273 256.66405515 260.75 258.125 C276.5859555 266.70662328 290.97218664 276.96380946 304.59472656 288.71069336 C306.03270936 289.91963815 307.49157188 291.103809 308.95996094 292.27563477 C316.00266392 297.90616173 322.41907613 303.96031042 328.75 310.375 C329.70011452 311.32657774 330.65063462 312.27775069 331.6015625 313.22851562 C336.77062409 318.43015534 341.75898764 323.71853076 346.5 329.3125 C346.9861377 329.87686768 347.47227539 330.44123535 347.97314453 331.02270508 C349.30359686 332.5699426 350.62091819 334.1284427 351.9375 335.6875 C352.38287109 336.20699219 352.82824219 336.72648437 353.28710938 337.26171875 C356.5 341.08165323 356.5 341.08165323 356.5 343.3125 C357.16 343.3125 357.82 343.3125 358.5 343.3125 C360.13429751 345.4069968 361.64167234 347.49032091 363.125 349.6875 C363.54523437 350.29078125 363.96546875 350.8940625 364.3984375 351.515625 C367.5 356.04712865 367.5 356.04712865 367.5 358.3125 C368.16 358.3125 368.82 358.3125 369.5 358.3125 C370.04785156 359.29476563 370.59570312 360.27703125 371.16015625 361.2890625 C373.58571981 365.53406551 376.25241302 369.60365296 378.9375 373.6875 C382.69089329 379.44994287 386.35965414 385.18716108 389.5 391.3125 C389.97824219 392.2303125 390.45648437 393.148125 390.94921875 394.09375 C397.11088658 406.13771533 401.92549088 418.67759476 406.375 431.4375 C406.63568268 432.18474335 406.89636536 432.93198669 407.16494751 433.70187378 C411.15972079 445.27514011 414.28606726 456.87115915 416.6875 468.875 C416.8298407 469.58456848 416.9721814 470.29413696 417.11883545 471.02520752 C424.51724026 508.46456174 416.84716624 540.84517415 404.5 576.3125 C403.84 576.3125 403.18 576.3125 402.5 576.3125 C402.355625 577.075625 402.21125 577.83875 402.0625 578.625 C401.5 581.3125 401.5 581.3125 400.5 584.3125 C399.84 584.3125 399.18 584.3125 398.5 584.3125 C398.17 585.9625 397.84 587.6125 397.5 589.3125 C396.84 589.3125 396.18 589.3125 395.5 589.3125 C395.37625 589.89 395.2525 590.4675 395.125 591.0625 C394.49351176 593.33585767 393.61141809 595.2378529 392.5 597.3125 C391.84 597.3125 391.18 597.3125 390.5 597.3125 C390.4175 597.86550781 390.335 598.41851563 390.25 598.98828125 C387.07474421 608.82826663 375.497074 617.88669592 367.8046875 624.4921875 C363.02146486 628.65393059 358.62364689 633.16244158 354.1875 637.6875 C347.5743642 644.36570186 340.96612675 650.5953044 333.5 656.3125 C331.74940956 657.7492809 329.99940437 659.18677519 328.25 660.625 C324.47792289 663.6390806 320.74477081 666.02685418 316.5 668.3125 C315.4275 669.055 314.355 669.7975 313.25 670.5625 C310.5 672.3125 310.5 672.3125 307.5 672.3125 C307.5 672.9725 307.5 673.6325 307.5 674.3125 C297.35138899 680.21317289 287.09227312 685.58104261 276.40527344 690.43994141 C274.66087084 691.23882594 272.92745795 692.06159509 271.1953125 692.88671875 C266.63574091 695.04293892 262.60282815 696.89875718 257.5 697.3125 C257.5 697.9725 257.5 698.6325 257.5 699.3125 C249.12955723 703.27495196 240.44254613 706.21394894 231.6875 709.1875 C230.90688202 709.45395325 230.12626404 709.72040649 229.32199097 709.99493408 C219.04120814 713.50211545 208.7475956 716.90858748 198.30664062 719.91210938 C195.1771149 720.81601927 192.05986093 721.75033886 188.94970703 722.71875 C177.17606037 726.37076612 165.36271772 729.35461977 153.3125 731.9375 C152.42302673 732.13048676 151.53355347 732.32347351 150.61712646 732.52230835 C137.28761194 735.41042445 123.95712075 737.98108834 110.44873047 739.89306641 C107.28733446 740.34274999 104.13001925 740.81581696 100.97265625 741.29296875 C86.0577484 743.5417789 71.12675865 745.68463307 56.19082642 747.78881836 C52.7263219 748.28038778 49.26395496 748.78516181 45.80151367 749.29101562 C6.58140666 754.90989251 -32.59466897 756.07672145 -72.16247582 756.16944551 C-76.86827001 756.18089401 -81.57372575 756.20831268 -86.27941895 756.24157715 C-92.73244308 756.28314061 -99.18429965 756.28343904 -105.63737488 756.25298691 C-108.02812537 756.24593166 -110.41893852 756.24964597 -112.80964661 756.26553726 C-128.60936206 756.35198848 -141.99133353 754.09982974 -156.97006989 749.09054947 C-161.8800799 747.58053516 -166.90111895 746.8407285 -171.9609375 745.9921875 C-176.60081023 745.10108611 -180.98980201 743.68871666 -185.46875 742.203125 C-188.43746324 741.3308742 -191.24795946 740.8872771 -194.3125 740.5 C-200.14888221 739.54433508 -203.73652205 736.79787269 -207.5 732.3125 C-209 729.375 -209 729.375 -209.5 727.3125 C-210.16 727.3125 -210.82 727.3125 -211.5 727.3125 C-211.5 726.6525 -211.5 725.9925 -211.5 725.3125 C-212.16 725.3125 -212.82 725.3125 -213.5 725.3125 C-213.5 724.6525 -213.5 723.9925 -213.5 723.3125 C-214.1084375 723.17714844 -214.716875 723.04179688 -215.34375 722.90234375 C-227.94137722 719.80851471 -239.47198479 713.92710488 -250.98046875 708.07421875 C-255.37726032 705.87338301 -259.82754136 703.8024487 -264.2902832 701.73974609 C-267.63782899 700.18994816 -270.9602461 698.60647771 -274.25 696.9375 C-277.39688026 695.26830583 -277.39688026 695.26830583 -280.5 694.3125 C-280.5 693.6525 -280.5 692.9925 -280.5 692.3125 C-281.386875 692.209375 -282.27375 692.10625 -283.1875 692 C-286.5826755 691.29534093 -288.71942098 690.3570434 -291.5 688.3125 C-291.5 687.6525 -291.5 686.9925 -291.5 686.3125 C-292.33337891 686.15974609 -292.33337891 686.15974609 -293.18359375 686.00390625 C-305.51663991 682.32271035 -319.22905756 669.95581578 -328.5 661.3125 C-328.5 660.6525 -328.5 659.9925 -328.5 659.3125 C-329.16 659.3125 -329.82 659.3125 -330.5 659.3125 C-334.4040105 655.71191001 -337.86264502 651.71669443 -341.3125 647.6875 C-341.83658447 647.07575928 -342.36066895 646.46401855 -342.90063477 645.83374023 C-347.39778977 640.53083634 -351.51584982 635.01026317 -355.5 629.3125 C-356.09107544 628.52093506 -356.09107544 628.52093506 -356.6940918 627.71337891 C-365.1546742 616.28120416 -370.07514821 602.46966844 -373.80322266 588.85546875 C-374.26544502 587.16853527 -374.7441692 585.48603157 -375.23974609 583.80859375 C-383.2246895 556.22711487 -381.59556535 523.34063948 -376.5 495.3125 C-376.33902832 494.40838379 -376.17805664 493.50426758 -376.01220703 492.57275391 C-371.21014482 466.6803666 -362.95145376 442.32386732 -345.5 422.3125 C-344.54779221 421.19023124 -343.59735393 420.06645934 -342.6484375 418.94140625 C-337.79587639 413.20627372 -332.86287276 407.5670884 -327.75 402.0625 C-323.58786416 397.58112654 -319.74723574 392.95541461 -316.05859375 388.078125 C-315.54425781 387.49546875 -315.02992188 386.9128125 -314.5 386.3125 C-313.84 386.3125 -313.18 386.3125 -312.5 386.3125 C-312.23082764 385.72186768 -311.96165527 385.13123535 -311.68432617 384.52270508 C-310.49881181 382.31028259 -309.26746345 380.76914012 -307.55078125 378.94921875 C-306.95724854 378.31685303 -306.36371582 377.6844873 -305.75219727 377.03295898 C-305.11209717 376.36208252 -304.47199707 375.69120605 -303.8125 375 C-302.81851196 373.95017944 -302.81851196 373.95017944 -301.80444336 372.87915039 C-283.51124893 353.64961366 -283.51124893 353.64961366 -274.17578125 345.7734375 C-272.41652019 344.23972273 -270.80882424 342.61577942 -269.1875 340.9375 C-265.56559493 337.25849283 -261.61485008 334.07108489 -257.59375 330.83984375 C-254.76242048 328.52687633 -251.99726837 326.15780259 -249.2409668 323.75708008 C-243.93102788 319.13577274 -238.61059892 314.7746314 -232.75390625 310.84765625 C-229.78968989 308.82870126 -226.99167385 306.61795112 -224.19140625 304.37890625 C-222.5 303.3125 -222.5 303.3125 -219.5 303.3125 C-219.5 302.6525 -219.5 301.9925 -219.5 301.3125 C-217.13403953 299.60424678 -214.76915512 298.00518875 -212.3125 296.4375 C-210.96338894 295.56735564 -209.61570368 294.69499624 -208.26953125 293.8203125 C-207.62193848 293.40040039 -206.9743457 292.98048828 -206.30712891 292.54785156 C-204.28052364 291.20316238 -204.28052364 291.20316238 -201.69921875 288.9921875 C-199.5 287.3125 -199.5 287.3125 -196.5 287.3125 C-196.5 286.6525 -196.5 285.9925 -196.5 285.3125 C-195.07421875 284.0234375 -195.07421875 284.0234375 -193.1875 282.6875 C-192.57261719 282.24148438 -191.95773437 281.79546875 -191.32421875 281.3359375 C-189.5 280.3125 -189.5 280.3125 -186.5 280.3125 C-186.5 279.6525 -186.5 278.9925 -186.5 278.3125 C-184.52462874 276.92130866 -182.57344065 275.66645797 -180.5 274.4375 C-179.90783691 274.08107422 -179.31567383 273.72464844 -178.70556641 273.35742188 C-166.89212109 266.3125 -166.89212109 266.3125 -162.5 266.3125 C-162.5 265.6525 -162.5 264.9925 -162.5 264.3125 C-161.37980469 263.75820313 -160.25960937 263.20390625 -159.10546875 262.6328125 C-157.63275962 261.90114809 -156.16010628 261.16937139 -154.6875 260.4375 C-153.94951172 260.07269531 -153.21152344 259.70789063 -152.45117188 259.33203125 C-151.73896484 258.97753906 -151.02675781 258.62304688 -150.29296875 258.2578125 C-149.6383667 257.93312988 -148.98376465 257.60844727 -148.30932617 257.27392578 C-146.25347202 256.21994328 -146.25347202 256.21994328 -143.5 254.3125 C-142.51 254.3125 -141.52 254.3125 -140.5 254.3125 C-140.5 253.6525 -140.5 252.9925 -140.5 252.3125 C-137.56830554 250.63546194 -134.62875476 248.97270482 -131.6875 247.3125 C-130.43743164 246.59707031 -130.43743164 246.59707031 -129.16210938 245.8671875 C-128.35966797 245.41601562 -127.55722656 244.96484375 -126.73046875 244.5 C-125.99207764 244.08105469 -125.25368652 243.66210938 -124.49291992 243.23046875 C-122.5 242.3125 -122.5 242.3125 -119.5 242.3125 C-119.5 241.6525 -119.5 240.9925 -119.5 240.3125 C-118.83613281 239.98636719 -118.17226563 239.66023437 -117.48828125 239.32421875 C-111.93263809 236.58208181 -111.93263809 236.58208181 -106.5625 233.5 C-104.5 232.3125 -104.5 232.3125 -101.5 232.3125 C-101.5 231.6525 -101.5 230.9925 -101.5 230.3125 C-98.59399739 229.05585022 -96.70395416 228.3125 -93.5 228.3125 C-93.5 227.6525 -93.5 226.9925 -93.5 226.3125 C-90.89802798 225.30644407 -88.29370638 224.30747475 -85.6875 223.3125 C-84.94951172 223.02632812 -84.21152344 222.74015625 -83.45117188 222.4453125 C-82.73896484 222.17460938 -82.02675781 221.90390625 -81.29296875 221.625 C-80.31106567 221.24794922 -80.31106567 221.24794922 -79.30932617 220.86328125 C-77.5 220.3125 -77.5 220.3125 -74.5 220.3125 C-74.9640625 218.6109375 -74.9640625 218.6109375 -75.4375 216.875 C-77.87762321 207.92788158 -77.68260377 198.63262761 -77.6875 189.4375 C-77.69974609 188.23480469 -77.71199219 187.03210938 -77.72460938 185.79296875 C-77.73667569 178.38424911 -77.03545692 171.54934086 -75.5 164.3125 C-75.28674832 162.91740961 -75.07753894 161.52168588 -74.875 160.125 C-72.61349822 150.1636231 -66.21911879 137.94335763 -59.5 130.3125 C-58.51 129.9825 -57.52 129.6525 -56.5 129.3125 C-55.82657953 127.98256501 -55.16085066 126.64872551 -54.5 125.3125 C-44.72682948 115.89058508 -34.57665524 113.29609295 -21.34375 113.08203125 C-17.88597348 113.36226314 -14.80288369 114.27830498 -11.5 115.3125 C-12.05908863 110.12011305 -12.63425391 104.9299142 -13.2265625 99.74121094 C-13.47329143 97.54972933 -13.70630319 95.3572211 -13.9375 93.1640625 C-14.72797668 86.31796981 -15.98988215 80.40029461 -18.546875 74.0078125 C-20.90660263 67.33481223 -21.62481144 60.3539453 -21.5 53.3125 C-22.49 52.9825 -23.48 52.6525 -24.5 52.3125 C-23.84 51.9825 -23.18 51.6525 -22.5 51.3125 C-22.644375 50.47074219 -22.78875 49.62898437 -22.9375 48.76171875 C-24.31610871 39.54227301 -24.7476471 30.44698025 -24.8125 21.125 C-24.82990234 19.94317139 -24.84730469 18.76134277 -24.86523438 17.54370117 C-24.86458984 16.4219751 -24.86394531 15.30024902 -24.86328125 14.14453125 C-24.86775269 12.63983276 -24.86775269 12.63983276 -24.87231445 11.10473633 C-24.19530844 6.02741321 -21.27305948 2.61392705 -17.5 -0.6875 C-11.65323045 -2.63642318 -5.56047738 -2.68094445 0 0 Z M-32.3046875 151.08203125 C-44.33304634 163.30301506 -46.65643009 179.68374733 -46.75 196 C-46.770625 196.91072266 -46.79125 197.82144531 -46.8125 198.75976562 C-46.84383321 204.15299508 -46.2637633 207.54911467 -43.5 212.3125 C-42.61228199 216.66311799 -43.14533279 219.65383233 -45.25 223.5625 C-50.5 229.97916667 -50.5 229.97916667 -54.5 231.3125 C-54.62955078 232.30830078 -54.62955078 232.30830078 -54.76171875 233.32421875 C-55.69879915 239.21321025 -56.65992186 242.44043749 -61.5 246.3125 C-62.16 246.9725 -62.82 247.6325 -63.5 248.3125 C-65.5674636 249.06589775 -67.65461319 249.76566073 -69.75 250.4375 C-81.99953212 254.60310176 -92.61339034 261.92398028 -103.38867188 268.93896484 C-118.35332027 278.67429231 -133.35601664 288.14546953 -149.28125 296.24609375 C-159.03145942 301.23215852 -167.91471394 307.16818164 -176.86669922 313.46484375 C-179.63303156 315.40584163 -182.41078057 317.32954084 -185.19140625 319.25 C-190.97647804 323.24877522 -196.74421901 327.27168593 -202.5 331.3125 C-203.7686792 332.20316162 -203.7686792 332.20316162 -205.06298828 333.11181641 C-213.87538272 339.32227162 -222.41725822 345.68505646 -230.55078125 352.765625 C-233.35661087 355.18867257 -236.22408796 357.50486335 -239.125 359.8125 C-243.97880655 363.75489309 -248.36286852 368.04760176 -252.69921875 372.5390625 C-254.8597384 374.67848921 -257.03025767 376.66979846 -259.328125 378.65234375 C-263.59020123 382.34269641 -267.58886387 386.25323892 -271.5625 390.25 C-272.23087891 390.91451172 -272.89925781 391.57902344 -273.58789062 392.26367188 C-278.09703552 396.7815809 -282.35098938 401.46336287 -286.5 406.3125 C-287.53505446 407.51441058 -288.57020814 408.71623573 -289.60546875 409.91796875 C-290.10804199 410.50247803 -290.61061523 411.0869873 -291.12841797 411.68920898 C-295.95495403 417.29497441 -300.8405354 422.82986587 -305.875 428.25 C-306.37717041 428.79172852 -306.87934082 429.33345703 -307.39672852 429.89160156 C-309.4129023 432.06560969 -311.43062246 434.23812728 -313.453125 436.40625 C-317.12877938 440.45977539 -320.4070133 444.76795 -323.625 449.1875 C-324.03314941 449.74042725 -324.44129883 450.29335449 -324.86181641 450.86303711 C-330.61347275 458.91419405 -334.23130235 467.64778184 -337.125 477.0625 C-337.5749231 478.50810303 -337.5749231 478.50810303 -338.03393555 479.98291016 C-343.89248689 499.13506458 -345.96223601 518.23444577 -346 538.1875 C-346.00301117 539.08036713 -346.00602234 539.97323425 -346.00912476 540.89315796 C-346.00484715 561.06659251 -342.62134061 578.75206549 -334.5 597.3125 C-333.93744507 598.61731323 -333.93744507 598.61731323 -333.36352539 599.94848633 C-328.12354245 611.81706711 -318.3015727 621.98499853 -309.5 631.3125 C-308.38431641 632.52486328 -308.38431641 632.52486328 -307.24609375 633.76171875 C-290.13049855 651.72322475 -267.60477541 662.43501024 -245.625 673.1875 C-244.78001953 673.60209473 -243.93503906 674.01668945 -243.06445312 674.44384766 C-234.20676308 678.77820607 -225.39642378 682.95435156 -216.12304688 686.33203125 C-213.64207451 687.25939397 -211.26664488 688.30199103 -208.875 689.4375 C-205.60606501 690.94900756 -202.44127579 691.86082039 -198.9375 692.6875 C-193.54384588 694.1001237 -189.30367763 696.15455828 -185.5 700.3125 C-184.97557263 701.64978979 -184.49654152 703.00570236 -184.0625 704.375 C-182.61117003 707.65925964 -181.56926688 708.28124744 -178.21875 709.79296875 C-169.53448311 712.63746698 -160.43121473 714.25974393 -151.42407227 715.70605469 C-146.3441147 716.57008553 -141.91901431 717.94082195 -137.12866211 719.84960938 C-126.6831037 723.57031871 -115.92793464 722.994945 -104.98046875 722.90625 C-102.7100684 722.90453341 -100.43966606 722.90461012 -98.16926575 722.90637207 C-93.42457944 722.90472638 -88.6803698 722.88618174 -83.93579102 722.85449219 C-77.93339691 722.81506926 -71.93163225 722.81042329 -65.92913342 722.81795502 C-61.23998013 722.82106708 -56.55096127 722.80875225 -51.8618412 722.79182434 C-49.6532609 722.78491759 -47.44466538 722.78165434 -45.23607445 722.78251648 C-31.02322664 722.77409153 -17.17682513 721.82190966 -3.07832336 720.00109863 C1.41101268 719.42292217 5.85466082 719.03546176 10.375 718.8125 C16.88422519 718.45210222 23.21541737 717.49016943 29.64428711 716.4621582 C35.57056536 715.53820132 41.45877874 714.94935323 47.4375 714.5 C59.22454334 713.5669175 70.81916808 711.5798362 82.4699707 709.62573242 C84.07369549 709.35705027 85.67745508 709.08857575 87.28125 708.8203125 C88.06916428 708.68851089 88.85707855 708.55670929 89.66886902 708.4209137 C96.80320061 707.23927278 103.95696138 706.26837465 111.125 705.3125 C124.77867897 703.44143301 138.10548692 700.51989361 151.5 697.3125 C153.56116775 696.83320361 155.62236503 696.35403416 157.68359375 695.875 C168.89238447 693.21940391 179.79519157 690.02740785 190.6875 686.28051758 C197.30309301 684.0102158 203.94653757 681.98814742 210.6875 680.125 C224.88218686 676.16253483 238.10911306 670.39325517 251.5 664.3125 C252.13663574 664.02648926 252.77327148 663.74047852 253.42919922 663.44580078 C271.23316203 655.44095537 288.43022533 646.42389495 304.5 635.3125 C305.55316406 634.58675781 306.60632812 633.86101562 307.69140625 633.11328125 C320.03697991 624.21986534 330.68650308 613.23206284 341.35107422 602.43823242 C344.44609039 599.31647123 347.55486977 596.31445406 350.9375 593.5 C363.8913171 582.41666942 371.89666177 566.10372593 377.5 550.3125 C377.86472412 549.2930127 377.86472412 549.2930127 378.23681641 548.25292969 C380.28330703 542.35830347 381.76332844 536.39799513 383.125 530.3125 C383.44984375 528.91257812 383.44984375 528.91257812 383.78125 527.484375 C391.09267663 495.16967458 381.79576072 465.57167059 371.55859375 435.02734375 C371.18675461 433.90834435 371.18675461 433.90834435 370.80740356 432.76673889 C360.6326546 402.85675703 341.21713734 373.70648327 319.73046875 350.71875 C317.84778363 348.68769215 316.03222994 346.62286784 314.22265625 344.52734375 C310.55076003 340.31870659 306.70077875 336.32144676 302.75 332.375 C301.70392578 331.32904663 301.70392578 331.32904663 300.63671875 330.26196289 C295.91482503 325.5917013 291.0832648 321.27616486 285.85546875 317.17578125 C283.7457741 315.50691832 281.78454216 313.7640987 279.8125 311.9375 C263.3066271 297.38140435 242.76259855 286.67244485 223.5 276.3125 C222.03903679 275.51957862 220.57809814 274.72661199 219.1171875 273.93359375 C211.12291636 269.62277538 203.02842657 265.63157997 194.78125 261.82763672 C189.82785785 259.51172616 185.09113428 256.97130848 180.36694336 254.22045898 C164.79342703 245.1949873 147.85014618 239.90170565 130.5234375 235.28125 C127.10429193 234.18570982 124.02983782 232.71491985 120.8125 231.125 C115.65695145 228.60381101 111.56011626 227.82276362 105.87890625 227.56640625 C102.21443474 227.1752886 100.1692465 225.78155301 97.5 223.3125 C93.84023225 218.472162 94.5848607 214.59985107 95.3046875 208.91015625 C95.55078848 205.63701323 94.60882885 203.37808564 93.5 200.3125 C92.5887228 193.60322164 93.40548118 189.32638939 97.50390625 183.90625 C97.83261719 183.3803125 98.16132812 182.854375 98.5 182.3125 C98.17 181.6525 97.84 180.9925 97.5 180.3125 C90.79719498 185.15574939 84.60700111 189.90561338 79.1875 196.1875 C74.93889186 201.03324692 71.13249597 204.996648 64.4375 205.453125 C59.5954563 205.12298566 56.24868447 203.45093351 52.5 200.3125 C48.76976187 194.91008615 47.6211283 190.8299755 48.5 184.3125 C50.24672605 179.41296967 52.39350291 175.39265192 56.125 171.75 C60.41905509 167.34294346 61.66602007 161.80734036 61.6875 155.75 C61.5946875 154.0484375 61.5946875 154.0484375 61.5 152.3125 C46.15626033 155.12191712 34.7022343 164.50881995 24.25390625 175.515625 C22.28432715 177.51593512 20.42136493 179.23945339 18.25390625 180.984375 C15.20224143 183.56422213 14.14777456 185.7173555 12.5 189.3125 C9.5222268 193.88550884 6.73982115 195.74055365 1.5 197.3125 C-4.15341761 197.58587609 -8.13311207 195.9684992 -12.5 192.3125 C-15.88094618 187.64912595 -16.60363272 183.65328442 -16.7109375 177.98828125 C-16.73929688 176.95896484 -16.76765625 175.92964844 -16.796875 174.86914062 C-16.84848403 172.72607561 -16.89289144 170.58282365 -16.9296875 168.43945312 C-17.13559768 161.5457519 -17.38600659 154.15101516 -21.91552734 148.56762695 C-25.79350699 145.49571735 -29.07977211 148.5770693 -32.3046875 151.08203125 Z " fill="#3A6BA8" transform="translate(1073.5,480.6875)"/>
<path d="M0 0 C0.74894531 0.00644531 1.49789062 0.01289062 2.26953125 0.01953125 C4.1875 0.1875 4.1875 0.1875 6.1875 1.1875 C8.47865354 1.26660632 10.77050953 1.32578548 13.0625 1.375 C22.14144772 1.79096336 29.24736772 4.89065463 36.25 10.75 C36.889375 11.554375 37.52875 12.35875 38.1875 13.1875 C38.765 13.909375 39.3425 14.63125 39.9375 15.375 C42.20369697 20.47394317 43.04988723 25.40132588 41.375 30.8125 C33.0523347 48.77193565 10.53834357 60.25917147 -7.3125 66.91796875 C-9.045 67.54638672 -9.045 67.54638672 -10.8125 68.1875 C-12.2975 68.73857422 -12.2975 68.73857422 -13.8125 69.30078125 C-16.47348646 70.27975212 -19.14225101 71.23412535 -21.8125 72.1875 C-29.47568967 74.95349451 -37.11932042 77.77060363 -44.75 80.625 C-45.80759521 81.02041992 -46.86519043 81.41583984 -47.95483398 81.82324219 C-53.13711021 83.77084665 -58.28647259 85.75373143 -63.375 87.9375 C-78.65391033 94.43103689 -97.49511336 101.51216719 -113.85546875 95.0859375 C-120.64796556 91.96762559 -124.30567448 87.67569837 -127.8125 81.1875 C-130.1315026 74.64958905 -130.22145005 64.2040742 -127.375 57.8125 C-113.64885088 35.9540776 -81.93746331 24.3174413 -58.6875 16.5 C-56.79377436 15.85116607 -54.90022125 15.20182834 -53.00683594 14.55200195 C-40.13562588 10.16542819 -27.20260919 6.12995862 -14.0222168 2.76635742 C-11.98874242 2.23366847 -9.98344412 1.64294859 -7.97265625 1.03125 C-5.15012572 0.27764481 -2.90019595 -0.05587068 0 0 Z " fill="#3B6CA8" transform="translate(1009.8125,883.8125)"/>
<path d="M0 0 C4.01456783 2.23206816 6.76409772 4.84774429 8.5 9.1875 C8.5825 9.88875 8.665 10.59 8.75 11.3125 C8.9665625 12.92125 8.9665625 12.92125 9.1875 14.5625 C8.33639725 21.85766645 2.66157911 26.97706992 -2.80859375 31.5234375 C-18.78019837 43.22742936 -35.48070513 48.39347841 -55.25 46.3125 C-59.87766878 45.52560895 -64.36909856 44.37731566 -68.87890625 43.08984375 C-72.7136187 42.14602673 -72.7136187 42.14602673 -76.25 43.3125 C-78.42213109 45.08821409 -78.42213109 45.08821409 -80.625 47.3125 C-93.40605159 59.11761226 -111.09251622 69.65363233 -128.75 70.8125 C-151.03102943 69.86062058 -169.86930894 57.68305868 -184.82666016 41.89599609 C-189.04086069 37.20760765 -191.62940963 33.10406082 -191.5 26.6875 C-190.57287691 21.55681882 -187.4505976 18.23465485 -183.25 15.3125 C-177.6174283 13.3588088 -171.29808413 13.34642258 -165.9375 15.875 C-163.25 18.3125 -163.25 18.3125 -161.25 21.5 C-156.79426524 28.27154427 -146.79822187 33.92822039 -139.25 36.3125 C-127.71361374 38.1308968 -119.4965769 34.73337291 -110.25 28.3125 C-102.83556536 22.80463427 -98.15419635 17.06856059 -93.80859375 8.9609375 C-91.188379 4.50854251 -88.20269144 1.96339715 -83.25 0.3125 C-76.95079698 -0.22133076 -72.46149138 0.58838416 -67.25 4.3125 C-66.074375 5.859375 -66.074375 5.859375 -64.875 7.4375 C-60.45424205 12.27928251 -55.31634526 12.10807698 -49.02734375 12.52734375 C-38.01529427 12.8493335 -31.47298008 10.46038887 -22.66015625 4.03125 C-15.24572538 -1.25618855 -8.70533064 -3.94964075 0 0 Z " fill="#3C6DA9" transform="translate(1241.25,1058.6875)"/>
<path d="M0 0 C1.60913086 1.13110352 1.60913086 1.13110352 3.21484375 2.50390625 C7.2629314 5.51757203 10.45774738 5.58739385 15.375 5.5 C24.08896186 5.68416704 31.4901039 7.44584012 39.70605469 10.23779297 C42.15816549 11.0525535 44.62548561 11.79660388 47.1015625 12.53515625 C65.70031444 18.20874258 88.5539291 27.67534619 99.046875 45.08984375 C101.3351398 49.67575149 101.72370459 53.97472545 101 59 C98.21793853 65.57997941 93.95731632 69.67947838 87.45703125 72.58203125 C82.62365792 74.342866 78.10220933 74.45652602 73 74.375 C72.07936768 74.36557373 71.15873535 74.35614746 70.21020508 74.34643555 C52.72556143 73.96590615 36.06204809 69.12709556 20.3984375 61.52734375 C16.55996365 59.80223654 12.67363857 58.46015855 8.6875 57.125 C-4.94828998 52.47154053 -21.70694645 46.27611986 -29.125 33.125 C-31.95219175 26.57517143 -32.14907627 20.94763043 -29.5625 14.3125 C-23.35456704 5.07683833 -11.13781441 -1.64328409 0 0 Z " fill="#3C6CA8" transform="translate(1230,865)"/>
<path d="M0 0 C1.39412109 -0.02126953 1.39412109 -0.02126953 2.81640625 -0.04296875 C5.51238389 0.19408443 7.13157875 0.81479864 9.4375 2.1875 C9.4375 2.8475 9.4375 3.5075 9.4375 4.1875 C10.0975 4.1875 10.7575 4.1875 11.4375 4.1875 C11.4375 4.8475 11.4375 5.5075 11.4375 6.1875 C12.4275 6.5175 13.4175 6.8475 14.4375 7.1875 C17.13015783 12.57281566 15.84339499 20.63484715 14.4375 26.3125 C12.33209156 32.53806179 8.0660507 38.7684662 2.55078125 42.4453125 C-0.18029708 43.40447125 -2.54465945 43.52569541 -5.4375 43.5625 C-6.44554687 43.59085937 -7.45359375 43.61921875 -8.4921875 43.6484375 C-12.31339238 43.07477061 -14.51039749 41.4925207 -17.5625 39.1875 C-17.54155273 39.82252441 -17.52060547 40.45754883 -17.49902344 41.11181641 C-17.41545419 44.01188076 -17.36371226 46.91169116 -17.3125 49.8125 C-17.26222656 51.31103516 -17.26222656 51.31103516 -17.2109375 52.83984375 C-17.13123042 58.85772864 -17.44663682 62.45832148 -21.5625 67.1875 C-22.06910156 67.81398438 -22.57570313 68.44046875 -23.09765625 69.0859375 C-26.6395624 72.51008206 -29.22095286 73.60962653 -34.1875 73.75 C-38.42135402 73.49550604 -41.25841822 73.0056874 -44.5625 70.1875 C-45.42875 69.506875 -46.295 68.82625 -47.1875 68.125 C-50.39258884 64.16081117 -51.39222947 60.08741318 -52.5625 55.1875 C-53.2225 55.1875 -53.8825 55.1875 -54.5625 55.1875 C-55.19282133 53.98193396 -55.8164497 52.77286811 -56.4375 51.5625 C-56.78554688 50.88960938 -57.13359375 50.21671875 -57.4921875 49.5234375 C-60.01550724 44.01633821 -60.90317933 39.16101209 -60.875 33.125 C-60.89916992 32.08375977 -60.89916992 32.08375977 -60.92382812 31.02148438 C-60.92806691 26.55804779 -60.3078096 23.72855152 -57.5625 20.1875 C-55.375 18.875 -55.375 18.875 -53.5625 18.1875 C-53.5625 17.5275 -53.5625 16.8675 -53.5625 16.1875 C-46.54760116 12.77895913 -40.38524635 11.12593184 -32.5625 12.1875 C-29.5625 13.5 -29.5625 13.5 -27.5625 15.1875 C-27.005625 15.64125 -26.44875 16.095 -25.875 16.5625 C-24.22463666 18.60580699 -23.49680664 20.74637541 -22.5625 23.1875 C-22.39234375 22.40246094 -22.2221875 21.61742187 -22.046875 20.80859375 C-18.78453098 6.66598537 -18.78453098 6.66598537 -13.125 2.3125 C-8.81054829 0.41835047 -4.68221968 0.03256064 0 0 Z " fill="#396AA7" transform="translate(1068.5625,412.8125)"/>
<path d="M0 0 C3.37620256 3.20306396 5.2080106 5.78065822 5.90625 10.44140625 C5.98260909 18.83136101 4.94340649 26.06497153 0.4375 33.3125 C-0.5525 33.6425 -1.5425 33.9725 -2.5625 34.3125 C-3.23349213 35.64366182 -3.8998524 36.97716469 -4.5625 38.3125 C-9.11538471 41.92802609 -14.3792858 43.06992956 -20.09765625 42.83203125 C-25.49513775 41.69436875 -28.95312288 38.07275622 -32.5625 34.125 C-34.92446827 27.48196424 -34.18959018 19.51802541 -32.015625 12.87890625 C-25.57491831 1.50378717 -12.65598167 -5.99493869 0 0 Z " fill="#396BA8" transform="translate(1108.5625,437.6875)"/>
<path d="M0 0 C6.21802041 0.68439956 9.92487239 3.65183712 13.91015625 8.3203125 C14.72265625 10.1953125 14.72265625 10.1953125 14.91015625 12.3203125 C15.15765625 13.9290625 15.15765625 13.9290625 15.41015625 15.5703125 C14.69997197 20.89669456 11.86800324 23.82099657 7.91015625 27.3203125 C3.47054849 30.06821488 -1.02032575 30.18676685 -6.08984375 29.3203125 C-10.4829938 27.17911331 -13.35515018 24.39939367 -16.08984375 20.3828125 C-17.28728759 16.71564075 -17.56953247 14.15782226 -17.08984375 10.3203125 C-12.58435635 2.11388902 -9.21703209 -0.3359793 0 0 Z " fill="#4271AB" transform="translate(1133.08984375,983.6796875)"/>
<path d="M0 0 C0.66 0.33 1.32 0.66 2 1 C-4.93 7.93 -11.86 14.86 -19 22 C-19.33 21.34 -19.66 20.68 -20 20 C-16.68932483 15.75819744 -13.16316393 12.29842669 -9.0703125 8.8125 C-5.89141739 6.0294673 -2.94449752 3.02731151 0 0 Z " fill="#DEE4E4" transform="translate(1108,646)"/>
<path d="M0 0 C0.66 0.33 1.32 0.66 2 1 C-0.97 3.97 -3.94 6.94 -7 10 C-7 6.04435836 -5.59478606 4.89133304 -3 2 C-2.01 1.34 -1.02 0.68 0 0 Z " fill="#DDE4E4" transform="translate(1045,629)"/>
<path d="M0 0 C2.475 0.495 2.475 0.495 5 1 C5 2.32 5 3.64 5 5 C4.01 5 3.02 5 2 5 C2 4.34 2 3.68 2 3 C1.34 3 0.68 3 0 3 C0 2.01 0 1.02 0 0 Z " fill="#E5EAE9" transform="translate(860,1203)"/>
</svg>
