<?xml version="1.0" encoding="UTF-8"?>
<svg version="1.1" xmlns="http://www.w3.org/2000/svg" width="2224" height="1668">
<path d="M0 0 C1.04027344 -0.01417969 2.08054687 -0.02835937 3.15234375 -0.04296875 C6.01296613 0.18357718 7.63920151 0.71016381 10.0625 2.1875 C10.0625 2.8475 10.0625 3.5075 10.0625 4.1875 C10.7225 4.1875 11.3825 4.1875 12.0625 4.1875 C13.4296875 5.65625 13.4296875 5.65625 14.9375 7.6875 C15.42992187 8.3371875 15.92234375 8.986875 16.4296875 9.65625 C20.33604279 15.71203523 22.91532865 22.08306838 25.0625 28.9375 C25.29710937 29.64003906 25.53171875 30.34257813 25.7734375 31.06640625 C26.62557243 33.75567079 27.35685011 36.45571017 28.0625 39.1875 C28.2332605 39.84584839 28.404021 40.50419678 28.57995605 41.18249512 C32.2515816 55.8145848 32.54763888 69.91744921 32.3125 84.9375 C32.2923727 87.20701521 32.27413312 89.47654797 32.2578125 91.74609375 C32.21438416 97.22695508 32.1479822 102.70714129 32.0625 108.1875 C32.7225 107.8575 33.3825 107.5275 34.0625 107.1875 C41.65719625 106.67527665 48.34299053 106.38951639 55.0625 110.1875 C55.784375 110.496875 56.50625 110.80625 57.25 111.125 C59.60075928 112.5030313 61.27300894 114.14236736 63.0625 116.1875 C63.0625 116.8475 63.0625 117.5075 63.0625 118.1875 C63.59617187 117.84493164 64.12984375 117.50236328 64.6796875 117.14941406 C67.13802488 115.57467459 69.60021848 114.00606452 72.0625 112.4375 C72.90167969 111.89867187 73.74085938 111.35984375 74.60546875 110.8046875 C88.16177591 102.1875 88.16177591 102.1875 93.0625 102.1875 C93.0625 101.5275 93.0625 100.8675 93.0625 100.1875 C95.43566118 99.36927267 97.8107942 98.55781293 100.1875 97.75 C100.85265625 97.51990234 101.5178125 97.28980469 102.203125 97.05273438 C109.33229818 94.64139639 116.00630354 93.98437222 123.5 93.9375 C124.32048828 93.916875 125.14097656 93.89625 125.98632812 93.875 C132.7636283 93.83172913 137.53114975 94.9504928 142.75 99.5625 C143.513125 100.42875 144.27625 101.295 145.0625 102.1875 C145.743125 102.93 146.42375 103.6725 147.125 104.4375 C152.22398499 111.67476901 153.73359798 118.22359 153.5625 127 C153.55476563 127.96180176 153.54703125 128.92360352 153.5390625 129.91455078 C153.36017337 137.2775775 152.2354044 143.47340766 149.0625 150.1875 C148.4025 150.1875 147.7425 150.1875 147.0625 150.1875 C146.918125 150.950625 146.77375 151.71375 146.625 152.5 C146.0625 155.1875 146.0625 155.1875 145.0625 158.1875 C144.4025 158.1875 143.7425 158.1875 143.0625 158.1875 C142.93875 159.239375 142.93875 159.239375 142.8125 160.3125 C141.8932079 163.83645306 140.1236446 166.21120719 138.0625 169.1875 C138.97314209 169.39842285 139.88378418 169.6093457 140.82202148 169.82666016 C162.82174487 174.95348448 183.24425215 180.00668419 203.0625 191.1875 C204.39020987 191.86529696 205.72066372 192.5381175 207.0625 193.1875 C207.0625 193.8475 207.0625 194.5075 207.0625 195.1875 C207.63484375 195.29449219 208.2071875 195.40148437 208.796875 195.51171875 C211.39462011 196.28656341 213.10589105 197.43235515 215.3125 199 C219.41883155 201.82608224 223.55881571 204.05848561 228.0625 206.1875 C228.0625 206.8475 228.0625 207.5075 228.0625 208.1875 C228.59488281 208.27 229.12726562 208.3525 229.67578125 208.4375 C245.39540819 213.3772191 262.36205839 232.77116686 271.0625 246.1875 C271.77269684 247.83608808 272.45165945 249.49957345 273.0625 251.1875 C273.7225 251.1875 274.3825 251.1875 275.0625 251.1875 C275.0625 252.1775 275.0625 253.1675 275.0625 254.1875 C275.7225 254.1875 276.3825 254.1875 277.0625 254.1875 C278.97265625 256.453125 278.97265625 256.453125 281.125 259.4375 C281.83785156 260.41203125 282.55070312 261.3865625 283.28515625 262.390625 C284.81665249 264.80062787 285.63246146 266.40878943 286.0625 269.1875 C286.7225 269.1875 287.3825 269.1875 288.0625 269.1875 C289.44148043 270.88560754 290.74209478 272.64785459 292 274.4375 C292.68964844 275.41203125 293.37929687 276.3865625 294.08984375 277.390625 C295.06630859 278.77507812 295.06630859 278.77507812 296.0625 280.1875 C296.64128906 280.92484375 297.22007812 281.6621875 297.81640625 282.421875 C299.0625 284.1875 299.0625 284.1875 299.0625 286.1875 C299.7225 286.1875 300.3825 286.1875 301.0625 286.1875 C302.09685556 287.83306566 303.09013513 289.5045608 304.0625 291.1875 C304.784375 292.05375 305.50625 292.92 306.25 293.8125 C308.0625 296.1875 308.0625 296.1875 308.0625 299.1875 C308.7225 299.1875 309.3825 299.1875 310.0625 299.1875 C312.10419485 302.09298882 313.0625 303.58892046 313.0625 307.1875 C313.7225 307.1875 314.3825 307.1875 315.0625 307.1875 C315.3925 308.8375 315.7225 310.4875 316.0625 312.1875 C316.7225 312.1875 317.3825 312.1875 318.0625 312.1875 C331.70408995 338.46484838 333.76579864 367.94714988 336.7565918 396.87524414 C336.8366748 397.64761414 336.91675781 398.41998413 336.99926758 399.21575928 C337.14848801 400.66230722 337.2959932 402.10903361 337.44140625 403.55596924 C337.84322182 407.46332485 338.37414702 411.32034424 339.0625 415.1875 C339.79210938 415.23648437 340.52171875 415.28546875 341.2734375 415.3359375 C344.18110556 415.54414089 347.08630667 415.77296443 349.99121094 416.01660156 C351.40549232 416.13329145 352.82024476 416.24437343 354.23535156 416.35058594 C366.44204696 417.29201735 377.68207494 419.09704572 388.0625 426.1875 C388.0625 426.8475 388.0625 427.5075 388.0625 428.1875 C388.62324219 428.42855469 389.18398437 428.66960937 389.76171875 428.91796875 C392.53693007 430.4492823 394.56281351 432.33346305 396.875 434.5 C399.76890705 437.17260827 402.5584521 439.62624564 405.875 441.75 C412.40657135 446.25294213 415.11410642 453.78360441 417.0625 461.1875 C417.26875 461.950625 417.475 462.71375 417.6875 463.5 C419.90703452 473.36459789 421.90396534 488.17803912 417 497.4375 C415.6328125 499.35546875 415.6328125 499.35546875 414.0625 501.1875 C413.46179687 501.94675781 412.86109375 502.70601562 412.2421875 503.48828125 C410.58448485 505.49625162 408.97462729 507.41986596 407.0625 509.1875 C406.4025 509.1875 405.7425 509.1875 405.0625 509.1875 C404.80855469 509.77660156 404.55460937 510.36570312 404.29296875 510.97265625 C399.93078405 518.82458871 390.96766466 521.71248216 382.84765625 524.125 C381.59855469 524.475625 380.34945312 524.82625 379.0625 525.1875 C377.96808594 525.496875 376.87367188 525.80625 375.74609375 526.125 C357.56920015 530.95360009 338.95237494 530.78522588 321.0625 525.1875 C318.33642081 524.6186187 315.86167248 524.37727441 313.0625 524.1875 C312.34578125 524.1359375 311.6290625 524.084375 310.890625 524.03125 C299.73451995 523.59375568 289.18103924 525.69930862 280.0625 532.1875 C279.0725 532.1875 278.0825 532.1875 277.0625 532.1875 C277.0625 532.8475 277.0625 533.5075 277.0625 534.1875 C275.64921871 535.00587442 274.23171654 535.81696219 272.8125 536.625 C272.02359375 537.07746094 271.2346875 537.52992188 270.421875 537.99609375 C268.27416532 539.08061602 266.41044939 539.71898716 264.0625 540.1875 C264.0625 540.8475 264.0625 541.5075 264.0625 542.1875 C261.15701118 544.22919485 259.66107954 545.1875 256.0625 545.1875 C256.0625 545.8475 256.0625 546.5075 256.0625 547.1875 C245.43576717 553.0021274 227.09548889 557.09427803 215.17407227 553.64038086 C211.85476556 552.55130892 208.57076196 551.36959596 205.28222656 550.19140625 C202.27550031 549.11592726 199.26295698 548.05788267 196.25 547 C195.24646484 546.63197266 194.24292969 546.26394531 193.20898438 545.88476562 C177.58074566 540.47460463 160.99546507 543.19799553 145.890625 549.1640625 C143.0625 550.1875 143.0625 550.1875 140.0625 550.1875 C139.91554688 551.34378906 139.91554688 551.34378906 139.765625 552.5234375 C139.61609375 553.52632812 139.4665625 554.52921875 139.3125 555.5625 C139.17328125 556.56023438 139.0340625 557.55796875 138.890625 558.5859375 C138.0625 561.1875 138.0625 561.1875 136.05078125 562.4140625 C135.06658203 562.79691406 135.06658203 562.79691406 134.0625 563.1875 C133.36312468 564.50397119 132.69520867 565.83772151 132.0625 567.1875 C129.0625 569.1875 129.0625 569.1875 126.75 569.0625 C123.4093329 567.97484094 120.93634049 566.18669339 118.0625 564.1875 C104.36759841 559.6225328 89.23726754 565.37144014 76.0625 569.1875 C64.88994101 572.35553292 64.88994101 572.35553292 59.1875 573.1875 C55.15499858 573.86340223 52.5145664 574.95380997 49.0625 577.1875 C46.25 577.375 46.25 577.375 44.0625 577.1875 C42.31400329 581.4914919 40.6854639 585.83500591 39.0625 590.1875 C38.4025 590.1875 37.7425 590.1875 37.0625 590.1875 C36.959375 590.950625 36.85625 591.71375 36.75 592.5 C36.18787186 595.51505092 35.45557676 598.25408734 34.57421875 601.1796875 C32.93982207 607.13275211 32.39640477 612.84626231 32.1875 619 C32.14850586 620.04446289 32.10951172 621.08892578 32.06933594 622.16503906 C31.83612685 631.69118758 31.94232048 641.41693499 38.0625 649.1875 C38.0625 649.8475 38.0625 650.5075 38.0625 651.1875 C38.619375 651.36925781 39.17625 651.55101562 39.75 651.73828125 C40.8946875 652.11533203 40.8946875 652.11533203 42.0625 652.5 C42.89652344 652.77070312 43.73054688 653.04140625 44.58984375 653.3203125 C47.0625 654.1875 47.0625 654.1875 50.625 655.875 C57.46292759 658.42892476 66.78158976 658.70405564 73.67578125 656.26171875 C79.60651212 652.58618353 84.45434401 647.00434352 89.265625 641.9921875 C93.4869039 637.75911732 97.53767985 634.70125007 102.9375 632.125 C103.92492188 631.63902344 104.91234375 631.15304687 105.9296875 630.65234375 C117.11058766 626.2409134 129.05102182 625.65162345 140.91577148 625.68652344 C143.25952179 625.68750398 145.60007086 625.64551289 147.94335938 625.6015625 C157.33119225 625.53038358 164.61258272 626.63794151 173.0625 631.1875 C173.0625 631.8475 173.0625 632.5075 173.0625 633.1875 C173.8875 633.249375 174.7125 633.31125 175.5625 633.375 C179.35599921 634.25563375 181.57009834 635.65166258 184.76171875 637.77734375 C188.97282805 640.35834622 193.53550197 642.23190343 198.0625 644.1875 C198.0625 644.8475 198.0625 645.5075 198.0625 646.1875 C198.65417969 646.30867188 199.24585938 646.42984375 199.85546875 646.5546875 C200.64566406 646.72226563 201.43585937 646.88984375 202.25 647.0625 C203.02730469 647.22492187 203.80460937 647.38734375 204.60546875 647.5546875 C207.0625 648.1875 207.0625 648.1875 209.31640625 649.23046875 C225.44070436 654.84988986 244.2566579 647.40689406 258.79785156 640.5703125 C264.77903123 637.57832715 270.08925994 633.83102923 275.33056641 629.69287109 C279.78822791 626.1875 279.78822791 626.1875 283.0625 626.1875 C283.0625 625.5275 283.0625 624.8675 283.0625 624.1875 C284.83005526 623.34723604 286.60167263 622.51551278 288.375 621.6875 C289.36113281 621.2234375 290.34726563 620.759375 291.36328125 620.28125 C294.0625 619.1875 294.0625 619.1875 297.0625 619.1875 C297.0625 618.5275 297.0625 617.8675 297.0625 617.1875 C298.41379647 616.70029787 299.76874316 616.22321816 301.125 615.75 C301.87910156 615.48316406 302.63320312 615.21632813 303.41015625 614.94140625 C310.75110175 612.85480466 318.28776814 612.93750297 325.85864258 612.89233398 C327.85977122 612.87513092 329.86061177 612.8312212 331.86132812 612.78710938 C339.85014731 612.735208 345.93544397 613.54893279 353.0625 617.1875 C354.54081376 617.87683206 356.01985518 618.56460843 357.5 619.25 C360.17202316 620.5497524 362.12747581 621.9092605 364.0625 624.1875 C364.0625 624.8475 364.0625 625.5075 364.0625 626.1875 C364.67665771 626.4450708 365.29081543 626.7026416 365.92358398 626.96801758 C369.11475421 628.78743263 369.91977228 630.80357152 371.28173828 634.14208984 C372.82960957 640.17965909 372.61036923 646.39484382 372.52905273 652.58813477 C372.50018552 654.98459844 372.5084529 657.37882854 372.52148438 659.77539062 C372.50736088 668.64528905 371.81289324 676.66599591 369.0625 685.1875 C368.4025 685.1875 367.7425 685.1875 367.0625 685.1875 C366.959375 686.074375 366.85625 686.96125 366.75 687.875 C366.04534093 691.2701755 365.1070434 693.40692098 363.0625 696.1875 C362.4025 696.1875 361.7425 696.1875 361.0625 696.1875 C360.99933594 696.73921875 360.93617188 697.2909375 360.87109375 697.859375 C359.71291122 701.19404547 357.62971585 702.97950051 355.125 705.4375 C354.22910156 706.32953125 353.33320312 707.2215625 352.41015625 708.140625 C350.0625 710.1875 350.0625 710.1875 348.0625 710.1875 C347.71638672 711.05181641 347.71638672 711.05181641 347.36328125 711.93359375 C345.73391254 714.75685425 343.81804127 716.25177898 341.25 718.25 C339.97189453 719.25740234 339.97189453 719.25740234 338.66796875 720.28515625 C331.95367043 725.1875 331.95367043 725.1875 328.0625 725.1875 C328.0625 725.8475 328.0625 726.5075 328.0625 727.1875 C325.15649739 728.44414978 323.26645416 729.1875 320.0625 729.1875 C320.0625 729.8475 320.0625 730.5075 320.0625 731.1875 C318.62695975 731.69309908 317.1889798 732.1917749 315.75 732.6875 C314.94949219 732.9659375 314.14898438 733.244375 313.32421875 733.53125 C311.0625 734.1875 311.0625 734.1875 308.0625 734.1875 C308.0625 734.8475 308.0625 735.5075 308.0625 736.1875 C280.46575551 745.74366187 253.11579783 753.74540356 224.3359375 759.015625 C220.40886443 759.7361669 216.50198153 760.50646826 212.6015625 761.359375 C164.39501354 771.81509432 110.05104556 780.51354132 60.6015625 776.70703125 C53.3421586 776.16533504 46.09450746 775.95798611 38.81988525 775.79989624 C0.12530169 774.92025379 -33.3696879 769.98285526 -69.9375 757.1875 C-70.75303345 756.9027179 -71.56856689 756.61793579 -72.40881348 756.32452393 C-79.61984665 753.80638817 -86.82959981 751.28467258 -94.02734375 748.72875977 C-114.03373095 741.51101769 -114.03373095 741.51101769 -134.4375 735.5625 C-135.21754395 735.35923096 -135.99758789 735.15596191 -136.80126953 734.9465332 C-140.65068209 733.9587989 -144.5018715 733.05142496 -148.3984375 732.26953125 C-159.52258805 730.03190061 -169.74316529 726.52061032 -180.25878906 722.26953125 C-182.96652657 721.17577509 -185.68128398 720.10137849 -188.3984375 719.03125 C-197.81557908 715.30815427 -207.10278262 711.39840379 -216.3125 707.1875 C-221.41919544 704.90982345 -226.66460487 703.04040521 -231.9375 701.1875 C-231.9375 700.5275 -231.9375 699.8675 -231.9375 699.1875 C-232.99517578 699.03474609 -232.99517578 699.03474609 -234.07421875 698.87890625 C-237.34809645 698.08835188 -239.82334467 696.78226266 -242.75 695.125 C-243.72582031 694.57714844 -244.70164062 694.02929688 -245.70703125 693.46484375 C-246.81111328 692.83255859 -246.81111328 692.83255859 -247.9375 692.1875 C-247.9375 691.5275 -247.9375 690.8675 -247.9375 690.1875 C-248.63875 690.084375 -249.34 689.98125 -250.0625 689.875 C-253.32887647 689.09390997 -255.9846852 687.76691257 -258.9375 686.1875 C-258.9375 685.5275 -258.9375 684.8675 -258.9375 684.1875 C-259.63488281 684.08695313 -260.33226562 683.98640625 -261.05078125 683.8828125 C-273.60279858 680.85945785 -285.20735364 671.03160087 -294.4921875 662.4453125 C-296.82947287 660.2872439 -299.21850963 658.20518659 -301.625 656.125 C-305.07475304 653.06726435 -308.08336105 649.83436163 -311.0625 646.32421875 C-315.9729971 640.7282981 -321.31923861 635.49690954 -327 630.6875 C-331.73926302 626.62665909 -336.06886856 622.08597546 -339.9375 617.1875 C-339.9375 616.5275 -339.9375 615.8675 -339.9375 615.1875 C-340.5975 615.1875 -341.2575 615.1875 -341.9375 615.1875 C-343.57970655 612.77754706 -345.08776599 610.38435209 -346.5625 607.875 C-346.98273437 607.18470703 -347.40296875 606.49441406 -347.8359375 605.78320312 C-350.9375 600.57197392 -350.9375 600.57197392 -350.9375 597.1875 C-351.5975 597.1875 -352.2575 597.1875 -352.9375 597.1875 C-355.79288841 591.01411836 -358.30517559 584.74406024 -360.7109375 578.3828125 C-361.77733345 575.60474917 -362.90756056 572.86687912 -364.0625 570.125 C-372.58454848 548.59741568 -372.50425642 524.96402371 -371.9375 502.1875 C-371.92203125 501.38086914 -371.9065625 500.57423828 -371.890625 499.74316406 C-371.44025578 479.76741277 -367.34491223 460.04775708 -360.9375 441.1875 C-360.64407715 440.31125977 -360.3506543 439.43501953 -360.04833984 438.53222656 C-355.70862006 425.62231565 -351.09483822 413.7020327 -343.9375 402.0625 C-342.89518019 400.35196032 -341.85350102 398.64103009 -340.8125 396.9296875 C-340.3179834 396.11862549 -339.8234668 395.30756348 -339.31396484 394.47192383 C-338.11123883 392.47584236 -336.93927434 390.46803616 -335.7890625 388.44140625 C-334.02228901 385.33650684 -332.20091423 382.28227748 -330.3125 379.25 C-329.72210937 378.29222656 -329.13171875 377.33445312 -328.5234375 376.34765625 C-328.00007812 375.63480469 -327.47671875 374.92195313 -326.9375 374.1875 C-326.2775 374.1875 -325.6175 374.1875 -324.9375 374.1875 C-324.83308594 373.62546875 -324.72867188 373.0634375 -324.62109375 372.484375 C-323.81136765 369.76369529 -322.57546662 367.79492193 -321 365.4375 C-320.47535156 364.63828125 -319.95070313 363.8390625 -319.41015625 363.015625 C-318.92417969 362.41234375 -318.43820312 361.8090625 -317.9375 361.1875 C-317.2775 361.1875 -316.6175 361.1875 -315.9375 361.1875 C-315.68484375 360.46046875 -315.4321875 359.7334375 -315.171875 358.984375 C-313.84270361 355.97270818 -312.31281214 353.94632711 -310.1875 351.4375 C-309.38183594 350.4784375 -308.57617188 349.519375 -307.74609375 348.53125 C-307.29862793 348.00144531 -306.85116211 347.47164062 -306.39013672 346.92578125 C-304.81379333 345.03946782 -303.26660684 343.13165769 -301.72265625 341.21875 C-294.32121229 332.07492018 -286.59639252 323.36795 -278.49462891 314.84179688 C-275.53479802 311.6972666 -272.67149267 308.46762014 -269.8046875 305.23828125 C-267.901359 303.14780539 -266.01979226 301.10130803 -263.9375 299.1875 C-263.2775 299.1875 -262.6175 299.1875 -261.9375 299.1875 C-261.6075 298.1975 -261.2775 297.2075 -260.9375 296.1875 C-259.3359375 294.57421875 -259.3359375 294.57421875 -257.3125 292.875 C-256.59578125 292.26914062 -255.8790625 291.66328125 -255.140625 291.0390625 C-254.05007813 290.12253906 -254.05007813 290.12253906 -252.9375 289.1875 C-252.27234375 288.59710937 -251.6071875 288.00671875 -250.921875 287.3984375 C-250.30828125 286.85445312 -249.6946875 286.31046875 -249.0625 285.75 C-248.50820313 285.25628906 -247.95390625 284.76257813 -247.3828125 284.25390625 C-245.9375 283.1875 -245.9375 283.1875 -243.9375 283.1875 C-243.9375 282.5275 -243.9375 281.8675 -243.9375 281.1875 C-241.76586196 279.40821673 -239.5924407 277.75579092 -237.3125 276.125 C-236.63316406 275.63330322 -235.95382812 275.14160645 -235.25390625 274.63500977 C-229.78981315 270.71624633 -224.19154652 267.04637687 -218.5078125 263.45703125 C-214.56985823 260.96798852 -210.68835651 258.39687654 -206.8125 255.8125 C-206.18472656 255.39540771 -205.55695313 254.97831543 -204.91015625 254.54858398 C-202.44035799 252.8996977 -200.01761303 251.25142294 -197.6953125 249.3984375 C-195.9375 248.1875 -195.9375 248.1875 -192.9375 248.1875 C-192.9375 247.5275 -192.9375 246.8675 -192.9375 246.1875 C-190.03201118 244.14580515 -188.53607954 243.1875 -184.9375 243.1875 C-184.9375 242.5275 -184.9375 241.8675 -184.9375 241.1875 C-182.953125 239.77734375 -182.953125 239.77734375 -180.1875 238.125 C-174.62294862 234.70399176 -169.51610035 230.91777518 -164.37109375 226.91015625 C-161.9375 225.1875 -161.9375 225.1875 -159.9375 225.1875 C-159.9375 224.5275 -159.9375 223.8675 -159.9375 223.1875 C-158.91398438 222.60484375 -157.89046875 222.0221875 -156.8359375 221.421875 C-154.47589451 220.074294 -152.12934399 218.71022672 -149.7890625 217.328125 C-142.59263934 213.11133467 -135.30367095 209.34736695 -127.71142578 205.88964844 C-124.73055691 204.52821769 -121.92495409 203.17977005 -119.12890625 201.45703125 C-116.9375 200.1875 -116.9375 200.1875 -113.9375 200.1875 C-113.9375 199.5275 -113.9375 198.8675 -113.9375 198.1875 C-107.01188344 194.6719586 -100.07567323 191.2518673 -92.9375 188.1875 C-93.081875 187.32511719 -93.22625 186.46273437 -93.375 185.57421875 C-96.64029253 164.10038522 -97.12100647 135.84075916 -83.9375 117.1875 C-83.2775 117.1875 -82.6175 117.1875 -81.9375 117.1875 C-81.83566406 116.59839844 -81.73382812 116.00929688 -81.62890625 115.40234375 C-79.78721431 109.50268651 -73.21824467 105.30142985 -68.0859375 102.3125 C-53.6927419 94.77569939 -37.65256699 93.27683817 -21.9375 97.1875 C-20.25894232 97.82363389 -18.58818128 98.48218197 -16.9375 99.1875 C-16.9375 99.8475 -16.9375 100.5075 -16.9375 101.1875 C-16.380625 101.27 -15.82375 101.3525 -15.25 101.4375 C-12.20072081 102.42645541 -10.28560037 104.03507466 -7.9375 106.1875 C-7.9375 106.8475 -7.9375 107.5075 -7.9375 108.1875 C-7.339375 108.435 -6.74125 108.6825 -6.125 108.9375 C-3.62123081 110.36822525 -2.45677612 111.7566582 -0.9375 114.1875 C-0.9375 114.8475 -0.9375 115.5075 -0.9375 116.1875 C-0.2775 116.1875 0.3825 116.1875 1.0625 116.1875 C0.90185059 115.68565186 0.74120117 115.18380371 0.57568359 114.66674805 C-0.12311346 111.29078035 -0.1133083 107.95233279 -0.1484375 104.51953125 C-0.17656777 102.9693916 -0.20523239 101.41926157 -0.234375 99.86914062 C-0.27509107 97.45647107 -0.3120106 95.04396899 -0.33886719 92.63110352 C-0.54388822 75.63379977 -3.1739202 60.3604135 -8.4375 44.1875 C-8.82808594 42.95644531 -9.21867187 41.72539063 -9.62109375 40.45703125 C-11.25357255 35.32873927 -12.92379495 30.22108467 -14.69921875 25.140625 C-16.58224073 19.51368165 -16.65875299 14.13808042 -15.25 8.375 C-11.32424383 1.83207305 -7.36027214 0.04548994 0 0 Z M-202.9375 295.1875 C-202.6075 295.8475 -202.2775 296.5075 -201.9375 297.1875 C-201.2775 296.5275 -200.6175 295.8675 -199.9375 295.1875 C-200.9275 295.1875 -201.9175 295.1875 -202.9375 295.1875 Z M-243.9375 329.1875 C-240.19158338 329.1875 -239.77464691 328.40305699 -237.125 325.875 C-233.17560396 322.24181378 -229.10105819 318.86313988 -224.875 315.5625 C-224.27373291 315.09166992 -223.67246582 314.62083984 -223.05297852 314.13574219 C-219.76370225 311.57276334 -216.43645063 309.07605827 -213.0625 306.625 C-212.03125 305.820625 -211 305.01625 -209.9375 304.1875 C-209.9375 303.5275 -209.9375 302.8675 -209.9375 302.1875 C-209.15375 301.919375 -208.37 301.65125 -207.5625 301.375 C-204.65635077 300.33935568 -204.65635077 300.33935568 -202.9375 297.1875 C-215.6478846 297.1875 -235.28631626 321.0291873 -243.9375 329.1875 Z M-244.9375 330.1875 C-245.2675 330.8475 -245.5975 331.5075 -245.9375 332.1875 C-245.2775 332.1875 -244.6175 332.1875 -243.9375 332.1875 C-244.2675 331.5275 -244.5975 330.8675 -244.9375 330.1875 Z " fill="#F9F8EE" transform="translate(1066.9375,508.8125)"/>
<path d="M0 0 C1.04027344 -0.01417969 2.08054687 -0.02835937 3.15234375 -0.04296875 C6.01296613 0.18357718 7.63920151 0.71016381 10.0625 2.1875 C10.0625 2.8475 10.0625 3.5075 10.0625 4.1875 C10.7225 4.1875 11.3825 4.1875 12.0625 4.1875 C13.4296875 5.65625 13.4296875 5.65625 14.9375 7.6875 C15.42992187 8.3371875 15.92234375 8.986875 16.4296875 9.65625 C20.33604279 15.71203523 22.91532865 22.08306838 25.0625 28.9375 C25.29710937 29.64003906 25.53171875 30.34257813 25.7734375 31.06640625 C26.62557243 33.75567079 27.35685011 36.45571017 28.0625 39.1875 C28.2332605 39.84584839 28.404021 40.50419678 28.57995605 41.18249512 C32.2515816 55.8145848 32.54763888 69.91744921 32.3125 84.9375 C32.2923727 87.20701521 32.27413312 89.47654797 32.2578125 91.74609375 C32.21438416 97.22695508 32.1479822 102.70714129 32.0625 108.1875 C32.7225 107.8575 33.3825 107.5275 34.0625 107.1875 C41.65719625 106.67527665 48.34299053 106.38951639 55.0625 110.1875 C55.784375 110.496875 56.50625 110.80625 57.25 111.125 C59.60075928 112.5030313 61.27300894 114.14236736 63.0625 116.1875 C63.0625 116.8475 63.0625 117.5075 63.0625 118.1875 C63.59617187 117.84493164 64.12984375 117.50236328 64.6796875 117.14941406 C67.13802488 115.57467459 69.60021848 114.00606452 72.0625 112.4375 C72.90167969 111.89867187 73.74085938 111.35984375 74.60546875 110.8046875 C88.16177591 102.1875 88.16177591 102.1875 93.0625 102.1875 C93.0625 101.5275 93.0625 100.8675 93.0625 100.1875 C95.43566118 99.36927267 97.8107942 98.55781293 100.1875 97.75 C100.85265625 97.51990234 101.5178125 97.28980469 102.203125 97.05273438 C109.33229818 94.64139639 116.00630354 93.98437222 123.5 93.9375 C124.32048828 93.916875 125.14097656 93.89625 125.98632812 93.875 C132.7636283 93.83172913 137.53114975 94.9504928 142.75 99.5625 C143.513125 100.42875 144.27625 101.295 145.0625 102.1875 C145.743125 102.93 146.42375 103.6725 147.125 104.4375 C152.22398499 111.67476901 153.73359798 118.22359 153.5625 127 C153.55476563 127.96180176 153.54703125 128.92360352 153.5390625 129.91455078 C153.36017337 137.2775775 152.2354044 143.47340766 149.0625 150.1875 C148.4025 150.1875 147.7425 150.1875 147.0625 150.1875 C146.918125 150.950625 146.77375 151.71375 146.625 152.5 C146.0625 155.1875 146.0625 155.1875 145.0625 158.1875 C144.4025 158.1875 143.7425 158.1875 143.0625 158.1875 C142.93875 159.239375 142.93875 159.239375 142.8125 160.3125 C141.8932079 163.83645306 140.1236446 166.21120719 138.0625 169.1875 C138.97314209 169.39842285 139.88378418 169.6093457 140.82202148 169.82666016 C162.82174487 174.95348448 183.24425215 180.00668419 203.0625 191.1875 C204.39020987 191.86529696 205.72066372 192.5381175 207.0625 193.1875 C207.0625 193.8475 207.0625 194.5075 207.0625 195.1875 C207.63484375 195.29449219 208.2071875 195.40148437 208.796875 195.51171875 C211.39462011 196.28656341 213.10589105 197.43235515 215.3125 199 C219.41883155 201.82608224 223.55881571 204.05848561 228.0625 206.1875 C228.0625 206.8475 228.0625 207.5075 228.0625 208.1875 C228.59488281 208.27 229.12726562 208.3525 229.67578125 208.4375 C245.39540819 213.3772191 262.36205839 232.77116686 271.0625 246.1875 C271.77269684 247.83608808 272.45165945 249.49957345 273.0625 251.1875 C273.7225 251.1875 274.3825 251.1875 275.0625 251.1875 C275.0625 252.1775 275.0625 253.1675 275.0625 254.1875 C275.7225 254.1875 276.3825 254.1875 277.0625 254.1875 C278.97265625 256.453125 278.97265625 256.453125 281.125 259.4375 C281.83785156 260.41203125 282.55070312 261.3865625 283.28515625 262.390625 C284.81665249 264.80062787 285.63246146 266.40878943 286.0625 269.1875 C286.7225 269.1875 287.3825 269.1875 288.0625 269.1875 C289.44148043 270.88560754 290.74209478 272.64785459 292 274.4375 C292.68964844 275.41203125 293.37929687 276.3865625 294.08984375 277.390625 C295.06630859 278.77507812 295.06630859 278.77507812 296.0625 280.1875 C296.64128906 280.92484375 297.22007812 281.6621875 297.81640625 282.421875 C299.0625 284.1875 299.0625 284.1875 299.0625 286.1875 C299.7225 286.1875 300.3825 286.1875 301.0625 286.1875 C302.09685556 287.83306566 303.09013513 289.5045608 304.0625 291.1875 C304.784375 292.05375 305.50625 292.92 306.25 293.8125 C308.0625 296.1875 308.0625 296.1875 308.0625 299.1875 C308.7225 299.1875 309.3825 299.1875 310.0625 299.1875 C312.10419485 302.09298882 313.0625 303.58892046 313.0625 307.1875 C313.7225 307.1875 314.3825 307.1875 315.0625 307.1875 C315.3925 308.8375 315.7225 310.4875 316.0625 312.1875 C316.7225 312.1875 317.3825 312.1875 318.0625 312.1875 C331.70408995 338.46484838 333.76579864 367.94714988 336.7565918 396.87524414 C336.8366748 397.64761414 336.91675781 398.41998413 336.99926758 399.21575928 C337.14848801 400.66230722 337.2959932 402.10903361 337.44140625 403.55596924 C337.84322182 407.46332485 338.37414702 411.32034424 339.0625 415.1875 C339.79210938 415.23648437 340.52171875 415.28546875 341.2734375 415.3359375 C344.18110556 415.54414089 347.08630667 415.77296443 349.99121094 416.01660156 C351.40549232 416.13329145 352.82024476 416.24437343 354.23535156 416.35058594 C366.44204696 417.29201735 377.68207494 419.09704572 388.0625 426.1875 C388.0625 426.8475 388.0625 427.5075 388.0625 428.1875 C388.62324219 428.42855469 389.18398437 428.66960937 389.76171875 428.91796875 C392.53693007 430.4492823 394.56281351 432.33346305 396.875 434.5 C399.76890705 437.17260827 402.5584521 439.62624564 405.875 441.75 C412.40657135 446.25294213 415.11410642 453.78360441 417.0625 461.1875 C417.26875 461.950625 417.475 462.71375 417.6875 463.5 C419.90703452 473.36459789 421.90396534 488.17803912 417 497.4375 C415.6328125 499.35546875 415.6328125 499.35546875 414.0625 501.1875 C413.46179687 501.94675781 412.86109375 502.70601562 412.2421875 503.48828125 C410.58448485 505.49625162 408.97462729 507.41986596 407.0625 509.1875 C406.4025 509.1875 405.7425 509.1875 405.0625 509.1875 C404.80855469 509.77660156 404.55460937 510.36570312 404.29296875 510.97265625 C399.93078405 518.82458871 390.96766466 521.71248216 382.84765625 524.125 C381.59855469 524.475625 380.34945312 524.82625 379.0625 525.1875 C377.96808594 525.496875 376.87367188 525.80625 375.74609375 526.125 C357.56920015 530.95360009 338.95237494 530.78522588 321.0625 525.1875 C318.33642081 524.6186187 315.86167248 524.37727441 313.0625 524.1875 C312.34578125 524.1359375 311.6290625 524.084375 310.890625 524.03125 C299.73451995 523.59375568 289.18103924 525.69930862 280.0625 532.1875 C279.0725 532.1875 278.0825 532.1875 277.0625 532.1875 C277.0625 532.8475 277.0625 533.5075 277.0625 534.1875 C275.64921871 535.00587442 274.23171654 535.81696219 272.8125 536.625 C272.02359375 537.07746094 271.2346875 537.52992188 270.421875 537.99609375 C268.27416532 539.08061602 266.41044939 539.71898716 264.0625 540.1875 C264.0625 540.8475 264.0625 541.5075 264.0625 542.1875 C261.15701118 544.22919485 259.66107954 545.1875 256.0625 545.1875 C256.0625 545.8475 256.0625 546.5075 256.0625 547.1875 C245.43576717 553.0021274 227.09548889 557.09427803 215.17407227 553.64038086 C211.85476556 552.55130892 208.57076196 551.36959596 205.28222656 550.19140625 C202.27550031 549.11592726 199.26295698 548.05788267 196.25 547 C195.24646484 546.63197266 194.24292969 546.26394531 193.20898438 545.88476562 C177.58074566 540.47460463 160.99546507 543.19799553 145.890625 549.1640625 C143.0625 550.1875 143.0625 550.1875 140.0625 550.1875 C139.91554688 551.34378906 139.91554688 551.34378906 139.765625 552.5234375 C139.61609375 553.52632812 139.4665625 554.52921875 139.3125 555.5625 C139.17328125 556.56023438 139.0340625 557.55796875 138.890625 558.5859375 C138.0625 561.1875 138.0625 561.1875 136.05078125 562.4140625 C135.06658203 562.79691406 135.06658203 562.79691406 134.0625 563.1875 C133.36312468 564.50397119 132.69520867 565.83772151 132.0625 567.1875 C129.0625 569.1875 129.0625 569.1875 126.75 569.0625 C123.4093329 567.97484094 120.93634049 566.18669339 118.0625 564.1875 C104.36759841 559.6225328 89.23726754 565.37144014 76.0625 569.1875 C64.88994101 572.35553292 64.88994101 572.35553292 59.1875 573.1875 C55.15499858 573.86340223 52.5145664 574.95380997 49.0625 577.1875 C46.25 577.375 46.25 577.375 44.0625 577.1875 C42.31400329 581.4914919 40.6854639 585.83500591 39.0625 590.1875 C38.4025 590.1875 37.7425 590.1875 37.0625 590.1875 C36.959375 590.950625 36.85625 591.71375 36.75 592.5 C36.18787186 595.51505092 35.45557676 598.25408734 34.57421875 601.1796875 C32.93982207 607.13275211 32.39640477 612.84626231 32.1875 619 C32.14850586 620.04446289 32.10951172 621.08892578 32.06933594 622.16503906 C31.83612685 631.69118758 31.94232048 641.41693499 38.0625 649.1875 C38.0625 649.8475 38.0625 650.5075 38.0625 651.1875 C38.619375 651.36925781 39.17625 651.55101562 39.75 651.73828125 C40.8946875 652.11533203 40.8946875 652.11533203 42.0625 652.5 C42.89652344 652.77070312 43.73054688 653.04140625 44.58984375 653.3203125 C47.0625 654.1875 47.0625 654.1875 50.625 655.875 C57.46292759 658.42892476 66.78158976 658.70405564 73.67578125 656.26171875 C79.60651212 652.58618353 84.45434401 647.00434352 89.265625 641.9921875 C93.4869039 637.75911732 97.53767985 634.70125007 102.9375 632.125 C103.92492188 631.63902344 104.91234375 631.15304687 105.9296875 630.65234375 C117.11058766 626.2409134 129.05102182 625.65162345 140.91577148 625.68652344 C143.25952179 625.68750398 145.60007086 625.64551289 147.94335938 625.6015625 C157.33119225 625.53038358 164.61258272 626.63794151 173.0625 631.1875 C173.0625 631.8475 173.0625 632.5075 173.0625 633.1875 C173.8875 633.249375 174.7125 633.31125 175.5625 633.375 C179.35599921 634.25563375 181.57009834 635.65166258 184.76171875 637.77734375 C188.97282805 640.35834622 193.53550197 642.23190343 198.0625 644.1875 C198.0625 644.8475 198.0625 645.5075 198.0625 646.1875 C198.65417969 646.30867188 199.24585938 646.42984375 199.85546875 646.5546875 C200.64566406 646.72226563 201.43585937 646.88984375 202.25 647.0625 C203.02730469 647.22492187 203.80460937 647.38734375 204.60546875 647.5546875 C207.0625 648.1875 207.0625 648.1875 209.31640625 649.23046875 C225.44070436 654.84988986 244.2566579 647.40689406 258.79785156 640.5703125 C264.77903123 637.57832715 270.08925994 633.83102923 275.33056641 629.69287109 C279.78822791 626.1875 279.78822791 626.1875 283.0625 626.1875 C283.0625 625.5275 283.0625 624.8675 283.0625 624.1875 C284.83005526 623.34723604 286.60167263 622.51551278 288.375 621.6875 C289.36113281 621.2234375 290.34726563 620.759375 291.36328125 620.28125 C294.0625 619.1875 294.0625 619.1875 297.0625 619.1875 C297.0625 618.5275 297.0625 617.8675 297.0625 617.1875 C298.41379647 616.70029787 299.76874316 616.22321816 301.125 615.75 C301.87910156 615.48316406 302.63320312 615.21632813 303.41015625 614.94140625 C310.75110175 612.85480466 318.28776814 612.93750297 325.85864258 612.89233398 C327.85977122 612.87513092 329.86061177 612.8312212 331.86132812 612.78710938 C339.85014731 612.735208 345.93544397 613.54893279 353.0625 617.1875 C354.54081376 617.87683206 356.01985518 618.56460843 357.5 619.25 C360.17202316 620.5497524 362.12747581 621.9092605 364.0625 624.1875 C364.0625 624.8475 364.0625 625.5075 364.0625 626.1875 C364.67665771 626.4450708 365.29081543 626.7026416 365.92358398 626.96801758 C369.11475421 628.78743263 369.91977228 630.80357152 371.28173828 634.14208984 C372.82960957 640.17965909 372.61036923 646.39484382 372.52905273 652.58813477 C372.50018552 654.98459844 372.5084529 657.37882854 372.52148438 659.77539062 C372.50736088 668.64528905 371.81289324 676.66599591 369.0625 685.1875 C368.4025 685.1875 367.7425 685.1875 367.0625 685.1875 C366.959375 686.074375 366.85625 686.96125 366.75 687.875 C366.04534093 691.2701755 365.1070434 693.40692098 363.0625 696.1875 C362.4025 696.1875 361.7425 696.1875 361.0625 696.1875 C360.99933594 696.73921875 360.93617188 697.2909375 360.87109375 697.859375 C359.71291122 701.19404547 357.62971585 702.97950051 355.125 705.4375 C354.22910156 706.32953125 353.33320312 707.2215625 352.41015625 708.140625 C350.0625 710.1875 350.0625 710.1875 348.0625 710.1875 C347.71638672 711.05181641 347.71638672 711.05181641 347.36328125 711.93359375 C345.73391254 714.75685425 343.81804127 716.25177898 341.25 718.25 C339.97189453 719.25740234 339.97189453 719.25740234 338.66796875 720.28515625 C331.95367043 725.1875 331.95367043 725.1875 328.0625 725.1875 C328.0625 725.8475 328.0625 726.5075 328.0625 727.1875 C325.15649739 728.44414978 323.26645416 729.1875 320.0625 729.1875 C320.0625 729.8475 320.0625 730.5075 320.0625 731.1875 C318.62695975 731.69309908 317.1889798 732.1917749 315.75 732.6875 C314.94949219 732.9659375 314.14898438 733.244375 313.32421875 733.53125 C311.0625 734.1875 311.0625 734.1875 308.0625 734.1875 C308.0625 734.8475 308.0625 735.5075 308.0625 736.1875 C280.46575551 745.74366187 253.11579783 753.74540356 224.3359375 759.015625 C220.40886443 759.7361669 216.50198153 760.50646826 212.6015625 761.359375 C164.39501354 771.81509432 110.05104556 780.51354132 60.6015625 776.70703125 C53.3421586 776.16533504 46.09450746 775.95798611 38.81988525 775.79989624 C0.12530169 774.92025379 -33.3696879 769.98285526 -69.9375 757.1875 C-70.75303345 756.9027179 -71.56856689 756.61793579 -72.40881348 756.32452393 C-79.61984665 753.80638817 -86.82959981 751.28467258 -94.02734375 748.72875977 C-114.03373095 741.51101769 -114.03373095 741.51101769 -134.4375 735.5625 C-135.21754395 735.35923096 -135.99758789 735.15596191 -136.80126953 734.9465332 C-140.65068209 733.9587989 -144.5018715 733.05142496 -148.3984375 732.26953125 C-159.52258805 730.03190061 -169.74316529 726.52061032 -180.25878906 722.26953125 C-182.96652657 721.17577509 -185.68128398 720.10137849 -188.3984375 719.03125 C-197.81557908 715.30815427 -207.10278262 711.39840379 -216.3125 707.1875 C-221.41919544 704.90982345 -226.66460487 703.04040521 -231.9375 701.1875 C-231.9375 700.5275 -231.9375 699.8675 -231.9375 699.1875 C-232.99517578 699.03474609 -232.99517578 699.03474609 -234.07421875 698.87890625 C-237.34809645 698.08835188 -239.82334467 696.78226266 -242.75 695.125 C-243.72582031 694.57714844 -244.70164062 694.02929688 -245.70703125 693.46484375 C-246.81111328 692.83255859 -246.81111328 692.83255859 -247.9375 692.1875 C-247.9375 691.5275 -247.9375 690.8675 -247.9375 690.1875 C-248.63875 690.084375 -249.34 689.98125 -250.0625 689.875 C-253.32887647 689.09390997 -255.9846852 687.76691257 -258.9375 686.1875 C-258.9375 685.5275 -258.9375 684.8675 -258.9375 684.1875 C-259.63488281 684.08695313 -260.33226562 683.98640625 -261.05078125 683.8828125 C-273.60279858 680.85945785 -285.20735364 671.03160087 -294.4921875 662.4453125 C-296.82947287 660.2872439 -299.21850963 658.20518659 -301.625 656.125 C-305.07475304 653.06726435 -308.08336105 649.83436163 -311.0625 646.32421875 C-315.9729971 640.7282981 -321.31923861 635.49690954 -327 630.6875 C-331.73926302 626.62665909 -336.06886856 622.08597546 -339.9375 617.1875 C-339.9375 616.5275 -339.9375 615.8675 -339.9375 615.1875 C-340.5975 615.1875 -341.2575 615.1875 -341.9375 615.1875 C-343.57970655 612.77754706 -345.08776599 610.38435209 -346.5625 607.875 C-346.98273437 607.18470703 -347.40296875 606.49441406 -347.8359375 605.78320312 C-350.9375 600.57197392 -350.9375 600.57197392 -350.9375 597.1875 C-351.5975 597.1875 -352.2575 597.1875 -352.9375 597.1875 C-355.79288841 591.01411836 -358.30517559 584.74406024 -360.7109375 578.3828125 C-361.77733345 575.60474917 -362.90756056 572.86687912 -364.0625 570.125 C-372.58454848 548.59741568 -372.50425642 524.96402371 -371.9375 502.1875 C-371.92203125 501.38086914 -371.9065625 500.57423828 -371.890625 499.74316406 C-371.44025578 479.76741277 -367.34491223 460.04775708 -360.9375 441.1875 C-360.64407715 440.31125977 -360.3506543 439.43501953 -360.04833984 438.53222656 C-355.70862006 425.62231565 -351.09483822 413.7020327 -343.9375 402.0625 C-342.89518019 400.35196032 -341.85350102 398.64103009 -340.8125 396.9296875 C-340.3179834 396.11862549 -339.8234668 395.30756348 -339.31396484 394.47192383 C-338.11123883 392.47584236 -336.93927434 390.46803616 -335.7890625 388.44140625 C-334.02228901 385.33650684 -332.20091423 382.28227748 -330.3125 379.25 C-329.72210937 378.29222656 -329.13171875 377.33445312 -328.5234375 376.34765625 C-328.00007812 375.63480469 -327.47671875 374.92195313 -326.9375 374.1875 C-326.2775 374.1875 -325.6175 374.1875 -324.9375 374.1875 C-324.83308594 373.62546875 -324.72867188 373.0634375 -324.62109375 372.484375 C-323.81136765 369.76369529 -322.57546662 367.79492193 -321 365.4375 C-320.47535156 364.63828125 -319.95070313 363.8390625 -319.41015625 363.015625 C-318.92417969 362.41234375 -318.43820312 361.8090625 -317.9375 361.1875 C-317.2775 361.1875 -316.6175 361.1875 -315.9375 361.1875 C-315.68484375 360.46046875 -315.4321875 359.7334375 -315.171875 358.984375 C-313.84270361 355.97270818 -312.31281214 353.94632711 -310.1875 351.4375 C-309.38183594 350.4784375 -308.57617188 349.519375 -307.74609375 348.53125 C-307.29862793 348.00144531 -306.85116211 347.47164062 -306.39013672 346.92578125 C-304.81379333 345.03946782 -303.26660684 343.13165769 -301.72265625 341.21875 C-294.32121229 332.07492018 -286.59639252 323.36795 -278.49462891 314.84179688 C-275.53479802 311.6972666 -272.67149267 308.46762014 -269.8046875 305.23828125 C-267.901359 303.14780539 -266.01979226 301.10130803 -263.9375 299.1875 C-263.2775 299.1875 -262.6175 299.1875 -261.9375 299.1875 C-261.6075 298.1975 -261.2775 297.2075 -260.9375 296.1875 C-259.3359375 294.57421875 -259.3359375 294.57421875 -257.3125 292.875 C-256.59578125 292.26914062 -255.8790625 291.66328125 -255.140625 291.0390625 C-254.05007813 290.12253906 -254.05007813 290.12253906 -252.9375 289.1875 C-252.27234375 288.59710937 -251.6071875 288.00671875 -250.921875 287.3984375 C-250.30828125 286.85445312 -249.6946875 286.31046875 -249.0625 285.75 C-248.50820313 285.25628906 -247.95390625 284.76257813 -247.3828125 284.25390625 C-245.9375 283.1875 -245.9375 283.1875 -243.9375 283.1875 C-243.9375 282.5275 -243.9375 281.8675 -243.9375 281.1875 C-241.76586196 279.40821673 -239.5924407 277.75579092 -237.3125 276.125 C-236.63316406 275.63330322 -235.95382812 275.14160645 -235.25390625 274.63500977 C-229.78981315 270.71624633 -224.19154652 267.04637687 -218.5078125 263.45703125 C-214.56985823 260.96798852 -210.68835651 258.39687654 -206.8125 255.8125 C-206.18472656 255.39540771 -205.55695313 254.97831543 -204.91015625 254.54858398 C-202.44035799 252.8996977 -200.01761303 251.25142294 -197.6953125 249.3984375 C-195.9375 248.1875 -195.9375 248.1875 -192.9375 248.1875 C-192.9375 247.5275 -192.9375 246.8675 -192.9375 246.1875 C-190.03201118 244.14580515 -188.53607954 243.1875 -184.9375 243.1875 C-184.9375 242.5275 -184.9375 241.8675 -184.9375 241.1875 C-182.953125 239.77734375 -182.953125 239.77734375 -180.1875 238.125 C-174.62294862 234.70399176 -169.51610035 230.91777518 -164.37109375 226.91015625 C-161.9375 225.1875 -161.9375 225.1875 -159.9375 225.1875 C-159.9375 224.5275 -159.9375 223.8675 -159.9375 223.1875 C-158.91398438 222.60484375 -157.89046875 222.0221875 -156.8359375 221.421875 C-154.47589451 220.074294 -152.12934399 218.71022672 -149.7890625 217.328125 C-142.59263934 213.11133467 -135.30367095 209.34736695 -127.71142578 205.88964844 C-124.73055691 204.52821769 -121.92495409 203.17977005 -119.12890625 201.45703125 C-116.9375 200.1875 -116.9375 200.1875 -113.9375 200.1875 C-113.9375 199.5275 -113.9375 198.8675 -113.9375 198.1875 C-107.01188344 194.6719586 -100.07567323 191.2518673 -92.9375 188.1875 C-93.081875 187.32511719 -93.22625 186.46273437 -93.375 185.57421875 C-96.64029253 164.10038522 -97.12100647 135.84075916 -83.9375 117.1875 C-83.2775 117.1875 -82.6175 117.1875 -81.9375 117.1875 C-81.83566406 116.59839844 -81.73382812 116.00929688 -81.62890625 115.40234375 C-79.78721431 109.50268651 -73.21824467 105.30142985 -68.0859375 102.3125 C-53.6927419 94.77569939 -37.65256699 93.27683817 -21.9375 97.1875 C-20.25894232 97.82363389 -18.58818128 98.48218197 -16.9375 99.1875 C-16.9375 99.8475 -16.9375 100.5075 -16.9375 101.1875 C-16.380625 101.27 -15.82375 101.3525 -15.25 101.4375 C-12.20072081 102.42645541 -10.28560037 104.03507466 -7.9375 106.1875 C-7.9375 106.8475 -7.9375 107.5075 -7.9375 108.1875 C-7.339375 108.435 -6.74125 108.6825 -6.125 108.9375 C-3.62123081 110.36822525 -2.45677612 111.7566582 -0.9375 114.1875 C-0.9375 114.8475 -0.9375 115.5075 -0.9375 116.1875 C-0.2775 116.1875 0.3825 116.1875 1.0625 116.1875 C0.90185059 115.68565186 0.74120117 115.18380371 0.57568359 114.66674805 C-0.12311346 111.29078035 -0.1133083 107.95233279 -0.1484375 104.51953125 C-0.17656777 102.9693916 -0.20523239 101.41926157 -0.234375 99.86914062 C-0.27509107 97.45647107 -0.3120106 95.04396899 -0.33886719 92.63110352 C-0.54388822 75.63379977 -3.1739202 60.3604135 -8.4375 44.1875 C-8.82808594 42.95644531 -9.21867187 41.72539063 -9.62109375 40.45703125 C-11.25357255 35.32873927 -12.92379495 30.22108467 -14.69921875 25.140625 C-16.58224073 19.51368165 -16.65875299 14.13808042 -15.25 8.375 C-11.32424383 1.83207305 -7.36027214 0.04548994 0 0 Z M74.47265625 152.51171875 C70.16343976 157.118693 67.22784333 162.1402323 64.484375 167.8046875 C62.30720141 171.45324764 60.04919071 172.8586031 56.0625 174.1875 C50.39570603 174.74878245 45.88292231 174.51588683 41.0625 171.1875 C34.86010907 162.84635357 36.78898072 151.89808448 38.0625 142.1875 C32.71503593 142.68796779 28.54887516 144.0406177 23.8125 146.625 C23.16498779 146.97771973 22.51747559 147.33043945 21.8503418 147.69384766 C12.89360535 152.77378773 4.91145542 158.72413789 1.84375 168.9609375 C0.50988274 172.76245918 -1.30896576 174.78752367 -4.6875 176.9375 C-9.81493404 178.90959002 -13.42611825 178.67421616 -18.625 177 C-22.89725836 174.6623492 -24.80983054 172.16092155 -27.1875 168 C-28.56814247 162.82259074 -28.6337452 157.27623561 -26.9375 152.1875 C-26.33831402 145.1226793 -26.96168201 137.26816281 -30.9375 131.1875 C-35.2375856 128.32077627 -38.8914439 128.60329669 -43.9375 129.1875 C-49.13278693 130.62745354 -53.61542216 132.84255777 -56.8828125 137.29296875 C-62.214173 146.86967188 -64.28537004 157.42720485 -64.1875 168.25 C-64.19523437 169.10916016 -64.20296875 169.96832031 -64.2109375 170.85351562 C-64.19520153 176.00311316 -63.76462922 180.35282818 -61.9375 185.1875 C-60.30814759 186.56618281 -58.64000393 187.90024093 -56.9375 189.1875 C-54.16387952 193.30010967 -53.27931169 196.98761446 -53.4609375 201.875 C-54.35617131 206.21908539 -56.76593553 209.18508564 -59.9375 212.1875 C-64.19530639 214.85906479 -66.9816687 215.22504393 -71.8125 214.75 C-79.90672376 214.56379999 -85.81924411 219.38842792 -92.38867188 223.58691406 C-97.14581885 226.57425655 -102.0177983 229.36696688 -106.875 232.1875 C-107.90286621 232.78965332 -108.93073242 233.39180664 -109.98974609 234.01220703 C-115.29794524 237.11433578 -120.63657845 240.12375566 -126.06176758 243.015625 C-135.97811651 248.3261767 -144.81335428 254.73495559 -153.75244141 261.54052734 C-156.91516412 263.9244075 -160.13937141 266.21658754 -163.375 268.5 C-168.84847608 272.37198634 -174.20002469 276.38286745 -179.51171875 280.47265625 C-181.9375 282.1875 -181.9375 282.1875 -184.9375 283.1875 C-184.9375 283.8475 -184.9375 284.5075 -184.9375 285.1875 C-186.01644531 285.57228516 -186.01644531 285.57228516 -187.1171875 285.96484375 C-190.10163148 287.25865395 -192.44193437 288.83065606 -195.0625 290.75 C-197.77250053 292.73101862 -199.7413487 294.12211623 -202.9375 295.1875 C-202.9375 295.8475 -202.9375 296.5075 -202.9375 297.1875 C-203.66710937 297.45433594 -204.39671875 297.72117187 -205.1484375 297.99609375 C-217.55083517 303.29403673 -228.14149429 314.32569937 -237.875 323.4375 C-238.60920166 324.12320068 -239.34340332 324.80890137 -240.09985352 325.51538086 C-243.68173818 328.90293495 -246.90779303 332.28748844 -249.9375 336.1875 C-253.36089809 339.75633657 -256.98796177 343.03380871 -260.6875 346.3125 C-266.40499844 351.48764088 -271.19338216 357.10386654 -275.9375 363.1875 C-276.84476625 364.29794042 -277.75507403 365.40590085 -278.66796875 366.51171875 C-291.44363237 382.0595815 -302.56323297 398.60033913 -312.64599609 416.00244141 C-313.76961899 417.90346692 -314.9354929 419.75821854 -316.14453125 421.60546875 C-323.41052105 433.14219811 -326.98617954 446.2327248 -330.9375 459.1875 C-331.30149902 460.36723389 -331.30149902 460.36723389 -331.67285156 461.57080078 C-336.80523717 478.45236391 -338.50791927 495.49419614 -338.375 513.0625 C-338.37162628 513.93391632 -338.36825256 514.80533264 -338.36477661 515.70315552 C-338.25250519 535.76208634 -335.58304847 552.97744206 -326.9375 571.1875 C-326.49784912 572.13278564 -326.49784912 572.13278564 -326.04931641 573.09716797 C-319.13972151 587.8703376 -310.8300633 600.64457432 -298.36328125 611.265625 C-294.75357362 614.38048429 -291.3798918 617.69579662 -288.0390625 621.09375 C-287.5145903 621.62611267 -286.9901181 622.15847534 -286.44975281 622.70697021 C-284.27246248 624.92051337 -282.09805331 627.13669562 -279.93359375 629.36279297 C-269.42648521 640.15156798 -258.71223332 647.56067132 -245.3125 654.5625 C-242.81868971 655.87714692 -240.32721466 657.19618538 -237.8359375 658.515625 C-237.23191101 658.83479889 -236.62788452 659.15397278 -236.0055542 659.4828186 C-230.12672826 662.59759227 -224.36112384 665.8891926 -218.625 669.2578125 C-214.66131922 671.43996185 -210.49484923 673.10056908 -206.31005859 674.80859375 C-202.72005929 676.27640294 -199.1500093 677.78835879 -195.58203125 679.30859375 C-173.05213099 688.8729896 -150.7917558 696.84296179 -126.97412109 702.6875 C-99.37096588 709.46420365 -99.37096588 709.46420365 -87.90625 713.09375 C-80.72161856 715.31787095 -73.45819159 717.03116407 -66.125 718.6875 C-51.054512 722.11341614 -51.054512 722.11341614 -46.2421875 723.45703125 C-37.61732331 725.86082951 -29.3679307 726.79482196 -20.45703125 727.47875977 C4.93623916 729.45731875 4.93623916 729.45731875 12.0625 737.1875 C12.7225 738.1775 13.3825 739.1675 14.0625 740.1875 C23.51348223 743.26086961 34.46200406 742.63129535 44.3125 742.8125 C46.03507919 742.84916283 47.75765402 742.88603098 49.48022461 742.9230957 C54.67407488 743.02952595 59.86811689 743.11211661 65.0625 743.1875 C65.85239319 743.19952454 66.64228638 743.21154907 67.45611572 743.22393799 C71.84184205 743.2890136 76.22725677 743.33807035 80.61340332 743.36273193 C82.55318211 743.37456201 84.49290697 743.39440247 86.43261719 743.41455078 C93.62712598 743.42131799 100.47630828 742.82568053 107.58081055 741.70678711 C113.42420634 740.83525616 119.3040688 740.39124016 125.1875 739.875 C158.32128938 736.82559554 191.25843543 731.68561541 223.6796875 724.171875 C226.98653399 723.41242257 230.30367645 722.73292635 233.6328125 722.078125 C268.09507424 715.27347459 311.1698067 706.07304495 334.0625 677.1875 C337.16434735 672.53472897 338.19579972 668.98225664 338.16015625 663.421875 C338.15693359 662.53242187 338.15371094 661.64296875 338.15039062 660.7265625 C338.14201172 659.80617188 338.13363281 658.88578125 338.125 657.9375 C338.11823242 656.53371094 338.11823242 656.53371094 338.11132812 655.1015625 C338.09956918 652.79680959 338.08313426 650.49218773 338.0625 648.1875 C331.19010256 644.75130128 318.74940064 645.81220752 311.58642578 647.9140625 C303.004907 651.4286273 295.50257918 657.15125274 288.06152344 662.59301758 C269.04839517 676.47995137 244.66580021 684.56250879 221.1875 684.5 C219.38345703 684.52416992 219.38345703 684.52416992 217.54296875 684.54882812 C205.43039315 684.5554039 195.8357921 681.48494045 185.0625 676.1875 C184.46808105 675.89713867 183.87366211 675.60677734 183.26123047 675.30761719 C175.03139839 671.27949607 166.89400507 667.09547223 158.84667969 662.71362305 C148.04811163 656.86662979 133.81533042 658.18312846 122.10546875 661.09375 C114.95992575 663.66210949 110.3711004 668.84952905 105.1875 674.1875 C96.12299328 683.40587952 83.73014573 691.23806878 70.51953125 691.74609375 C68.30436625 691.73173499 66.08922119 691.69123184 63.875 691.625 C62.76447266 691.61919922 61.65394531 691.61339844 60.50976562 691.60742188 C43.8311891 691.36084327 26.64106604 685.62022523 14.04296875 674.38671875 C9.00907953 669.08961964 5.88508002 662.87384229 3.0625 656.1875 C2.64613281 655.23101563 2.22976563 654.27453125 1.80078125 653.2890625 C-4.94771833 634.48797945 -3.48970523 604.69645012 4.88427734 586.39111328 C6.85699977 582.23353672 8.94425602 578.14024856 11.08105469 574.06494141 C11.93585403 572.42976554 12.77049727 570.7840841 13.6015625 569.13671875 C19.07895132 558.56444034 26.59073923 545.86305276 38.26225281 541.33387756 C46.06279382 539.00842531 53.18191919 538.94503791 61.26953125 539.24609375 C62.60700791 539.27717874 63.94455469 539.30536644 65.28215027 539.33082581 C70.90690937 539.43963144 76.52994236 539.5724328 82.15209961 539.77709961 C84.94196779 539.87713436 87.73009196 539.95031864 90.52140808 539.99415588 C93.1367388 540.03630724 95.75180575 540.11785986 98.36445618 540.24351501 C101.87191202 540.27440333 104.70649133 540.21509872 108.0625 539.1875 C110.92393215 536.1714321 112.37929191 532.94346861 114.0625 529.1875 C123.79626969 519.08756969 135.95843628 515.72606545 149.0625 512.1875 C149.94679688 511.94773437 150.83109375 511.70796875 151.7421875 511.4609375 C157.7781458 509.9795851 163.86648027 509.49129572 170.0625 509.1875 C170.70783691 509.15350098 171.35317383 509.11950195 172.01806641 509.08447266 C184.50029229 508.50273656 195.21315152 510.5579699 206.90625 515.01171875 C208.15849365 515.48726196 208.15849365 515.48726196 209.43603516 515.97241211 C211.0570841 516.59782754 212.67194485 517.23962565 214.27880859 517.90063477 C222.14420479 520.99802475 228.85142526 521.15374465 236.81201172 518.20410156 C240.84039094 516.38438242 244.45328663 514.0074862 248.125 511.5625 C249.79518098 510.48435039 251.46708448 509.4088649 253.140625 508.3359375 C253.96755859 507.80452148 254.79449219 507.27310547 255.64648438 506.72558594 C277.69966798 492.68606929 301.93673201 487.42594582 328.10644531 491.68261719 C331.99961568 492.58540187 335.73384445 493.75591303 339.49609375 495.09375 C343.74852035 496.39788959 347.94762735 497.24493632 352.0625 495.1875 C354.01627733 494.86673059 355.97580758 494.58064501 357.9375 494.3125 C371.78425057 492.58812662 371.78425057 492.58812662 383.0625 485.1875 C385.37300708 481.72173939 385.2295818 480.81868041 384.8125 476.8125 C384.72484375 475.87664062 384.6371875 474.94078125 384.546875 473.9765625 C383.38056684 467.26088485 380.49791048 464.31663963 375.4375 460.0625 C374.84582031 459.53785156 374.25414062 459.01320313 373.64453125 458.47265625 C367.14821024 452.93043854 360.83757424 450.98875191 352.375 450.0625 C351.30499756 449.94249634 351.30499756 449.94249634 350.21337891 449.82006836 C343.25711315 449.09375019 336.27383946 448.82416636 329.2824707 448.70458984 C321.69576464 448.47855631 315.60348125 446.72848125 310.0625 441.1875 C306.54853487 435.54005604 306.60292666 429.84439834 306.37109375 423.296875 C306.21069721 420.31328012 305.76753092 417.49873546 305.1796875 414.5703125 C304.1276934 409.0729472 303.51818767 403.57109138 302.94921875 398.0078125 C302.85178879 397.0684082 302.75435883 396.12900391 302.65397644 395.16113281 C302.24921431 391.23943565 301.84776658 387.31757072 301.46606445 383.39355469 C300.41909263 372.71354344 299.09046348 362.24806644 296.62109375 351.79296875 C296.32485359 350.5353624 296.32485359 350.5353624 296.02262878 349.25234985 C292.2319761 334.1143296 284.19650371 321.62711593 275.0625 309.1875 C274.51255371 308.43178711 273.96260742 307.67607422 273.39599609 306.89746094 C269.32159971 301.29991496 265.20183225 295.73714091 261.0625 290.1875 C260.52415527 289.4646582 259.98581055 288.74181641 259.43115234 287.99707031 C256.44954729 283.99634211 253.45633046 280.00466152 250.44873047 276.0234375 C249.53729062 274.81631745 248.62741269 273.60801621 247.71923828 272.3984375 C242.17127011 265.01494238 236.48949553 257.83843265 230.0625 251.1875 C229.36382813 250.46304688 228.66515625 249.73859375 227.9453125 248.9921875 C220.73676794 242.03307355 212.30591264 237.02868447 203.78955078 231.85253906 C200.92920747 230.10611638 198.0870451 228.33246074 195.24609375 226.5546875 C178.96686912 216.41773129 163.81447042 209.03584565 145.35107422 203.84863281 C142.20649762 202.94021448 139.10747884 201.90220466 136 200.875 C131.96807675 199.60886194 128.27773109 198.91609166 124.0625 198.625 C117.08308614 198.11924537 117.08308614 198.11924537 114.0625 195.1875 C112.75907987 192.65330939 111.57409348 190.07688237 110.3828125 187.48828125 C108.56361097 184.3181342 106.38710671 183.53148995 103.0625 182.1875 C99.25052043 178.68459986 98.30074158 175.46619789 97.96875 170.453125 C98.182139 165.29622419 100.48389629 161.70343925 103.85546875 158.015625 C107.221268 154.14988378 109.7721492 150.00027331 112.3125 145.5625 C112.745625 144.82515625 113.17875 144.0878125 113.625 143.328125 C117.8142616 136.22031211 117.8142616 136.22031211 119.0625 128.1875 C104.43054232 128.1875 85.09108114 142.98236308 74.47265625 152.51171875 Z " fill="#3A6BA8" transform="translate(1066.9375,508.8125)"/>
<path d="M0 0 C0 0.66 0 1.32 0 2 C0.55816406 2.09152344 1.11632813 2.18304687 1.69140625 2.27734375 C8.63422822 4.45064674 14.67839964 10.8212725 18.10546875 17.08203125 C23.19340746 27.99110508 21.6352233 40.48961358 17.75 51.5625 C13.39721914 60.11260526 7.63888115 67.10717258 1 74 C0.50886719 74.52851562 0.01773437 75.05703125 -0.48828125 75.6015625 C-7.04191973 81.90388151 -17.2853341 83.41902227 -26 84 C-26.33 85.32 -26.66 86.64 -27 88 C-27.66 88 -28.32 88 -29 88 C-29.061875 88.53625 -29.12375 89.0725 -29.1875 89.625 C-30.11934776 92.34886269 -31.60471984 94.05113396 -33.55078125 96.14453125 C-35.19245975 98.14629023 -35.19245975 98.14629023 -36.8046875 101.26171875 C-39.03615843 105.25042709 -41.80190281 108.57774585 -44.8125 112 C-45.34584961 112.61230469 -45.87919922 113.22460938 -46.42871094 113.85546875 C-50.12507237 118.0708937 -53.81447083 122.25930968 -58 126 C-58.57492187 126.51820313 -59.14984375 127.03640625 -59.7421875 127.5703125 C-75.97715947 140.97595326 -99.13274637 140.56977246 -119 140 C-119.85384277 139.98453125 -120.70768555 139.9690625 -121.58740234 139.953125 C-142.59098889 139.56213328 -165.98591631 137.55410282 -181.78515625 122.2734375 C-185.25073576 118.55387935 -186.37034184 116.15306448 -187 111 C-189.41659363 110.85287578 -191.83326679 110.70730207 -194.25 110.5625 C-195.00345703 110.51665771 -195.75691406 110.47081543 -196.53320312 110.42358398 C-200.77637466 110.17074578 -205.01826047 109.95076787 -209.265625 109.78125 C-210.13799805 109.74443115 -211.01037109 109.7076123 -211.90917969 109.66967773 C-213.59186153 109.60006811 -215.27481828 109.5367189 -216.95800781 109.48071289 C-230.52405927 108.90180955 -230.52405927 108.90180955 -235.15625 105.34375 C-235.5996875 104.7353125 -236.043125 104.126875 -236.5 103.5 C-236.9640625 102.8915625 -237.428125 102.283125 -237.90625 101.65625 C-240.73737857 97.36911245 -240.60173703 93.01447524 -240 88 C-238.67744688 86.32476605 -237.34294481 84.65893182 -236 83 C-235.34772533 79.91958025 -234.937062 76.87105306 -234.58984375 73.7421875 C-233.95710726 70.80059136 -233.41197325 69.7443198 -231 68 C-230.34 68 -229.68 68 -229 68 C-228.67 67.01 -228.34 66.02 -228 65 C-225.41015625 64.0078125 -225.41015625 64.0078125 -222.0625 63.125 C-217.00127531 61.66955593 -212.61807558 59.93557339 -207.98046875 57.484375 C-203.9546095 55.47935991 -199.83297111 53.74134889 -195.6875 52 C-194.86193604 51.65026123 -194.03637207 51.30052246 -193.18579102 50.94018555 C-189.5434075 49.41273439 -185.91517472 47.93145161 -182.1640625 46.69140625 C-173.92782982 43.91719734 -167.99525882 39.99051763 -164 32 C-163.34 32 -162.68 32 -162 32 C-161.731875 31.41863281 -161.46375 30.83726562 -161.1875 30.23828125 C-157.0955899 22.52556913 -150.21645929 17.58279971 -143 13 C-142.13632813 12.43925781 -141.27265625 11.87851562 -140.3828125 11.30078125 C-138 10 -138 10 -135 10 C-135 9.34 -135 8.68 -135 8 C-132.09399739 6.74335022 -130.20395416 6 -127 6 C-127 5.34 -127 4.68 -127 4 C-116.20808966 0.44368248 -105.30595049 -2.06868852 -94.22021484 -4.5 C-85.62265963 -6.39290401 -77.18522507 -8.40159119 -68.81445312 -11.16796875 C-45.8908877 -17.94481738 -21.0581265 -8.91981777 0 0 Z " fill="#3A6BA8" transform="translate(1729,959)"/>
<path d="M0 0 C4.15851093 3.70402887 7.80385571 7.49916029 8.25 13.1875 C7.9708463 17.44459386 6.95847938 20.22811378 5 24 C4.48953125 24.44214844 3.9790625 24.88429688 3.453125 25.33984375 C1.39153302 27.69515716 1.40724975 29.73299381 1.0625 32.8125 C0.28186896 37.88050311 -0.31224628 41.22230107 -4 45 C-6.52563899 46.54797229 -9.10881503 47.90052173 -11.75 49.2421875 C-15.44198732 51.23905564 -18.85246136 53.50657164 -22.3125 55.875 C-27.17549015 59.19436059 -32.08619436 62.23565108 -37.25 65.0625 C-45.67205631 69.79813435 -52.63467146 75.74617646 -59.62963867 82.34936523 C-75.4195319 97.21617897 -97.64654502 114.64108527 -120.25 115.5625 C-128.78651598 115.13055911 -135.67345712 112.35272671 -141.46484375 106 C-148.74888396 96.51035983 -150.41099478 86.73584661 -149 75 C-147.82206266 71.26358274 -146.1973341 68.22873582 -144 65 C-143.443125 64.113125 -142.88625 63.22625 -142.3125 62.3125 C-133.67277855 53.67277855 -121.79671905 48.14821586 -110.83642578 42.97973633 C-108.59945302 41.78630749 -108.01526361 40.67411493 -106.75 38.5 C-101.85352885 31.74457083 -94.08173848 28.10131004 -87 24 C-85.23543621 22.95743883 -83.47112174 21.91445559 -81.70703125 20.87109375 C-67.78574006 12.70370306 -54.34117756 6.90160043 -38.8515625 2.42578125 C-34.84100431 1.26466625 -30.8935096 -0.03902062 -26.9375 -1.375 C-18.07357109 -4.08405244 -8.42354154 -4.36193577 0 0 Z " fill="#3B6CA8" transform="translate(1059,887)"/>
<path d="M0 0 C1.36442912 0.95713685 2.71089012 1.94360354 4 3 C3.14785123 8.67430826 0.60101782 12.60913629 -3 17 C-7.39777746 20.17049073 -12.15903856 20.60510097 -17.39453125 21.48828125 C-27.64426622 23.50134764 -33.84649748 31.421042 -39.375 39.625 C-40.31700991 41.03475306 -41.2584139 42.4449112 -42.19921875 43.85546875 C-61.29507097 72.41007585 -61.29507097 72.41007585 -74.67578125 75.078125 C-81.64596274 76.28163032 -88.59248671 76.33656727 -95.64208984 76.31567383 C-97.86475795 76.31251456 -100.08608907 76.33605566 -102.30859375 76.36132812 C-114.66171231 76.4162488 -125.86147637 74.65847196 -137 69 C-137.66 68.67 -138.32 68.34 -139 68 C-139.66235873 66.2501003 -140.25643075 64.47402037 -140.8125 62.6875 C-142.42583693 58.06857612 -143.65246154 55.54490056 -148 53 C-149.3921875 52.13375 -149.3921875 52.13375 -150.8125 51.25 C-151.8953125 50.63125 -151.8953125 50.63125 -153 50 C-152.67 49.01 -152.34 48.02 -152 47 C-149.4583932 45.94247829 -146.98315581 45.04253357 -144.375 44.1875 C-133.39917257 40.27785694 -128.30930929 34.48662707 -121.4296875 25.21875 C-107.55503691 6.76933503 -86.01554728 1.55100091 -64.25 -2.5 C-59.03533744 -3.47108356 -54.27504143 -4.88540692 -49.3125 -6.6875 C-33.0881034 -12.23573925 -15.14304005 -7.15648856 0 0 Z " fill="#F8F7EE" transform="translate(1712,989)"/>
<path d="M0 0 C5.66612352 3.35342004 8.40071911 6.46032455 10.0625 12.8125 C12.23782087 29.54702574 8.47722929 41.63529422 -1.625 54.875 C-2.47191406 55.88046875 -2.47191406 55.88046875 -3.3359375 56.90625 C-4.94568367 58.82224057 -6.34563271 60.80540609 -7.75 62.875 C-8.471875 63.844375 -9.19375 64.81375 -9.9375 65.8125 C-10.5975 65.8125 -11.2575 65.8125 -11.9375 65.8125 C-12.164375 66.410625 -12.39125 67.00875 -12.625 67.625 C-14.33438802 70.47398003 -15.97278177 71.3373096 -18.9375 72.8125 C-21.70825195 73.15307617 -21.70825195 73.15307617 -24.67578125 73.10546875 C-25.74248047 73.09580078 -26.80917969 73.08613281 -27.90820312 73.07617188 C-29.01099609 73.05103516 -30.11378906 73.02589844 -31.25 73 C-32.37212891 72.98646484 -33.49425781 72.97292969 -34.65039062 72.95898438 C-37.41325229 72.9237138 -40.17512829 72.87442235 -42.9375 72.8125 C-43.05351563 73.58207031 -43.16953125 74.35164063 -43.2890625 75.14453125 C-44.43109752 79.84338619 -48.05516843 82.22427895 -51.9375 84.8125 C-55.22265625 84.97265625 -55.22265625 84.97265625 -59 84.875 C-63.63311036 84.56338802 -63.63311036 84.56338802 -67.9375 85.8125 C-79.61354344 86.36850207 -90.19591166 83.39367066 -101.1875 79.6875 C-102.31929687 79.33429688 -103.45109375 78.98109375 -104.6171875 78.6171875 C-112.58269284 75.93092809 -118.09306233 72.50137534 -121.9375 64.8125 C-122.06112239 62.54417291 -122.11310648 60.27166213 -122.125 58 C-122.13917969 56.77667969 -122.15335938 55.55335938 -122.16796875 54.29296875 C-121.85140543 49.51232614 -120.75825286 46.82085351 -117.75 43.125 C-111.15363848 37.70132497 -103.20420165 38.50730202 -95.0625 38.5625 C-93.92941406 38.55476563 -92.79632812 38.54703125 -91.62890625 38.5390625 C-76.87885995 38.57324569 -65.22104502 42.10974148 -53.9375 51.8125 C-53.60878906 50.92691406 -53.28007813 50.04132813 -52.94140625 49.12890625 C-46.39825808 31.9234595 -38.27912786 14.91221822 -23.9375 2.8125 C-23.2775 2.8125 -22.6175 2.8125 -21.9375 2.8125 C-21.9375 2.1525 -21.9375 1.4925 -21.9375 0.8125 C-15.36304116 -2.10948171 -6.78626302 -2.61925941 0 0 Z " fill="#396AA8" transform="translate(1100.9375,431.1875)"/>
<path d="M0 0 C2.56729362 0.63224395 5.01554207 0.746023 7.65625 0.890625 C15.73923884 1.46927297 23.65485776 2.77706985 31.63867188 4.1171875 C34.05258324 4.508944 36.46916445 4.8614587 38.890625 5.203125 C54.15313759 7.41418361 68.25779707 12.02032116 78.59375 24.265625 C83.57624896 31.60977087 85.36007047 41.78390365 84.09375 50.515625 C82.74331728 55.63826644 80.44661509 58.6862483 75.96875 61.515625 C67.95594838 66.11164706 57.26942451 63.09233127 48.78125 61.390625 C47.07110718 61.05285034 47.07110718 61.05285034 45.32641602 60.70825195 C35.68716523 58.74595908 26.27551139 56.28948081 16.88476562 53.37207031 C13.77063988 52.41647609 10.64382967 51.50995546 7.515625 50.6015625 C5.27030197 49.92885435 3.02550114 49.25440054 0.78125 48.578125 C-0.26297119 48.27865967 -1.30719238 47.97919434 -2.38305664 47.6706543 C-11.13671729 44.96046135 -17.77808166 40.56527562 -22.40625 32.453125 C-25.66920463 25.94514406 -26.19448441 19.65244363 -24.90625 12.515625 C-22.37190556 6.93834318 -18.17208198 3.44108721 -12.90625 0.515625 C-8.74336818 -0.87200227 -4.27430663 -1.08609431 0 0 Z " fill="#3C6CA8" transform="translate(1256.90625,860.484375)"/>
<path d="M0 0 C0.66 0.33 1.32 0.66 2 1 C-1.96 4.96 -5.92 8.92 -10 13 C-10 8.41771462 -7.08388033 6.1816619 -4 3 C-1.625 1.0625 -1.625 1.0625 0 0 Z " fill="#D9E0E2" transform="translate(1602,1002)"/>
<path d="M0 0 C0.33 0 0.66 0 1 0 C1.66 5.28 2.32 10.56 3 16 C-0.08625383 12.91374617 -0.39899847 12.56526744 -0.75 8.5625 C-0.82734375 7.80066406 -0.9046875 7.03882813 -0.984375 6.25390625 C-1.00011551 3.98333821 -0.65133656 2.1661875 0 0 Z " fill="#5F86B5" transform="translate(1165,673)"/>
</svg>
