<?xml version="1.0" encoding="UTF-8"?>
<svg version="1.1" xmlns="http://www.w3.org/2000/svg" width="2224" height="1668">
<path d="M0 0 C4.50665768 2.13473258 7.1741532 4.91822129 10 9 C11.94281177 14.82843531 12.02550267 21.23544561 9.8828125 27.01171875 C8.67334387 29.40673996 7.41259998 31.71966002 6 34 C9.15864784 34.20306923 9.15864784 34.20306923 12.375 32.5 C18.31826031 30.16909307 26.228571 29.54642841 32.25 31.8671875 C34.79291905 33.51327349 36.30244716 35.51429763 38 38 C38 38.99 38 39.98 38 41 C38.66 41 39.32 41 40 41 C41.03159179 52.46213101 41.03159179 52.46213101 37.4375 57.5625 C34.33439614 61.09945013 31.47970917 62.64763497 27 64 C26.01 64 25.02 64 24 64 C24.33 64.99 24.66 65.98 25 67 C25.1447963 68.95475009 25.22067502 70.9151138 25.25 72.875 C25.27578125 73.90367187 25.3015625 74.93234375 25.328125 75.9921875 C24.8317307 80.54246862 22.96104161 83.09090659 19.6875 86.1875 C12.73072368 90.87927938 5.10419894 90.80626389 -3 90 C-11.34362472 87.98959197 -17.98200957 85.16127591 -24 79 C-30.63148416 82.11679756 -36.79965746 85.22756627 -42.4765625 89.8984375 C-44 91 -44 91 -46 91 C-46 91.66 -46 92.32 -46 93 C-47.32592773 94.20166016 -47.32592773 94.20166016 -49.18359375 95.5390625 C-49.86019043 96.03374023 -50.53678711 96.52841797 -51.23388672 97.03808594 C-51.9610791 97.56176758 -52.68827148 98.08544922 -53.4375 98.625 C-59.03215607 102.7187713 -64.36358349 106.88973567 -69.3984375 111.671875 C-71 113 -71 113 -73 113 C-73 113.66 -73 114.32 -73 115 C-74.64453125 116.5859375 -74.64453125 116.5859375 -76.8125 118.375 C-79.64479813 120.7171919 -81.89262439 122.98186585 -84 126 C-83.01 126.78375 -82.02 127.5675 -81 128.375 C-79.515 129.674375 -79.515 129.674375 -78 131 C-78 131.66 -78 132.32 -78 133 C-77.01 133.33 -76.02 133.66 -75 134 C-74.67 136.64 -74.34 139.28 -74 142 C-73.1028125 141.7834375 -72.205625 141.566875 -71.28125 141.34375 C-47.23833338 135.97880166 -47.23833338 135.97880166 -38.3125 141.0625 C-36.55078125 142.48828125 -36.55078125 142.48828125 -35 144 C-34.47792969 144.42667969 -33.95585938 144.85335937 -33.41796875 145.29296875 C-29.50136741 149.31746544 -29.53220086 154.07203138 -29.5 159.4375 C-29.58872947 165.50959679 -30.2012708 170.51915533 -33 176 C-33.66 176 -34.32 176 -35 176 C-35.103125 176.56460938 -35.20625 177.12921875 -35.3125 177.7109375 C-38.26725739 187.54893655 -48.79481614 198.18467552 -57 204 C-57.99 204 -58.98 204 -60 204 C-60 204.66 -60 205.32 -60 206 C-61.98 206.99 -61.98 206.99 -64 208 C-63.08303533 213.0849859 -61.91360643 217.45577675 -59.6875 222.125 C-57.52597704 226.66677147 -55.77789991 231.23625616 -54.1875 236 C-53.96860107 236.64727051 -53.74970215 237.29454102 -53.52416992 237.96142578 C-52.6039043 240.77151597 -52 243.02154532 -52 246 C-51.34 246 -50.68 246 -50 246 C-45.59225513 255.41002278 -45.59225513 255.41002278 -45 260 C-44.34 260 -43.68 260 -43 260 C-39.57444337 266.88026693 -37.01459694 273.79454953 -34.81689453 281.13549805 C-33.37720365 285.91213355 -31.69294794 290.50354643 -29.69921875 295.08203125 C-29 297 -29 297 -29 300 C-28.34 300 -27.68 300 -27 300 C-25.00033137 305.78209656 -23.00666021 311.56621231 -21.01855469 317.35229492 C-20.34117045 319.32096316 -19.66214159 321.28906629 -18.98144531 323.2565918 C-18.00414548 326.08235598 -17.03274961 328.91008979 -16.0625 331.73828125 C-15.75626709 332.61962234 -15.45003418 333.50096344 -15.13452148 334.40901184 C-14.85423096 335.22963608 -14.57394043 336.05026031 -14.28515625 336.89575195 C-13.91209351 337.97830009 -13.91209351 337.97830009 -13.53149414 339.0827179 C-13 341 -13 341 -13 344 C-12.34 344 -11.68 344 -11 344 C-9.91625589 346.93734861 -8.83308498 349.87490829 -7.75 352.8125 C-7.44964844 353.62654297 -7.14929687 354.44058594 -6.83984375 355.27929688 C-6.21594301 356.97179356 -5.59309681 358.66467927 -4.97119141 360.35791016 C-4.32000313 362.12944347 -3.6659985 363.8999439 -3.00927734 365.66943359 C3.24273528 382.63308559 8.2781571 399.8661015 11.92138672 417.57617188 C13.2480213 423.96374478 14.91901883 430.10064898 16.90454102 436.31323242 C17.94512568 439.81532044 18.82282583 443.31775415 19.66603088 446.87055969 C22.35350052 458.16944231 25.9103268 469.0436568 29.75857544 479.99523926 C35.77320043 497.14305962 41.50363599 514.28293341 46.16308594 531.85351562 C47.03799074 535.142831 47.94391089 538.42270738 48.8515625 541.703125 C53.20363682 557.66417392 56.32784024 573.68184573 59 590 C59.9560203 595.81288127 60.91443581 601.62536794 61.875 607.4375 C61.99866943 608.18676758 62.12233887 608.93603516 62.24975586 609.70800781 C66.12889437 633.1585927 70.12457651 656.6754506 75.95703125 679.73046875 C78.11734229 688.4278509 79.4257129 696.93247359 80.0625 705.875 C80.14483887 706.99487305 80.22717773 708.11474609 80.31201172 709.26855469 C81.13952633 721.08316919 81.62432426 732.90397708 81.91650391 744.74316406 C81.96957069 746.81307907 82.03080939 748.88281309 82.10302734 750.95214844 C82.99471109 776.81550344 78.77978655 801.65767158 66.71484375 824.65234375 C65.00543691 827.98938626 63.51350368 831.35604408 62.0625 834.8125 C59.83792382 840.10995742 57.47053842 845.31297666 55 850.5 C51.46763372 857.92109368 48.17221779 865.41791884 45 873 C44.34 873 43.68 873 43 873 C42.896875 873.515625 42.79375 874.03125 42.6875 874.5625 C41.75736134 877.86026435 40.38604488 880.86633332 39 884 C38.34 884 37.68 884 37 884 C36.88914062 884.57492187 36.77828125 885.14984375 36.6640625 885.7421875 C35.92070592 888.26959986 34.86943213 889.95927215 33.375 892.125 C32.83617187 892.91261719 32.29734375 893.70023438 31.7421875 894.51171875 C30.5856182 896.16359015 29.42419101 897.81207142 28.2578125 899.45703125 C24.69831904 904.47987202 21.37438665 909.55823868 18.26171875 914.87109375 C17.22873783 916.61404917 16.12385917 918.31421124 15 920 C14.34 920 13.68 920 13 920 C12.90976563 920.56074219 12.81953125 921.12148437 12.7265625 921.69921875 C9.33712867 932.43242587 -3.06564983 941.18688052 -11.67871094 947.81005859 C-15.2553373 950.57330004 -18.60393605 953.43534073 -21.875 956.5625 C-26.08551014 960.44263622 -30.60623855 963.52288971 -35.4375 966.5625 C-36.13665527 967.004729 -36.83581055 967.44695801 -37.55615234 967.90258789 C-42.61388161 971 -42.61388161 971 -46 971 C-46 971.66 -46 972.32 -46 973 C-48.60060504 974.34070318 -51.20504916 975.67273354 -53.8125 977 C-54.91948242 977.57234375 -54.91948242 977.57234375 -56.04882812 978.15625 C-57.11713867 978.69765625 -57.11713867 978.69765625 -58.20703125 979.25 C-58.8616333 979.58515625 -59.51623535 979.9203125 -60.19067383 980.265625 C-62 981 -62 981 -65 981 C-65 981.66 -65 982.32 -65 983 C-77.32521243 987.34525228 -88.93632281 990.24462843 -102 991 C-103.64548828 991.10634766 -103.64548828 991.10634766 -105.32421875 991.21484375 C-112.51251342 991.46001069 -116.86615413 990.11193961 -122.875 986.0625 C-125.12922482 983.87457591 -125.41820822 982.96466236 -126 980 C-126.61496338 980.06856201 -127.22992676 980.13712402 -127.86352539 980.20776367 C-136.05149064 981.04354519 -144.21057535 981.28013733 -152.4375 981.3125 C-153.15022064 981.31611542 -153.86294128 981.31973083 -154.59725952 981.32345581 C-168.30992553 981.35110654 -181.44860658 979.77995197 -194.96826172 977.43383789 C-197.9857306 977.00204193 -200.92078502 976.86362155 -203.96484375 976.75 C-211.1774407 976.20753527 -216.89884735 973.21616024 -223.25 969.9375 C-224.44404813 969.33780787 -225.63896448 968.73984153 -226.8347168 968.14355469 C-229.17619438 966.97001183 -231.51383429 965.788774 -233.84716797 964.59912109 C-236.48988292 963.25873214 -239.14282102 961.95298646 -241.81640625 960.67578125 C-253.17374186 955.22892315 -265.78615121 948.72740336 -275 940 C-275 939.34 -275 938.68 -275 938 C-275.59167969 937.74476563 -276.18335938 937.48953125 -276.79296875 937.2265625 C-279.22592458 935.87444191 -280.53495057 934.50466543 -282.3125 932.375 C-282.9209375 931.65957031 -283.529375 930.94414063 -284.15625 930.20703125 C-285.32385076 928.80937356 -286.49062203 927.41102214 -287.65625 926.01171875 C-290.86677146 922.23329845 -294.19367156 918.88224523 -297.9375 915.625 C-306.65569799 907.89451326 -312.86236345 898.55516373 -318.93603516 888.71533203 C-319.9244454 887.12180969 -320.93592404 885.54265936 -321.94921875 883.96484375 C-326.06155407 877.33693672 -328.62252349 870.86472844 -330.859375 863.4453125 C-331.97253709 860.08295303 -333.4170744 857.16184379 -335 854 C-338.9172208 844.01614897 -341.47647683 833.67234864 -343.3125 823.125 C-343.47161865 822.21177979 -343.6307373 821.29855957 -343.79467773 820.35766602 C-349.83673078 783.24409748 -346.74741088 743.6481089 -342.30072021 706.51245117 C-342.00082903 704.00692634 -341.70816057 701.50063594 -341.41650391 698.99414062 C-337.37417793 664.56684953 -330.99235977 630.67477624 -323.125 596.91796875 C-316.70546802 569.33947614 -311.18718658 541.60680824 -306.2277832 513.72827148 C-305.1904468 507.92212627 -303.97232707 502.1694558 -302.69921875 496.41015625 C-302.0787535 493.38408829 -301.55849877 490.35819067 -301.08178711 487.30664062 C-297.58310355 464.96037623 -292.28583288 442.89745349 -286.98602295 420.92218018 C-284.27282656 409.66134135 -281.7967015 398.374363 -279.48873901 387.02389526 C-274.65433784 363.29503025 -268.04729349 340.28287949 -260.81079102 317.17651367 C-258.68015451 310.3449236 -256.75757998 303.48257672 -254.9375 296.5625 C-247.85363737 269.97486137 -235.96325377 244.79832791 -224.64453125 219.796875 C-224.24564697 218.91418945 -223.8467627 218.03150391 -223.43579102 217.12207031 C-222.67423846 215.4380937 -221.91058277 213.75506574 -221.14428711 212.07324219 C-217.09846526 203.13852592 -213.55146814 194.32876111 -211.2109375 184.78125 C-207.95907306 172.01692231 -201.60573874 161.45021146 -194.75 150.3125 C-194.1319751 149.30533936 -194.1319751 149.30533936 -193.50146484 148.27783203 C-191.28775635 144.75940845 -189.05612082 141.85571945 -186 139 C-184.90681479 137.73763137 -183.82340623 136.46672927 -182.75 135.1875 C-175.6222318 127.03066972 -165.98102666 118.10274979 -155 116 C-150.30843441 115.86376579 -146.37451288 116.29819928 -142.5625 119.1875 C-138.55708677 123.58368525 -137.90235878 127.21964004 -138 133 C-137.30777344 132.74605469 -136.61554688 132.49210938 -135.90234375 132.23046875 C-126.48813411 128.91875073 -116.08276122 125.61735252 -106 126 C-105.95875 125.01 -105.9175 124.02 -105.875 123 C-104.62285769 114.4971048 -96.19200399 107.90856382 -90.375 102.1875 C-89.62476563 101.43791016 -88.87453125 100.68832031 -88.1015625 99.91601562 C-79.11383629 91 -79.11383629 91 -76 91 C-75.6596875 90.14148438 -75.6596875 90.14148438 -75.3125 89.265625 C-73.63564638 86.37105625 -71.6231523 84.82169415 -69 82.75 C-68.00742188 81.96238281 -67.01484375 81.17476563 -65.9921875 80.36328125 C-65.00476562 79.58339844 -64.01734375 78.80351562 -63 78 C-62.17757813 77.31292969 -61.35515625 76.62585938 -60.5078125 75.91796875 C-53.83666714 70.37326269 -46.20300774 64.52596707 -38.10546875 61.22851562 C-36.07007217 60.33017701 -34.61178081 59.54096635 -33 58 C-31.80037255 54.7279355 -31.61548626 51.45895935 -31.375 48 C-31.1718875 46.01467003 -30.95942769 44.03027714 -30.73828125 42.046875 C-30.57126709 40.53770508 -30.57126709 40.53770508 -30.40087891 38.99804688 C-28.90524282 27.81265638 -25.81369498 16.21901728 -21 6 C-20.34 6 -19.68 6 -19 6 C-18.62875 5.071875 -18.62875 5.071875 -18.25 4.125 C-14.63739057 -2.01643604 -6.16094602 -0.62146529 0 0 Z " fill="#F9F8EE" transform="translate(1289,393)"/>
<path d="M0 0 C4.50665768 2.13473258 7.1741532 4.91822129 10 9 C11.94281177 14.82843531 12.02550267 21.23544561 9.8828125 27.01171875 C8.67334387 29.40673996 7.41259998 31.71966002 6 34 C9.15864784 34.20306923 9.15864784 34.20306923 12.375 32.5 C18.31826031 30.16909307 26.228571 29.54642841 32.25 31.8671875 C34.79291905 33.51327349 36.30244716 35.51429763 38 38 C38 38.99 38 39.98 38 41 C38.66 41 39.32 41 40 41 C41.03159179 52.46213101 41.03159179 52.46213101 37.4375 57.5625 C34.33439614 61.09945013 31.47970917 62.64763497 27 64 C26.01 64 25.02 64 24 64 C24.33 64.99 24.66 65.98 25 67 C25.1447963 68.95475009 25.22067502 70.9151138 25.25 72.875 C25.27578125 73.90367187 25.3015625 74.93234375 25.328125 75.9921875 C24.8317307 80.54246862 22.96104161 83.09090659 19.6875 86.1875 C12.73072368 90.87927938 5.10419894 90.80626389 -3 90 C-11.34362472 87.98959197 -17.98200957 85.16127591 -24 79 C-30.63148416 82.11679756 -36.79965746 85.22756627 -42.4765625 89.8984375 C-44 91 -44 91 -46 91 C-46 91.66 -46 92.32 -46 93 C-47.32592773 94.20166016 -47.32592773 94.20166016 -49.18359375 95.5390625 C-49.86019043 96.03374023 -50.53678711 96.52841797 -51.23388672 97.03808594 C-51.9610791 97.56176758 -52.68827148 98.08544922 -53.4375 98.625 C-59.03215607 102.7187713 -64.36358349 106.88973567 -69.3984375 111.671875 C-71 113 -71 113 -73 113 C-73 113.66 -73 114.32 -73 115 C-74.64453125 116.5859375 -74.64453125 116.5859375 -76.8125 118.375 C-79.64479813 120.7171919 -81.89262439 122.98186585 -84 126 C-83.01 126.78375 -82.02 127.5675 -81 128.375 C-79.515 129.674375 -79.515 129.674375 -78 131 C-78 131.66 -78 132.32 -78 133 C-77.01 133.33 -76.02 133.66 -75 134 C-74.67 136.64 -74.34 139.28 -74 142 C-73.1028125 141.7834375 -72.205625 141.566875 -71.28125 141.34375 C-47.23833338 135.97880166 -47.23833338 135.97880166 -38.3125 141.0625 C-36.55078125 142.48828125 -36.55078125 142.48828125 -35 144 C-34.47792969 144.42667969 -33.95585938 144.85335937 -33.41796875 145.29296875 C-29.50136741 149.31746544 -29.53220086 154.07203138 -29.5 159.4375 C-29.58872947 165.50959679 -30.2012708 170.51915533 -33 176 C-33.66 176 -34.32 176 -35 176 C-35.103125 176.56460938 -35.20625 177.12921875 -35.3125 177.7109375 C-38.26725739 187.54893655 -48.79481614 198.18467552 -57 204 C-57.99 204 -58.98 204 -60 204 C-60 204.66 -60 205.32 -60 206 C-61.98 206.99 -61.98 206.99 -64 208 C-63.08303533 213.0849859 -61.91360643 217.45577675 -59.6875 222.125 C-57.52597704 226.66677147 -55.77789991 231.23625616 -54.1875 236 C-53.96860107 236.64727051 -53.74970215 237.29454102 -53.52416992 237.96142578 C-52.6039043 240.77151597 -52 243.02154532 -52 246 C-51.34 246 -50.68 246 -50 246 C-45.59225513 255.41002278 -45.59225513 255.41002278 -45 260 C-44.34 260 -43.68 260 -43 260 C-39.57444337 266.88026693 -37.01459694 273.79454953 -34.81689453 281.13549805 C-33.37720365 285.91213355 -31.69294794 290.50354643 -29.69921875 295.08203125 C-29 297 -29 297 -29 300 C-28.34 300 -27.68 300 -27 300 C-25.00033137 305.78209656 -23.00666021 311.56621231 -21.01855469 317.35229492 C-20.34117045 319.32096316 -19.66214159 321.28906629 -18.98144531 323.2565918 C-18.00414548 326.08235598 -17.03274961 328.91008979 -16.0625 331.73828125 C-15.75626709 332.61962234 -15.45003418 333.50096344 -15.13452148 334.40901184 C-14.85423096 335.22963608 -14.57394043 336.05026031 -14.28515625 336.89575195 C-13.91209351 337.97830009 -13.91209351 337.97830009 -13.53149414 339.0827179 C-13 341 -13 341 -13 344 C-12.34 344 -11.68 344 -11 344 C-9.91625589 346.93734861 -8.83308498 349.87490829 -7.75 352.8125 C-7.44964844 353.62654297 -7.14929687 354.44058594 -6.83984375 355.27929688 C-6.21594301 356.97179356 -5.59309681 358.66467927 -4.97119141 360.35791016 C-4.32000313 362.12944347 -3.6659985 363.8999439 -3.00927734 365.66943359 C3.24273528 382.63308559 8.2781571 399.8661015 11.92138672 417.57617188 C13.2480213 423.96374478 14.91901883 430.10064898 16.90454102 436.31323242 C17.94512568 439.81532044 18.82282583 443.31775415 19.66603088 446.87055969 C22.35350052 458.16944231 25.9103268 469.0436568 29.75857544 479.99523926 C35.77320043 497.14305962 41.50363599 514.28293341 46.16308594 531.85351562 C47.03799074 535.142831 47.94391089 538.42270738 48.8515625 541.703125 C53.20363682 557.66417392 56.32784024 573.68184573 59 590 C59.9560203 595.81288127 60.91443581 601.62536794 61.875 607.4375 C61.99866943 608.18676758 62.12233887 608.93603516 62.24975586 609.70800781 C66.12889437 633.1585927 70.12457651 656.6754506 75.95703125 679.73046875 C78.11734229 688.4278509 79.4257129 696.93247359 80.0625 705.875 C80.14483887 706.99487305 80.22717773 708.11474609 80.31201172 709.26855469 C81.13952633 721.08316919 81.62432426 732.90397708 81.91650391 744.74316406 C81.96957069 746.81307907 82.03080939 748.88281309 82.10302734 750.95214844 C82.99471109 776.81550344 78.77978655 801.65767158 66.71484375 824.65234375 C65.00543691 827.98938626 63.51350368 831.35604408 62.0625 834.8125 C59.83792382 840.10995742 57.47053842 845.31297666 55 850.5 C51.46763372 857.92109368 48.17221779 865.41791884 45 873 C44.34 873 43.68 873 43 873 C42.896875 873.515625 42.79375 874.03125 42.6875 874.5625 C41.75736134 877.86026435 40.38604488 880.86633332 39 884 C38.34 884 37.68 884 37 884 C36.88914062 884.57492187 36.77828125 885.14984375 36.6640625 885.7421875 C35.92070592 888.26959986 34.86943213 889.95927215 33.375 892.125 C32.83617187 892.91261719 32.29734375 893.70023438 31.7421875 894.51171875 C30.5856182 896.16359015 29.42419101 897.81207142 28.2578125 899.45703125 C24.69831904 904.47987202 21.37438665 909.55823868 18.26171875 914.87109375 C17.22873783 916.61404917 16.12385917 918.31421124 15 920 C14.34 920 13.68 920 13 920 C12.90976563 920.56074219 12.81953125 921.12148437 12.7265625 921.69921875 C9.33712867 932.43242587 -3.06564983 941.18688052 -11.67871094 947.81005859 C-15.2553373 950.57330004 -18.60393605 953.43534073 -21.875 956.5625 C-26.08551014 960.44263622 -30.60623855 963.52288971 -35.4375 966.5625 C-36.13665527 967.004729 -36.83581055 967.44695801 -37.55615234 967.90258789 C-42.61388161 971 -42.61388161 971 -46 971 C-46 971.66 -46 972.32 -46 973 C-48.60060504 974.34070318 -51.20504916 975.67273354 -53.8125 977 C-54.91948242 977.57234375 -54.91948242 977.57234375 -56.04882812 978.15625 C-57.11713867 978.69765625 -57.11713867 978.69765625 -58.20703125 979.25 C-58.8616333 979.58515625 -59.51623535 979.9203125 -60.19067383 980.265625 C-62 981 -62 981 -65 981 C-65 981.66 -65 982.32 -65 983 C-77.32521243 987.34525228 -88.93632281 990.24462843 -102 991 C-103.64548828 991.10634766 -103.64548828 991.10634766 -105.32421875 991.21484375 C-112.51251342 991.46001069 -116.86615413 990.11193961 -122.875 986.0625 C-125.12922482 983.87457591 -125.41820822 982.96466236 -126 980 C-126.61496338 980.06856201 -127.22992676 980.13712402 -127.86352539 980.20776367 C-136.05149064 981.04354519 -144.21057535 981.28013733 -152.4375 981.3125 C-153.15022064 981.31611542 -153.86294128 981.31973083 -154.59725952 981.32345581 C-168.30992553 981.35110654 -181.44860658 979.77995197 -194.96826172 977.43383789 C-197.9857306 977.00204193 -200.92078502 976.86362155 -203.96484375 976.75 C-211.1774407 976.20753527 -216.89884735 973.21616024 -223.25 969.9375 C-224.44404813 969.33780787 -225.63896448 968.73984153 -226.8347168 968.14355469 C-229.17619438 966.97001183 -231.51383429 965.788774 -233.84716797 964.59912109 C-236.48988292 963.25873214 -239.14282102 961.95298646 -241.81640625 960.67578125 C-253.17374186 955.22892315 -265.78615121 948.72740336 -275 940 C-275 939.34 -275 938.68 -275 938 C-275.59167969 937.74476563 -276.18335938 937.48953125 -276.79296875 937.2265625 C-279.22592458 935.87444191 -280.53495057 934.50466543 -282.3125 932.375 C-282.9209375 931.65957031 -283.529375 930.94414063 -284.15625 930.20703125 C-285.32385076 928.80937356 -286.49062203 927.41102214 -287.65625 926.01171875 C-290.86677146 922.23329845 -294.19367156 918.88224523 -297.9375 915.625 C-306.65569799 907.89451326 -312.86236345 898.55516373 -318.93603516 888.71533203 C-319.9244454 887.12180969 -320.93592404 885.54265936 -321.94921875 883.96484375 C-326.06155407 877.33693672 -328.62252349 870.86472844 -330.859375 863.4453125 C-331.97253709 860.08295303 -333.4170744 857.16184379 -335 854 C-338.9172208 844.01614897 -341.47647683 833.67234864 -343.3125 823.125 C-343.47161865 822.21177979 -343.6307373 821.29855957 -343.79467773 820.35766602 C-349.83673078 783.24409748 -346.74741088 743.6481089 -342.30072021 706.51245117 C-342.00082903 704.00692634 -341.70816057 701.50063594 -341.41650391 698.99414062 C-337.37417793 664.56684953 -330.99235977 630.67477624 -323.125 596.91796875 C-316.70546802 569.33947614 -311.18718658 541.60680824 -306.2277832 513.72827148 C-305.1904468 507.92212627 -303.97232707 502.1694558 -302.69921875 496.41015625 C-302.0787535 493.38408829 -301.55849877 490.35819067 -301.08178711 487.30664062 C-297.58310355 464.96037623 -292.28583288 442.89745349 -286.98602295 420.92218018 C-284.27282656 409.66134135 -281.7967015 398.374363 -279.48873901 387.02389526 C-274.65433784 363.29503025 -268.04729349 340.28287949 -260.81079102 317.17651367 C-258.68015451 310.3449236 -256.75757998 303.48257672 -254.9375 296.5625 C-247.85363737 269.97486137 -235.96325377 244.79832791 -224.64453125 219.796875 C-224.24564697 218.91418945 -223.8467627 218.03150391 -223.43579102 217.12207031 C-222.67423846 215.4380937 -221.91058277 213.75506574 -221.14428711 212.07324219 C-217.09846526 203.13852592 -213.55146814 194.32876111 -211.2109375 184.78125 C-207.95907306 172.01692231 -201.60573874 161.45021146 -194.75 150.3125 C-194.1319751 149.30533936 -194.1319751 149.30533936 -193.50146484 148.27783203 C-191.28775635 144.75940845 -189.05612082 141.85571945 -186 139 C-184.90681479 137.73763137 -183.82340623 136.46672927 -182.75 135.1875 C-175.6222318 127.03066972 -165.98102666 118.10274979 -155 116 C-150.30843441 115.86376579 -146.37451288 116.29819928 -142.5625 119.1875 C-138.55708677 123.58368525 -137.90235878 127.21964004 -138 133 C-137.30777344 132.74605469 -136.61554688 132.49210938 -135.90234375 132.23046875 C-126.48813411 128.91875073 -116.08276122 125.61735252 -106 126 C-105.95875 125.01 -105.9175 124.02 -105.875 123 C-104.62285769 114.4971048 -96.19200399 107.90856382 -90.375 102.1875 C-89.62476563 101.43791016 -88.87453125 100.68832031 -88.1015625 99.91601562 C-79.11383629 91 -79.11383629 91 -76 91 C-75.6596875 90.14148438 -75.6596875 90.14148438 -75.3125 89.265625 C-73.63564638 86.37105625 -71.6231523 84.82169415 -69 82.75 C-68.00742188 81.96238281 -67.01484375 81.17476563 -65.9921875 80.36328125 C-65.00476562 79.58339844 -64.01734375 78.80351562 -63 78 C-62.17757813 77.31292969 -61.35515625 76.62585938 -60.5078125 75.91796875 C-53.83666714 70.37326269 -46.20300774 64.52596707 -38.10546875 61.22851562 C-36.07007217 60.33017701 -34.61178081 59.54096635 -33 58 C-31.80037255 54.7279355 -31.61548626 51.45895935 -31.375 48 C-31.1718875 46.01467003 -30.95942769 44.03027714 -30.73828125 42.046875 C-30.57126709 40.53770508 -30.57126709 40.53770508 -30.40087891 38.99804688 C-28.90524282 27.81265638 -25.81369498 16.21901728 -21 6 C-20.34 6 -19.68 6 -19 6 C-18.62875 5.071875 -18.62875 5.071875 -18.25 4.125 C-14.63739057 -2.01643604 -6.16094602 -0.62146529 0 0 Z M-153 178 C-155.41827455 180.68336564 -155.41827455 180.68336564 -157 183 C-157.66 183.33 -158.32 183.66 -159 184 C-159 184.66 -159 185.32 -159 186 C-160.03060547 185.7834375 -160.03060547 185.7834375 -161.08203125 185.5625 C-162.43361328 185.2840625 -162.43361328 185.2840625 -163.8125 185 C-164.70582031 184.814375 -165.59914063 184.62875 -166.51953125 184.4375 C-169.07260693 183.91315157 -169.07260693 183.91315157 -172 184 C-174.65204099 187.30179958 -176.63828889 191.08556827 -178.75 194.75 C-179.37962646 195.83877441 -180.00925293 196.92754883 -180.65795898 198.04931641 C-188.04780535 211.17895149 -192.25206635 224.79207734 -196.0859375 239.27612305 C-197.82125408 245.71054649 -200.10924604 251.87671087 -202.48217773 258.09912109 C-204.29999485 262.92376777 -205.80200823 267.68754933 -207.0625 272.6875 C-209.48487365 282.27347436 -212.66934523 291.651121 -217.3203125 300.39453125 C-221.0436809 307.73038295 -223.3971866 315.57245142 -225.9375 323.375 C-226.47108262 324.99789204 -227.00493851 326.62069426 -227.5390625 328.2434082 C-232.3689073 342.96252541 -237.13615988 357.64000656 -240.52880859 372.76660156 C-241.85688102 378.625663 -243.53777396 384.34819252 -245.27880859 390.09594727 C-246.65461604 394.68502465 -247.75809706 399.2371986 -248.60546875 403.94921875 C-249 406 -249 406 -250 409.4375 C-250.79068921 412.2543303 -251.3402843 414.87698669 -251.8125 417.75 C-253.82881087 429.24927291 -257.22408135 440.51325077 -260.5625 451.6875 C-263.83879263 462.67113677 -266.76829532 473.66132653 -268.515625 485.00390625 C-269.03082265 488.19065302 -269.66062452 491.33840393 -270.3125 494.5 C-273.92284788 512.36939859 -276.97457059 530.3230339 -279.55273438 548.36889648 C-280.49835524 554.89757307 -281.61425116 561.35096399 -282.9375 567.8125 C-285.09507685 578.46087658 -286.38635899 589.20967085 -287.7520752 599.98104858 C-289.58508978 614.39057994 -291.87214839 628.65934934 -294.45263672 642.95556641 C-296.35737379 653.54971057 -297.74954264 664.1095831 -298.85546875 674.81640625 C-298.97535156 675.91597656 -299.09523438 677.01554687 -299.21875 678.1484375 C-299.3724707 679.62062744 -299.3724707 679.62062744 -299.52929688 681.12255859 C-300.03814478 684.23318173 -300.9900237 687.0191531 -302 690 C-302.20121627 692.07923474 -302.40171396 694.15854287 -302.59765625 696.23828125 C-303.08705504 699.59755253 -303.93877802 702.78179296 -304.8125 706.0625 C-306.6320987 713.00524066 -307.98781859 719.98732743 -309.1875 727.0625 C-309.35419189 728.01842041 -309.52088379 728.97434082 -309.69262695 729.95922852 C-311.83713038 742.99036365 -312.15674372 756.08074477 -312.16796875 769.26171875 C-312.17119687 770.66884899 -312.17456198 772.07597892 -312.17805481 773.48310852 C-312.18397579 776.40321633 -312.18590174 779.32329484 -312.18530273 782.2434082 C-312.18520073 785.95127145 -312.19892419 789.6589449 -312.21607494 793.36676311 C-312.22728002 796.26242408 -312.22921946 799.15804007 -312.22869301 802.05372047 C-312.2304154 804.07413281 -312.24118466 806.09453113 -312.25224304 808.11491394 C-312.23300261 815.94476135 -311.57486789 823.32897351 -310 831 C-309.85513657 831.70756439 -309.71027313 832.41512878 -309.5610199 833.14413452 C-306.43645466 847.48939445 -302.23625816 861.73850288 -294 874 C-293.45472656 874.88945313 -292.90945313 875.77890625 -292.34765625 876.6953125 C-286.25643056 886.61254616 -279.87119871 894.7534748 -270.61328125 901.89453125 C-267.87174108 904.10333566 -265.45406251 906.47810161 -263 909 C-257.68528783 914.46810215 -257.68528783 914.46810215 -250.6875 917 C-246.87974231 917.62285412 -244.45439542 918.78604968 -241.25 920.9375 C-228.68863126 929.31174583 -215.7916391 936.39467396 -200.87890625 939.2421875 C-193.04823526 940.77204669 -185.50346121 943.36273996 -178.07177734 946.23535156 C-162.00201543 952.1663549 -145.00435488 953.6207074 -128 953 C-126.80375 952.95794434 -125.6075 952.91588867 -124.375 952.87255859 C-123.72016129 952.84944611 -123.06532257 952.82633362 -122.39064026 952.80252075 C-121.02341371 952.7543934 -119.65617522 952.70660416 -118.28892517 952.65914917 C-114.85169504 952.53922724 -111.41509402 952.41199259 -107.97875977 952.26855469 C-106.71862061 952.21989258 -105.45848145 952.17123047 -104.16015625 952.12109375 C-103.02199463 952.0739624 -101.88383301 952.02683105 -100.71118164 951.97827148 C-98 952 -98 952 -96 953 C-91.64314865 953.4052885 -88.81098087 952.63158509 -84.8828125 950.76953125 C-83 950 -83 950 -79.0625 949.3125 C-65.8468551 946.60159848 -50.85755405 937.45132284 -41.80078125 927.74609375 C-39.72363772 925.7320305 -37.51966604 924.18469312 -35.125 922.5625 C-20.32422524 912.37582219 -11.63279761 898.51033899 -2.37402344 883.39526367 C-0.32744167 880.06477292 1.75494641 876.88046997 4.1875 873.8125 C9.62044444 866.85586859 13.40860404 858.61326045 16.859375 850.52734375 C18.05066439 847.8877402 19.35191915 845.31510845 20.67114258 842.73754883 C24.75479037 834.75172689 28.39494331 826.63380797 31.85424805 818.35839844 C33.78938169 813.74381494 35.83313952 809.23839069 38.10253906 804.77880859 C47.96242463 785.23606479 48.63850249 764.44581595 48 743 C47.94393552 740.58463715 47.887947 738.16927254 47.83203125 735.75390625 C47.29989884 715.53287475 45.16900951 697.01582968 40.640625 677.30859375 C37.74699631 664.61048912 35.39152084 651.80031949 33 639 C32.87625 638.3389325 32.7525 637.67786499 32.625 636.99676514 C31.74102952 632.27031424 30.86630695 627.54222013 30 622.8125 C29.87625 622.13703125 29.7525 621.4615625 29.625 620.765625 C28.16468414 612.76431103 26.78162896 604.75459753 25.5 596.72265625 C22.80482129 579.8660232 19.79131247 563.41457111 15 547 C14.46003581 545.09660973 13.92099549 543.19295717 13.3828125 541.2890625 C6.97769783 518.82447664 -0.02959031 496.53814645 -7.55004883 474.42333984 C-12.39244682 460.10607928 -16.28375926 445.61016368 -19.62109375 430.875 C-23.10834943 415.6277168 -27.14223229 400.70684413 -32.125 385.875 C-32.49623489 384.76560059 -32.49623489 384.76560059 -32.87496948 383.63378906 C-35.86472943 374.74519963 -39.12618785 366.00597986 -42.65625 357.31835938 C-44.33269372 353.17842058 -45.90650499 349.00795508 -47.4375 344.8125 C-47.87171265 343.63204102 -47.87171265 343.63204102 -48.31469727 342.42773438 C-49.82408294 338.3027052 -51.29539371 334.16723669 -52.71875 330.01171875 C-55.85955341 320.84582831 -59.22818398 311.89023721 -63.09399414 303.00390625 C-65.35163006 297.74644273 -67.18810817 292.46388087 -68.875 287 C-71.773025 277.73958562 -76.24431677 269.51887231 -80.89599609 261.03857422 C-84.83364994 253.7675858 -87.57864574 246.46033619 -89.89453125 238.5390625 C-91.3575058 233.85547613 -93.09870406 229.29672145 -94.89428711 224.73168945 C-96.64395233 220.21263676 -97.89964181 215.72106064 -99 211 C-100.11375 210.731875 -101.2275 210.46375 -102.375 210.1875 C-106 209 -106 209 -108 206 C-108.66 206 -109.32 206 -110 206 C-109.63452566 198.69051322 -109.63452566 198.69051322 -106.875 195.6875 C-103.68003051 193.81219182 -100.4127996 192.43696825 -97 191 C-93.4189341 188.83784701 -91.32745815 187.49118722 -89 184 C-96.24367756 186.14490043 -102.44126963 189.21877235 -109 192.9375 C-129.21011334 204.31266738 -129.21011334 204.31266738 -138 203 C-143.16102401 201.41199261 -145.50200144 198.6726781 -148.0859375 194.11328125 C-150.05896357 189.55171242 -149.36468994 186.07487561 -147.8125 181.5 C-145.82922139 177.67022062 -143.59591679 174.43783574 -141 171 C-145.40898045 171 -149.64219775 175.37569824 -153 178 Z " fill="#3A6BA8" transform="translate(1289,393)"/>
<path d="M0 0 C4.03049409 2.12931763 6.3315249 3.77368642 8 8 C8.36150744 10.05141124 8.64157053 12.11759991 8.875 14.1875 C9.44028277 18.94346773 10.09288484 23.66683085 10.91015625 28.38671875 C13.02556447 40.64280126 14.61790275 52.86944459 15.75 65.25 C15.81484589 65.94083679 15.87969177 66.63167358 15.94650269 67.34344482 C17.32005021 82.15569303 17.2568627 95.489377 14 110 C13.81824219 110.88300781 13.63648438 111.76601562 13.44921875 112.67578125 C9.24970289 129.67382164 -4.43408813 149.4436774 -19.3125 158.4375 C-24.5291243 161.10680432 -29.20052195 162.41323021 -35 161 C-38.86076546 158.1044259 -41.49267379 154.80393197 -42.36328125 149.9921875 C-42.24165447 144.92128648 -40.79151035 142.33420062 -37.08862305 138.79931641 C-30.58960425 133 -30.58960425 133 -28 133 C-27.73703125 132.4328125 -27.4740625 131.865625 -27.203125 131.28125 C-25.90978636 128.82894556 -24.39876646 126.72806278 -22.75 124.5 C-12.58588836 110.03731615 -7.7999896 94.532729 -10.48364258 76.80517578 C-11.02546279 72.81235787 -11.28360053 68.84886056 -11.46484375 64.828125 C-11.54339525 63.2604054 -11.62217867 61.69269741 -11.70117188 60.125 C-11.82022166 57.69217975 -11.93706982 55.25930459 -12.04956055 52.82617188 C-12.43680228 44.55381475 -12.89278515 36.52052469 -14.55688477 28.38769531 C-15.87344203 21.29351896 -16.89029479 11.97193844 -13.7265625 5.32421875 C-9.53814371 0.3900571 -6.27774155 -0.52314513 0 0 Z " fill="#3D6DA9" transform="translate(1174,1063)"/>
<path d="M0 0 C2.55445807 1.3355258 4.58670403 2.78221649 6.3828125 5.046875 C7.42355519 9.09420769 7.85521722 12.38232485 5.953125 16.25390625 C3.3200526 20.14401038 0.51325211 22.70639933 -3.55859375 25.03125 C-9.3169702 28.38347772 -14.96859094 31.88829896 -20.6171875 35.421875 C-21.66712891 36.07752441 -22.71707031 36.73317383 -23.79882812 37.40869141 C-29.92752203 41.24520886 -36.00933191 45.14324993 -42.0546875 49.109375 C-47.49779068 52.66709161 -53.0173463 56.03615208 -58.6796875 59.234375 C-59.3190625 59.59644043 -59.9584375 59.95850586 -60.6171875 60.33154297 C-74.58869124 68.08734871 -74.58869124 68.08734871 -82.0546875 66.234375 C-85.6180077 63.89046971 -87.64087776 61.11736971 -88.55859375 56.94140625 C-88.7556369 53.14673664 -88.55280936 51.04589323 -86.52734375 47.74609375 C-83.32905458 44.49727869 -79.89596031 42.7352155 -75.8671875 40.671875 C-67.12797538 36.00636182 -59.17235109 30.61855222 -51.18115234 24.78417969 C-40.73451726 17.17048974 -30.23609359 9.73992036 -19.0546875 3.234375 C-17.93513672 2.55375 -17.93513672 2.55375 -16.79296875 1.859375 C-11.38496555 -1.20055608 -5.9590542 -2.22048408 0 0 Z " fill="#3D6DA9" transform="translate(1126.0546875,935.765625)"/>
<path d="M0 0 C5.18911057 1.97480321 10.07724096 4.52590622 14.98388672 7.10595703 C18.34768266 8.85877582 21.74873317 10.53686008 25.14453125 12.2265625 C26.49614043 12.90485491 27.84770427 13.58323768 29.19921875 14.26171875 C31.38294049 15.3546898 33.57175172 16.42365516 35.77734375 17.47265625 C51.9032456 25.18174726 51.9032456 25.18174726 55.89453125 33.1015625 C56.47130239 36.97416873 56.08568694 38.73395541 54.26953125 42.2265625 C51.58164225 45.48032287 49.74178184 47.32042797 45.89453125 49.1015625 C37.66345337 49.6767213 31.76028509 46.26285413 25.01953125 41.9765625 C24.05208984 41.38415771 23.08464844 40.79175293 22.08789062 40.18139648 C19.3474162 38.50269464 16.62007183 36.80436125 13.89453125 35.1015625 C4.31399632 29.19828347 -5.91999913 22.98868033 -17.16796875 21.1015625 C-20.45450223 20.51402579 -21.93702833 19.65700503 -24.10546875 17.1015625 C-27.02743867 12.71860762 -27.63929741 10.43984912 -27.10546875 5.1015625 C-21.15228984 -4.89444687 -9.86398562 -3.01987542 0 0 Z " fill="#3E6EA9" transform="translate(1204.10546875,905.8984375)"/>
<path d="M0 0 C2.27256819 1.68205835 3.98431459 3.56034469 5.86328125 5.671875 C8.10886592 8.11861808 10.46733834 10.11750399 13.0625 12.1875 C18.32657266 16.41338055 23.41918139 20.81021245 28.49755859 25.25683594 C32.14498221 28.43673723 35.85162272 31.48421396 39.6875 34.4375 C43.86397923 37.77312401 47.37668248 40.65345059 48.40234375 46.16015625 C48.68940726 50.35408405 48.33693678 53.16010394 45.6875 56.5 C41.7397153 60.17235786 37.99236922 60.64359439 32.75390625 60.60546875 C27.2261841 59.39015395 23.84382366 54.89545711 20 51 C18.74255418 49.88007132 17.4761494 48.77015707 16.203125 47.66796875 C11.27331883 43.39812609 6.5550726 38.91724029 1.82421875 34.4296875 C-1.14436694 31.62761822 -4.1041511 28.87364985 -7.28125 26.30859375 C-11.55236227 22.68183032 -15.13419771 18.37724296 -16.55078125 12.8515625 C-16.80933175 8.99546643 -15.96714064 6.49891513 -13.625 3.5625 C-9.47955683 -0.48424214 -5.66238783 -1.24207217 0 0 Z " fill="#3E6EA9" transform="translate(1205,943)"/>
<path d="M0 0 C3.54100534 2.02343162 5.73505537 4.09017116 7 8 C7.78649593 12.94368873 6.38750278 16.02570811 3.69140625 20.04296875 C0.68441783 23.52218629 -3.06240715 25.70125795 -7 28 C-7.804375 28.53625 -8.60875 29.0725 -9.4375 29.625 C-11.70259366 30.84041611 -13.85101369 31.72185221 -16.25 32.625 C-21.25794981 34.58890188 -26.0327526 36.91769079 -30.8125 39.375 C-31.54178711 39.73803223 -32.27107422 40.10106445 -33.02246094 40.47509766 C-37.8946156 43.02552376 -40.61874949 45.68996793 -44 50 C-47.60572704 51.20190901 -50.2102435 51.32670315 -54 51 C-56.98356441 49.18391731 -58.61660986 48.06169578 -59.8125 44.75 C-59.874375 44.1725 -59.93625 43.595 -60 43 C-60.66 43 -61.32 43 -62 43 C-62.13687714 41.46089264 -62.23284005 39.91812705 -62.3125 38.375 C-62.37050781 37.51648438 -62.42851563 36.65796875 -62.48828125 35.7734375 C-61.59776916 30.71532885 -58.12093886 27.86080537 -54.22265625 24.8671875 C-45.99205789 19.67855318 -37.57248999 14.92710686 -28.99243164 10.33740234 C-28.10289795 9.86125488 -27.21336426 9.38510742 -26.296875 8.89453125 C-25.41990967 8.4253125 -24.54294434 7.95609375 -23.6394043 7.47265625 C-20.9286774 5.96020554 -18.31738319 4.33021778 -15.69140625 2.67578125 C-10.34436211 -0.56269561 -6.15234033 -1.17092929 0 0 Z " fill="#3E6EA9" transform="translate(1104,902)"/>
<path d="M0 0 C0 0.33 0 0.66 0 1 C-1.546875 1.2784375 -1.546875 1.2784375 -3.125 1.5625 C-7.04818543 2.73667885 -9.20013827 4.56889821 -11.77392578 7.71118164 C-14.2371386 12.3094732 -13.61004141 17.36000279 -13.375 22.4375 C-13.34792969 23.55060547 -13.32085938 24.66371094 -13.29296875 25.81054688 C-13.22262083 28.5423912 -13.12424271 31.27016464 -13 34 C-13.33 34 -13.66 34 -14 34 C-16.99709696 12.22770063 -16.99709696 12.22770063 -13.73046875 5.3125 C-9.39730681 0.25187291 -6.36776574 -0.11792159 0 0 Z " fill="#7596BD" transform="translate(1174,1063)"/>
<path d="M0 0 C0.66 0.33 1.32 0.66 2 1 C-7.88306452 9.50403226 -7.88306452 9.50403226 -14 10 C-14.66 9.34 -15.32 8.68 -16 8 C-13.37964982 6.63610475 -10.75443001 5.28367827 -8.125 3.9375 C-7.37863281 3.54755859 -6.63226562 3.15761719 -5.86328125 2.75585938 C-4.79013672 2.20961914 -4.79013672 2.20961914 -3.6953125 1.65234375 C-3.03547363 1.31195068 -2.37563477 0.97155762 -1.69580078 0.62084961 C-1.13618652 0.41596924 -0.57657227 0.21108887 0 0 Z " fill="#D7DFE2" transform="translate(1198,577)"/>
<path d="M0 0 C0.66 0.33 1.32 0.66 2 1 C0.37660195 2.70884005 -1.29319053 4.37446717 -3 6 C-3.66 6 -4.32 6 -5 6 C-5 8.31 -5 10.62 -5 13 C-5.33 13 -5.66 13 -6 13 C-6.7230444 5.89006342 -6.7230444 5.89006342 -4.6640625 3.35546875 C-3 2 -3 2 0 0 Z " fill="#7093BC" transform="translate(1185,586)"/>
</svg>
