<svg xmlns="http://www.w3.org/2000/svg" width="128" height="128" viewBox="0 0 1057 1057" shape-rendering="geometricPrecision">
<path d="M 676,663 672,662 659,668 639,672 596,693 551,729 524,759 507,782 492,811 491,837 486,844 474,848 480,865 495,892 507,905 528,918 549,925 560,927 573,925 581,928 587,935 607,937 622,934 638,927 674,900 680,899 690,901 697,891 710,861 725,802 728,777 728,751 722,723 713,703 691,675 Z" fill="#faf9ee" fill-rule="evenodd"/><path d="M 630,634 618,626 601,619 580,618 572,620 554,619 530,636 514,652 504,665 492,684 480,709 470,734 463,760 460,781 460,794 462,794 472,772 493,740 511,718 535,694 562,672 582,658 608,645 629,637 Z" fill="#faf9ee" fill-rule="evenodd"/><path d="M 479,349 459,395 442,398 428,384 436,411 455,429 454,444 357,520 305,570 253,646 224,722 224,819 232,849 245,857 246,873 259,893 287,919 337,952 435,986 520,999 578,999 672,967 735,918 775,878 813,811 831,760 836,710 833,619 819,576 784,515 744,464 705,430 668,406 635,392 591,391 555,399 543,391 527,389 519,373 508,384 493,384 483,372 Z M 553,583 568,586 597,584 613,587 634,596 691,630 712,646 736,673 754,705 761,731 764,776 759,814 747,863 730,905 718,923 706,935 695,940 680,940 645,962 620,969 590,969 569,962 551,962 533,958 504,946 485,933 467,914 446,877 433,842 426,812 425,773 428,753 438,717 455,678 474,646 498,619 533,593 Z M 413,537 423,538 430,544 432,549 432,557 430,561 425,566 420,568 413,568 408,566 401,557 401,549 403,544 Z M 507,486 516,494 519,500 519,509 516,515 501,535 476,563 474,569 468,576 461,579 456,579 449,576 444,571 440,563 441,552 446,542 437,540 431,534 428,527 431,516 437,510 444,506 481,490 497,485 Z M 605,472 611,465 640,449 649,448 658,451 663,456 665,461 665,467 662,474 655,479 655,481 671,486 686,494 692,499 699,511 697,521 690,528 677,529 656,518 633,510 616,502 604,490 602,480 Z" fill="#faf9ee" fill-rule="evenodd"/>
<path d="M 552,587 526,601 495,626 476,649 460,675 443,714 433,745 428,775 429,811 439,850 458,894 476,920 495,937 523,951 548,958 571,959 580,964 595,966 623,965 650,956 679,937 695,937 702,934 725,908 743,864 756,812 761,769 759,737 752,710 739,683 726,665 700,640 637,601 615,591 599,588 568,590 563,587 Z M 674,658 699,679 715,700 725,722 731,750 730,788 722,831 712,865 700,892 690,905 675,903 641,929 629,935 614,939 589,939 578,930 558,930 543,927 514,914 506,908 490,890 480,873 469,846 471,844 480,844 487,838 489,833 490,807 498,791 527,751 558,719 600,687 619,677 641,668 665,663 Z M 637,636 635,638 608,648 584,660 551,684 529,703 513,720 492,746 473,776 463,798 462,804 460,806 459,805 459,765 465,740 475,712 485,691 501,664 509,653 528,634 552,616 575,616 581,614 594,614 607,617 615,621 Z" fill="#256dad" fill-rule="evenodd"/><path d="M 413,541 407,545 405,549 405,557 411,564 419,565 425,562 427,559 428,548 421,541 Z" fill="#256dad" fill-rule="evenodd"/><path d="M 510,492 505,489 494,489 482,493 442,511 433,519 432,529 434,533 439,537 452,539 444,555 445,566 451,573 456,575 462,575 466,573 470,569 475,559 493,540 510,518 515,509 515,500 Z" fill="#256dad" fill-rule="evenodd"/><path d="M 607,475 606,485 608,490 613,496 625,503 658,515 678,526 688,525 695,518 695,509 693,505 685,497 670,489 650,483 647,480 649,477 656,475 661,469 660,458 652,452 642,452 623,461 615,466 Z" fill="#256dad" fill-rule="evenodd"/><path d="M 578,127 561,127 556,131 552,138 552,149 554,153 552,154 546,151 539,151 534,153 528,160 527,179 530,188 535,195 541,198 548,199 554,197 559,192 562,184 562,179 559,171 559,163 557,161 558,157 578,171 585,174 597,173 604,167 606,162 606,156 603,149 595,141 586,136 Z" fill="#256dad" fill-rule="evenodd"/><path d="M 622,92 619,86 614,81 601,76 587,76 566,81 552,88 548,93 546,103 548,110 553,115 562,118 581,111 595,110 600,112 610,112 615,110 621,103 Z" fill="#256dad" fill-rule="evenodd"/><path d="M 588,21 540,48 520,74 491,42 478,39 466,47 464,63 492,91 449,97 445,118 459,127 502,128 455,222 435,321 407,322 392,348 395,397 412,434 324,501 263,565 208,656 185,745 197,860 231,912 276,956 332,990 408,1017 548,1037 602,1031 677,1004 792,917 859,795 873,696 869,616 856,570 810,489 756,425 699,382 658,362 606,356 560,364 564,332 548,313 508,320 491,308 469,310 491,228 532,145 530,129 545,117 540,99 517,93 522,84 546,88 599,48 601,33 Z M 480,344 485,348 487,373 495,381 506,381 513,375 517,357 526,349 523,378 533,388 544,387 553,395 602,387 643,391 680,409 719,437 752,468 789,517 824,579 836,622 840,687 835,755 820,804 780,876 737,920 671,971 584,1001 512,1001 432,989 334,954 287,923 253,890 243,875 242,859 228,848 220,813 220,726 250,645 300,571 363,511 451,442 451,429 439,420 428,401 423,369 439,393 455,394 462,386 466,364 Z" fill="#256dad" fill-rule="evenodd"/>
</svg>